<?xml version="1.0" encoding="utf-8"?>
<!-- Generator: Adobe Illustrator 25.4.1, SVG Export Plug-In . SVG Version: 6.00 Build 0)  -->
<svg version="1.1" id="Calque_1" xmlns="http://www.w3.org/2000/svg" xmlns:xlink="http://www.w3.org/1999/xlink" x="0px" y="0px"
	 viewBox="0 0 30 30" style="enable-background:new 0 0 30 30;" xml:space="preserve">
<style type="text/css">
	.st0{fill:#B62A62;}
	.st1{clip-path:url(#SVGID_00000054973524057827635700000010407003127199252395_);fill:#B62A62;}
	.st2{clip-path:url(#SVGID_00000098192924348452676490000009862601731937658028_);fill:#B62A62;}
</style>
<g>
	<path class="st0" d="M19.22,11.04c0,1.16-0.27,2.33-0.84,3.35c-0.5,0.88-1.22,1.65-2.15,2.08c-0.88,0.41-1.9,0.46-2.81,0.13
		c-0.94-0.34-1.72-1.05-2.26-1.88c-0.62-0.96-0.96-2.09-1.03-3.23c-0.07-1.18,0.13-2.38,0.64-3.44c0.44-0.93,1.12-1.76,2.02-2.28
		c0.84-0.48,1.84-0.64,2.78-0.4c0.96,0.25,1.79,0.88,2.38,1.67c0.67,0.9,1.08,1.99,1.21,3.11C19.21,10.44,19.22,10.74,19.22,11.04
		c0,0.18,0.28,0.18,0.28,0c0-1.22-0.29-2.45-0.89-3.51c-0.52-0.92-1.3-1.73-2.27-2.18c-0.94-0.43-2.02-0.49-3-0.14
		c-1,0.36-1.82,1.09-2.41,1.98c-0.66,1-1.01,2.19-1.09,3.39c-0.08,1.23,0.15,2.49,0.68,3.6c0.47,0.97,1.19,1.85,2.14,2.39
		c0.9,0.51,1.96,0.67,2.96,0.42c1.03-0.26,1.9-0.93,2.53-1.76c0.72-0.94,1.13-2.08,1.27-3.24c0.04-0.31,0.06-0.62,0.06-0.94
		C19.51,10.86,19.22,10.86,19.22,11.04z"/>
	<path class="st0" d="M10.95,16.7c0.43,0.43,0.98,0.78,1.52,1.05c1.13,0.57,2.43,0.79,3.66,0.44c0.94-0.26,1.77-0.82,2.47-1.49
		c-0.05,0.01-0.09,0.02-0.14,0.04c0,0,0.01,0,0.01,0c0.03,0-0.02-0.01-0.01,0c0.03,0.01,0.06,0.03,0.1,0.04
		c0.12,0.05,0.23,0.11,0.35,0.17c0.17,0.09,0.34,0.2,0.51,0.3c0.21,0.13,0.43,0.29,0.6,0.43c0.51,0.4,0.97,0.86,1.37,1.37
		c0.49,0.62,0.89,1.32,1.17,2.06c0.36,0.93,0.54,1.91,0.58,2.9c0.01,0.14,0.01,0.28,0.01,0.42c0.01-0.03,0.03-0.07,0.04-0.1
		c-0.07,0.06-0.14,0.12-0.21,0.18c-0.04,0.03-0.08,0.06-0.12,0.1c-0.02,0.02-0.04,0.03-0.07,0.05c-0.01,0.01-0.03,0.02-0.04,0.03
		c0.03-0.02-0.01,0.01-0.02,0.01c-0.12,0.09-0.24,0.18-0.36,0.27c-0.73,0.52-1.51,0.96-2.32,1.33c-1.12,0.51-2.31,0.87-3.53,1.05
		c-1.48,0.22-2.99,0.15-4.44-0.19c-1.85-0.43-3.58-1.28-5.12-2.38c-0.22-0.16-0.44-0.32-0.65-0.48c0.02,0.04,0.05,0.08,0.07,0.12
		c-0.02-0.17-0.02-0.33-0.01-0.5c0.01-0.46,0.06-0.85,0.15-1.29c0.13-0.62,0.32-1.22,0.59-1.8c0.34-0.73,0.79-1.41,1.32-2.01
		c0.67-0.76,1.46-1.39,2.33-1.91c0.12-0.07,0.25-0.15,0.38-0.22c0.16-0.09,0.02-0.33-0.14-0.24c-0.86,0.48-1.67,1.06-2.37,1.76
		c-0.57,0.57-1.06,1.21-1.46,1.9c-0.32,0.57-0.58,1.18-0.76,1.8c-0.14,0.48-0.23,0.98-0.28,1.48c-0.03,0.29-0.04,0.58-0.03,0.87
		c0,0.05,0,0.09,0.01,0.14c0.01,0.1,0.09,0.14,0.16,0.19c0.13,0.1,0.26,0.19,0.39,0.29c0.25,0.18,0.51,0.36,0.76,0.52
		c0.94,0.61,1.95,1.13,3,1.52c0.91,0.34,1.86,0.58,2.82,0.7c0.85,0.11,1.71,0.13,2.57,0.06c0.77-0.06,1.54-0.2,2.28-0.4
		c0.67-0.18,1.32-0.42,1.95-0.7c0.53-0.23,1.05-0.5,1.54-0.79c0.38-0.22,0.74-0.46,1.09-0.72c0.21-0.16,0.42-0.32,0.62-0.49
		c0.03-0.03,0.07-0.05,0.1-0.09c0.03-0.03,0.04-0.07,0.04-0.12c0.01-0.12,0-0.25-0.01-0.37c-0.01-0.24-0.03-0.49-0.05-0.73
		c-0.09-0.85-0.29-1.69-0.62-2.48c-0.27-0.66-0.63-1.28-1.06-1.85c-0.36-0.48-0.78-0.91-1.23-1.3c-0.35-0.3-0.72-0.57-1.11-0.81
		c-0.22-0.13-0.44-0.25-0.67-0.36c-0.04-0.02-0.08-0.04-0.12-0.05c-0.05-0.02-0.1,0-0.14,0.04c-0.61,0.59-1.33,1.09-2.14,1.36
		c-0.62,0.21-1.28,0.27-1.93,0.19c-0.99-0.12-1.92-0.57-2.72-1.15c-0.11-0.08-0.22-0.17-0.34-0.27c-0.04-0.04-0.09-0.08-0.13-0.11
		C11.02,16.38,10.82,16.58,10.95,16.7z"/>
	<path class="st0" d="M19.33,15.11c0.37,0.15,0.77,0.24,1.16,0.29c0.87,0.12,1.76,0.04,2.57-0.3c0.58-0.25,1.1-0.62,1.54-1.08
		c-0.05,0.01-0.09,0.02-0.14,0.04c-0.07-0.03-0.02-0.01,0,0c0.03,0.01,0.05,0.02,0.08,0.04c0.1,0.05,0.2,0.1,0.29,0.15
		c0.15,0.08,0.29,0.17,0.43,0.26c0.18,0.12,0.35,0.25,0.5,0.37c0.95,0.77,1.71,1.77,2.17,2.9c0.36,0.88,0.54,1.82,0.58,2.77
		c0.01-0.03,0.03-0.07,0.04-0.1c-0.18,0.23-0.4,0.43-0.61,0.61c-0.56,0.48-1.2,0.88-1.87,1.19c-0.53,0.25-1.09,0.44-1.65,0.58
		c-0.18,0.04-0.1,0.32,0.07,0.27c1.27-0.32,2.48-0.89,3.49-1.72c0.24-0.2,0.47-0.41,0.68-0.64c0.03-0.03,0.06-0.07,0.09-0.1
		c0.06-0.08,0.04-0.17,0.03-0.26c-0.01-0.1-0.01-0.19-0.02-0.29c-0.02-0.18-0.04-0.36-0.06-0.53c-0.17-1.18-0.6-2.32-1.28-3.3
		c-0.49-0.71-1.11-1.33-1.81-1.84c-0.32-0.24-0.67-0.46-1.04-0.62c-0.02-0.01-0.03-0.01-0.05-0.02c-0.04-0.02-0.11,0-0.14,0.04
		c-0.69,0.73-1.6,1.21-2.6,1.33c-0.68,0.08-1.36,0.01-2.02-0.18c-0.13-0.04-0.26-0.08-0.38-0.13c-0.07-0.03-0.15,0.03-0.17,0.1
		C19.21,15.01,19.26,15.08,19.33,15.11L19.33,15.11z"/>
	<path class="st0" d="M10.53,14.78c-0.02,0.01-0.04,0.02-0.05,0.03c-0.02,0.01-0.05,0.02-0.07,0.03c-0.02,0.01-0.03,0.01-0.01,0.01
		c-0.02,0.01-0.04,0.01-0.05,0.02c-0.2,0.08-0.4,0.14-0.6,0.18c-0.68,0.15-1.41,0.13-2.09-0.04c-0.48-0.12-0.93-0.31-1.36-0.55
		c-0.26-0.15-0.51-0.31-0.75-0.49c-0.08-0.06-0.17-0.17-0.28-0.13c-0.19,0.06-0.37,0.18-0.54,0.28C4.35,14.33,4,14.59,3.69,14.88
		c-0.44,0.4-0.83,0.86-1.16,1.36c-0.42,0.64-0.74,1.34-0.95,2.08c-0.13,0.43-0.22,0.87-0.28,1.32c-0.04,0.25-0.06,0.51-0.08,0.76
		c-0.01,0.09-0.03,0.18,0.03,0.25c0.01,0.01,0.02,0.02,0.02,0.02c0.32,0.35,0.69,0.65,1.07,0.93c0.72,0.53,1.51,0.97,2.36,1.25
		c0.24,0.08,0.48,0.15,0.73,0.2c0.18,0.04,0.25-0.23,0.07-0.27c-1.43-0.31-2.77-1.09-3.83-2.1c-0.08-0.08-0.16-0.15-0.23-0.23
		c0.01,0.03,0.03,0.07,0.04,0.1c0.09-1.56,0.52-3.11,1.44-4.39c0.54-0.75,1.21-1.38,1.99-1.84c0.11-0.06,0.22-0.12,0.33-0.18
		c0.03-0.01,0.06-0.03,0.09-0.04c0.04-0.02-0.04,0.01,0,0c-0.05-0.01-0.09-0.02-0.14-0.04c0.9,0.71,1.96,1.23,3.11,1.35
		c0.66,0.07,1.35,0,1.98-0.23c0.12-0.04,0.25-0.09,0.37-0.16C10.83,14.94,10.68,14.69,10.53,14.78L10.53,14.78z"/>
	<g>
		<defs>
			<path id="SVGID_1_" d="M9.98,14.51c0,0-3.65-4.55,1.88-10L7.55,2.22L2.18,7.41l0.47,5.34l3.76,1.17l1.29,0.83L9.98,14.51z"/>
		</defs>
		<clipPath id="SVGID_00000050628129803270230150000000483246255046973086_">
			<use xlink:href="#SVGID_1_"  style="overflow:visible;"/>
		</clipPath>
		<path style="clip-path:url(#SVGID_00000050628129803270230150000000483246255046973086_);fill:#B62A62;" d="M12.62,9.08
			c0,1.02-0.24,2.04-0.74,2.93c-0.44,0.78-1.08,1.45-1.9,1.82c-0.77,0.36-1.67,0.4-2.47,0.11C6.68,13.65,6,13.03,5.52,12.3
			c-0.55-0.84-0.85-1.83-0.91-2.83C4.55,8.44,4.73,7.39,5.18,6.46c0.39-0.81,0.99-1.53,1.77-1.98C7.69,4.05,8.57,3.92,9.4,4.13
			c0.84,0.21,1.57,0.76,2.1,1.45c0.6,0.78,0.95,1.74,1.07,2.72C12.6,8.55,12.62,8.82,12.62,9.08c0,0.18,0.28,0.18,0.28,0
			c0-1.07-0.26-2.15-0.79-3.08c-0.47-0.82-1.16-1.54-2.02-1.93C9.26,3.7,8.3,3.64,7.44,3.95C6.55,4.26,5.81,4.91,5.3,5.69
			c-0.59,0.88-0.9,1.93-0.97,2.99c-0.07,1.08,0.13,2.19,0.61,3.17c0.42,0.86,1.06,1.62,1.9,2.1c0.8,0.45,1.74,0.59,2.64,0.37
			c0.91-0.23,1.68-0.81,2.25-1.54c0.64-0.83,1.01-1.84,1.14-2.87c0.03-0.27,0.05-0.54,0.05-0.82C12.9,8.9,12.62,8.9,12.62,9.08z"/>
	</g>
	<g>
		<defs>
			<path id="SVGID_00000181799816389128060060000005597249762958900893_" d="M19.31,14.74c0,0,3.45-5.01-1.88-10l4.31-2.29
				l5.37,5.18l-0.47,5.34l-3.76,1.17l-1.29,0.83L19.31,14.74z"/>
		</defs>
		<clipPath id="SVGID_00000072959450186295248850000012477807219106066860_">
			<use xlink:href="#SVGID_00000181799816389128060060000005597249762958900893_"  style="overflow:visible;"/>
		</clipPath>
		<path style="clip-path:url(#SVGID_00000072959450186295248850000012477807219106066860_);fill:#B62A62;" d="M25.38,9.08
			c0,1.02-0.24,2.04-0.74,2.93c-0.44,0.78-1.08,1.45-1.9,1.82c-0.77,0.36-1.67,0.4-2.47,0.11c-0.83-0.29-1.51-0.91-1.99-1.64
			c-0.55-0.84-0.85-1.83-0.91-2.83c-0.06-1.03,0.12-2.08,0.57-3.01c0.39-0.81,0.99-1.53,1.77-1.98c0.74-0.42,1.62-0.56,2.45-0.35
			c0.84,0.21,1.57,0.76,2.1,1.45c0.6,0.78,0.95,1.74,1.07,2.72C25.36,8.55,25.38,8.82,25.38,9.08c0,0.18,0.28,0.18,0.28,0
			c0-1.07-0.26-2.15-0.79-3.08c-0.47-0.82-1.16-1.54-2.02-1.93c-0.83-0.38-1.79-0.43-2.65-0.12c-0.89,0.32-1.62,0.96-2.14,1.74
			c-0.59,0.88-0.9,1.93-0.97,2.99c-0.07,1.08,0.13,2.19,0.61,3.17c0.42,0.86,1.06,1.62,1.9,2.1c0.8,0.45,1.74,0.59,2.64,0.37
			c0.91-0.23,1.68-0.81,2.25-1.54c0.64-0.83,1.01-1.84,1.14-2.87c0.03-0.27,0.05-0.54,0.05-0.82C25.66,8.9,25.38,8.9,25.38,9.08z"/>
	</g>
</g>
</svg>
