<?xml version="1.0" encoding="utf-8"?>
<!-- Generator: Adobe Illustrator 25.4.1, SVG Export Plug-In . SVG Version: 6.00 Build 0)  -->
<svg version="1.1" id="Calque_1" xmlns="http://www.w3.org/2000/svg" xmlns:xlink="http://www.w3.org/1999/xlink" x="0px" y="0px"
	 viewBox="0 0 30 30" style="enable-background:new 0 0 30 30;" xml:space="preserve">
<style type="text/css">
	.st0{fill:#B62A62;}
</style>
<g>
	<path class="st0" d="M17.22,18.99c-1.63-0.01-3.14-1.04-3.7-2.58c-0.57-1.56-0.09-3.33,1.18-4.39c1.27-1.06,3.14-1.2,4.56-0.34
		c1.4,0.85,2.14,2.53,1.82,4.14c-0.32,1.6-1.64,2.86-3.25,3.12C17.63,18.97,17.43,18.98,17.22,18.99c-0.19,0-0.19,0.3,0,0.29
		c1.76-0.01,3.36-1.12,3.97-2.78c0.61-1.66,0.09-3.6-1.28-4.72c-1.37-1.13-3.36-1.28-4.88-0.36c-1.52,0.92-2.3,2.73-1.96,4.47
		c0.34,1.71,1.77,3.07,3.5,3.33c0.22,0.03,0.43,0.05,0.65,0.05C17.41,19.28,17.41,18.99,17.22,18.99z"/>
	<path class="st0" d="M10.38,27.16c-1.24-0.01-2.38-0.79-2.81-1.96c-0.43-1.18-0.06-2.53,0.91-3.33c0.96-0.8,2.38-0.9,3.45-0.25
		c1.07,0.65,1.63,1.94,1.37,3.16C13.01,26.16,11.78,27.15,10.38,27.16c-0.19,0-0.19,0.3,0,0.29c1.36-0.01,2.6-0.86,3.08-2.14
		c0.48-1.29,0.08-2.79-0.98-3.67c-1.06-0.87-2.59-1-3.77-0.29c-1.18,0.71-1.8,2.11-1.53,3.46c0.26,1.32,1.36,2.38,2.69,2.59
		c0.17,0.03,0.35,0.04,0.53,0.04C10.57,27.46,10.57,27.16,10.38,27.16z"/>
	<path class="st0" d="M24.97,11.26c-1.46-0.01-2.8-0.93-3.3-2.31c-0.5-1.39-0.07-2.96,1.06-3.91c1.13-0.95,2.8-1.06,4.06-0.3
		C28.03,5.5,28.7,7,28.41,8.44c-0.29,1.43-1.46,2.55-2.89,2.78C25.33,11.25,25.15,11.26,24.97,11.26c-0.19,0-0.19,0.3,0,0.29
		c1.59-0.01,3.03-1.01,3.58-2.51c0.55-1.49,0.07-3.23-1.16-4.23C26.15,3.8,24.37,3.66,23,4.49c-1.36,0.82-2.07,2.44-1.77,4.01
		c0.3,1.53,1.58,2.77,3.12,3.01c0.2,0.03,0.4,0.05,0.61,0.05C25.16,11.56,25.16,11.26,24.97,11.26z"/>
	<path class="st0" d="M9.71,7.95C8.62,7.94,7.62,7.26,7.25,6.23C6.87,5.19,7.19,4.01,8.04,3.3c0.84-0.71,2.09-0.79,3.03-0.22
		C12,3.65,12.5,4.78,12.28,5.85C12.03,7.06,10.94,7.94,9.71,7.95c-0.19,0-0.19,0.3,0,0.29c1.22-0.01,2.33-0.78,2.75-1.93
		c0.41-1.14,0.04-2.47-0.9-3.23C10.61,2.3,9.25,2.19,8.2,2.83C7.16,3.46,6.62,4.69,6.85,5.89c0.26,1.36,1.49,2.34,2.86,2.35
		C9.9,8.24,9.9,7.95,9.71,7.95z"/>
	<path class="st0" d="M24.7,25.44c-0.69-0.01-1.33-0.44-1.56-1.1c-0.23-0.66-0.03-1.4,0.5-1.84c0.54-0.45,1.33-0.51,1.92-0.14
		c0.59,0.36,0.91,1.07,0.77,1.74C26.18,24.87,25.49,25.43,24.7,25.44c-0.19,0-0.19,0.3,0,0.29c0.82-0.01,1.56-0.52,1.84-1.29
		c0.28-0.77,0.03-1.66-0.6-2.17c-0.63-0.52-1.55-0.59-2.25-0.17c-0.7,0.42-1.06,1.25-0.91,2.06c0.17,0.91,1,1.57,1.92,1.58
		C24.89,25.73,24.89,25.44,24.7,25.44z"/>
	<path class="st0" d="M3.49,17.15c-0.96-0.01-1.84-0.61-2.16-1.51C1,14.72,1.28,13.68,2.03,13.06c0.74-0.61,1.83-0.68,2.65-0.19
		c0.82,0.49,1.26,1.48,1.07,2.41C5.53,16.36,4.58,17.14,3.49,17.15c-0.19,0-0.19,0.3,0,0.29c1.08-0.01,2.05-0.68,2.43-1.69
		c0.38-1.02,0.06-2.22-0.78-2.9c-0.84-0.69-2.05-0.79-2.99-0.22c-0.94,0.56-1.42,1.68-1.2,2.75c0.24,1.2,1.33,2.06,2.54,2.07
		C3.68,17.44,3.68,17.15,3.49,17.15z"/>
	<path class="st0" d="M22.22,10.18c-0.6,0.6-1.2,1.2-1.79,1.79c-0.09,0.09-0.17,0.17-0.26,0.26c-0.13,0.13,0.07,0.34,0.21,0.21
		c0.6-0.6,1.2-1.2,1.79-1.79c0.09-0.09,0.17-0.17,0.26-0.26C22.57,10.25,22.36,10.04,22.22,10.18L22.22,10.18z"/>
	<path class="st0" d="M14.86,11.59c-0.36-0.48-0.72-0.96-1.08-1.44c-0.57-0.76-1.15-1.53-1.72-2.29c-0.13-0.18-0.27-0.35-0.4-0.53
		c-0.11-0.15-0.37,0-0.25,0.15c0.36,0.48,0.72,0.96,1.08,1.44c0.57,0.76,1.15,1.53,1.72,2.29c0.13,0.18,0.27,0.35,0.4,0.53
		C14.72,11.89,14.97,11.74,14.86,11.59L14.86,11.59z"/>
	<path class="st0" d="M23.63,22.23c-0.42-0.45-0.83-0.9-1.25-1.35c-0.66-0.72-1.32-1.44-1.98-2.15c-0.15-0.16-0.3-0.33-0.45-0.49
		c-0.13-0.14-0.34,0.07-0.21,0.21c0.42,0.45,0.83,0.9,1.25,1.35c0.66,0.72,1.32,1.44,1.98,2.15c0.15,0.16,0.3,0.33,0.45,0.49
		C23.55,22.57,23.76,22.37,23.63,22.23L23.63,22.23z"/>
	<path class="st0" d="M14.32,17.96c-0.73,1-1.46,2-2.18,3c-0.1,0.14-0.21,0.29-0.31,0.43c-0.11,0.15,0.14,0.3,0.25,0.15
		c0.73-1,1.46-2,2.18-3c0.1-0.14,0.21-0.29,0.31-0.43C14.68,17.96,14.43,17.81,14.32,17.96L14.32,17.96z"/>
	<path class="st0" d="M13.14,14.78c-0.82,0-1.63,0-2.45,0c-1.29,0-2.58,0-3.87,0c-0.3,0-0.6,0-0.89,0c-0.19,0-0.19,0.29,0,0.29
		c0.82,0,1.63,0,2.45,0c1.29,0,2.58,0,3.87,0c0.3,0,0.6,0,0.89,0C13.33,15.08,13.33,14.78,13.14,14.78L13.14,14.78z"/>
</g>
</svg>
