<?xml version="1.0" encoding="utf-8"?>
<!-- Generator: Adobe Illustrator 25.4.1, SVG Export Plug-In . SVG Version: 6.00 Build 0)  -->
<svg version="1.1" id="Calque_1" xmlns="http://www.w3.org/2000/svg" xmlns:xlink="http://www.w3.org/1999/xlink" x="0px" y="0px"
	 viewBox="0 0 30 30" style="enable-background:new 0 0 30 30;" xml:space="preserve">
<style type="text/css">
	.st0{fill:#B62A62;}
</style>
<g>
	<path class="st0" d="M19.75,12.16c-0.65,1.34-1.87,2.32-3.33,2.63c-1.47,0.32-3.06-0.09-4.19-1.09c-1.1-0.97-1.7-2.41-1.62-3.87
		c0.08-1.5,0.89-2.92,2.15-3.75c1.23-0.81,2.78-1.02,4.18-0.55c0.19,0.06,0.37,0.14,0.54,0.22c0.14,0.07,0.27-0.14,0.12-0.21
		c-1.41-0.67-3.06-0.66-4.46,0.04c-1.42,0.71-2.44,2.09-2.71,3.65c-0.26,1.51,0.2,3.09,1.22,4.24c1.05,1.18,2.65,1.8,4.22,1.65
		c1.54-0.15,2.96-1.01,3.8-2.32c0.11-0.17,0.2-0.34,0.29-0.52C20.03,12.15,19.82,12.02,19.75,12.16L19.75,12.16z"/>
	<path class="st0" d="M4.64,18.39c0,0.74,0,1.49,0,2.23c0,1.19,0,2.37,0,3.56c0,0.27,0,0.54,0,0.81c0,0.07,0.06,0.12,0.12,0.12
		c0.67,0,1.34,0,2,0c0.35,0,0.69,0,1.04,0c0.03,0,0.07,0,0.1,0c0.05,0-0.03-0.01-0.01,0c0.04,0.02,0.08,0.03,0.12,0.05
		c1.43,0.59,2.87,1.17,4.32,1.73c0.71,0.27,1.42,0.55,2.15,0.77c0.16,0.05,0.36,0.13,0.53,0.1c0.12-0.02,0.23-0.1,0.33-0.15
		c0.48-0.28,0.94-0.61,1.4-0.93c0.69-0.49,1.37-0.99,2.05-1.5c1.43-1.06,2.85-2.14,4.27-3.23c0.43-0.33,0.85-0.65,1.27-0.98
		c0.08-0.06,0.16-0.13,0.25-0.19c0.03-0.02-0.07,0.06,0.01-0.01c0.03-0.02,0.05-0.05,0.08-0.07c0.13-0.12,0.24-0.25,0.34-0.39
		c0.29-0.42,0.42-0.94,0.25-1.43c-0.2-0.59-0.67-1.03-1.31-1.06c-0.52-0.03-1.02,0.17-1.47,0.42c-1.32,0.75-2.63,1.5-3.95,2.26
		c-0.64,0.37-1.28,0.73-1.92,1.1c-0.14,0.08-0.29,0.15-0.43,0.24c-0.04,0.03-0.06,0.06-0.09,0.1c-0.02,0.03,0.01-0.02,0,0
		c-0.01,0.02-0.01,0.03-0.02,0.05c-0.02,0.05-0.04,0.09-0.07,0.13c-0.34,0.66-0.92,1.3-1.71,1.35c-0.59,0.04-1.11-0.25-1.62-0.5
		c-0.57-0.28-1.14-0.57-1.71-0.85c-0.27-0.14-0.53-0.27-0.8-0.41c0.02,0.04,0.04,0.07,0.06,0.11c0-0.17,0.01-0.34,0.01-0.5
		c-0.06,0.04-0.12,0.07-0.18,0.11c1.14,0.53,2.28,1.06,3.42,1.6c0.44,0.2,1,0.14,1.43-0.06c0.49-0.23,0.86-0.72,0.97-1.25
		c0.1-0.47-0.03-0.93-0.33-1.3c-0.14-0.18-0.33-0.36-0.53-0.48c-0.12-0.07-0.24-0.12-0.36-0.18c-0.68-0.33-1.36-0.65-2.04-0.97
		c-0.74-0.35-1.48-0.7-2.24-1.03c-0.19-0.08-0.39-0.18-0.59-0.24c-0.18-0.05-0.39-0.01-0.57,0.01c-1.48,0.15-2.96,0.44-4.42,0.71
		c-0.04,0.01-0.07,0.01-0.11,0.02c-0.15,0.03-0.09,0.26,0.07,0.24c1.29-0.24,2.58-0.47,3.87-0.65c0.29-0.04,0.59-0.08,0.89-0.1
		c0.04,0,0.08,0,0.12,0c0.02,0,0.03,0,0.05,0c0.03,0-0.02-0.01,0.01,0c0.07,0.02,0.13,0.04,0.19,0.07c0.62,0.24,1.23,0.54,1.84,0.82
		c0.75,0.35,1.5,0.7,2.24,1.06c0.24,0.12,0.48,0.23,0.73,0.35c0.08,0.04,0.16,0.07,0.24,0.12c0.26,0.17,0.48,0.41,0.61,0.69
		c0.24,0.49,0.09,1.06-0.24,1.48c-0.28,0.34-0.69,0.53-1.12,0.56c-0.13,0.01-0.27,0-0.39-0.02c-0.03,0-0.06-0.01-0.09-0.02
		c-0.03-0.01,0.04,0.02,0,0c-0.53-0.22-1.04-0.49-1.56-0.73c-0.62-0.29-1.24-0.58-1.86-0.87c-0.04-0.02-0.07-0.03-0.11-0.05
		c-0.08-0.04-0.18,0.01-0.18,0.11c0,0.17-0.01,0.34-0.01,0.5c0,0.04,0.02,0.09,0.06,0.11c1.01,0.52,2.03,1.04,3.05,1.53
		c0.55,0.26,1.17,0.37,1.75,0.14c0.44-0.17,0.79-0.5,1.07-0.88c0.16-0.22,0.31-0.47,0.41-0.73c-0.02,0.02-0.04,0.05-0.06,0.07
		c0.83-0.47,1.66-0.95,2.49-1.42c1.19-0.68,2.38-1.36,3.57-2.04c0.21-0.12,0.42-0.25,0.64-0.35c0.35-0.15,0.76-0.25,1.14-0.18
		c0.53,0.11,0.92,0.64,0.96,1.17c0.03,0.4-0.15,0.79-0.41,1.09c-0.07,0.09-0.16,0.16-0.24,0.24c-0.05,0.05,0.02-0.01-0.03,0.02
		c0,0-0.01,0.01-0.01,0.01c-0.2,0.15-0.37,0.29-0.58,0.45c-1.02,0.79-2.04,1.57-3.07,2.35c-1.23,0.93-2.46,1.86-3.72,2.76
		c-0.46,0.33-0.93,0.66-1.4,0.97c-0.15,0.1-0.3,0.19-0.46,0.28c-0.05,0.03-0.1,0.06-0.16,0.08c-0.02,0.01,0.01,0-0.03,0.01
		c-0.02,0.01-0.06,0.01-0.01,0.01c-0.07,0-0.05,0-0.12-0.01c-0.08-0.02-0.16-0.04-0.25-0.06c-0.25-0.07-0.5-0.16-0.75-0.24
		c-0.7-0.24-1.39-0.51-2.08-0.78c-1.22-0.47-2.43-0.96-3.64-1.46C8.08,24.93,8,24.88,7.92,24.87c-0.17-0.02-0.35,0-0.52,0
		c-0.72,0-1.45,0-2.17,0c-0.16,0-0.31,0-0.47,0c0.04,0.04,0.08,0.08,0.12,0.12c0-0.74,0-1.49,0-2.23c0-1.19,0-2.37,0-3.56
		c0-0.27,0-0.54,0-0.81C4.89,18.23,4.64,18.23,4.64,18.39z"/>
	<path class="st0" d="M21.74,18.04c-0.62,0.36-1.24,0.72-1.86,1.08c-0.99,0.57-1.98,1.15-2.96,1.72c-0.23,0.13-0.46,0.27-0.68,0.4
		c0.06,0.04,0.12,0.07,0.18,0.11c0.01-0.41-0.14-0.85-0.38-1.18c-0.01,0.06-0.03,0.11-0.04,0.17c0.65-0.32,1.3-0.64,1.94-0.95
		c0.84-0.41,1.67-0.82,2.51-1.23c0.04-0.02,0.08-0.04,0.12-0.06c0.05-0.03-0.04,0.01,0.04-0.02c0.4-0.12,0.8-0.08,1.14,0.18
		c0.13,0.1,0.25-0.12,0.12-0.21c-0.4-0.3-0.98-0.38-1.44-0.16c-0.29,0.14-0.57,0.28-0.85,0.42c-0.98,0.48-1.96,0.96-2.94,1.44
		c-0.26,0.13-0.51,0.25-0.77,0.38c-0.06,0.03-0.08,0.12-0.04,0.17c0.22,0.3,0.36,0.68,0.35,1.06c0,0.09,0.11,0.15,0.18,0.11
		c0.62-0.36,1.24-0.72,1.86-1.08c0.99-0.57,1.98-1.15,2.96-1.72c0.23-0.13,0.46-0.27,0.68-0.4C21.99,18.17,21.87,17.96,21.74,18.04z
		"/>
	<path class="st0" d="M16.25,17.96c-0.46,0-0.86-0.27-1.04-0.72c-0.12-0.3-0.38-0.51-0.7-0.55c-0.32-0.04-0.63,0.09-0.83,0.35
		c-0.32,0.43-0.85,0.57-1.34,0.36c-0.49-0.21-0.76-0.68-0.68-1.21c0.05-0.32-0.08-0.63-0.33-0.83c-0.26-0.2-0.59-0.24-0.89-0.11
		c-0.49,0.21-1.02,0.07-1.34-0.35c-0.32-0.43-0.32-0.97,0.02-1.39c0.2-0.25,0.25-0.59,0.13-0.89c-0.12-0.3-0.39-0.5-0.71-0.54
		c-0.53-0.06-0.92-0.45-0.99-0.98c-0.07-0.53,0.21-1,0.71-1.19c0.3-0.12,0.51-0.38,0.55-0.7c0.04-0.32-0.09-0.63-0.35-0.83
		C8.04,8.05,7.9,7.53,8.11,7.03c0.21-0.49,0.68-0.76,1.21-0.68c0.32,0.05,0.63-0.08,0.83-0.33c0.2-0.26,0.24-0.59,0.11-0.89
		c-0.21-0.49-0.07-1.02,0.35-1.34c0.43-0.32,0.97-0.32,1.39,0.02c0.25,0.2,0.59,0.25,0.89,0.13c0.3-0.12,0.5-0.39,0.54-0.71
		c0.06-0.53,0.45-0.92,0.98-0.99c0.53-0.07,1,0.21,1.19,0.71c0.12,0.3,0.38,0.51,0.7,0.55c0.32,0.04,0.63-0.09,0.83-0.35
		c0.32-0.43,0.85-0.57,1.34-0.36C18.97,3,19.23,3.48,19.15,4c-0.05,0.32,0.08,0.63,0.33,0.83c0.26,0.2,0.59,0.24,0.89,0.11l0.1,0.22
		c-0.38,0.16-0.81,0.11-1.13-0.14c-0.33-0.25-0.49-0.65-0.42-1.06c0.08-0.5-0.24-0.82-0.53-0.95c-0.29-0.12-0.74-0.12-1.05,0.29
		c-0.25,0.33-0.64,0.5-1.06,0.44c-0.41-0.06-0.75-0.32-0.9-0.71c-0.18-0.47-0.62-0.6-0.93-0.56c-0.32,0.04-0.71,0.27-0.77,0.77
		c-0.05,0.41-0.31,0.75-0.69,0.91C12.6,4.32,12.18,4.26,11.85,4c-0.4-0.32-0.83-0.21-1.09-0.01c-0.25,0.19-0.48,0.58-0.28,1.05
		c0.16,0.38,0.11,0.81-0.14,1.13C10.09,6.5,9.69,6.66,9.28,6.6c-0.5-0.08-0.82,0.24-0.95,0.53C8.21,7.42,8.21,7.87,8.62,8.18
		c0.33,0.25,0.5,0.64,0.44,1.06C9,9.64,8.74,9.98,8.35,10.13c-0.47,0.18-0.6,0.62-0.56,0.93c0.04,0.32,0.27,0.71,0.77,0.77
		c0.41,0.05,0.75,0.31,0.91,0.69c0.16,0.38,0.1,0.81-0.16,1.13C9,14.05,9.11,14.49,9.3,14.74c0.19,0.25,0.58,0.48,1.05,0.28
		c0.38-0.16,0.81-0.11,1.13,0.14c0.33,0.25,0.49,0.65,0.42,1.06c-0.08,0.5,0.24,0.82,0.53,0.95c0.29,0.12,0.74,0.12,1.05-0.29
		c0.25-0.33,0.64-0.5,1.05-0.44c0.41,0.06,0.75,0.32,0.9,0.71c0.18,0.47,0.62,0.6,0.93,0.56c0.32-0.04,0.71-0.27,0.77-0.77
		c0.05-0.41,0.31-0.75,0.69-0.91c0.38-0.16,0.81-0.1,1.13,0.16c0.4,0.32,0.83,0.21,1.09,0.01c0.25-0.19,0.48-0.58,0.28-1.05
		c-0.16-0.38-0.11-0.81,0.14-1.13c0.25-0.33,0.65-0.49,1.06-0.42c0.5,0.08,0.82-0.24,0.95-0.53c0.12-0.29,0.12-0.74-0.29-1.05
		c-0.33-0.25-0.5-0.64-0.44-1.06c0.06-0.41,0.32-0.75,0.71-0.9c0.47-0.18,0.6-0.62,0.56-0.93c-0.04-0.32-0.27-0.71-0.77-0.77
		l0.03-0.24c0.53,0.06,0.92,0.45,0.99,0.98c0.07,0.53-0.21,1-0.71,1.19c-0.3,0.12-0.51,0.38-0.55,0.7
		c-0.04,0.32,0.09,0.63,0.35,0.83c0.43,0.32,0.57,0.85,0.36,1.34c-0.21,0.49-0.68,0.76-1.21,0.68c-0.32-0.05-0.63,0.07-0.83,0.33
		c-0.2,0.26-0.24,0.59-0.11,0.89c0.21,0.49,0.07,1.02-0.35,1.34c-0.43,0.32-0.97,0.32-1.39-0.02c-0.25-0.2-0.59-0.25-0.89-0.13
		c-0.3,0.12-0.5,0.39-0.54,0.71c-0.06,0.53-0.45,0.92-0.98,0.99C16.36,17.96,16.31,17.96,16.25,17.96z"/>
	<path class="st0" d="M12.63,9.37c0.9,0.9,1.8,1.8,2.7,2.7c0.13,0.13,0.25,0.25,0.38,0.38c0.12,0.12,0.32,0.12,0.43,0
		c0.8-0.8,1.59-1.59,2.39-2.39c1.26-1.26,2.52-2.52,3.78-3.78c0.29-0.29,0.58-0.58,0.87-0.87c0.28-0.28-0.15-0.71-0.43-0.43
		c-0.8,0.8-1.59,1.59-2.39,2.39c-1.26,1.26-2.52,2.52-3.78,3.78c-0.29,0.29-0.58,0.58-0.87,0.87c0.14,0,0.29,0,0.43,0
		c-0.9-0.9-1.8-1.8-2.7-2.7c-0.13-0.13-0.25-0.25-0.38-0.38C12.79,8.66,12.35,9.09,12.63,9.37L12.63,9.37z"/>
</g>
</svg>
