<svg xmlns="http://www.w3.org/2000/svg" xmlns:xlink="http://www.w3.org/1999/xlink" id="Calque_1" x="0px" y="0px" viewBox="0 0 50 50" style="enable-background:new 0 0 50 50;" xml:space="preserve">
<style type="text/css">
	.st0{opacity:0.9;fill-rule:evenodd;clip-rule:evenodd;fill:url(#SVGID_1_);}
	.st1{opacity:0.9;fill-rule:evenodd;clip-rule:evenodd;fill:url(#SVGID_00000072964141955314980830000007462210329522314936_);}
	.st2{fill-rule:evenodd;clip-rule:evenodd;fill:#B62961;}
</style>
<linearGradient id="SVGID_1_" gradientUnits="userSpaceOnUse" x1="29.8479" y1="34.1703" x2="19.2395" y2="15.8203">
	<stop offset="0" style="stop-color:#EE2A79"></stop>
	<stop offset="1" style="stop-color:#FAB181"></stop>
</linearGradient>
<path class="st0" d="M35.79,19.64c2.7,0.72,6.64,1.54,8.25,4.03c1.15,1.79,1.44,4.88,1.45,6.96c-0.07,3.98-3.8,5.18-6.76,6.9  c-2.25,1.31-3.23,2.18-5.14,3.9c-5.47,4.76-16.35,1.8-17.73-5.62c-0.78-4.01-2.06-5.15-6.02-5.89c-2.47-0.46-3.76-0.81-4.42-3.47  c-0.95-4.73,6.99-3.1,1.86-9.39c-6.43-7.87,3.78-5.26,6.22-7.49c2.38-2.15,4.4-3.76,7.61-2.48c1.13,0.47,4.11,1.79,4.98,2.47  c0.99,0.78,2.21,0.76,3.55,1.76c2.08,1.55,2.84,4.3,4.11,6.5C34.28,18.7,34.8,19.33,35.79,19.64L35.79,19.64z M35.88,15.54  c1.52-0.3,2.64-1.73,1.45-3.21c-0.59-0.74-0.91-0.74-1.8-0.78c-2.67-0.1-1.89,4.07,0.17,4L35.88,15.54L35.88,15.54z M29.82,9.5  c1.2,0.97,1.93-0.57,1.67-1.08C31.01,7.52,28.76,8.23,29.82,9.5L29.82,9.5z M13.81,35.02c1.74-1.74-1.16-3.65-2.25-3.17  c-0.82,0.36-1.73,0.67-1.43,1.85C10.49,35.14,12.49,36.24,13.81,35.02L13.81,35.02z M13.24,36.97c-0.28,1.2,1.07,1.68,1.57,0.67  C15.18,36.89,13.97,35.59,13.24,36.97L13.24,36.97z M38.8,41.78c0.8,0.49,1.53-0.14,1.92-0.84c0.44-0.81,0.67-0.93,1.39-1.49  c1.16-0.89-0.26-2.52-1.56-1.32c-0.19,0.17-1.83,2.09-1.94,2.29C38.3,40.96,38.34,41.37,38.8,41.78z"></path>
<linearGradient id="SVGID_00000166648711312410359800000009740329166875014074_" gradientUnits="userSpaceOnUse" x1="18.0541" y1="31.8372" x2="31.9716" y2="17.9357">
	<stop offset="0" style="stop-color:#EE2A79"></stop>
	<stop offset="1" style="stop-color:#FAB181"></stop>
</linearGradient>
<path style="opacity:0.9;fill-rule:evenodd;clip-rule:evenodd;fill:url(#SVGID_00000166648711312410359800000009740329166875014074_);" d="  M15.89,16.45c-2.79,0-6.81-0.23-9.01,1.76c-1.58,1.43-2.65,4.34-3.2,6.34c-0.96,3.86,2.33,5.99,4.74,8.41  c1.84,1.85,2.55,2.95,3.95,5.09c4.05,6.01,15.33,5.97,18.58-0.84c1.79-3.67,3.33-4.44,7.34-4.13c2.5,0.19,3.84,0.19,5.16-2.21  c2.14-4.32-5.95-4.8,0.63-9.55c8.24-5.94-2.29-6.06-4.07-8.85c-1.74-2.69-3.28-4.77-6.71-4.37c-1.21,0.16-4.43,0.66-5.45,1.1  c-1.16,0.5-2.33,0.16-3.88,0.78c-2.41,0.96-3.86,3.42-5.66,5.22C17.6,15.92,16.93,16.4,15.89,16.45L15.89,16.45z M16.87,12.46  c-1.4-0.68-2.1-2.35-0.57-3.48c0.76-0.56,1.07-0.48,1.94-0.28c2.61,0.6,0.77,4.42-1.2,3.82L16.87,12.46L16.87,12.46z M24.29,8.2  c-1.41,0.63-1.72-1.06-1.33-1.47C23.65,5.97,25.64,7.24,24.29,8.2L24.29,8.2z M33.14,36.99c-1.23-2.13,2.07-3.22,2.99-2.48  c0.7,0.56,1.5,1.09,0.91,2.16C36.32,37.97,34.11,38.51,33.14,36.99L33.14,36.99z M33.19,39.02c-0.04,1.23-1.47,1.34-1.69,0.24  C31.34,38.44,32.84,37.5,33.19,39.02L33.19,39.02z M7.26,37.05c-0.9,0.27-1.44-0.53-1.63-1.31c-0.22-0.9-0.4-1.07-0.96-1.8  c-0.89-1.16,0.9-2.37,1.85-0.87c0.14,0.21,1.23,2.49,1.28,2.71C7.95,36.39,7.81,36.77,7.26,37.05z"></path>
<g>
	<path class="st2" d="M13.98,19.37c-3.63,0.97-5.97,1.64-7.4,3.05c-1.43,1.4-2.01,3.57-2.15,7.55c-0.12,3.2,2.11,4.43,5.06,6.05   c1.99,1.1,4.31,2.37,6.48,4.55c1.23,1.23,2.89,1.99,4.7,2.31c1.83,0.32,3.82,0.2,5.69-0.34c1.86-0.54,3.6-1.49,4.93-2.82   c1.22-1.22,2.1-2.75,2.42-4.58c0.87-4.91,3.59-5.4,6.09-5.85c1.97-0.35,3.79-0.68,4.32-3.34c0.38-1.89-0.77-2.72-1.84-3.49   c-1.61-1.16-3.06-2.21,0.02-5.98c2.33-2.85,2.42-4.25,1.52-4.99c-0.77-0.63-2.26-0.84-3.74-1.05c-1.58-0.23-3.16-0.45-3.98-1.2   c-1.18-1.06-2.27-1.99-3.44-2.49c-1.16-0.49-2.42-0.57-3.98,0.04l-0.01,0c-0.68,0.29-2.03,0.87-3.18,1.44   c-0.75,0.37-1.41,0.74-1.75,1c-0.49,0.39-1.03,0.58-1.6,0.79c-0.61,0.22-1.27,0.46-1.95,0.97c-1.44,1.07-2.24,2.76-3.04,4.43   c-0.33,0.69-0.65,1.38-1.03,2.02l0,0c-0.27,0.45-0.54,0.84-0.87,1.16C14.92,18.95,14.52,19.2,13.98,19.37L13.98,19.37L13.98,19.37   L13.98,19.37z M6.32,22.16c1.5-1.47,3.87-2.15,7.57-3.14l0,0c0.46-0.15,0.82-0.37,1.12-0.66c0.31-0.29,0.56-0.66,0.81-1.08   c0.36-0.63,0.69-1.31,1.01-1.99c0.81-1.71,1.63-3.44,3.15-4.57c0.73-0.54,1.41-0.79,2.04-1.02c0.55-0.2,1.06-0.38,1.5-0.73   c0.35-0.28,1.04-0.66,1.81-1.04c1.16-0.58,2.52-1.17,3.2-1.46l0.01-0.01c1.66-0.66,3.01-0.57,4.26-0.04   c1.23,0.52,2.34,1.47,3.55,2.56l0,0c0.73,0.67,2.25,0.89,3.78,1.1c1.53,0.22,3.07,0.44,3.92,1.13c1.08,0.88,1.04,2.44-1.46,5.51   c-2.83,3.47-1.53,4.41-0.09,5.45c1.17,0.84,2.41,1.74,1.99,3.86c-0.58,2.9-2.52,3.25-4.62,3.63c-2.38,0.43-4.96,0.89-5.79,5.55   c-0.34,1.91-1.25,3.51-2.53,4.78c-1.38,1.38-3.17,2.36-5.09,2.91c-1.92,0.55-3.97,0.68-5.86,0.35c-1.89-0.33-3.61-1.13-4.9-2.42   c-2.13-2.13-4.42-3.4-6.4-4.48c-3.06-1.69-5.37-2.96-5.25-6.39C4.21,25.87,4.81,23.63,6.32,22.16z"></path>
	<path class="st2" d="M13.63,18.78c-3.28,0.88-5.38,1.48-6.68,2.75c-1.29,1.26-1.81,3.22-1.94,6.81c-0.1,2.89,1.9,3.99,4.56,5.46   c1.8,0.99,3.89,2.14,5.84,4.1c1.11,1.11,2.61,1.8,4.24,2.09c1.65,0.29,3.45,0.18,5.13-0.3c1.68-0.49,3.25-1.34,4.45-2.54   c1.1-1.1,1.89-2.48,2.18-4.13c0.78-4.43,3.24-4.87,5.49-5.27c1.77-0.32,3.42-0.62,3.9-3.01c0.34-1.7-0.69-2.45-1.66-3.15   c-1.45-1.04-2.76-1.99,0.02-5.4c2.1-2.57,2.18-3.83,1.37-4.5c-0.69-0.57-2.03-0.76-3.37-0.95c-1.43-0.2-2.85-0.41-3.59-1.08   c-1.06-0.96-2.04-1.8-3.11-2.25c-1.05-0.44-2.19-0.52-3.59,0.04l-0.01,0c-0.62,0.26-1.83,0.79-2.87,1.3   c-0.68,0.34-1.28,0.66-1.58,0.9c-0.45,0.35-0.93,0.53-1.45,0.71c-0.55,0.2-1.14,0.41-1.75,0.87c-1.3,0.97-2.02,2.49-2.74,3.99   c-0.3,0.62-0.59,1.24-0.93,1.82l0,0c-0.24,0.41-0.48,0.76-0.79,1.05C14.47,18.4,14.11,18.63,13.63,18.78L13.63,18.78L13.63,18.78   L13.63,18.78z M6.71,21.29c1.36-1.33,3.49-1.94,6.82-2.83l0,0c0.42-0.13,0.74-0.33,1.01-0.59c0.28-0.26,0.5-0.59,0.73-0.98   c0.33-0.57,0.62-1.18,0.91-1.8c0.73-1.54,1.47-3.1,2.84-4.12c0.66-0.49,1.27-0.71,1.84-0.92c0.49-0.18,0.95-0.35,1.36-0.66   c0.32-0.25,0.94-0.59,1.64-0.94c1.05-0.52,2.27-1.05,2.89-1.31l0.01-0.01c1.5-0.59,2.72-0.51,3.84-0.03   c1.11,0.47,2.11,1.33,3.2,2.31l0,0c0.66,0.6,2.03,0.8,3.41,0.99c1.38,0.2,2.77,0.4,3.54,1.02c0.97,0.79,0.94,2.2-1.32,4.97   c-2.55,3.13-1.38,3.98-0.08,4.91c1.05,0.76,2.18,1.57,1.79,3.48c-0.53,2.62-2.28,2.93-4.17,3.27c-2.14,0.39-4.48,0.81-5.22,5   c-0.3,1.72-1.13,3.16-2.28,4.31c-1.24,1.24-2.86,2.13-4.59,2.63c-1.73,0.5-3.58,0.61-5.28,0.31c-1.7-0.3-3.26-1.02-4.42-2.18   c-1.92-1.93-3.99-3.06-5.77-4.04c-2.76-1.52-4.85-2.67-4.74-5.77C4.81,24.64,5.35,22.62,6.71,21.29z"></path>
</g>
</svg>