<svg xmlns="http://www.w3.org/2000/svg" xmlns:xlink="http://www.w3.org/1999/xlink" id="Calque_1" x="0px" y="0px" viewBox="0 0 50 50" style="enable-background:new 0 0 50 50;" xml:space="preserve">
<style type="text/css">
	.st0{opacity:0.9;fill-rule:evenodd;clip-rule:evenodd;fill:url(#SVGID_1_);}
	.st1{opacity:0.9;fill-rule:evenodd;clip-rule:evenodd;fill:url(#SVGID_00000121975983168798927000000006784792236451810745_);}
	.st2{fill-rule:evenodd;clip-rule:evenodd;fill:#B62961;}
</style>
<linearGradient id="SVGID_1_" gradientUnits="userSpaceOnUse" x1="31.5915" y1="28.566" x2="18.7233" y2="21.138">
	<stop offset="0" style="stop-color:#F17C66"></stop>
	<stop offset="1" style="stop-color:#EE3687"></stop>
</linearGradient>
<path class="st0" d="M31.06,10.67c-1.53-2.71-5.56-2.74-8.05-1.41c-1.49,0.79-2.28,1.74-3.18,3.13C15.5,18.87,0.48,14.54,5.98,28.3  c2.79,6.42,8.56-1.01,14.53,9.99c0.56,1.04,1.07,1.41,2.22,1.76c2.66,0.81,8.33,0.28,10.22-1.9c0.24-0.27,0.36-0.49,0.47-0.84  c0.92-3.28,2.32-4.27,5.53-4.71c1.96-0.27,3.54-0.53,3.84-2.85c0.48-3.79-5.38-3.2-0.01-7.7c5.71-4.67,0.06-9.18-7.34-8.8  C33.08,13.36,31.77,13.08,31.06,10.67L31.06,10.67z M12.44,33.67c1.27-0.01,2.37,0.33,2.8,1.63c1.18,3.53-3.53,3.22-4.43,0.89  c-0.39-1.02-0.07-1.97,1.01-2.26C12.15,33.84,12.1,33.72,12.44,33.67L12.44,33.67z M8.59,33.46l0.05-0.19  c0.13-0.54,0.94-0.75,1.23-0.21C10.57,34.39,8.59,34.74,8.59,33.46L8.59,33.46z M17.87,37.65l0.04,0c0.88-0.06,0.76,1.4,0.05,1.47  C17.09,39.21,16.88,37.74,17.87,37.65L17.87,37.65z M13.18,14.23c-0.47-1.04,0.38-1.77,1.26-2.14c1.02-0.43,0.57-0.18,1.14-0.91  c0.51-0.65,1.41-1.02,1.96-0.25c0.69,0.96-0.35,1.67-1.09,2.06c-1.03,0.55-0.78,0.54-1.52,1.27C14.4,14.79,13.58,14.91,13.18,14.23  L13.18,14.23z M43.36,24.54c0.17-0.55,0.43-1,1.1-0.81c0.59,0.17,0.9,0.31,0.92,1C45.41,26.2,43.06,26.41,43.36,24.54z"></path>
<linearGradient id="SVGID_00000106834698462512189800000011835511514767613342_" gradientUnits="userSpaceOnUse" x1="18.0553" y1="29.1022" x2="31.9504" y2="21.0815">
	<stop offset="0" style="stop-color:#F17C66"></stop>
	<stop offset="1" style="stop-color:#EE3687"></stop>
</linearGradient>
<path style="opacity:0.9;fill-rule:evenodd;clip-rule:evenodd;fill:url(#SVGID_00000106834698462512189800000011835511514767613342_);" d="  M18.63,9.78c1.65-2.93,6-2.96,8.69-1.52c1.61,0.86,2.46,1.88,3.43,3.38c4.68,6.99,20.9,2.31,14.96,17.18  c-3.01,6.93-9.24-1.09-15.69,10.79c-0.61,1.12-1.15,1.52-2.4,1.9c-2.88,0.87-8.99,0.3-11.04-2.05c-0.26-0.3-0.39-0.53-0.5-0.9  c-0.99-3.55-2.51-4.61-5.97-5.09c-2.11-0.29-3.83-0.57-4.15-3.08c-0.52-4.09,5.81-3.45,0.02-8.31c-6.16-5.05-0.06-9.91,7.92-9.51  C16.45,12.69,17.87,12.38,18.63,9.78L18.63,9.78z M38.73,34.62c-1.37-0.01-2.56,0.35-3.03,1.76c-1.28,3.81,3.81,3.48,4.78,0.96  c0.42-1.1,0.08-2.13-1.09-2.44C39.05,34.79,39.1,34.66,38.73,34.62L38.73,34.62z M42.89,34.38l-0.05-0.21  c-0.14-0.58-1.01-0.81-1.32-0.22C40.75,35.39,42.89,35.77,42.89,34.38L42.89,34.38z M32.87,38.91l-0.04,0  c-0.95-0.06-0.82,1.51-0.06,1.59C33.71,40.59,33.94,39.01,32.87,38.91L32.87,38.91z M37.94,13.63c0.51-1.12-0.41-1.91-1.36-2.31  c-1.11-0.47-0.62-0.19-1.24-0.98c-0.55-0.7-1.52-1.1-2.12-0.27c-0.75,1.03,0.37,1.8,1.18,2.23c1.12,0.59,0.84,0.58,1.64,1.37  C36.62,14.23,37.51,14.36,37.94,13.63L37.94,13.63z M5.34,24.76c-0.18-0.59-0.46-1.08-1.19-0.88c-0.64,0.18-0.98,0.33-0.99,1.08  C3.14,26.55,5.67,26.77,5.34,24.76z"></path>
<g>
	<path class="st2" d="M24.01,9.22c0.56-0.49,1.27-0.81,2.06-0.95c1.05-0.19,2.24-0.07,3.41,0.35c1.16,0.43,2.28,1.16,3.2,2.19   c0.94,1.07,1.67,2.46,1.98,4.18c0.51,2.79,3.11,4.82,5.67,6.83c0.99,0.78,1.98,1.55,2.84,2.36c3.06,2.88,4.54,6.24-0.81,11.9   c-2.23,2.37-4.1,1.87-6.32,1.28c-2.84-0.75-6.29-1.67-11.96,3.42c-0.68,0.61-1.73,0.79-2.94,0.66c-1.38-0.15-2.98-0.69-4.46-1.45   c-1.48-0.76-2.84-1.74-3.75-2.75c-0.79-0.88-1.24-1.79-1.15-2.62c0.45-4.31-1.77-5.52-3.72-6.57c-1.54-0.84-2.92-1.58-2.8-3.6   c0.13-2.17,1.44-2.79,2.59-3.33c1.39-0.66,2.52-1.2,0.41-4.85c-0.85-1.47-1.18-2.74-1.09-3.8c0.08-1.02,0.53-1.83,1.26-2.44   c0.72-0.6,1.7-1,2.86-1.18c2.15-0.34,4.92,0.05,7.67,1.25c1.12,0.49,2.01,0.78,2.8,0.7c0.78-0.08,1.49-0.53,2.24-1.54   C23.99,9.23,24,9.22,24.01,9.22L24.01,9.22z M26.13,8.61c-0.72,0.13-1.37,0.42-1.88,0.86c-0.82,1.08-1.6,1.57-2.48,1.66   c-0.87,0.09-1.81-0.22-2.98-0.72c-2.69-1.17-5.38-1.56-7.48-1.23c-1.09,0.17-2.02,0.55-2.68,1.11c-0.66,0.55-1.06,1.29-1.13,2.2   c-0.08,0.99,0.24,2.19,1.05,3.6c2.3,3.99,1.02,4.6-0.57,5.35c-1.06,0.5-2.27,1.08-2.39,3.04c-0.1,1.79,1.18,2.49,2.61,3.27   c2.04,1.11,4.38,2.37,3.9,6.92c-0.08,0.73,0.34,1.54,1.06,2.35c0.88,0.98,2.21,1.93,3.65,2.67c1.44,0.74,3,1.27,4.34,1.41   c1.12,0.12,2.08-0.04,2.67-0.57c5.82-5.22,9.37-4.28,12.29-3.5c2.12,0.56,3.89,1.03,5.98-1.18c5.14-5.45,3.74-8.65,0.82-11.4   c-0.85-0.8-1.83-1.57-2.82-2.34c-2.61-2.04-5.27-4.12-5.8-7.04c-0.3-1.65-0.99-2.98-1.9-4.01c-0.88-0.99-1.95-1.69-3.06-2.1   C28.25,8.54,27.12,8.43,26.13,8.61z"></path>
	<path class="st2" d="M24.02,10.11c0.5-0.44,1.14-0.73,1.85-0.86c0.95-0.17,2.02-0.07,3.07,0.32c1.04,0.38,2.06,1.04,2.88,1.98   c0.85,0.96,1.5,2.22,1.78,3.76c0.46,2.51,2.8,4.35,5.11,6.15c0.9,0.7,1.78,1.4,2.56,2.13c2.76,2.6,4.09,5.62-0.73,10.72   c-2.01,2.13-3.69,1.69-5.7,1.15c-2.56-0.68-5.66-1.51-10.78,3.09c-0.61,0.55-1.56,0.71-2.65,0.59c-1.24-0.13-2.69-0.62-4.02-1.3   c-1.33-0.68-2.56-1.56-3.38-2.48c-0.71-0.79-1.12-1.61-1.04-2.36c0.41-3.88-1.6-4.97-3.35-5.92c-1.39-0.75-2.63-1.43-2.52-3.24   c0.11-1.95,1.29-2.51,2.33-3c1.25-0.6,2.27-1.08,0.37-4.37c-0.77-1.33-1.06-2.47-0.99-3.43c0.07-0.91,0.48-1.65,1.13-2.2   c0.65-0.54,1.53-0.9,2.57-1.07c1.94-0.31,4.43,0.05,6.91,1.13c1.01,0.44,1.81,0.7,2.53,0.63c0.7-0.07,1.34-0.48,2.02-1.39   C24.01,10.13,24.01,10.12,24.02,10.11L24.02,10.11z M25.93,9.56c-0.65,0.12-1.23,0.38-1.69,0.78c-0.74,0.98-1.44,1.42-2.23,1.5   c-0.78,0.08-1.63-0.19-2.68-0.65c-2.42-1.06-4.85-1.41-6.74-1.11c-0.98,0.16-1.82,0.49-2.42,1c-0.59,0.5-0.96,1.16-1.02,1.98   c-0.07,0.89,0.21,1.98,0.95,3.24c2.07,3.59,0.91,4.14-0.51,4.82c-0.96,0.45-2.05,0.97-2.15,2.74C7.34,25.47,8.5,26.1,9.79,26.8   c1.84,1,3.94,2.14,3.51,6.23c-0.07,0.65,0.31,1.39,0.96,2.11c0.79,0.88,1.99,1.74,3.29,2.41c1.3,0.67,2.7,1.15,3.91,1.27   c1.01,0.11,1.87-0.03,2.41-0.51c5.24-4.71,8.44-3.86,11.07-3.16c1.91,0.51,3.5,0.93,5.38-1.06c4.63-4.91,3.37-7.79,0.74-10.27   c-0.77-0.72-1.65-1.41-2.54-2.11c-2.35-1.84-4.75-3.71-5.22-6.35c-0.27-1.48-0.89-2.69-1.71-3.61c-0.79-0.89-1.76-1.52-2.75-1.89   C27.84,9.5,26.82,9.4,25.93,9.56z"></path>
</g>
</svg>