<svg xmlns="http://www.w3.org/2000/svg" xmlns:xlink="http://www.w3.org/1999/xlink" id="Calque_1" x="0px" y="0px" viewBox="0 0 50 50" style="enable-background:new 0 0 50 50;" xml:space="preserve">
<style type="text/css">
	.st0{opacity:0.9;fill-rule:evenodd;clip-rule:evenodd;fill:url(#SVGID_1_);}
	.st1{opacity:0.9;fill-rule:evenodd;clip-rule:evenodd;fill:url(#SVGID_00000021081138010037820680000000255574946783100827_);}
	.st2{fill-rule:evenodd;clip-rule:evenodd;fill:#B62961;}
</style>
<linearGradient id="SVGID_1_" gradientUnits="userSpaceOnUse" x1="32.9719" y1="34.6142" x2="22.6833" y2="16.7937">
	<stop offset="0" style="stop-color:#60B0E2"></stop>
	<stop offset="1" style="stop-color:#EE408B"></stop>
</linearGradient>
<path class="st0" d="M8.88,14.29c2.08-2.29,4.44-2.16,7.3-1.55c4.53,0.96,4.59,3.02,9.79,0.86c2.64-1.1,5.7-2.36,8.54-1.32  c1.75,0.64,4.91,2.2,5.21,4.26c0.43,2.99-2.01,6.39-1.09,9.89c0.77,2.92,1.77,4.09,1.05,7.41c-1.1,5.09-5.13,5.26-9.5,4.95  c-4.06-0.28-4.66-1.18-6.6-4.45c-1.72-2.9-3.1-2.11-5.76-3.08c-3.54-1.29-0.86-5.42-4.16-6.98c-2.17-1.02-5.37-1.57-6.43-4.22  C6.41,18.03,7.64,15.84,8.88,14.29L8.88,14.29z M22.53,12.92c0.48-0.22,0.81-0.59,0.84-1.13c0.02-0.27,0-0.56,0.02-0.84  c0.03-0.79-0.44-1.33-1.1-1.7c-0.35-0.19-0.82-0.35-1.16-0.07c-0.31,0.25-0.28,0.31-0.68,0.48c-0.48,0.2-0.73,0.28-0.93,0.81  c-0.19,0.55,0.02,1.06,0.26,1.56c0.2,0.41,0.64,0.57,1.01,0.82c0.49,0.34,0.74,0.39,1.32,0.23C22.25,13.04,22.38,12.99,22.53,12.92  L22.53,12.92z M40.88,24.43c0.01,0.81,1.17,0.69,1.14,0.03C41.99,23.85,40.97,23.68,40.88,24.43L40.88,24.43z M44.11,27.8  c0.1-0.45-0.19-0.91-0.48-1.23c-0.47-0.48-1.1-0.5-1.59-0.03c-0.4,0.39-0.58,1.12-0.19,1.56c0.21,0.24,0.51,0.21,0.8,0.32  c0.49,0.17,0.71,0.37,1.15-0.06C43.97,28.2,44.05,28.03,44.11,27.8L44.11,27.8z M21.72,34.48c-0.22-0.37-0.48-0.83-0.99-0.76  c-0.32,0.04-0.93,0.57-1.03,0.88c-0.08,0.26,0,0.5,0.16,0.71c0.12,0.15,0.74,0.67,0.9,0.76c0.21,0.11,0.38,0.09,0.6,0.02  c0.66-0.24,0.71-1,0.39-1.54L21.72,34.48L21.72,34.48z M26.32,10.94c0.11,0.79,1.2,0.58,1.17-0.1  C27.47,10.19,26.31,10.16,26.32,10.94z"></path>
<linearGradient id="SVGID_00000093137646808715245430000007874578622776064652_" gradientUnits="userSpaceOnUse" x1="13.839" y1="33.6383" x2="30.2186" y2="17.2587">
	<stop offset="0" style="stop-color:#60B0E2"></stop>
	<stop offset="1" style="stop-color:#EE408B"></stop>
</linearGradient>
<path style="opacity:0.9;fill-rule:evenodd;clip-rule:evenodd;fill:url(#SVGID_00000093137646808715245430000007874578622776064652_);" d="  M47.03,18.19c-1.66-3.23-4.37-3.79-7.8-3.98c-5.42-0.29-6.12,2.03-11.35-2c-2.66-2.04-5.74-4.4-9.27-4.09  c-2.18,0.19-6.23,1-7.19,3.25c-1.39,3.25,0.34,7.85-1.76,11.53c-1.75,3.07-3.24,4.1-3.44,8.08c-0.3,6.09,4.21,7.51,9.26,8.49  c4.69,0.91,5.64,0.07,8.82-3.04c2.82-2.76,4.15-1.44,7.45-1.74c4.4-0.39,2.62-5.88,6.83-6.64c2.77-0.5,6.56-0.15,8.56-2.83  C48.69,23.17,47.97,20.32,47.03,18.19L47.03,18.19z M32,12.49c-0.47-0.4-0.73-0.92-0.61-1.54c0.06-0.31,0.17-0.63,0.24-0.96  c0.2-0.9,0.9-1.37,1.76-1.59c0.45-0.11,1.04-0.14,1.34,0.28c0.27,0.38,0.22,0.43,0.63,0.75c0.48,0.38,0.74,0.54,0.81,1.2  c0.05,0.67-0.34,1.2-0.76,1.68c-0.35,0.41-0.9,0.45-1.39,0.62c-0.66,0.23-0.95,0.21-1.57-0.14C32.27,12.71,32.14,12.61,32,12.49  L32,12.49z M7.72,19.95c-0.25,0.91-1.53,0.43-1.29-0.31C6.64,18.97,7.84,19.08,7.72,19.95L7.72,19.95z M3.04,22.8  c0.03-0.54,0.49-0.97,0.92-1.24c0.68-0.41,1.4-0.23,1.81,0.45c0.34,0.56,0.31,1.44-0.26,1.82c-0.31,0.2-0.64,0.09-1,0.12  c-0.61,0.05-0.92,0.2-1.28-0.41C3.08,23.29,3.04,23.07,3.04,22.8L3.04,22.8z M26.37,37.16c0.37-0.35,0.79-0.79,1.35-0.56  c0.35,0.14,0.88,0.93,0.9,1.31c0.02,0.32-0.16,0.57-0.4,0.75c-0.18,0.13-1.04,0.54-1.25,0.58c-0.27,0.06-0.46-0.02-0.69-0.16  c-0.67-0.48-0.5-1.34,0.03-1.86L26.37,37.16L26.37,37.16z M28.3,9.1c-0.36,0.86-1.53,0.29-1.3-0.47C27.22,7.9,28.55,8.22,28.3,9.1z"></path>
<path class="st2" d="M45.2,20.91c-0.64-1.57-1.58-2.55-2.76-3.19c-1.19-0.64-2.62-0.95-4.24-1.18c-1.63-0.23-2.83-0.18-3.85-0.13  c-2.25,0.11-3.69,0.18-6.92-2.8c-1.18-1.09-2.45-2.26-3.85-3.15c-1.38-0.89-2.9-1.51-4.57-1.51c-1.22,0-3.08,0.14-4.62,0.68  c-1.06,0.37-1.96,0.92-2.4,1.73c-0.71,1.32-0.85,2.95-1,4.66c-0.19,2.13-0.38,4.36-1.69,6.24c-0.49,0.7-0.95,1.28-1.38,1.82  c-1.25,1.57-2.19,2.75-2.58,5.54c-0.4,2.84,0.43,4.68,1.93,5.98c1.52,1.31,3.73,2.09,6.09,2.77c2.17,0.63,3.49,0.77,4.67,0.42  c1.18-0.35,2.24-1.2,3.89-2.54c2.13-1.74,3.34-1.55,5.02-1.28c0.68,0.11,1.43,0.22,2.36,0.23c2.07,0,2.79-1.36,3.52-2.75  c0.74-1.4,1.49-2.83,3.58-3.02c0.62-0.06,1.29-0.06,1.98-0.07c2.26-0.03,4.74-0.06,6.35-1.85c0.79-0.88,1.08-2,1.09-3.16  C45.84,23.17,45.55,21.96,45.2,20.91L45.2,20.91z M42.59,17.45c1.24,0.67,2.23,1.7,2.9,3.35l0,0.01c0.36,1.08,0.66,2.32,0.65,3.53  c-0.01,1.23-0.32,2.42-1.17,3.36c-1.7,1.89-4.25,1.92-6.58,1.95c-0.68,0.01-1.35,0.02-1.96,0.07c-1.92,0.17-2.63,1.52-3.33,2.85  c-0.77,1.47-1.53,2.92-3.79,2.91c-0.95,0-1.72-0.12-2.41-0.23c-1.6-0.25-2.76-0.43-4.78,1.22c-1.67,1.37-2.75,2.23-4,2.6  c-1.24,0.37-2.61,0.23-4.85-0.42c-2.39-0.69-4.64-1.48-6.21-2.83c-1.58-1.37-2.45-3.3-2.03-6.26c0.4-2.88,1.36-4.08,2.64-5.69  c0.42-0.53,0.88-1.11,1.37-1.8c1.26-1.81,1.45-4,1.63-6.09c0.15-1.73,0.3-3.4,1.03-4.77c0.48-0.89,1.45-1.48,2.57-1.88  c1.58-0.55,3.48-0.7,4.72-0.7c1.74,0,3.3,0.65,4.73,1.56c1.42,0.91,2.7,2.09,3.89,3.19c3.13,2.88,4.52,2.82,6.69,2.71  c1.04-0.05,2.26-0.11,3.91,0.13C39.89,16.47,41.36,16.78,42.59,17.45z"></path>
<path class="st2" d="M42.29,21.36c-0.55-1.34-1.35-2.17-2.35-2.72c-1.01-0.55-2.23-0.81-3.61-1.01c-1.39-0.2-2.41-0.15-3.28-0.11  c-1.92,0.09-3.15,0.15-5.89-2.38c-1.01-0.93-2.09-1.92-3.28-2.69c-1.18-0.76-2.47-1.29-3.89-1.29c-1.04,0-2.62,0.12-3.94,0.58  c-0.9,0.31-1.67,0.78-2.04,1.47c-0.6,1.12-0.72,2.52-0.85,3.97c-0.16,1.82-0.32,3.72-1.44,5.31c-0.42,0.6-0.81,1.09-1.18,1.55  c-1.07,1.34-1.86,2.34-2.2,4.72c-0.34,2.42,0.36,3.99,1.64,5.1c1.29,1.12,3.18,1.78,5.19,2.36c1.85,0.54,2.98,0.65,3.98,0.36  c1.01-0.3,1.91-1.02,3.31-2.17c1.81-1.48,2.85-1.32,4.28-1.09c0.58,0.09,1.22,0.19,2.01,0.19c1.77,0,2.38-1.16,3-2.34  c0.63-1.2,1.27-2.41,3.05-2.57c0.53-0.05,1.1-0.05,1.69-0.06c1.93-0.02,4.04-0.05,5.41-1.57c0.68-0.75,0.92-1.71,0.93-2.69  C42.83,23.28,42.59,22.25,42.29,21.36L42.29,21.36z M40.07,18.41c1.05,0.57,1.9,1.45,2.47,2.85l0,0.01  c0.31,0.92,0.56,1.98,0.55,3.01c0,1.04-0.27,2.06-1,2.87c-1.45,1.61-3.62,1.64-5.61,1.66c-0.58,0.01-1.15,0.01-1.67,0.06  c-1.64,0.15-2.24,1.3-2.84,2.43c-0.66,1.25-1.3,2.49-3.23,2.48c-0.81,0-1.46-0.1-2.05-0.2c-1.36-0.21-2.35-0.37-4.07,1.04  c-1.42,1.16-2.35,1.9-3.4,2.21c-1.06,0.31-2.23,0.2-4.13-0.35c-2.04-0.59-3.96-1.26-5.29-2.41c-1.35-1.16-2.08-2.81-1.73-5.33  c0.34-2.45,1.16-3.48,2.25-4.85c0.36-0.45,0.75-0.94,1.16-1.54c1.07-1.54,1.24-3.41,1.39-5.19c0.13-1.48,0.25-2.9,0.88-4.07  c0.41-0.76,1.23-1.26,2.19-1.6c1.35-0.47,2.96-0.6,4.02-0.59c1.48,0,2.82,0.55,4.03,1.33c1.21,0.78,2.3,1.78,3.32,2.71  c2.67,2.46,3.85,2.4,5.7,2.31c0.89-0.04,1.92-0.09,3.33,0.11C37.77,17.57,39.02,17.84,40.07,18.41z"></path>
</svg>