<svg xmlns="http://www.w3.org/2000/svg" xmlns:xlink="http://www.w3.org/1999/xlink" id="Calque_1" x="0px" y="0px" viewBox="0 0 50 50" style="enable-background:new 0 0 50 50;" xml:space="preserve">
<style type="text/css">
	.st0{opacity:0.9;fill-rule:evenodd;clip-rule:evenodd;fill:url(#SVGID_1_);}
	.st1{opacity:0.9;fill-rule:evenodd;clip-rule:evenodd;fill:url(#SVGID_00000098925438573203905740000002395810639233449371_);}
	.st2{fill-rule:evenodd;clip-rule:evenodd;fill:#B62961;}
</style>
<linearGradient id="SVGID_1_" gradientUnits="userSpaceOnUse" x1="18.2145" y1="23.8525" x2="30.9408" y2="30.6074">
	<stop offset="0" style="stop-color:#EE4181"></stop>
	<stop offset="1" style="stop-color:#8E4B9D"></stop>
</linearGradient>
<path class="st0" d="M16.77,35.43c1.69-2.28,3.27-3.22,5.83-1.63c2.36,1.46,4.31,3.74,7.38,3.63c0.91-0.03,1.7-0.27,2.52-0.64  c6.56-3.02,0.36-7.27,7.12-9.22c10.05-2.89,2.69-15.7-3.26-12.21c-0.98,0.57-1.99,1.07-2.96,1.63c-1.55,0.89-2.5,2.19-3.58,3.59  c-1.26,1.57-2.88,0.68-4.27-0.2c-3.24-2.06-6.82-5.58-10.65-2.45c-2.76,2.8,3.14,8.81-6.34,8.72c-0.88-0.01-1.07-0.06-1.66,0.97  c-1.04,1.81-2.27,6.93-1.13,9.13c1.57,3.03,5.4,3,7.69,1.73C14.79,37.76,15.74,36.78,16.77,35.43L16.77,35.43z M28.72,19.38  c-0.68,0.85-1.64,0.67-2.12-0.22c-0.52-0.96-0.1-3.11,1.27-2.59C29.17,17.06,29.59,18.25,28.72,19.38L28.72,19.38z M24.65,16.17  l0.1,0.06c0.55,0.33,0.8,1.07,0.16,1.34c-0.45,0.19-0.73-0.14-0.9-0.52C23.86,16.63,24.12,15.97,24.65,16.17L24.65,16.17z   M31.3,16.76c-0.85,0.36-0.84-0.85-0.25-1.03C31.37,15.63,31.81,16.38,31.3,16.76L31.3,16.76z M29.19,14.48  c0.74-0.26,0.87,0.77,0.27,0.86C28.93,15.41,28.71,14.78,29.19,14.48L29.19,14.48z M20.5,36.95c-0.23-0.09-0.4-0.17-0.6-0.33  c-0.74-0.62-0.65-1.88,0.16-2.26c0.34-0.16,0.45-0.07,0.74-0.05c0.92,0.05,1.48,0.79,1.34,1.69C22.01,36.91,21.34,37.21,20.5,36.95  L20.5,36.95z M10.72,25.48L10.6,25.5c-0.68,0.09-1.05-0.7-0.87-1.18c0.2-0.55,1.33-0.71,1.53,0C11.38,24.81,11.21,25.29,10.72,25.48  L10.72,25.48z M12.52,22.82c0.72-0.19,0.65,0.74,0.26,0.84C12.24,23.79,11.97,22.96,12.52,22.82z"></path>
<linearGradient id="SVGID_00000138540747926076331560000000353788805217089967_" gradientUnits="userSpaceOnUse" x1="32.4697" y1="22.5464" x2="17.7085" y2="30.3814">
	<stop offset="0" style="stop-color:#EE4181"></stop>
	<stop offset="1" style="stop-color:#8E4B9D"></stop>
</linearGradient>
<path style="opacity:0.9;fill-rule:evenodd;clip-rule:evenodd;fill:url(#SVGID_00000138540747926076331560000000353788805217089967_);" d="  M33.29,34.63c-1.98-2.67-3.83-3.77-6.83-1.91c-2.76,1.71-5.05,4.38-8.64,4.25c-1.06-0.04-1.98-0.31-2.95-0.75  c-4.94-2.27-3.69-5.15-4.29-7.51c-1.19-1.95-3.99-3.34-5.92-5.15c-2.56-2.41-1.91-8.21,2.96-9.69c3.48-1.06,6.22-0.22,8.09,1.3  c1.1,0.68,1.81,1.48,2.3,2.11c1.47,1.84,3.37,0.8,4.99-0.23c3.79-2.41,7.98-6.52,12.46-2.87c3.23,3.28-3.67,10.3,7.41,10.21  c1.03-0.02,1.25-0.07,1.95,1.14c1.21,2.12,2.65,8.11,1.32,10.68c-1.84,3.55-6.32,3.51-9,2.03C35.61,37.36,34.5,36.22,33.29,34.63  L33.29,34.63z M19.32,15.86c0.79,0.99,1.91,0.79,2.48-0.26c0.61-1.13,0.12-3.64-1.49-3.03C18.78,13.14,18.3,14.54,19.32,15.86  L19.32,15.86z M24.08,12.1l-0.12,0.07c-0.65,0.39-0.93,1.25-0.18,1.57c0.53,0.22,0.86-0.17,1.05-0.61  C25,12.64,24.69,11.87,24.08,12.1L24.08,12.1z M16.3,12.79c0.99,0.42,0.98-1,0.29-1.2C16.21,11.47,15.7,12.35,16.3,12.79L16.3,12.79  z M18.76,10.12c-0.87-0.3-1.02,0.9-0.31,1C19.07,11.21,19.33,10.47,18.76,10.12L18.76,10.12z M28.93,36.42  c0.27-0.11,0.47-0.2,0.7-0.39c0.87-0.72,0.76-2.2-0.19-2.64c-0.4-0.18-0.52-0.08-0.87-0.06c-1.07,0.06-1.74,0.93-1.57,1.98  C27.16,36.36,27.95,36.72,28.93,36.42L28.93,36.42z M40.38,22.99l0.14,0.03c0.8,0.11,1.23-0.82,1.02-1.38  c-0.24-0.64-1.56-0.83-1.79,0C39.6,22.21,39.8,22.77,40.38,22.99L40.38,22.99z M38.27,19.88c-0.85-0.22-0.76,0.87-0.3,0.98  C38.59,21.02,38.91,20.05,38.27,19.88z"></path>
<path class="st2" d="M33.92,35.26c-3.17-4.34-5.49-2.6-8.22-0.57c-2.38,1.78-5.08,3.78-8.93,2.01c-3.46-1.59-3.59-3.49-3.71-5.25  c-0.13-1.91-0.25-3.68-4.04-4.77c-3.15-0.91-4.7-2.7-5.16-4.7C3.62,20.89,3.69,19.75,4,18.66c0.31-1.1,0.86-2.15,1.58-3.04  c1.75-2.18,4.45-3.36,6.93-1.91c0.95,0.56,1.66,0.93,2.24,1.24c1.92,1.02,2.44,1.3,4.84,4.41c1.59,2.06,3.78,0.53,6.31-1.24  c2.99-2.08,6.48-4.51,9.92-1.62c1.01,0.99,0.87,2.47,0.74,3.96c-0.05,0.54-0.1,1.08-0.09,1.62c0.02,2.19,0.92,4.01,6.3,3.93l0.12,0  c0.82-0.01,1.02-0.02,1.6,1c0.63,1.09,1.32,3.31,1.59,5.47c0.2,1.65,0.16,3.25-0.36,4.26c-0.75,1.45-2,2.24-3.36,2.55  c-1.67,0.38-3.52,0.03-4.87-0.72c-0.71-0.4-1.33-0.86-1.9-1.4C35.01,36.62,34.48,35.99,33.92,35.26L33.92,35.26L33.92,35.26z   M25.81,34.97c2.65-1.97,4.91-3.66,7.95,0.52l0,0c0.57,0.74,1.11,1.38,1.69,1.93c0.58,0.56,1.21,1.03,1.94,1.43  c1.38,0.77,3.28,1.12,4.99,0.74c1.42-0.32,2.72-1.15,3.51-2.68c0.56-1.08,0.61-2.77,0.4-4.5c-0.27-2.21-0.99-4.49-1.63-5.62  c-0.65-1.14-0.88-1.13-1.78-1.12l-0.12,0c-5.18,0.08-6.05-1.59-6.07-3.61c0-0.5,0.04-1.04,0.09-1.57c0.14-1.58,0.28-3.16-0.84-4.26  c0-0.01-0.01-0.01-0.02-0.01c-3.56-2.98-7.1-0.51-10.15,1.61c-2.46,1.71-4.58,3.19-6.05,1.29c-2.43-3.16-2.96-3.44-4.91-4.47  c-0.59-0.31-1.31-0.7-2.23-1.24c-2.57-1.51-5.36-0.28-7.17,1.97c-0.74,0.92-1.31,2.01-1.64,3.16c-0.33,1.16-0.4,2.37-0.14,3.52  c0.48,2.1,2.08,3.99,5.33,4.92c3.63,1.04,3.74,2.7,3.86,4.49c0.13,1.86,0.26,3.87,3.86,5.53C20.64,38.82,23.38,36.77,25.81,34.97z"></path>
<path class="st2" d="M32.6,35.28c-2.7-3.7-4.68-2.22-7.01-0.49c-2.03,1.51-4.33,3.23-7.61,1.72c-2.95-1.36-3.06-2.97-3.16-4.48  c-0.11-1.63-0.21-3.14-3.45-4.07c-2.68-0.77-4-2.31-4.4-4.01c-0.21-0.92-0.15-1.89,0.11-2.82c0.27-0.94,0.74-1.83,1.34-2.59  c1.49-1.85,3.8-2.87,5.91-1.63c0.81,0.47,1.41,0.8,1.91,1.06c1.63,0.87,2.08,1.1,4.12,3.76c1.35,1.75,3.22,0.45,5.38-1.05  c2.55-1.78,5.52-3.85,8.46-1.38c0.86,0.84,0.74,2.11,0.63,3.38c-0.04,0.46-0.08,0.92-0.08,1.38c0.01,1.87,0.78,3.42,5.37,3.35l0.1,0  c0.7-0.01,0.87-0.02,1.36,0.85c0.53,0.93,1.12,2.83,1.35,4.67c0.17,1.41,0.14,2.77-0.31,3.63c-0.64,1.24-1.7,1.91-2.87,2.17  c-1.42,0.32-3,0.02-4.15-0.61c-0.61-0.34-1.13-0.73-1.62-1.19C33.53,36.44,33.07,35.91,32.6,35.28L32.6,35.28L32.6,35.28z   M25.68,35.04c2.26-1.68,4.18-3.12,6.78,0.44l0,0c0.48,0.63,0.94,1.18,1.44,1.65c0.5,0.47,1.03,0.88,1.66,1.22  c1.18,0.65,2.79,0.96,4.25,0.63c1.21-0.27,2.32-0.98,2.99-2.28c0.48-0.92,0.52-2.36,0.34-3.83c-0.23-1.88-0.84-3.83-1.39-4.79  c-0.56-0.97-0.75-0.97-1.52-0.95l-0.1,0c-4.42,0.07-5.16-1.36-5.17-3.08c0-0.43,0.04-0.89,0.08-1.34c0.12-1.35,0.24-2.7-0.71-3.63  c0,0-0.01-0.01-0.01-0.01c-3.03-2.54-6.05-0.43-8.65,1.37c-2.1,1.46-3.91,2.72-5.16,1.1c-2.08-2.69-2.53-2.93-4.19-3.81  c-0.5-0.27-1.11-0.59-1.9-1.06c-2.19-1.28-4.57-0.24-6.11,1.68c-0.63,0.78-1.12,1.72-1.4,2.69c-0.28,0.99-0.34,2.02-0.12,3  c0.41,1.79,1.78,3.4,4.54,4.19c3.09,0.89,3.19,2.3,3.29,3.83c0.11,1.59,0.22,3.3,3.29,4.71C21.28,38.32,23.62,36.58,25.68,35.04z"></path>
</svg>