<svg xmlns="http://www.w3.org/2000/svg" xmlns:xlink="http://www.w3.org/1999/xlink" id="Calque_1" x="0px" y="0px" viewBox="0 0 30 30" style="enable-background:new 0 0 30 30;" xml:space="preserve">
<style type="text/css">
	.st0{fill:#FFFFFF;}
</style>
<g>
	<path class="st0" d="M23.3,27.7c-0.5,0-1,0-1.5,0c-1.2,0-2.4,0-3.6,0c-1.5,0-3,0-4.5,0c-1.4,0-2.8,0-4.1,0c-0.9,0-1.7,0-2.6,0   c-0.2,0-0.4,0-0.6,0c-1-0.1-1.7-1-1.7-2c0-0.7,0-1.4,0-2.1c0-1.4,0-2.9,0-4.3c0-1.3,0-2.6,0-3.9c0-0.3,0-0.7,0-1   c0-0.6,0.2-1.1,0.6-1.6c0.4-0.4,0.9-0.6,1.5-0.6c0.2,0,0.5,0,0.8,0c1.1,0,2.1,0,3.2,0c1.5,0,2.9,0,4.4,0c1.4,0,2.9,0,4.3,0   c1,0,2.1,0,3.1,0c0.2,0,0.5,0,0.7,0c0.7,0,1.3,0.3,1.7,0.8c0.5,0.7,0.4,1.7,0.4,2.5c0,1.3,0,2.7,0,4c0,1.4,0,2.8,0,4.3   c0,0.7,0,1.4,0,2C25.2,26.9,24.3,27.7,23.3,27.7c-0.2,0-0.2,0.4,0,0.4c1,0,1.9-0.7,2.2-1.7c0.1-0.3,0.1-0.7,0.1-1   c0-1.1,0-2.2,0-3.3c0-1.5,0-3,0-4.6c0-1,0-2,0-3.1c0-0.5-0.1-0.9-0.3-1.3c-0.4-0.8-1.2-1.2-2-1.2c-0.6,0-1.2,0-1.8,0   c-1.3,0-2.6,0-3.9,0c-1.5,0-3.1,0-4.6,0c-1.3,0-2.7,0-4,0c-0.7,0-1.5,0-2.2,0c-1.3,0-2.4,1-2.4,2.4c0,0.9,0,1.7,0,2.6   c0,1.5,0,3,0,4.5c0,1.2,0,2.5,0,3.7c0,0.2,0,0.5,0,0.7c0,0.9,0.6,1.8,1.4,2.1c0.6,0.3,1.4,0.2,2,0.2c1.2,0,2.3,0,3.5,0   c1.5,0,3,0,4.6,0c1.4,0,2.9,0,4.3,0c0.9,0,1.8,0,2.8,0c0.1,0,0.3,0,0.4,0C23.5,28.1,23.5,27.7,23.3,27.7z"></path>
	<path class="st0" d="M15,22.9c-0.7,0-1.2-0.5-1.2-1.2c0-0.3,0-0.5,0-0.8c0-0.8,0-1.6,0-2.4c0-0.6,0.4-1.1,1-1.2   c0.7-0.1,1.4,0.3,1.5,1c0,0.3,0,0.5,0,0.8c0,0.5,0,1,0,1.4c0,0.4,0,0.8,0,1.1C16.2,22.3,15.7,22.8,15,22.9c-0.2,0-0.2,0.4,0,0.4   c0.8,0,1.4-0.6,1.6-1.3c0-0.3,0-0.7,0-1c0-0.9,0-1.7,0-2.6c0-0.8-0.6-1.4-1.4-1.5c-0.7-0.1-1.5,0.3-1.7,1c-0.1,0.4-0.1,0.7-0.1,1.1   c0,0.5,0,1.1,0,1.6c0,0.4,0,0.8,0,1.1c0,0.8,0.8,1.5,1.6,1.5C15.2,23.2,15.2,22.9,15,22.9z"></path>
	<path class="st0" d="M7.5,9.1C7.5,9.1,7.5,9.1,7.5,9.1c0-0.1,0-0.1,0-0.1c0,0,0-0.1,0-0.1c0-0.2,0.1-0.4,0.1-0.7   C7.8,7.6,8,6.9,8.3,6.2C8.8,5.4,9.3,4.6,10,4c0.9-0.8,1.9-1.3,3-1.5c2.4-0.5,5.2-0.1,6.9,1.8c1,1.1,1.6,2.7,1.8,4.2   c0,0.2,0,0.5,0,0.8c0,0.9,0,1.8,0,2.7c0,0.1,0,0.2,0,0.2c0,0.2,0.4,0.2,0.4,0c0-0.9,0-1.7,0-2.6c0-0.3,0-0.6,0-0.9   c-0.1-1.5-0.6-3-1.5-4.2c-0.6-0.8-1.5-1.5-2.5-1.9c-1.3-0.5-2.8-0.7-4.2-0.5c-1.2,0.1-2.5,0.5-3.5,1.2C9.6,3.8,8.9,4.6,8.4,5.5   C7.9,6.2,7.6,6.9,7.4,7.7C7.3,8.2,7.2,8.6,7.1,9.1c0,0,0,0,0,0.1C7.1,9.4,7.5,9.4,7.5,9.1L7.5,9.1z"></path>
</g>
</svg>