<svg xmlns="http://www.w3.org/2000/svg" xmlns:xlink="http://www.w3.org/1999/xlink" id="Calque_1" x="0px" y="0px" viewBox="0 0 30 30" style="enable-background:new 0 0 30 30;" xml:space="preserve">
<style type="text/css">
	.st0{fill:#FFFFFF;}
</style>
<g>
	<path class="st0" d="M17.2,19c-1.6,0-3.1-1-3.7-2.6c-0.6-1.6-0.1-3.3,1.2-4.4s3.1-1.2,4.6-0.3c1.4,0.9,2.1,2.5,1.8,4.1   c-0.3,1.6-1.6,2.9-3.2,3.1C17.6,19,17.4,19,17.2,19c-0.2,0-0.2,0.3,0,0.3c1.8,0,3.4-1.1,4-2.8c0.6-1.7,0.1-3.6-1.3-4.7   c-1.4-1.1-3.4-1.3-4.9-0.4s-2.3,2.7-2,4.5c0.3,1.7,1.8,3.1,3.5,3.3c0.2,0,0.4,0,0.6,0C17.4,19.3,17.4,19,17.2,19z"></path>
	<path class="st0" d="M10.4,27.2c-1.2,0-2.4-0.8-2.8-2c-0.4-1.2-0.1-2.5,0.9-3.3c1-0.8,2.4-0.9,3.4-0.2s1.6,1.9,1.4,3.2   C13,26.2,11.8,27.1,10.4,27.2c-0.2,0-0.2,0.3,0,0.3c1.4,0,2.6-0.9,3.1-2.1c0.5-1.3,0.1-2.8-1-3.7c-1.1-0.9-2.6-1-3.8-0.3   s-1.8,2.1-1.5,3.5c0.3,1.3,1.4,2.4,2.7,2.6c0.2,0,0.4,0,0.5,0C10.6,27.5,10.6,27.2,10.4,27.2z"></path>
	<path class="st0" d="M25,11.3c-1.5,0-2.8-0.9-3.3-2.3c-0.5-1.4-0.1-3,1.1-3.9s2.8-1.1,4.1-0.3C28,5.5,28.7,7,28.4,8.4   c-0.3,1.4-1.5,2.6-2.9,2.8C25.3,11.2,25.1,11.3,25,11.3c-0.2,0-0.2,0.3,0,0.3c1.6,0,3-1,3.6-2.5c0.5-1.5,0.1-3.2-1.2-4.2   c-1.2-1-3-1.1-4.4-0.3c-1.4,0.8-2.1,2.4-1.8,4c0.3,1.5,1.6,2.8,3.1,3c0.2,0,0.4,0.1,0.6,0.1C25.2,11.6,25.2,11.3,25,11.3z"></path>
	<path class="st0" d="M9.7,7.9c-1.1,0-2.1-0.7-2.5-1.7C6.9,5.2,7.2,4,8,3.3c0.8-0.7,2.1-0.8,3-0.2c0.9,0.6,1.4,1.7,1.2,2.8   C12,7.1,10.9,7.9,9.7,7.9c-0.2,0-0.2,0.3,0,0.3c1.2,0,2.3-0.8,2.8-1.9c0.4-1.1,0-2.5-0.9-3.2c-1-0.8-2.3-0.9-3.4-0.2   c-1,0.6-1.6,1.9-1.3,3.1c0.3,1.4,1.5,2.3,2.9,2.3C9.9,8.2,9.9,7.9,9.7,7.9z"></path>
	<path class="st0" d="M24.7,25.4c-0.7,0-1.3-0.4-1.6-1.1s0-1.4,0.5-1.8c0.5-0.5,1.3-0.5,1.9-0.1c0.6,0.4,0.9,1.1,0.8,1.7   C26.2,24.9,25.5,25.4,24.7,25.4c-0.2,0-0.2,0.3,0,0.3c0.8,0,1.6-0.5,1.8-1.3c0.3-0.8,0-1.7-0.6-2.2c-0.6-0.5-1.5-0.6-2.2-0.2   s-1.1,1.2-0.9,2.1c0.2,0.9,1,1.6,1.9,1.6C24.9,25.7,24.9,25.4,24.7,25.4z"></path>
	<path class="st0" d="M3.5,17.1c-1,0-1.8-0.6-2.2-1.5c-0.3-0.9,0-2,0.7-2.6c0.7-0.6,1.8-0.7,2.7-0.2c0.8,0.5,1.3,1.5,1.1,2.4   C5.5,16.4,4.6,17.1,3.5,17.1c-0.2,0-0.2,0.3,0,0.3c1.1,0,2-0.7,2.4-1.7c0.4-1,0.1-2.2-0.8-2.9c-0.8-0.7-2-0.8-3-0.2   c-0.9,0.6-1.4,1.7-1.2,2.8c0.2,1.2,1.3,2.1,2.5,2.1C3.7,17.4,3.7,17.1,3.5,17.1z"></path>
	<path class="st0" d="M22.2,10.2c-0.6,0.6-1.2,1.2-1.8,1.8c-0.1,0.1-0.2,0.2-0.3,0.3c-0.1,0.1,0.1,0.3,0.2,0.2   c0.6-0.6,1.2-1.2,1.8-1.8c0.1-0.1,0.2-0.2,0.3-0.3C22.6,10.2,22.4,10,22.2,10.2L22.2,10.2z"></path>
	<path class="st0" d="M14.9,11.6c-0.4-0.5-0.7-1-1.1-1.4c-0.6-0.8-1.1-1.5-1.7-2.3c-0.1-0.2-0.3-0.3-0.4-0.5c-0.1-0.2-0.4,0-0.2,0.2   c0.4,0.5,0.7,1,1.1,1.4c0.6,0.8,1.1,1.5,1.7,2.3c0.1,0.2,0.3,0.4,0.4,0.5C14.7,11.9,15,11.7,14.9,11.6L14.9,11.6z"></path>
	<path class="st0" d="M23.6,22.2c-0.4-0.5-0.8-0.9-1.2-1.4c-0.7-0.7-1.3-1.4-2-2.1c-0.1-0.2-0.3-0.3-0.5-0.5   c-0.1-0.1-0.3,0.1-0.2,0.2c0.4,0.5,0.8,0.9,1.2,1.4c0.7,0.7,1.3,1.4,2,2.1c0.1,0.2,0.3,0.3,0.5,0.5C23.5,22.6,23.8,22.4,23.6,22.2   L23.6,22.2z"></path>
	<path class="st0" d="M14.3,18c-0.7,1-1.5,2-2.2,3c-0.1,0.1-0.2,0.3-0.3,0.4c-0.1,0.1,0.1,0.3,0.2,0.1c0.7-1,1.5-2,2.2-3   c0.1-0.1,0.2-0.3,0.3-0.4C14.7,18,14.4,17.8,14.3,18L14.3,18z"></path>
	<path class="st0" d="M13.1,14.8c-0.8,0-1.6,0-2.4,0c-1.3,0-2.6,0-3.9,0c-0.3,0-0.6,0-0.9,0c-0.2,0-0.2,0.3,0,0.3c0.8,0,1.6,0,2.5,0   c1.3,0,2.6,0,3.9,0c0.3,0,0.6,0,0.9,0C13.3,15.1,13.3,14.8,13.1,14.8L13.1,14.8z"></path>
</g>
</svg>