<svg xmlns="http://www.w3.org/2000/svg" xmlns:xlink="http://www.w3.org/1999/xlink" id="Calque_1" x="0px" y="0px" viewBox="0 0 30 30" style="enable-background:new 0 0 30 30;" xml:space="preserve">
<style type="text/css">
	.st0{fill:#FFFFFF;}
	.st1{fill:#B62A62;}
	.st2{clip-path:url(#SVGID_2_);}
	.st3{clip-path:url(#SVGID_4_);}
</style>
<g>
	<g>
		<g>
			<path class="st0" d="M17.6,15c0,1.1-0.7,2.1-1.7,2.5c-1,0.3-2.1,0.1-2.8-0.7c-0.7-0.8-0.9-2-0.4-2.9c0.5-1,1.6-1.5,2.7-1.4     C16.6,12.7,17.6,13.8,17.6,15c0,0.2,0.3,0.2,0.3,0c0-1.2-0.8-2.4-2-2.8c-1.2-0.4-2.5,0-3.3,1c-0.7,0.9-0.8,2.3-0.1,3.3     c0.6,1,1.8,1.5,3,1.3c1.4-0.2,2.4-1.5,2.4-2.9C17.9,14.8,17.6,14.8,17.6,15z"></path>
			<path class="st0" d="M20.5,14.9c0-0.3-0.1-0.7-0.1-1c0-0.3-0.2,0.1,0-0.1c0-0.1,0.2-0.1,0.2-0.1c0.3-0.1,0.6-0.3,0.9-0.4     c0.1,0,0.1-0.1,0-0.2c-0.3-0.7-0.6-1.3-0.9-2c0-0.1-0.1-0.1-0.2-0.1c-0.4,0.2-0.8,0.4-1.2,0.6c0.1,0,0.1,0,0.2,0.1     c-0.2-0.3-0.4-0.6-0.7-0.8c0,0-0.5-0.4-0.4-0.2c0,0,0.1-0.2,0.1-0.2c0.1-0.3,0.3-0.7,0.5-1c0-0.1,0-0.2,0-0.2     c-0.7-0.3-1.3-0.6-2-0.9c-0.1,0-0.2,0-0.2,0.1c-0.1,0.3-0.3,0.6-0.4,0.9c0,0-0.1,0.2-0.1,0.2c-0.1,0.1,0-0.1-0.1-0.1     c-0.3,0-0.7-0.1-1-0.1c-0.3,0-0.7,0-1,0.1c-0.3,0.1-0.1,0.1-0.3-0.1c-0.2-0.3-0.3-0.6-0.4-0.9c0-0.1-0.1-0.1-0.2-0.1     c-0.7,0.3-1.3,0.6-2,0.9c-0.1,0-0.1,0.1-0.1,0.2c0.2,0.4,0.3,0.8,0.5,1.1c0-0.1,0-0.1,0.1-0.2c-0.5,0.4-0.9,0.8-1.3,1.2     c0.1,0,0.1,0,0.2-0.1c-0.4-0.2-0.8-0.4-1.2-0.5c-0.1,0-0.2,0-0.2,0.1c-0.3,0.7-0.6,1.3-0.9,2c0,0.1,0,0.2,0.1,0.2     c0.3,0.1,0.6,0.3,0.9,0.4c0.1,0,0.2,0.1,0.2,0.1c0.1,0.1,0-0.1,0.1,0.1c0,0-0.1,0.2-0.1,0.3c0,0.2-0.1,0.5-0.1,0.7     c0,0.3,0.1,0.7,0.1,1c0,0.1,0.1,0,0,0.1c0,0-0.1,0.1-0.2,0.1c-0.3,0.1-0.6,0.3-0.9,0.4c-0.1,0-0.1,0.1-0.1,0.2     c0.3,0.7,0.6,1.3,0.9,2c0,0.1,0.1,0.1,0.2,0c0.4-0.2,0.8-0.4,1.2-0.5c-0.1,0-0.1,0-0.2,0c0.4,0.5,0.8,0.9,1.3,1.3     c0-0.1,0-0.1-0.1-0.2c-0.2,0.4-0.4,0.8-0.6,1.2c0,0.1,0,0.2,0.1,0.2c0.7,0.3,1.3,0.6,2,0.9c0.1,0,0.2,0,0.2,0     c0.1-0.3,0.3-0.6,0.4-0.9c0,0,0.1-0.2,0.1-0.3c0.1-0.1,0,0,0.1,0c0,0,0.2,0.1,0.3,0.1c0.2,0,0.4,0,0.7,0c0.3,0,0.7-0.1,1-0.1     c0.3,0-0.1-0.2,0.1,0c0,0,0.1,0.2,0.1,0.3c0.1,0.3,0.3,0.6,0.4,0.9c0,0.1,0.1,0.1,0.2,0c0.7-0.3,1.3-0.6,2-0.9     c0.1,0,0.1-0.1,0-0.2c-0.2-0.4-0.4-0.9-0.6-1.3c0,0.1,0,0.1,0,0.2c0.5-0.4,0.9-0.8,1.2-1.2c-0.1,0-0.1,0-0.2,0     c0.4,0.2,0.8,0.4,1.2,0.5c0.1,0,0.2,0,0.2,0c0.3-0.7,0.6-1.3,0.9-2c0-0.1,0-0.2,0-0.2c-0.3-0.1-0.6-0.3-0.9-0.4     c-0.1,0-0.2-0.1-0.2-0.1c-0.1-0.1,0,0,0-0.1c0,0,0.1-0.2,0.1-0.3C20.5,15.4,20.5,15.2,20.5,14.9c0-0.2-0.3-0.2-0.3,0     c0,0.4,0,0.8-0.1,1.1c0,0.1,0,0.1,0.1,0.2c0.4,0.2,0.8,0.4,1.2,0.6c0-0.1,0-0.1,0-0.2c-0.3,0.7-0.6,1.3-0.9,2c0.1,0,0.1,0,0.2,0     c-0.4-0.2-0.8-0.4-1.2-0.5c-0.1,0-0.1,0-0.2,0c-0.3,0.4-0.7,0.8-1.1,1.1c-0.1,0-0.1,0.1,0,0.2c0.2,0.4,0.4,0.9,0.6,1.3     c0-0.1,0-0.1,0-0.2c-0.7,0.3-1.3,0.6-2,0.9c0.1,0,0.1,0,0.2,0c-0.2-0.4-0.4-0.9-0.6-1.3c0-0.1-0.1-0.1-0.2-0.1     c-0.8,0.2-1.5,0.2-2.2,0c-0.1,0-0.1,0-0.2,0.1c-0.2,0.4-0.4,0.8-0.6,1.3c0.1,0,0.1,0,0.2,0c-0.7-0.3-1.3-0.6-2-0.9     c0,0.1,0,0.1,0.1,0.2c0.2-0.4,0.4-0.8,0.6-1.2c0-0.1,0-0.1-0.1-0.2c-0.5-0.3-0.9-0.7-1.2-1.2c-0.1-0.1-0.1-0.1-0.2,0     c-0.4,0.2-0.8,0.4-1.2,0.5c0.1,0,0.1,0,0.2,0c-0.3-0.7-0.6-1.3-0.9-2c0,0.1,0,0.1-0.1,0.2c0.4-0.2,0.8-0.4,1.2-0.5     c0.1,0,0.1-0.1,0.1-0.2c-0.2-0.8-0.2-1.5,0-2.3c0-0.1,0-0.1-0.1-0.2c-0.4-0.2-0.8-0.4-1.2-0.5c0,0.1,0,0.1,0.1,0.2     c0.3-0.7,0.6-1.3,0.9-2c-0.1,0-0.1,0-0.2,0.1c0.4,0.2,0.8,0.4,1.2,0.5c0.1,0,0.1,0,0.2-0.1c0.3-0.4,0.7-0.8,1.1-1.1     c0.1-0.1,0.1-0.1,0.1-0.2c-0.2-0.4-0.3-0.8-0.5-1.1c0,0.1,0,0.1-0.1,0.2c0.7-0.3,1.3-0.6,2-0.9c-0.1,0-0.1,0-0.2-0.1     c0.2,0.4,0.3,0.8,0.5,1.1c0,0.1,0.1,0.1,0.2,0.1c0.8-0.2,1.6-0.1,2.4,0c0.1,0,0.1,0,0.2-0.1c0.2-0.4,0.4-0.8,0.5-1.2     c-0.1,0-0.1,0-0.2,0.1c0.7,0.3,1.3,0.6,2,0.9c0-0.1,0-0.1,0-0.2c-0.2,0.4-0.4,0.8-0.5,1.2c0,0.1,0,0.1,0,0.2     c0.4,0.3,0.8,0.7,1.1,1.1c0,0.1,0.1,0.1,0.2,0.1c0.4-0.2,0.8-0.4,1.2-0.6c-0.1,0-0.1,0-0.2-0.1c0.3,0.7,0.6,1.3,0.9,2     c0-0.1,0-0.1,0-0.2c-0.4,0.2-0.8,0.4-1.2,0.6c-0.1,0-0.1,0.1-0.1,0.2c0.1,0.4,0.1,0.8,0.1,1.1C20.2,15.1,20.5,15.1,20.5,14.9z"></path>
		</g>
	</g>
	<path class="st0" d="M17.6,15c0,1.1-0.6,2.1-1.6,2.5c-1,0.4-2.2,0.1-2.9-0.7c-0.7-0.8-0.9-2-0.4-2.9c0.5-1,1.6-1.6,2.7-1.4   C16.6,12.6,17.6,13.7,17.6,15c0,0.2,0.3,0.2,0.3,0c0-1.2-0.8-2.3-2-2.7c-1.2-0.4-2.5,0.1-3.2,1c-0.7,0.9-0.8,2.3-0.1,3.3   c0.7,1,1.9,1.5,3.1,1.3c1.3-0.3,2.2-1.5,2.2-2.9C17.9,14.8,17.6,14.8,17.6,15z"></path>
	<g>
		<path class="st0" d="M8.8,8.4c-0.6,0-1.2,0-1.8,0c0,0.1,0.1,0.2,0.1,0.2c1.4-1.3,3-2.5,4.9-3.1c1.4-0.5,2.8-0.6,4.2-0.4    c1.2,0.2,2.3,0.6,3.4,1.1c0.8,0.4,1.5,0.9,2.2,1.5c0.2,0.2,0.4,0.4,0.6,0.6c0.1,0.1,0.2,0.2,0.3,0.3l0,0c0.1,0.1,0.3-0.1,0.2-0.2    c-0.2-0.3-0.5-0.5-0.8-0.8c-0.7-0.6-1.4-1.1-2.2-1.6c-1-0.6-2.2-1-3.3-1.2c-1.4-0.2-2.9-0.2-4.2,0.2C10.6,5.6,9,6.7,7.6,7.9    C7.4,8.1,7.1,8.2,6.9,8.4C6.8,8.5,6.9,8.7,7,8.7c0.6,0,1.2,0,1.8,0C8.9,8.7,8.9,8.4,8.8,8.4L8.8,8.4z"></path>
		<path class="st0" d="M6.9,6.8c0,0.5,0,1,0,1.5c0,0.1,0,0.1,0,0.2c0,0.2,0.3,0.2,0.3,0c0-0.5,0-1,0-1.5c0-0.1,0-0.1,0-0.2    C7.2,6.6,6.9,6.6,6.9,6.8L6.9,6.8z"></path>
	</g>
	<g>
		<path class="st0" d="M21.1,21.6c0.6,0,1.2,0,1.8,0c0-0.1-0.1-0.2-0.1-0.2c-1.4,1.3-3,2.5-4.9,3.1c-1.4,0.5-2.8,0.6-4.2,0.4    c-1.2-0.2-2.3-0.5-3.4-1.1c-0.8-0.4-1.6-0.9-2.2-1.5c-0.2-0.2-0.4-0.4-0.6-0.6c-0.1-0.1-0.2-0.2-0.3-0.3l0,0    c-0.1-0.1-0.3,0.1-0.2,0.2c0.2,0.3,0.5,0.5,0.8,0.8c0.7,0.6,1.4,1.1,2.2,1.6c1,0.6,2.2,1,3.3,1.2c1.4,0.2,2.9,0.2,4.2-0.2    c1.8-0.5,3.4-1.5,4.9-2.7c0.2-0.2,0.5-0.4,0.7-0.6c0.1-0.1,0-0.2-0.1-0.2c-0.6,0-1.2,0-1.8,0C20.9,21.3,20.9,21.6,21.1,21.6    L21.1,21.6z"></path>
		<path class="st0" d="M23,23.2c0-0.5,0-1,0-1.5c0-0.1,0-0.1,0-0.2c0-0.2-0.3-0.2-0.3,0c0,0.5,0,1,0,1.5c0,0.1,0,0.1,0,0.2    C22.7,23.4,23,23.4,23,23.2L23,23.2z"></path>
	</g>
	<g>
		<path class="st1" d="M25.1,15c0,0.6-0.4,1.1-0.9,1.3c-0.5,0.2-1.1,0.1-1.5-0.3c-0.4-0.4-0.5-1.1-0.3-1.6c0.3-0.5,0.9-0.9,1.4-0.8    C24.5,13.7,25.1,14.3,25.1,15c0,0.2,0.3,0.2,0.3,0c0-0.7-0.5-1.4-1.2-1.6c-0.7-0.2-1.4,0-1.9,0.6c-0.4,0.6-0.5,1.4-0.1,1.9    c0.4,0.6,1.1,0.9,1.8,0.7c0.8-0.2,1.3-0.9,1.3-1.7C25.4,14.8,25.1,14.8,25.1,15z"></path>
		<path class="st1" d="M25.1,15c0,0.6-0.4,1.1-0.9,1.3c-0.5,0.2-1.1,0.1-1.5-0.3c-0.4-0.4-0.5-1.1-0.3-1.6c0.3-0.5,0.9-0.9,1.4-0.8    C24.5,13.7,25.1,14.3,25.1,15c0,0.2,0.3,0.2,0.3,0c0-0.7-0.5-1.4-1.2-1.6c-0.7-0.2-1.4,0-1.9,0.6c-0.4,0.6-0.5,1.4-0.1,1.9    c0.4,0.6,1.1,0.9,1.8,0.7c0.8-0.2,1.3-0.9,1.3-1.7C25.4,14.8,25.1,14.8,25.1,15z"></path>
		<g>
			<g>
				<defs>
					<polygon id="SVGID_1_" points="22.1,12.6 21.2,10.8 21.2,9.2 30.3,9.9 30.3,20.7 24.1,20.7 21,19.9 22.1,17.9 21.7,15.5             "></polygon>
				</defs>
				<clipPath id="SVGID_2_">
					<use xlink:href="#SVGID_1_" style="overflow:visible;"></use>
				</clipPath>
				<g class="st2">
					<path class="st0" d="M28.6,15.8c0-0.6,0-1.1,0-1.6c0-0.1-0.1-0.1-0.1-0.1c-0.4,0-0.8,0-1.2,0c0,0,0.1,0.1,0.1,0.1       c-0.1-0.4-0.3-0.8-0.5-1.2c0,0.1,0,0.1,0,0.2c0.3-0.3,0.6-0.6,0.9-0.9c0-0.1,0.1-0.1,0-0.2c-0.4-0.4-0.8-0.8-1.2-1.1       c0-0.1-0.1-0.1-0.2,0c-0.3,0.3-0.5,0.6-0.8,0.9c0.1,0,0.1,0,0.2,0c-0.4-0.2-0.8-0.4-1.2-0.5c0,0,0.1,0.1,0.1,0.1       c0-0.4,0-0.8,0-1.3c0-0.1-0.1-0.1-0.1-0.1c-0.5,0-1.1,0-1.6,0c-0.1,0-0.1,0.1-0.1,0.1c0,0.4,0,0.8,0,1.2c0,0,0.1-0.1,0.1-0.1       c-1.4,0.3-2.5,1.4-2.9,2.7c-0.4,1.3,0,2.7,0.9,3.7c0.5,0.6,1.2,1,2,1.2c0,0-0.1-0.1-0.1-0.1c0,0.4,0,0.7,0,1.1       c0,0.1,0.1,0.1,0.1,0.1c0.5,0,1.1,0,1.6,0c0.1,0,0.1-0.1,0.1-0.1c0-0.4,0-0.7,0-1.1c0,0-0.1,0.1-0.1,0.1       c0.4-0.1,0.8-0.2,1.1-0.5c-0.1,0-0.1,0-0.2,0c0.3,0.3,0.5,0.5,0.8,0.8c0,0.1,0.1,0,0.2,0c0.4-0.4,0.8-0.8,1.2-1.1       c0.1,0,0-0.1,0-0.2c-0.3-0.3-0.5-0.5-0.8-0.8c0,0.1,0,0.1,0,0.2c0.3-0.4,0.4-0.8,0.5-1.3c0,0-0.1,0.1-0.1,0.1       c0.4,0,0.8,0,1.1,0c0.2,0,0.2-0.3,0-0.3c-0.4,0-0.8,0-1.1,0c-0.1,0-0.1,0-0.1,0.1c-0.1,0.4-0.3,0.9-0.5,1.2c0,0,0,0.1,0,0.2       c0.3,0.3,0.5,0.5,0.8,0.8c0-0.1,0-0.1,0-0.2c-0.4,0.4-0.8,0.8-1.2,1.1c0.1,0,0.1,0,0.2,0c-0.3-0.3-0.5-0.5-0.8-0.8       c0,0-0.1,0-0.2,0c-0.3,0.2-0.7,0.3-1.1,0.4c-0.1,0-0.1,0.1-0.1,0.1c0,0.4,0,0.7,0,1.1c0,0,0.1-0.1,0.1-0.1c-0.5,0-1.1,0-1.6,0       c0,0,0.1,0.1,0.1,0.1c0-0.4,0-0.7,0-1.1c0-0.1,0-0.1-0.1-0.1c-1.2-0.3-2.3-1.2-2.6-2.4c-0.4-1.2-0.1-2.5,0.8-3.4       c0.5-0.6,1.1-0.9,1.9-1.1c0.1,0,0.1-0.1,0.1-0.1c0-0.4,0-0.8,0-1.2c0,0.1-0.1,0.1-0.1,0.1c0.5,0,1.1,0,1.6,0       c0-0.1-0.1-0.1-0.1-0.1c0,0.4,0,0.8,0,1.3c0,0.1,0,0.1,0.1,0.1c0.4,0.1,0.8,0.2,1.1,0.4c0,0,0.1,0,0.2,0       c0.3-0.3,0.5-0.6,0.8-0.9c-0.1,0-0.1,0-0.2,0c0.4,0.4,0.8,0.8,1.2,1.1c0-0.1,0-0.1,0-0.2c-0.3,0.3-0.6,0.6-0.9,0.9       c0,0-0.1,0.1,0,0.2c0.2,0.3,0.4,0.7,0.5,1.1c0,0.1,0.1,0.1,0.1,0.1c0.4,0,0.8,0,1.2,0c0-0.1-0.1-0.1-0.1-0.1c0,0.6,0,1.1,0,1.6       C28.3,16,28.6,16,28.6,15.8z"></path>
					<path class="st0" d="M23.9,16.4c-0.6,0.1-1.2-0.2-1.5-0.6c-0.3-0.5-0.3-1.1,0.1-1.6c0.4-0.5,1-0.7,1.6-0.5c0.6,0.2,1,0.7,1,1.3       C25.1,15.7,24.6,16.2,23.9,16.4c-0.2,0-0.1,0.3,0.1,0.3c0.7-0.1,1.3-0.7,1.4-1.5c0.1-0.7-0.3-1.4-0.9-1.7       c-0.6-0.4-1.4-0.2-2,0.2c-0.5,0.5-0.7,1.3-0.4,1.9c0.3,0.7,1.1,1.1,1.9,1C24.2,16.6,24.1,16.4,23.9,16.4z"></path>
				</g>
			</g>
		</g>
	</g>
	<g>
		<path class="st1" d="M4.6,15c0,0.7,0.4,1.3,1.1,1.6c0.6,0.3,1.4,0.1,1.9-0.4c0.5-0.5,0.6-1.3,0.3-1.9c-0.3-0.6-1-1-1.8-0.9    C5.2,13.4,4.7,14.1,4.6,15c0,0.2,0.3,0.2,0.3,0c0-0.6,0.4-1.2,1-1.3c0.6-0.2,1.2,0.1,1.6,0.5c0.3,0.5,0.4,1.1,0,1.6    c-0.3,0.5-0.9,0.7-1.5,0.6c-0.7-0.1-1.1-0.7-1.1-1.4C4.9,14.8,4.6,14.8,4.6,15z"></path>
		<path class="st1" d="M4.6,15c0,0.7,0.4,1.3,1.1,1.6c0.6,0.3,1.4,0.1,1.9-0.4c0.5-0.5,0.6-1.3,0.3-1.9c-0.3-0.6-1-1-1.8-0.9    C5.2,13.4,4.7,14.1,4.6,15c0,0.2,0.3,0.2,0.3,0c0-0.6,0.4-1.2,1-1.3c0.6-0.2,1.2,0.1,1.6,0.5c0.3,0.5,0.4,1.1,0,1.6    c-0.3,0.5-0.9,0.7-1.5,0.6c-0.7-0.1-1.1-0.7-1.1-1.4C4.9,14.8,4.6,14.8,4.6,15z"></path>
		<g>
			<g>
				<defs>
					<polygon id="SVGID_3_" points="7.9,12.6 8.8,10.8 8.8,9.2 -0.3,9.9 -0.3,20.7 5.9,20.7 9,19.9 7.9,17.9 8.3,15.5      "></polygon>
				</defs>
				<clipPath id="SVGID_4_">
					<use xlink:href="#SVGID_3_" style="overflow:visible;"></use>
				</clipPath>
				<g class="st3">
					<path class="st0" d="M2.5,15.9c0.1,0.5,0.3,0.9,0.5,1.3c0-0.1,0-0.1,0-0.2c-0.3,0.3-0.5,0.5-0.8,0.8c0,0-0.1,0.1,0,0.2       c0.4,0.4,0.8,0.8,1.2,1.1c0,0,0.1,0.1,0.2,0c0.3-0.3,0.5-0.5,0.8-0.8c-0.1,0-0.1,0-0.2,0c0.3,0.2,0.7,0.4,1.1,0.5       c0,0-0.1-0.1-0.1-0.1c0,0.4,0,0.7,0,1.1c0,0.1,0.1,0.1,0.1,0.1c0.6,0,1.1,0,1.7,0c0.1,0,0.1-0.1,0.1-0.1c0-0.4,0-0.7,0-1.1       c0,0-0.1,0.1-0.1,0.1c1.3-0.3,2.4-1.3,2.8-2.6c0.4-1.3,0.1-2.7-0.8-3.7c-0.5-0.6-1.2-1-2-1.2c0,0,0.1,0.1,0.1,0.1       c0-0.4,0-0.8,0-1.2c0-0.1-0.1-0.1-0.1-0.1c-0.6,0-1.1,0-1.7,0c-0.1,0-0.1,0.1-0.1,0.1c0,0.4,0,0.8,0,1.3c0,0,0.1-0.1,0.1-0.1       c-0.4,0.1-0.8,0.3-1.2,0.5c0.1,0,0.1,0,0.2,0c-0.3-0.3-0.5-0.6-0.8-0.9c0-0.1-0.1-0.1-0.2,0c-0.4,0.4-0.8,0.8-1.2,1.1       c-0.1,0.1,0,0.1,0,0.2c0.3,0.3,0.6,0.6,0.9,0.9c0-0.1,0-0.1,0-0.2c-0.2,0.4-0.4,0.8-0.5,1.2c0,0,0.1-0.1,0.1-0.1       c-0.4,0-0.8,0-1.2,0c-0.1,0-0.1,0.1-0.1,0.1c0,0.6,0,1.1,0,1.6c0,0.1,0.1,0.1,0.1,0.1c0.4,0,0.8,0,1.1,0c0.2,0,0.2-0.3,0-0.3       c-0.4,0-0.8,0-1.1,0c0,0.1,0.1,0.1,0.1,0.1c0-0.6,0-1.1,0-1.6c0,0.1-0.1,0.1-0.1,0.1c0.4,0,0.8,0,1.2,0c0.1,0,0.1,0,0.1-0.1       c0.1-0.4,0.2-0.8,0.5-1.1c0-0.1,0-0.1,0-0.2c-0.3-0.3-0.6-0.6-0.9-0.9c0,0.1,0,0.1,0,0.2c0.4-0.4,0.8-0.8,1.2-1.1       c-0.1,0-0.1,0-0.2,0C3.7,11.4,4,11.7,4.2,12c0,0,0.1,0.1,0.2,0c0.3-0.2,0.7-0.4,1.1-0.4c0.1,0,0.1-0.1,0.1-0.1       c0-0.4,0-0.8,0-1.3c-0.1,0.1-0.1,0.1-0.1,0.1c0.6,0,1.1,0,1.7,0c0-0.1-0.1-0.1-0.1-0.1c0,0.4,0,0.8,0,1.2c0,0.1,0,0.1,0.1,0.1       c1.3,0.3,2.3,1.3,2.7,2.5c0.3,1.2,0,2.5-0.8,3.4c-0.5,0.5-1.1,0.9-1.8,1.1C7,18.6,7,18.6,7,18.7c0,0.4,0,0.7,0,1.1       c0.1,0,0.1-0.1,0.1-0.1c-0.6,0-1.1,0-1.7,0c0.1,0,0.1,0.1,0.1,0.1c0-0.4,0-0.7,0-1.1c0-0.1,0-0.1-0.1-0.1       c-0.4-0.1-0.7-0.2-1.1-0.4c-0.1,0-0.1,0-0.2,0C4,18.4,3.8,18.7,3.5,19c0.1,0,0.1,0,0.2,0c-0.4-0.4-0.8-0.8-1.2-1.1       c0,0.1,0,0.1,0,0.2c0.3-0.3,0.5-0.5,0.8-0.8c0,0,0.1-0.1,0-0.2c-0.2-0.4-0.4-0.8-0.5-1.2C2.8,15.6,2.5,15.7,2.5,15.9z"></path>
					<path class="st0" d="M5.6,16.2c-0.5-0.3-0.7-0.9-0.6-1.5c0.1-0.6,0.6-1.1,1.2-1.1c0.6-0.1,1.2,0.3,1.4,0.8s0.2,1.2-0.3,1.6       C6.9,16.5,6.1,16.5,5.6,16.2c-0.2-0.1-0.3,0.1-0.1,0.2c0.6,0.4,1.4,0.4,1.9-0.1c0.6-0.4,0.8-1.1,0.6-1.8       c-0.2-0.7-0.8-1.2-1.6-1.2c-0.7,0-1.4,0.4-1.7,1.1c-0.3,0.7,0,1.6,0.7,2C5.6,16.5,5.7,16.3,5.6,16.2z"></path>
				</g>
			</g>
		</g>
	</g>
</g>
</svg>