<svg xmlns="http://www.w3.org/2000/svg" xmlns:xlink="http://www.w3.org/1999/xlink" id="Calque_1" x="0px" y="0px" viewBox="0 0 30 30" style="enable-background:new 0 0 30 30;" xml:space="preserve">
<style type="text/css">
	.st0{fill:#FFFFFF;}
</style>
<g>
	<path class="st0" d="M6.9,18.9c-1.1,0-2.2,0-3.2,0c0,0,0.1,0.1,0.1,0.1c0-0.8,0-1.6,0-2.4c0-1.3,0-2.6,0-3.9c0-0.3,0-0.6,0-0.9   c0,0-0.1,0.1-0.1,0.1c1.1,0,2.2,0,3.2,0c0,0-0.1-0.1-0.1-0.1c0,0.8,0,1.6,0,2.4c0,1.3,0,2.6,0,3.9c0,0.3,0,0.6,0,0.9   c0,0.1,0.2,0.1,0.2,0c0-0.8,0-1.6,0-2.4c0-1.3,0-2.6,0-3.9c0-0.3,0-0.6,0-0.9c0-0.1-0.1-0.1-0.1-0.1c-1.1,0-2.2,0-3.2,0   c0,0-0.1,0.1-0.1,0.1c0,0.8,0,1.6,0,2.4c0,1.3,0,2.6,0,3.9c0,0.3,0,0.6,0,0.9c0,0,0,0.1,0.1,0.1c1.1,0,2.2,0,3.2,0   C7.1,19.1,7.1,18.9,6.9,18.9z"></path>
	<path class="st0" d="M19.8,7.6c0,1.6,0,3.2,0,4.8c0,2.5,0,5,0,7.5c0,0.6,0,1.1,0,1.7c0,0,0.1-0.1,0.1-0.1c-1.1,0-2.2,0-3.2,0   c0,0,0.1,0.1,0.1,0.1c0-1.6,0-3.2,0-4.8c0-2.5,0-5,0-7.5c0-0.6,0-1.1,0-1.7c0,0-0.1,0.1-0.1,0.1c1.1,0,2.2,0,3.2,0   c0.1,0,0.1-0.2,0-0.2c-1.1,0-2.2,0-3.2,0c0,0-0.1,0.1-0.1,0.1c0,1.6,0,3.2,0,4.8c0,2.5,0,5,0,7.5c0,0.6,0,1.1,0,1.7   c0,0,0,0.1,0.1,0.1c1.1,0,2.2,0,3.2,0c0,0,0.1,0,0.1-0.1c0-1.6,0-3.2,0-4.8c0-2.5,0-5,0-7.5c0-0.6,0-1.1,0-1.7   C20,7.4,19.8,7.4,19.8,7.6z"></path>
	<path class="st0" d="M3.7,17.7c-0.9,0-1.8,0-2.7,0c0,0,0.1,0.1,0.1,0.1c0-1.3,0-2.6,0-3.9c0-0.2,0-0.4,0-0.6c0,0-0.1,0.1-0.1,0.1   c0.9,0,1.8,0,2.7,0c0,0-0.1-0.1-0.1-0.1c0,1.3,0,2.6,0,3.9C3.6,17.4,3.6,17.6,3.7,17.7c-0.1,0.2,0.1,0.2,0.1,0.1c0-1.3,0-2.6,0-3.9   c0-0.2,0-0.4,0-0.6c0-0.1,0-0.1-0.1-0.1c-0.9,0-1.8,0-2.7,0c-0.1,0-0.1,0.1-0.1,0.1c0,1.3,0,2.6,0,3.9c0,0.2,0,0.4,0,0.5   c0,0,0.1,0.1,0.1,0.1c0.9,0,1.8,0,2.7,0C3.8,17.9,3.8,17.7,3.7,17.7z"></path>
	<path class="st0" d="M7,11.9c1.1-0.5,2.2-1,3.3-1.4C12,9.7,13.7,9,15.5,8.2c0.4-0.2,0.8-0.3,1.2-0.5c0.1-0.1,0-0.2-0.1-0.2   c-1.1,0.5-2.2,1-3.3,1.4c-1.7,0.8-3.5,1.5-5.2,2.3c-0.4,0.2-0.8,0.4-1.2,0.5C6.8,11.8,6.9,12,7,11.9L7,11.9z"></path>
	<path class="st0" d="M6.9,19.1c1.1,0.3,2.2,0.6,3.3,0.9c1.7,0.5,3.5,0.9,5.2,1.4c0.4,0.1,0.8,0.2,1.2,0.3c0.1,0,0.2-0.2,0-0.2   c-1.1-0.3-2.2-0.6-3.3-0.9c-1.7-0.5-3.5-0.9-5.2-1.4c-0.4-0.1-0.8-0.2-1.2-0.3C6.8,18.9,6.8,19.1,6.9,19.1L6.9,19.1z"></path>
	<path class="st0" d="M22.9,14.6c0,1.6-1.4,3-3,3c0,0,0.1,0.1,0.1,0.1c0-1.8,0-3.6,0-5.4c0-0.2,0-0.5,0-0.8c0,0-0.1,0.1-0.1,0.1   C21.5,11.6,22.9,12.9,22.9,14.6c0,0.1,0.2,0.1,0.2,0c0-1.7-1.4-3.2-3.2-3.2c0,0-0.1,0.1-0.1,0.1c0,1.8,0,3.6,0,5.4   c0,0.2,0,0.5,0,0.8c0,0,0,0.1,0.1,0.1c1.7,0,3.2-1.4,3.2-3.2C23.1,14.4,22.9,14.4,22.9,14.6z"></path>
	<path class="st0" d="M4.7,19.1c0.4,1.7,0.8,3.3,1.3,5c0.1,0.2,0.1,0.5,0.2,0.7c0,0,0.1,0.1,0.1,0.1c0.8,0,1.7,0,2.5,0   c0.1,0,0.1-0.1,0.1-0.1c-0.4-1.6-0.8-3.2-1.2-4.9c-0.1-0.2-0.1-0.5-0.2-0.7c-0.1-0.1-0.2-0.1-0.2,0c0.4,1.6,0.8,3.2,1.2,4.9   c0.1,0.2,0.1,0.5,0.2,0.7c0,0,0.1-0.1,0.1-0.1c-0.8,0-1.7,0-2.5,0c0,0,0.1,0,0.1,0.1c-0.4-1.7-0.8-3.3-1.3-5   C5,19.5,4.9,19.2,4.9,19C4.8,18.9,4.7,18.9,4.7,19.1L4.7,19.1z"></path>
	<path class="st0" d="M24.5,14.9c1.3,0,2.6,0,3.9,0c0.2,0,0.4,0,0.5,0c0.1,0,0.1-0.2,0-0.2c-1.3,0-2.6,0-3.9,0c-0.2,0-0.4,0-0.5,0   C24.4,14.7,24.4,14.9,24.5,14.9L24.5,14.9z"></path>
	<path class="st0" d="M24.6,8.5c0.9-0.9,1.9-1.8,2.8-2.8c0.1-0.1,0.3-0.3,0.4-0.4c0.1-0.1,0-0.2-0.1-0.1c-0.9,0.9-1.9,1.8-2.8,2.8   c-0.1,0.1-0.3,0.3-0.4,0.4C24.4,8.5,24.5,8.6,24.6,8.5L24.6,8.5z"></path>
	<path class="st0" d="M24.4,21.4c0.9,0.9,1.9,1.9,2.8,2.8c0.1,0.1,0.3,0.3,0.4,0.4c0.1,0.1,0.2,0,0.1-0.1c-0.9-0.9-1.9-1.9-2.8-2.8   c-0.1-0.1-0.3-0.3-0.4-0.4C24.5,21.2,24.4,21.3,24.4,21.4L24.4,21.4z"></path>
</g>
</svg>