<svg xmlns="http://www.w3.org/2000/svg" xmlns:xlink="http://www.w3.org/1999/xlink" id="Calque_1" x="0px" y="0px" viewBox="0 0 30 30" style="enable-background:new 0 0 30 30;" xml:space="preserve">
<style type="text/css">
	.st0{opacity:0.9;fill-rule:evenodd;clip-rule:evenodd;fill:url(#SVGID_1_);}
	.st1{opacity:0.9;fill-rule:evenodd;clip-rule:evenodd;fill:url(#SVGID_00000136392749478492145370000008719902477430126761_);}
	.st2{fill:#FFFFFF;}
</style>
<linearGradient id="SVGID_1_" gradientUnits="userSpaceOnUse" x1="22.0112" y1="10.818" x2="12.9375" y2="16.0591">
	<stop offset="0.0112" style="stop-color:#E3047E;stop-opacity:0.8"></stop>
	<stop offset="1" style="stop-color:#304096;stop-opacity:0.8"></stop>
</linearGradient>
<path class="st0" d="M16.12,23.81c-3.9,3.43-7.58,1.36-6.83-4.47c0.31-2.9-0.72-3.96-2.92-5.58c-1.76-1.29-2.42-2.14-1.41-4.29  c0.12-0.24,0.24-0.47,0.38-0.7C6.94,6.1,11.52,6.31,14,8.17c1.44,1.05,2.47,1.4,4.07,0.55c1.4-0.74,2.22-1.29,3.9-0.86  c1.37,0.34,2.7,1.23,3.81,2.07c1.21,0.99,3.28,4.12,1.53,5.42c-0.85,0.63-1.83,1.06-2.89,1.06c-0.38-0.01-0.31,0.12-0.23,0.51  c0.34,1.63,0.68,2.57-0.16,4.14c-0.94,1.77-2.96,2.93-4.83,1.74l-0.11-0.07C18.51,22.32,16.54,23.43,16.12,23.81L16.12,23.81z   M6.79,18.27c0.16-0.03,0.41-0.04,0.52-0.13c0.99-0.76,0.1-3.05-1.17-2.45C4.77,16.35,5.5,18.38,6.79,18.27L6.79,18.27z M5.19,15.41  c0.69,0.21,0.57-0.57,0.31-0.81C5.02,14.14,4.44,15.15,5.19,15.41L5.19,15.41z M17.63,8.25c0.42-0.07,0.78-0.49,0.64-0.92  c-0.28-0.84-1.34-0.48-1.52,0.2C16.61,8.03,17.2,8.35,17.63,8.25L17.63,8.25z M25.71,17.81c-0.27,0.7,0.34,0.84,0.59,0.59  C26.68,18.02,26.1,17.39,25.71,17.81L25.71,17.81z M27.37,17.09l-0.05,0.1c-0.11,0.28,0.1,0.56,0.38,0.5  C28.22,17.58,27.85,16.62,27.37,17.09z"></path>
<linearGradient id="SVGID_00000016033514667815880280000016063365083064137623_" gradientUnits="userSpaceOnUse" x1="15.6138" y1="20.695" x2="25.3969" y2="15.0442" gradientTransform="matrix(0.9898 0.1422 -0.1422 0.9898 -2.7546 -3.893)">
	<stop offset="0" style="stop-color:#E3047E"></stop>
	<stop offset="1" style="stop-color:#304096"></stop>
</linearGradient>
<path style="opacity:0.9;fill-rule:evenodd;clip-rule:evenodd;fill:url(#SVGID_00000016033514667815880280000016063365083064137623_);" d="  M17.12,6.22c4.69-3.06,8.3-0.29,6.6,5.82c-0.78,3.05,0.16,4.34,2.26,6.4c1.68,1.64,2.25,2.65,0.85,4.79  c-0.16,0.24-0.33,0.46-0.51,0.69c-2.13,2.61-6.98,1.68-9.34-0.68c-1.37-1.35-2.42-1.87-4.26-1.21c-1.6,0.57-2.56,1.03-4.3,0.32  c-1.4-0.57-2.69-1.73-3.75-2.79c-1.14-1.24-2.87-4.9-0.8-6.01c1-0.54,2.11-0.85,3.25-0.68c0.4,0.07,0.35-0.09,0.33-0.51  c-0.11-1.79-0.33-2.84,0.8-4.39c1.28-1.75,3.61-2.67,5.42-1.11l0.1,0.09C14.34,7.45,16.61,6.55,17.12,6.22L17.12,6.22z M26.23,13.56  c-0.17,0.01-0.44-0.02-0.58,0.05c-1.17,0.66-0.57,3.24,0.87,2.79C28.09,15.91,27.62,13.64,26.23,13.56L26.23,13.56z M27.49,16.86  c-0.7-0.33-0.69,0.52-0.46,0.82C27.49,18.24,28.26,17.26,27.49,16.86L27.49,16.86z M13.13,22.59c-0.46,0.01-0.91,0.4-0.82,0.88  c0.17,0.94,1.36,0.71,1.65,0.03C14.18,22.99,13.59,22.55,13.13,22.59L13.13,22.59z M5.96,11.15c0.4-0.7-0.23-0.95-0.54-0.72  C4.96,10.78,5.48,11.53,5.96,11.15L5.96,11.15z M4.09,11.67l0.07-0.1c0.16-0.29-0.02-0.61-0.33-0.59  C3.25,11.01,3.5,12.09,4.09,11.67z"></path>
<g>
	<path class="st2" d="M13.16,15.02c-0.46,0.46-0.94,0.9-1.38,1.38c-0.75,0.83-0.43,2.14,0.52,2.68c0.69,0.39,1.52,0.08,2.04-0.44   c0.57-0.57,1.13-1.13,1.7-1.7c0.18-0.18,0.33-0.4,0.42-0.65c0.28-0.71,0.01-1.39-0.52-1.89c-0.06-0.06-0.16,0.03-0.1,0.1   c0.49,0.48,0.75,1.1,0.48,1.76c-0.08,0.2-0.2,0.4-0.35,0.55c-0.5,0.52-1.02,1.02-1.53,1.53c-0.43,0.43-0.93,0.83-1.58,0.77   c-0.75-0.07-1.38-0.87-1.38-1.61c0-0.36,0.15-0.74,0.39-1.01c0.43-0.48,0.92-0.92,1.38-1.38C13.31,15.05,13.22,14.96,13.16,15.02   L13.16,15.02z"></path>
	<path class="st2" d="M17.57,15.38c0.46-0.46,0.94-0.9,1.38-1.38c0.75-0.83,0.43-2.14-0.52-2.68c-0.69-0.39-1.52-0.08-2.04,0.44   c-0.57,0.57-1.13,1.13-1.7,1.7c-0.18,0.18-0.33,0.4-0.42,0.65c-0.28,0.71-0.01,1.39,0.52,1.89c0.06,0.06,0.16-0.03,0.1-0.1   c-0.49-0.48-0.75-1.1-0.48-1.76c0.08-0.2,0.2-0.4,0.35-0.55c0.5-0.52,1.02-1.02,1.53-1.53c0.43-0.43,0.93-0.83,1.58-0.77   c0.75,0.07,1.38,0.87,1.38,1.61c0,0.36-0.15,0.74-0.39,1.01c-0.43,0.48-0.92,0.92-1.38,1.38C17.41,15.34,17.51,15.44,17.57,15.38   L17.57,15.38z"></path>
</g>
</svg>