<svg xmlns="http://www.w3.org/2000/svg" xmlns:xlink="http://www.w3.org/1999/xlink" id="Calque_1" x="0px" y="0px" viewBox="0 0 30 30" style="enable-background:new 0 0 30 30;" xml:space="preserve">
<style type="text/css">
	.st0{opacity:0.9;fill-rule:evenodd;clip-rule:evenodd;fill:url(#SVGID_1_);}
	.st1{opacity:0.9;fill:url(#SVGID_00000112602668535506863870000009435908263328902016_);}
	.st2{fill:#FFFFFF;}
</style>
<linearGradient id="SVGID_1_" gradientUnits="userSpaceOnUse" x1="18.7725" y1="17.595" x2="10.9923" y2="13.104">
	<stop offset="0" style="stop-color:#E3047E;stop-opacity:0.8"></stop>
	<stop offset="1" style="stop-color:#304096;stop-opacity:0.8"></stop>
</linearGradient>
<path class="st0" d="M18.45,6.78c-0.92-1.64-3.36-1.66-4.87-0.85c-0.9,0.48-1.38,1.05-1.92,1.89c-2.62,3.92-11.7,1.3-8.38,9.62  c1.69,3.88,5.18-0.61,8.79,6.04c0.34,0.63,0.64,0.85,1.34,1.06c1.61,0.49,5.03,0.17,6.18-1.15c0.14-0.17,0.22-0.3,0.28-0.51  c0.56-1.99,1.4-2.58,3.35-2.85c1.18-0.16,2.14-0.32,2.32-1.72c0.29-2.29-3.25-1.93-0.01-4.65c3.45-2.83,0.04-5.55-4.43-5.32  C19.67,8.4,18.88,8.23,18.45,6.78L18.45,6.78z M7.19,20.68c0.77-0.01,1.43,0.2,1.7,0.98c0.72,2.14-2.13,1.95-2.68,0.54  c-0.24-0.61-0.04-1.19,0.61-1.37C7.02,20.78,6.99,20.71,7.19,20.68L7.19,20.68z M4.87,20.55l0.03-0.12  c0.08-0.32,0.57-0.46,0.74-0.13C6.07,21.12,4.87,21.33,4.87,20.55L4.87,20.55z M10.47,23.09l0.02,0c0.53-0.03,0.46,0.84,0.03,0.89  C10.01,24.03,9.88,23.14,10.47,23.09L10.47,23.09z M7.64,8.93C7.35,8.3,7.87,7.86,8.4,7.64c0.62-0.26,0.35-0.11,0.69-0.55  c0.31-0.39,0.85-0.61,1.19-0.15c0.42,0.58-0.21,1.01-0.66,1.25C8.99,8.51,9.15,8.51,8.7,8.95C8.38,9.27,7.88,9.34,7.64,8.93  L7.64,8.93z M25.89,15.16c0.1-0.33,0.26-0.6,0.66-0.49c0.36,0.1,0.55,0.19,0.55,0.61C27.13,16.17,25.7,16.29,25.89,15.16z"></path>
<linearGradient id="SVGID_00000058562614864942346430000012962381381034722217_" gradientUnits="userSpaceOnUse" x1="4.4837" y1="9.8471" x2="28.1694" y2="21.7359">
	<stop offset="0" style="stop-color:#E3047E"></stop>
	<stop offset="0.4832" style="stop-color:#8F2089"></stop>
	<stop offset="1" style="stop-color:#304096"></stop>
</linearGradient>
<path style="opacity:0.9;fill:url(#SVGID_00000058562614864942346430000012962381381034722217_);" d="M11.14,6.24  c1-1.77,3.63-1.79,5.26-0.92c0.97,0.52,1.49,1.14,2.07,2.05c2.83,4.23,12.63,1.4,9.04,10.39c-1.82,4.19-5.59-0.66-9.49,6.52  c-0.37,0.68-0.7,0.92-1.45,1.15c-1.74,0.53-5.44,0.18-6.67-1.24C9.75,24,9.67,23.86,9.6,23.63c-0.6-2.14-1.52-2.79-3.61-3.08  c-1.28-0.18-2.31-0.35-2.51-1.86c-0.32-2.47,3.51-2.09,0.01-5.03c-3.73-3.05-0.04-5.99,4.79-5.75C9.83,7.99,10.68,7.81,11.14,6.24  L11.14,6.24z M23.3,21.25c-0.83-0.01-1.55,0.21-1.83,1.06c-0.77,2.31,2.3,2.1,2.89,0.58c0.25-0.66,0.05-1.29-0.66-1.48  C23.49,21.36,23.52,21.28,23.3,21.25L23.3,21.25z M25.81,21.11l-0.03-0.13c-0.08-0.35-0.61-0.49-0.8-0.14  C24.52,21.72,25.81,21.95,25.81,21.11L25.81,21.11z M19.76,23.85l-0.03,0c-0.57-0.04-0.5,0.91-0.03,0.96  C20.26,24.87,20.4,23.91,19.76,23.85L19.76,23.85z M22.82,8.56c0.31-0.68-0.25-1.15-0.82-1.4c-0.67-0.28-0.38-0.12-0.75-0.59  c-0.33-0.43-0.92-0.66-1.28-0.16c-0.45,0.63,0.23,1.09,0.71,1.35c0.67,0.36,0.51,0.35,0.99,0.83C22.02,8.93,22.56,9,22.82,8.56  L22.82,8.56z M3.11,15.29C3,14.93,2.83,14.64,2.39,14.76c-0.39,0.11-0.59,0.2-0.6,0.66C1.78,16.38,3.31,16.51,3.11,15.29z"></path>
<g>
	<path class="st2" d="M19.03,19.24c-0.21,0.19-0.5,0.19-0.71,0c-0.03-0.03-0.07-0.07-0.1-0.1c-0.18-0.18-0.35-0.35-0.53-0.53   c-0.47-0.47-0.94-0.94-1.41-1.41c-0.12-0.12-0.23-0.23-0.35-0.35c0,0.03-0.01,0.07-0.01,0.1c0.32-0.23,0.59-0.5,0.82-0.82   c-0.03,0-0.07,0.01-0.1,0.01c0.75,0.75,1.49,1.49,2.24,2.24c0.05,0.05,0.1,0.09,0.14,0.14C19.21,18.73,19.22,19.02,19.03,19.24   c-0.06,0.06,0.04,0.16,0.09,0.09c0.26-0.28,0.23-0.66-0.03-0.92c-0.15-0.15-0.31-0.31-0.46-0.46c-0.5-0.5-1.01-1.01-1.51-1.51   c-0.13-0.13-0.26-0.26-0.39-0.39c-0.03-0.03-0.08-0.02-0.1,0.01c-0.21,0.3-0.47,0.56-0.77,0.77c-0.03,0.02-0.05,0.07-0.01,0.1   c0.78,0.78,1.55,1.55,2.33,2.33c0.27,0.27,0.65,0.33,0.95,0.06C19.18,19.27,19.09,19.18,19.03,19.24z"></path>
	<path class="st2" d="M17.19,14.27c-0.03,1.55-1.16,2.9-2.72,3.11c-1.26,0.17-2.52-0.46-3.15-1.57c-0.6-1.07-0.51-2.44,0.23-3.42   c0.76-1.01,2.09-1.47,3.31-1.15C16.23,11.6,17.17,12.86,17.19,14.27c0,0.09,0.13,0.09,0.13,0c-0.02-1.3-0.78-2.49-1.98-3   c-1.23-0.52-2.69-0.23-3.62,0.72c-0.91,0.93-1.18,2.36-0.67,3.56c0.51,1.19,1.71,1.98,3,1.98c1.8,0,3.24-1.49,3.27-3.27   C17.32,14.18,17.19,14.18,17.19,14.27z"></path>
	<path class="st2" d="M12.22,15.62c-0.17-0.26-0.29-0.56-0.36-0.86c-0.16-0.7,0.01-1.4,0.46-1.95c0.05-0.07-0.04-0.16-0.09-0.09   c-0.46,0.57-0.65,1.26-0.52,1.98c0.06,0.34,0.19,0.7,0.39,0.99C12.15,15.75,12.27,15.69,12.22,15.62L12.22,15.62z"></path>
</g>
</svg>