<?xml version="1.0" encoding="utf-8"?>
<!-- Generator: Adobe Illustrator 25.4.1, SVG Export Plug-In . SVG Version: 6.00 Build 0)  -->
<svg version="1.1" id="Calque_1" xmlns="http://www.w3.org/2000/svg" xmlns:xlink="http://www.w3.org/1999/xlink" x="0px" y="0px"
	 viewBox="0 0 30 30" style="enable-background:new 0 0 30 30;" xml:space="preserve">
<style type="text/css">
	.st0{fill:#B62A62;}
</style>
<g>
	<path class="st0" d="M1.44,2.52c0.24,0,0.48,0,0.72,0c0.66,0,1.31,0,1.97,0c0.97,0,1.94,0,2.92,0c1.19,0,2.38,0,3.57,0
		c1.3,0,2.6,0,3.9,0c1.31,0,2.62,0,3.94,0c1.22,0,2.45,0,3.67,0c1.03,0,2.07,0,3.1,0c0.74,0,1.49,0,2.23,0c0.35,0,0.71,0.01,1.06,0
		c0.01,0,0.03,0,0.04,0c0.21,0,0.21-0.32,0-0.32c-0.24,0-0.48,0-0.72,0c-0.66,0-1.31,0-1.97,0c-0.97,0-1.94,0-2.92,0
		c-1.19,0-2.38,0-3.57,0c-1.3,0-2.6,0-3.9,0c-1.31,0-2.62,0-3.94,0c-1.22,0-2.45,0-3.67,0c-1.03,0-2.07,0-3.1,0
		c-0.74,0-1.49,0-2.23,0c-0.35,0-0.71-0.01-1.06,0c-0.01,0-0.03,0-0.04,0C1.23,2.2,1.23,2.52,1.44,2.52L1.44,2.52z"/>
	<path class="st0" d="M3.5,2.36c0,0.57,0,1.13,0,1.7c0,1.35,0,2.7,0,4.05c0,1.64,0,3.28,0,4.93c0,1.41,0,2.83,0,4.24
		c0,0.69-0.03,1.38,0,2.06c0,0.01,0,0.02,0,0.03c0,0.09,0.07,0.16,0.16,0.16c0.2,0,0.41,0,0.61,0c0.55,0,1.1,0,1.66,0
		c0.82,0,1.64,0,2.46,0c1,0,1.99,0,2.99,0c1.09,0,2.18,0,3.27,0c1.11,0,2.21,0,3.32,0c1.03,0,2.06,0,3.09,0c0.87,0,1.73,0,2.6,0
		c0.62,0,1.25,0,1.87,0c0.3,0,0.6,0.01,0.89,0c0.01,0,0.03,0,0.04,0c0.09,0,0.16-0.07,0.16-0.16c0-0.57,0-1.13,0-1.7
		c0-1.35,0-2.7,0-4.05c0-1.64,0-3.28,0-4.93c0-1.41,0-2.83,0-4.24c0-0.69,0.03-1.38,0-2.06c0-0.01,0-0.02,0-0.03
		c0-0.09-0.07-0.16-0.16-0.16c-0.2,0-0.41,0-0.61,0c-0.55,0-1.1,0-1.66,0c-0.82,0-1.64,0-2.46,0c-1,0-1.99,0-2.99,0
		c-1.09,0-2.18,0-3.27,0c-1.11,0-2.21,0-3.32,0c-1.03,0-2.06,0-3.09,0c-0.87,0-1.73,0-2.6,0c-0.62,0-1.25,0-1.87,0
		c-0.3,0-0.6-0.01-0.89,0c-0.01,0-0.03,0-0.04,0c-0.21,0-0.21,0.32,0,0.32c0.2,0,0.41,0,0.61,0c0.55,0,1.1,0,1.66,0
		c0.82,0,1.64,0,2.46,0c1,0,1.99,0,2.99,0c1.09,0,2.18,0,3.27,0c1.11,0,2.21,0,3.32,0c1.03,0,2.06,0,3.09,0c0.87,0,1.73,0,2.6,0
		c0.62,0,1.25,0,1.87,0c0.29,0,0.6,0.03,0.89,0c0.01,0,0.03,0,0.04,0c-0.05-0.05-0.11-0.11-0.16-0.16c0,0.57,0,1.13,0,1.7
		c0,1.35,0,2.7,0,4.05c0,1.64,0,3.28,0,4.93c0,1.41,0,2.83,0,4.24c0,0.47,0,0.93,0,1.4c0,0.21-0.03,0.45,0,0.66
		c0,0.01,0,0.02,0,0.03c0.05-0.05,0.11-0.11,0.16-0.16c-0.2,0-0.41,0-0.61,0c-0.55,0-1.1,0-1.66,0c-0.82,0-1.64,0-2.46,0
		c-1,0-1.99,0-2.99,0c-1.09,0-2.18,0-3.27,0c-1.11,0-2.21,0-3.32,0c-1.03,0-2.06,0-3.09,0c-0.87,0-1.73,0-2.6,0
		c-0.62,0-1.25,0-1.87,0c-0.29,0-0.6-0.03-0.89,0c-0.01,0-0.03,0-0.04,0c0.05,0.05,0.11,0.11,0.16,0.16c0-0.57,0-1.13,0-1.7
		c0-1.35,0-2.7,0-4.05c0-1.64,0-3.28,0-4.93c0-1.41,0-2.83,0-4.24c0-0.69,0.03-1.38,0-2.06c0-0.01,0-0.02,0-0.03
		C3.82,2.15,3.5,2.15,3.5,2.36z"/>
	<g>
		<path class="st0" d="M11.59,6.34c0.28,0.76,0.55,1.51,0.83,2.27c0.04,0.11,0.08,0.22,0.12,0.33c0.04,0.12,0.16,0.21,0.3,0.17
			c0.12-0.03,0.21-0.17,0.17-0.3c-0.28-0.76-0.55-1.51-0.83-2.27c-0.04-0.11-0.08-0.22-0.12-0.33c-0.04-0.12-0.16-0.21-0.3-0.17
			C11.64,6.08,11.54,6.22,11.59,6.34L11.59,6.34z"/>
		<path class="st0" d="M13.52,6.86c-0.75,0.28-1.5,0.56-2.26,0.83c-0.11,0.04-0.22,0.08-0.32,0.12c-0.12,0.04-0.2,0.16-0.17,0.3
			c0.03,0.12,0.17,0.21,0.3,0.17c0.75-0.28,1.5-0.56,2.26-0.83c0.11-0.04,0.22-0.08,0.32-0.12c0.12-0.04,0.2-0.16,0.17-0.3
			C13.79,6.92,13.64,6.82,13.52,6.86L13.52,6.86z"/>
	</g>
	<path class="st0" d="M19.27,5.33c0.41,0.51,0.83,1.02,1.24,1.53c0.09,0.11,0.25,0.08,0.34,0c0.93-0.76,1.86-1.53,2.79-2.29
		c0.13-0.11,0.26-0.22,0.4-0.32c0.1-0.08,0.08-0.26,0-0.34c-0.1-0.1-0.24-0.08-0.34,0c-0.93,0.76-1.86,1.53-2.79,2.29
		c-0.13,0.11-0.26,0.22-0.4,0.32c0.11,0,0.23,0,0.34,0C20.44,6,20.03,5.49,19.61,4.98c-0.08-0.1-0.25-0.08-0.34,0
		C19.17,5.08,19.19,5.23,19.27,5.33L19.27,5.33z"/>
	<path class="st0" d="M13.55,15.95c-0.01,0.46-0.29,0.9-0.73,1.06c-0.45,0.16-0.96,0.02-1.27-0.35c-0.29-0.36-0.32-0.89-0.09-1.29
		c0.24-0.4,0.71-0.62,1.16-0.53C13.16,14.94,13.55,15.41,13.55,15.95c0,0.31,0.48,0.31,0.48,0c-0.01-0.68-0.42-1.27-1.05-1.51
		c-0.62-0.24-1.36-0.04-1.78,0.48c-0.43,0.52-0.5,1.27-0.15,1.86c0.35,0.58,1.02,0.88,1.68,0.76c0.75-0.14,1.29-0.83,1.3-1.58
		C14.04,15.64,13.56,15.64,13.55,15.95z"/>
	<path class="st0" d="M6.13,14.2c0.2-0.02,0.35-0.2,0.49-0.32c0.25-0.22,0.51-0.43,0.79-0.62c0.77-0.54,1.67-0.97,2.63-0.99
		c0.88-0.02,1.77,0.06,2.65,0.06c1.01,0.01,2.02-0.03,3.02-0.19c0.98-0.16,1.98-0.45,2.75-1.1c0.24-0.2-0.1-0.54-0.34-0.34
		c-0.64,0.54-1.5,0.79-2.31,0.94c-0.96,0.18-1.93,0.22-2.9,0.22c-0.88,0-1.75-0.04-2.62-0.06c-0.99-0.03-1.93,0.3-2.77,0.82
		c-0.37,0.23-0.71,0.49-1.05,0.77c-0.11,0.09-0.22,0.19-0.33,0.28c-0.02,0.02-0.13,0.1-0.06,0.05C6,13.76,6.05,13.72,6.13,13.71
		C5.83,13.74,5.82,14.23,6.13,14.2L6.13,14.2z"/>
	<path class="st0" d="M19.82,11.84c-0.69-0.7-1.38-1.4-2.08-2.11c-0.18-0.18-0.36-0.37-0.54-0.55c-0.04,0.13-0.07,0.27-0.11,0.4
		c0.95-0.25,1.9-0.5,2.85-0.75c0.25-0.07,0.5-0.13,0.75-0.2c-0.1-0.1-0.2-0.2-0.3-0.3c-0.26,0.95-0.52,1.91-0.78,2.86
		c-0.07,0.25-0.14,0.5-0.2,0.75c-0.08,0.3,0.38,0.43,0.46,0.13c0.26-0.95,0.52-1.91,0.78-2.86c0.07-0.25,0.14-0.5,0.2-0.75
		c0.05-0.18-0.12-0.34-0.3-0.3c-0.95,0.25-1.9,0.5-2.85,0.75c-0.25,0.07-0.5,0.13-0.75,0.2c-0.18,0.05-0.23,0.28-0.11,0.4
		c0.69,0.7,1.38,1.4,2.08,2.11c0.18,0.18,0.36,0.37,0.54,0.55C19.7,12.41,20.04,12.06,19.82,11.84z"/>
	<path class="st0" d="M10.21,19.37c-0.28,0.93-0.56,1.87-0.84,2.8c-0.44,1.47-0.89,2.95-1.33,4.42c-0.1,0.34-0.2,0.68-0.31,1.02
		c-0.06,0.2,0.25,0.28,0.31,0.09c0.28-0.93,0.56-1.87,0.84-2.8c0.44-1.47,0.89-2.95,1.33-4.42c0.1-0.34,0.2-0.68,0.31-1.02
		C10.58,19.26,10.27,19.17,10.21,19.37L10.21,19.37z"/>
	<path class="st0" d="M19.65,19.46c0.28,0.93,0.56,1.87,0.84,2.8c0.44,1.47,0.89,2.95,1.33,4.42c0.1,0.34,0.2,0.68,0.31,1.02
		c0.06,0.2,0.37,0.11,0.31-0.09c-0.28-0.93-0.56-1.87-0.84-2.8c-0.44-1.47-0.89-2.95-1.33-4.42c-0.1-0.34-0.2-0.68-0.31-1.02
		C19.9,19.17,19.6,19.26,19.65,19.46L19.65,19.46z"/>
</g>
</svg>
