<svg xmlns="http://www.w3.org/2000/svg" xmlns:xlink="http://www.w3.org/1999/xlink" id="Calque_1" x="0px" y="0px" viewBox="0 0 30 30" style="enable-background:new 0 0 30 30;" xml:space="preserve">
<style type="text/css">
	.st0{opacity:0.9;fill-rule:evenodd;clip-rule:evenodd;fill:url(#SVGID_1_);}
	.st1{opacity:0.9;fill-rule:evenodd;clip-rule:evenodd;fill:url(#SVGID_00000025426614460633166410000017090622404001042858_);}
</style>
<linearGradient id="SVGID_1_" gradientUnits="userSpaceOnUse" x1="15.653" y1="19.9191" x2="13.7843" y2="12.0419">
	<stop offset="0.0112" style="stop-color:#E3047E;stop-opacity:0.8"></stop>
	<stop offset="1" style="stop-color:#304096;stop-opacity:0.8"></stop>
</linearGradient>
<path class="st0" d="M10,7.66c-6.88-2.02-8.37,7.49-3.08,8.07c0.93,0.14,1.28,1.4,1.59,2.15c0.89,2.14,2.01,3.22,4.49,3.07  c0.51-0.04,1.38-0.23,1.83-0.12c1.07,0.26,2.64,2.22,3.45,3.04c0.54,0.55,1.25,1.23,2.01,1.45c0.56,0.15,0.97-0.02,1.4-0.38  c2.16-2.13-0.35-2.54,0.62-3.91c0.73-0.96,2.72-1.74,2.98-2.49c0.17-0.68-0.69-1.05-1.19-1.26c-0.43-0.19-1.86-0.64-2.09-0.93  c-0.37-0.46,0.28-1.05,0.53-1.47c1.04-1.75,0.91-4.09-0.32-5.73C20.83,7.4,19.1,8.37,17.78,9.6c-2.89,2.69-3.15,0.53-5.81-1.08  C11.28,8.11,10.75,7.9,10,7.66L10,7.66z M14.73,7.71c0.48-1.57,1.99-0.12,1.88,0.54c-0.09,0.51-0.52,0.92-1.05,0.8  C14.93,8.91,14.63,8.33,14.73,7.71L14.73,7.71z M13.26,7.54c-0.19-0.24-0.2-0.51,0-0.75c0.39-0.47,0.74,0.05,0.7,0.04  C14.12,7.3,13.65,7.77,13.26,7.54L13.26,7.54z M23.87,16.12c-0.89-0.11-0.84-0.97-0.2-1.36C24.92,14.01,25.01,16.02,23.87,16.12  L23.87,16.12z M16.4,22.81c0.16,0.19,0.31,0.32,0.47,0.5c0.73,0.77-0.52,1.65-1.52,0.66c-0.4-0.39-0.33-0.63-0.47-1.06  c-0.17-0.51-1.33,0.27-1.58-0.52c-0.25-0.77,0.79-0.95,1.32-0.9C15.61,21.59,15.85,22.13,16.4,22.81z"></path>
<linearGradient id="SVGID_00000177465139755741104170000017622754738138154646_" gradientUnits="userSpaceOnUse" x1="7.1526" y1="17.8657" x2="18.9618" y2="13.1474">
	<stop offset="0" style="stop-color:#E3047E"></stop>
	<stop offset="1" style="stop-color:#304096"></stop>
</linearGradient>
<path style="opacity:0.9;fill-rule:evenodd;clip-rule:evenodd;fill:url(#SVGID_00000177465139755741104170000017622754738138154646_);" d="  M23.64,11.57c7.79,2.12,3.61,12.11-1.8,9.54c-0.98-0.42-2.05,0.58-2.79,1.12c-2.12,1.53-3.82,1.9-6.11,0.3  c-0.47-0.34-1.18-1.04-1.68-1.2c-1.18-0.38-3.84,0.57-5.09,0.88c-0.85,0.21-1.92,0.44-2.78,0.21c-0.62-0.19-0.92-0.59-1.12-1.19  c-0.81-3.31,1.83-2.22,1.72-4.11c-0.13-1.35-1.58-3.27-1.39-4.14c0.23-0.75,1.28-0.59,1.88-0.51c0.52,0.07,2.16,0.48,2.55,0.34  c0.62-0.22,0.35-1.18,0.36-1.73c0.03-2.3,1.55-4.46,3.68-5.3c2.35-0.84,3.44,1.11,3.98,3.07c1.18,4.29,2.71,2.36,6.21,2.39  C22.14,11.25,22.77,11.36,23.64,11.57L23.64,11.57z M19.07,8.84c0.47-1.78-1.84-1.29-2.12-0.59c-0.22,0.54-0.05,1.19,0.54,1.39  C18.17,9.87,18.8,9.5,19.07,8.84L19.07,8.84z M20.58,9.54c0.32-0.11,0.49-0.37,0.44-0.72c-0.1-0.68-0.74-0.39-0.69-0.37  C19.89,8.8,20.07,9.53,20.58,9.54L20.58,9.54z M5.36,11.5c0.92,0.43,1.38-0.43,0.99-1.18C5.6,8.87,4.33,10.74,5.36,11.5L5.36,11.5z   M8.57,22.32c-0.26,0.08-0.49,0.13-0.75,0.2c-1.15,0.31-0.47,1.89,1.07,1.53c0.61-0.14,0.68-0.41,1.07-0.74  c0.46-0.39,1.12,1.04,1.82,0.44c0.69-0.59-0.19-1.38-0.73-1.64C10.05,21.62,9.5,22,8.57,22.32z"></path>
</svg>