<svg xmlns="http://www.w3.org/2000/svg" xmlns:xlink="http://www.w3.org/1999/xlink" id="Calque_1" x="0px" y="0px" viewBox="0 0 30 30" style="enable-background:new 0 0 30 30;" xml:space="preserve">
<style type="text/css">
	.st0{opacity:0.9;fill-rule:evenodd;clip-rule:evenodd;fill:url(#SVGID_1_);}
	.st1{opacity:0.9;fill-rule:evenodd;clip-rule:evenodd;fill:url(#SVGID_00000048465107609247878260000002995613369841573279_);}
</style>
<linearGradient id="SVGID_1_" gradientUnits="userSpaceOnUse" x1="22.0353" y1="10.818" x2="12.9617" y2="16.0591">
	<stop offset="0.0112" style="stop-color:#E3047E;stop-opacity:0.8"></stop>
	<stop offset="1" style="stop-color:#304096;stop-opacity:0.8"></stop>
</linearGradient>
<path class="st0" d="M16.14,23.81c-3.9,3.43-7.58,1.36-6.83-4.47c0.31-2.9-0.72-3.96-2.92-5.58c-1.76-1.29-2.42-2.14-1.41-4.29  c0.12-0.24,0.24-0.47,0.38-0.7c1.61-2.68,6.19-2.46,8.67-0.61c1.44,1.05,2.47,1.4,4.07,0.55c1.4-0.74,2.22-1.29,3.9-0.86  c1.37,0.34,2.7,1.23,3.81,2.07c1.21,0.99,3.28,4.12,1.53,5.42c-0.85,0.63-1.83,1.06-2.89,1.06c-0.38-0.01-0.31,0.12-0.23,0.51  c0.34,1.63,0.68,2.57-0.16,4.14c-0.94,1.77-2.96,2.93-4.83,1.74l-0.11-0.07C18.53,22.32,16.56,23.43,16.14,23.81L16.14,23.81z   M6.81,18.27c0.16-0.03,0.41-0.04,0.52-0.13c0.99-0.76,0.1-3.05-1.17-2.45C4.79,16.35,5.53,18.38,6.81,18.27L6.81,18.27z   M5.21,15.41c0.69,0.21,0.57-0.57,0.31-0.81C5.04,14.14,4.46,15.15,5.21,15.41L5.21,15.41z M17.65,8.25  c0.42-0.07,0.78-0.49,0.64-0.92c-0.28-0.84-1.34-0.48-1.52,0.2C16.63,8.03,17.23,8.35,17.65,8.25L17.65,8.25z M25.73,17.81  c-0.27,0.7,0.34,0.84,0.59,0.59C26.7,18.02,26.13,17.39,25.73,17.81L25.73,17.81z M27.39,17.09l-0.05,0.1  c-0.11,0.28,0.1,0.56,0.38,0.5C28.25,17.58,27.87,16.62,27.39,17.09z"></path>
<linearGradient id="SVGID_00000056417136855983294920000006427479275539822754_" gradientUnits="userSpaceOnUse" x1="15.5899" y1="20.6985" x2="25.3729" y2="15.0476" gradientTransform="matrix(0.9898 0.1422 -0.1422 0.9898 -2.7546 -3.893)">
	<stop offset="0" style="stop-color:#E3047E"></stop>
	<stop offset="1" style="stop-color:#304096"></stop>
</linearGradient>
<path style="opacity:0.9;fill-rule:evenodd;clip-rule:evenodd;fill:url(#SVGID_00000056417136855983294920000006427479275539822754_);" d="  M17.1,6.22c4.69-3.06,8.3-0.29,6.6,5.82c-0.78,3.05,0.16,4.34,2.26,6.4c1.68,1.64,2.25,2.65,0.85,4.79  c-0.16,0.24-0.33,0.46-0.51,0.69c-2.13,2.61-6.98,1.68-9.34-0.68c-1.37-1.35-2.42-1.87-4.26-1.21c-1.6,0.57-2.56,1.03-4.3,0.32  c-1.4-0.57-2.69-1.73-3.75-2.79c-1.14-1.24-2.87-4.9-0.8-6.01c1-0.54,2.11-0.85,3.25-0.68c0.4,0.07,0.35-0.09,0.33-0.51  c-0.11-1.79-0.33-2.84,0.8-4.39c1.28-1.75,3.61-2.67,5.42-1.11l0.1,0.09C14.32,7.45,16.59,6.55,17.1,6.22L17.1,6.22z M26.2,13.56  c-0.17,0.01-0.44-0.02-0.58,0.05c-1.17,0.66-0.57,3.24,0.87,2.79C28.07,15.91,27.59,13.64,26.2,13.56L26.2,13.56z M27.47,16.86  c-0.7-0.33-0.69,0.52-0.46,0.82C27.46,18.24,28.23,17.26,27.47,16.86L27.47,16.86z M13.1,22.59c-0.46,0.01-0.91,0.4-0.82,0.88  c0.17,0.94,1.36,0.71,1.65,0.03C14.15,22.99,13.57,22.55,13.1,22.59L13.1,22.59z M5.94,11.15c0.4-0.7-0.23-0.95-0.54-0.72  C4.94,10.78,5.46,11.53,5.94,11.15L5.94,11.15z M4.06,11.67l0.07-0.1c0.16-0.29-0.02-0.61-0.33-0.59  C3.22,11.01,3.47,12.09,4.06,11.67z"></path>
</svg>