<svg xmlns="http://www.w3.org/2000/svg" xmlns:xlink="http://www.w3.org/1999/xlink" id="Calque_1" x="0px" y="0px" viewBox="0 0 30 30" style="enable-background:new 0 0 30 30;" xml:space="preserve">
<style type="text/css">
	.st0{opacity:0.9;fill-rule:evenodd;clip-rule:evenodd;fill:url(#SVGID_1_);}
	.st1{opacity:0.9;fill-rule:evenodd;clip-rule:evenodd;fill:url(#SVGID_00000112626250282259360730000013498448094550787734_);}
</style>
<linearGradient id="SVGID_1_" gradientUnits="userSpaceOnUse" x1="9.8513" y1="11.3861" x2="18.7908" y2="15.9409">
	<stop offset="0" style="stop-color:#B62961;stop-opacity:0.8"></stop>
	<stop offset="1" style="stop-color:#304096;stop-opacity:0.8"></stop>
</linearGradient>
<path class="st0" d="M7.11,13.14c2.17,4.56,1.56,1.05,0.49,5.76c-0.9,4.13,3.37,5.33,6.61,5.21c2.04-0.08,5.23-0.79,6.37-2.69  c0.65-1.11,0.27-1.9,0.06-3.05c-0.22-1.27-0.37-2.96,0.58-3.98c1.02-1.01,2.88-1.2,3.38-1.67c0.54-0.51,1.21-1.7,1.16-2.94  c-0.05-1.27-0.84-2.6-1.39-2.96c-0.64-0.42-1.94-0.57-2.69-0.43c-1.74,0.34-2.49,1.79-4.52,1.66c-1.12-0.15-1.31-0.46-2.2-0.66  c-1.01-0.22-1.62,0.27-2.54,0.55c-1.97,0.61-5.46,1.35-5.64,3.89C6.79,12.33,6.92,12.7,7.11,13.14L7.11,13.14z M18.21,6.96  c-0.33,0.23-0.75,0.18-1.03-0.1c-0.21-0.21-0.17-0.32-0.1-0.56c0.1-0.32,0.45-0.44,0.75-0.46C18.83,5.78,18.93,6.41,18.21,6.96  L18.21,6.96z M15.77,5.64c0.11,0.45,0.82,0.31,0.64-0.09C16.25,5.2,15.71,5.23,15.77,5.64L15.77,5.64z M17.02,4.97  c0.05,0.58,0.76,0.12,0.4-0.19C17.23,4.62,17.04,4.71,17.02,4.97L17.02,4.97z M22.98,16.47c-0.24-0.26-0.42-0.58-0.31-0.95  c0.14-0.44,0.35-0.57,0.79-0.64c0.85-0.14,1.54,0.05,1.45,1.06C24.81,16.8,23.45,16.98,22.98,16.47L22.98,16.47z M26.77,15.25  c-0.11-0.13-0.22-0.1-0.37-0.06c-0.33,0.09-0.55,0.42-0.32,0.73C26.4,16.35,27.21,15.92,26.77,15.25L26.77,15.25z M22.14,17.65  c0.09,0,0.2,0.01,0.27,0.07c0.31,0.24-0.14,0.65,0.07,1.05c0.15,0.29,0.19,0.54,0.06,0.86c-0.1,0.24-0.37,0.53-0.64,0.5  c-0.39-0.03-0.24-0.71-0.22-0.94c0.04-0.36-0.07-0.46,0.03-0.87C21.77,18.08,21.86,17.68,22.14,17.65z"></path>
<linearGradient id="SVGID_00000144334766424506280350000002423392787429037184_" gradientUnits="userSpaceOnUse" x1="19.6975" y1="8.4699" x2="13.5696" y2="17.9058">
	<stop offset="0" style="stop-color:#B62961"></stop>
	<stop offset="1" style="stop-color:#304096"></stop>
</linearGradient>
<path style="opacity:0.9;fill-rule:evenodd;clip-rule:evenodd;fill:url(#SVGID_00000144334766424506280350000002423392787429037184_);" d="  M23.28,8.6c0.44,5.52-0.9,1.84,2.69,5.73c3.12,3.43-0.28,6.9-3.42,8.56c-1.98,1.04-5.39,2.11-7.51,0.94  c-1.23-0.7-1.29-1.65-1.73-2.86c-0.48-1.33-1.27-3.01-2.73-3.46c-1.52-0.4-3.39,0.44-4.12,0.27c-0.79-0.19-2.08-0.94-2.71-2.16  c-0.65-1.23-0.62-2.93-0.3-3.57c0.38-0.75,1.53-1.61,2.32-1.88c1.84-0.63,3.34,0.33,5.2-0.9c0.98-0.75,0.99-1.16,1.72-1.82  c0.83-0.76,1.68-0.63,2.71-0.87c2.2-0.5,5.92-1.71,7.48,0.6C23.14,7.66,23.22,8.08,23.28,8.6L23.28,8.6z M9.37,8.81  c0.44,0.03,0.81-0.24,0.92-0.66c0.09-0.31-0.01-0.39-0.22-0.58C9.81,7.32,9.41,7.4,9.11,7.55C8.12,8.04,8.38,8.69,9.37,8.81  L9.37,8.81z M10.96,6.23c-0.17-0.42-0.7-0.16-0.65,0.26C10.36,6.98,11.11,6.72,10.96,6.23L10.96,6.23z M9.4,6.28  C9.24,6.05,9.02,6.06,8.93,6.32C8.75,6.81,9.67,6.86,9.4,6.28L9.4,6.28z M10.05,20.45c0.08-0.38,0.08-0.79-0.23-1.07  c-0.37-0.35-0.65-0.34-1.1-0.17c-0.89,0.34-1.44,0.89-0.79,1.81C8.49,21.77,9.88,21.2,10.05,20.45L10.05,20.45z M5.79,21.37  c-0.05,0.88,0.96,0.84,1.02,0.25c0.04-0.42-0.34-0.61-0.7-0.51C5.93,21.15,5.82,21.19,5.79,21.37L5.79,21.37z M11.48,21.11  c-0.09,0.06-0.18,0.12-0.22,0.22c-0.16,0.4,0.49,0.54,0.51,1.03c0.02,0.36,0.12,0.62,0.41,0.85c0.22,0.17,0.64,0.3,0.89,0.13  c0.36-0.25-0.16-0.8-0.31-1.01c-0.23-0.32-0.19-0.47-0.51-0.81C12.08,21.32,11.78,20.99,11.48,21.11z"></path>
</svg>