<svg xmlns="http://www.w3.org/2000/svg" xmlns:xlink="http://www.w3.org/1999/xlink" id="Calque_1" x="0px" y="0px" viewBox="0 0 30 30" style="enable-background:new 0 0 30 30;" xml:space="preserve">
<style type="text/css">
	.st0{opacity:0.9;fill-rule:evenodd;clip-rule:evenodd;fill:url(#SVGID_1_);}
	.st1{opacity:0.9;fill-rule:evenodd;clip-rule:evenodd;fill:url(#SVGID_00000096055794116572913270000016077608057358700934_);}
</style>
<linearGradient id="SVGID_1_" gradientUnits="userSpaceOnUse" x1="9.2002" y1="11.7686" x2="18.1397" y2="16.3234">
	<stop offset="0" style="stop-color:#E3047E;stop-opacity:0.8"></stop>
	<stop offset="1" style="stop-color:#304096;stop-opacity:0.8"></stop>
</linearGradient>
<path class="st0" d="M6.46,13.52c2.17,4.56,1.56,1.05,0.49,5.76c-0.9,4.13,3.37,5.33,6.61,5.21c2.04-0.08,5.23-0.79,6.37-2.69  c0.65-1.11,0.27-1.9,0.06-3.05c-0.22-1.27-0.37-2.96,0.58-3.98c1.02-1.01,2.88-1.2,3.38-1.67c0.54-0.51,1.21-1.7,1.16-2.94  c-0.05-1.27-0.84-2.6-1.39-2.96c-0.64-0.42-1.94-0.57-2.69-0.43c-1.74,0.34-2.49,1.79-4.52,1.66c-1.12-0.15-1.31-0.46-2.2-0.66  c-1.01-0.22-1.62,0.27-2.54,0.55c-1.97,0.61-5.46,1.35-5.64,3.89C6.14,12.72,6.27,13.08,6.46,13.52L6.46,13.52z M17.56,7.34  c-0.33,0.23-0.75,0.18-1.03-0.1c-0.21-0.21-0.17-0.32-0.1-0.56c0.1-0.32,0.45-0.44,0.75-0.46C18.18,6.16,18.28,6.79,17.56,7.34  L17.56,7.34z M15.11,6.03c0.11,0.45,0.82,0.31,0.64-0.09C15.59,5.59,15.06,5.61,15.11,6.03L15.11,6.03z M16.37,5.35  c0.05,0.58,0.76,0.12,0.4-0.19C16.58,5,16.39,5.09,16.37,5.35L16.37,5.35z M22.32,16.86c-0.24-0.26-0.42-0.58-0.31-0.95  c0.14-0.44,0.35-0.57,0.79-0.64c0.85-0.14,1.54,0.05,1.45,1.06C24.16,17.18,22.8,17.36,22.32,16.86L22.32,16.86z M26.12,15.63  c-0.11-0.13-0.22-0.1-0.37-0.06c-0.33,0.09-0.55,0.42-0.32,0.73C25.74,16.73,26.56,16.3,26.12,15.63L26.12,15.63z M21.49,18.03  c0.09,0,0.2,0.01,0.27,0.07c0.31,0.24-0.14,0.65,0.07,1.05c0.15,0.29,0.19,0.54,0.06,0.86c-0.1,0.24-0.37,0.53-0.64,0.5  c-0.39-0.03-0.24-0.71-0.22-0.94c0.04-0.36-0.07-0.46,0.03-0.87C21.12,18.46,21.2,18.07,21.49,18.03z"></path>
<linearGradient id="SVGID_00000049201557098502192990000003169249042563625887_" gradientUnits="userSpaceOnUse" x1="19.0464" y1="8.8524" x2="12.9185" y2="18.2882">
	<stop offset="0" style="stop-color:#E3047E"></stop>
	<stop offset="1" style="stop-color:#304096"></stop>
</linearGradient>
<path style="opacity:0.9;fill-rule:evenodd;clip-rule:evenodd;fill:url(#SVGID_00000049201557098502192990000003169249042563625887_);" d="  M22.63,8.98c0.44,5.52-0.9,1.84,2.69,5.73c3.12,3.43-0.28,6.9-3.42,8.56c-1.98,1.04-5.39,2.11-7.51,0.94  c-1.23-0.7-1.29-1.65-1.73-2.86c-0.48-1.33-1.27-3.01-2.73-3.46c-1.52-0.4-3.39,0.44-4.12,0.27c-0.79-0.19-2.08-0.94-2.71-2.16  c-0.65-1.23-0.62-2.93-0.3-3.57c0.38-0.75,1.53-1.61,2.32-1.88c1.84-0.63,3.34,0.33,5.2-0.9c0.98-0.75,0.99-1.16,1.72-1.82  c0.83-0.76,1.68-0.63,2.71-0.87c2.2-0.5,5.92-1.71,7.48,0.6C22.49,8.04,22.57,8.46,22.63,8.98L22.63,8.98z M8.71,9.2  c0.44,0.03,0.81-0.24,0.92-0.66c0.09-0.31-0.01-0.39-0.22-0.58C9.16,7.7,8.76,7.78,8.46,7.93C7.47,8.42,7.73,9.07,8.71,9.2L8.71,9.2  z M10.31,6.61c-0.17-0.42-0.7-0.16-0.65,0.26C9.71,7.36,10.46,7.1,10.31,6.61L10.31,6.61z M8.75,6.66C8.59,6.43,8.36,6.44,8.27,6.7  C8.1,7.2,9.02,7.25,8.75,6.66L8.75,6.66z M9.4,20.83c0.08-0.38,0.08-0.79-0.23-1.07c-0.37-0.35-0.65-0.34-1.1-0.17  c-0.89,0.34-1.44,0.89-0.79,1.81C7.83,22.15,9.23,21.58,9.4,20.83L9.4,20.83z M5.14,21.75C5.08,22.63,6.09,22.59,6.15,22  c0.04-0.42-0.34-0.61-0.7-0.51C5.28,21.53,5.17,21.57,5.14,21.75L5.14,21.75z M10.83,21.49c-0.09,0.06-0.18,0.12-0.22,0.22  c-0.16,0.4,0.49,0.54,0.51,1.03c0.02,0.36,0.12,0.62,0.41,0.85c0.22,0.17,0.64,0.3,0.89,0.13c0.36-0.25-0.16-0.8-0.31-1.01  c-0.23-0.32-0.19-0.47-0.51-0.81C11.43,21.7,11.13,21.37,10.83,21.49z"></path>
</svg>