<svg xmlns="http://www.w3.org/2000/svg" xmlns:xlink="http://www.w3.org/1999/xlink" id="Calque_1" x="0px" y="0px" viewBox="0 0 30 30" style="enable-background:new 0 0 30 30;" xml:space="preserve">
<style type="text/css">
	.st0{opacity:0.9;fill-rule:evenodd;clip-rule:evenodd;fill:url(#SVGID_1_);}
	.st1{opacity:0.9;fill-rule:evenodd;clip-rule:evenodd;fill:url(#SVGID_00000054983014655673379580000015906256705015689107_);}
</style>
<linearGradient id="SVGID_1_" gradientUnits="userSpaceOnUse" x1="19.3858" y1="11.111" x2="13.0126" y2="17.4867">
	<stop offset="0" style="stop-color:#B62961;stop-opacity:0.8"></stop>
	<stop offset="1" style="stop-color:#304096;stop-opacity:0.8"></stop>
</linearGradient>
<path class="st0" d="M23.83,19.68c1.18-0.76,2.25-1.64,1.22-3.01c-0.57-0.73-1.74-1.66-1.78-2.59c-0.06-1.53,2.19-2.17,2.71-3.63  l0.07-0.21c0.39-1.53-1.24-2.35-2.51-2.51c-1.37-0.16-2.43,0.13-3.68,0.65c-1.84,0.76-2.9,0.52-4.62-0.25  c-1.68-0.75-2.73-0.92-4.46-0.06c-1.45,0.72-0.63,1.58-1.16,2.36c-0.63,0.93-2.49,0.43-3.58,1.08c-0.2,0.12-0.32,0.23-0.49,0.39  c-1.16,1.2-0.07,2.66,0.97,3.47l0.13,0.1c0.58,0.6,0.07,2.02-0.11,2.74c-0.43,1.72-0.89,3.86,1.67,3.72l0.15-0.01l0.17-0.01  c2.97-0.37,3.67-4.94,9.02-1.95l0.16,0.09l0.16,0.09c2.28,1.29,3.71,0.65,5.87-0.41L23.83,19.68L23.83,19.68z M16.65,20.87  c-0.03,0.6-0.47,0.94-1.05,0.63c-0.79-0.42-0.64-0.28-1.47-0.17c-0.57,0.08-0.93-0.11-1.04-0.72c-0.11-0.63,0.35-1.12,1.01-0.79  c0.92,0.46,0.38,0.26,1.32,0.23C15.95,20.05,16.55,20.29,16.65,20.87L16.65,20.87z M12.02,22.21c-0.28-0.02-0.55-0.2-0.41-0.54  c0.23-0.6,0.99-0.01,0.69,0.41C12.23,22.17,12.13,22.21,12.02,22.21L12.02,22.21z M7.83,10.34c-0.24-0.18-0.25-0.32-0.18-0.61  c0.21-0.88,1.44-0.32,0.87,0.53c-0.07,0.11-0.36,0.25-0.5,0.2C7.95,10.43,7.89,10.38,7.83,10.34L7.83,10.34z M25.06,13.02  c0.7-0.23,0.9,0.39,0.66,0.95c-0.22,0.52-0.12,0.35,0.06,0.77c0.12,0.28-0.09,1.03-0.66,0.71c-0.58-0.33-1.04-1.89-0.17-2.38  L25.06,13.02z"></path>
<linearGradient id="SVGID_00000183243680040528778850000011954564465548869264_" gradientUnits="userSpaceOnUse" x1="7.0916" y1="18.9677" x2="19.055" y2="12.8198">
	<stop offset="0" style="stop-color:#B62961"></stop>
	<stop offset="0.6325" style="stop-color:#633782"></stop>
	<stop offset="1" style="stop-color:#304096"></stop>
</linearGradient>
<path style="opacity:0.9;fill-rule:evenodd;clip-rule:evenodd;fill:url(#SVGID_00000183243680040528778850000011954564465548869264_);" d="  M4.72,12.84c1.05,1.38,2.97,2.43,1.14,4.32c-0.9,0.89-2.32,1.63-2.26,3.09c0.05,1.33,1.62,1.96,2.74,2.12  c1.3,0.16,2.58-0.12,3.78-0.63c1.98-0.84,3.11-0.67,4.99,0.17c1.77,0.79,2.86,1.04,4.72,0.15c1.05-0.5,1.05-0.8,1.14-1.84  c0.08-1.02,0.73-1.26,1.69-1.4c0.21-0.03,0.4-0.04,0.61-0.06c0.86-0.05,1.61-0.17,2.24-0.83c1.13-1.24,0.25-2.6-0.81-3.51  c-0.45-0.39-0.67-0.43-0.66-1.17c0.01-0.78,0.46-2.15,0.62-3c0.4-2.04,0-3.17-2.32-3c-3.13,0.29-3.86,5.37-9.84,1.96  C10.02,7.8,8.6,8.36,6.21,9.54c-0.71,0.35-1.83,1.18-1.92,2.03C4.23,12.06,4.45,12.46,4.72,12.84L4.72,12.84z M13.68,8.37  c0.03-0.61,0.48-1,1.08-0.69c0.68,0.35,0.57,0.39,1.37,0.24c0.67-0.13,1.2-0.09,1.34,0.72c0.12,0.67-0.36,1.21-1.07,0.85  C15.42,8.99,16,9.2,14.99,9.23C14.42,9.25,13.78,8.99,13.68,8.37L13.68,8.37z M18.42,7.68c-0.56-0.66,0.38-0.99,0.61-0.49  C19.18,7.51,18.86,8.01,18.42,7.68L18.42,7.68z M22.5,19.57c0.11-0.03,0.24-0.24,0.52-0.01c0.22,0.18,0.31,0.17,0.28,0.55  c-0.06,0.35-0.22,0.68-0.64,0.61c-0.44-0.07-0.6-0.51-0.4-0.9l0.07-0.12C22.37,19.64,22.43,19.59,22.5,19.57L22.5,19.57z   M5.17,14.86c0.23,0.66,0.34,1.56-0.45,1.89c-0.68,0.28-1.01-0.39-0.71-1.02c0.22-0.45,0.18-0.36-0.05-0.75  c-0.09-0.16-0.08-0.22-0.04-0.39c0.07-0.19,0.06-0.47,0.41-0.5C4.76,14.04,5.02,14.53,5.17,14.86z"></path>
</svg>