<svg xmlns="http://www.w3.org/2000/svg" xmlns:xlink="http://www.w3.org/1999/xlink" id="Calque_1" x="0px" y="0px" viewBox="0 0 30 30" style="enable-background:new 0 0 30 30;" xml:space="preserve">
<style type="text/css">
	.st0{opacity:0.9;fill-rule:evenodd;clip-rule:evenodd;fill:url(#SVGID_1_);}
	.st1{opacity:0.9;fill-rule:evenodd;clip-rule:evenodd;fill:url(#SVGID_00000046332870900424769800000001083102359820723885_);}
</style>
<linearGradient id="SVGID_1_" gradientUnits="userSpaceOnUse" x1="21.6865" y1="10.4355" x2="12.6128" y2="15.6766">
	<stop offset="0.0112" style="stop-color:#B62961;stop-opacity:0.8"></stop>
	<stop offset="1" style="stop-color:#304096;stop-opacity:0.8"></stop>
</linearGradient>
<path class="st0" d="M15.79,23.42c-3.9,3.43-7.58,1.36-6.83-4.47c0.31-2.9-0.72-3.96-2.92-5.58c-1.76-1.29-2.42-2.14-1.41-4.29  c0.12-0.24,0.24-0.47,0.38-0.7c1.61-2.68,6.19-2.46,8.67-0.61c1.44,1.05,2.47,1.4,4.07,0.55c1.4-0.74,2.22-1.29,3.9-0.86  c1.37,0.34,2.7,1.23,3.81,2.07c1.21,0.99,3.28,4.12,1.53,5.42c-0.85,0.63-1.83,1.06-2.89,1.06c-0.38-0.01-0.31,0.12-0.23,0.51  c0.34,1.63,0.68,2.57-0.16,4.14c-0.94,1.77-2.96,2.93-4.83,1.74l-0.11-0.07C18.18,21.93,16.22,23.05,15.79,23.42L15.79,23.42z   M6.47,17.89c0.16-0.03,0.41-0.04,0.52-0.13c0.99-0.76,0.1-3.05-1.17-2.45C4.44,15.97,5.18,18,6.47,17.89L6.47,17.89z M4.87,15.03  c0.69,0.21,0.57-0.57,0.31-0.81C4.69,13.76,4.11,14.76,4.87,15.03L4.87,15.03z M17.3,7.87c0.42-0.07,0.78-0.49,0.64-0.92  c-0.28-0.84-1.34-0.48-1.52,0.2C16.28,7.65,16.88,7.97,17.3,7.87L17.3,7.87z M25.39,17.43c-0.27,0.7,0.34,0.84,0.59,0.59  C26.36,17.64,25.78,17.01,25.39,17.43L25.39,17.43z M27.04,16.71l-0.05,0.1c-0.11,0.28,0.1,0.56,0.38,0.5  C27.9,17.2,27.53,16.24,27.04,16.71z"></path>
<linearGradient id="SVGID_00000170972294505290837840000014314496932113251200_" gradientUnits="userSpaceOnUse" x1="15.1902" y1="20.3695" x2="24.9732" y2="14.7186" gradientTransform="matrix(0.9898 0.1422 -0.1422 0.9898 -2.7546 -3.893)">
	<stop offset="0" style="stop-color:#B62961"></stop>
	<stop offset="1" style="stop-color:#304096"></stop>
</linearGradient>
<path style="opacity:0.9;fill-rule:evenodd;clip-rule:evenodd;fill:url(#SVGID_00000170972294505290837840000014314496932113251200_);" d="  M16.75,5.84c4.69-3.06,8.3-0.29,6.6,5.82c-0.78,3.05,0.16,4.34,2.26,6.4c1.68,1.64,2.25,2.65,0.85,4.79  c-0.16,0.24-0.33,0.46-0.51,0.69c-2.13,2.61-6.98,1.68-9.34-0.68c-1.37-1.35-2.42-1.87-4.26-1.21c-1.6,0.57-2.56,1.03-4.3,0.32  c-1.4-0.57-2.69-1.73-3.75-2.79c-1.14-1.24-2.87-4.9-0.8-6.01c1-0.54,2.11-0.85,3.25-0.68c0.4,0.07,0.35-0.09,0.33-0.51  c-0.11-1.79-0.33-2.84,0.8-4.39c1.28-1.75,3.61-2.67,5.42-1.11l0.1,0.09C13.97,7.06,16.24,6.17,16.75,5.84L16.75,5.84z M25.85,13.18  c-0.17,0.01-0.44-0.02-0.58,0.05c-1.17,0.66-0.57,3.24,0.87,2.79C27.72,15.53,27.24,13.26,25.85,13.18L25.85,13.18z M27.12,16.48  c-0.7-0.33-0.69,0.52-0.46,0.82C27.11,17.86,27.88,16.87,27.12,16.48L27.12,16.48z M12.75,22.21c-0.46,0.01-0.91,0.4-0.82,0.88  c0.17,0.94,1.36,0.71,1.65,0.03C13.81,22.6,13.22,22.17,12.75,22.21L12.75,22.21z M5.59,10.77c0.4-0.7-0.23-0.95-0.54-0.72  C4.59,10.4,5.11,11.15,5.59,10.77L5.59,10.77z M3.71,11.28l0.07-0.1c0.16-0.29-0.02-0.61-0.33-0.59  C2.88,10.63,3.12,11.71,3.71,11.28z"></path>
</svg>