<svg xmlns="http://www.w3.org/2000/svg" xmlns:xlink="http://www.w3.org/1999/xlink" id="Calque_1" x="0px" y="0px" viewBox="0 0 30 30" style="enable-background:new 0 0 30 30;" xml:space="preserve">
<style type="text/css">
	.st0{opacity:0.9;fill-rule:evenodd;clip-rule:evenodd;fill:url(#SVGID_1_);}
	.st1{opacity:0.9;fill-rule:evenodd;clip-rule:evenodd;fill:url(#SVGID_00000097473422168004798550000010207034682726735762_);}
</style>
<linearGradient id="SVGID_1_" gradientUnits="userSpaceOnUse" x1="17.8621" y1="20.2774" x2="12.0674" y2="10.2539">
	<stop offset="0" style="stop-color:#B62961;stop-opacity:0.8"></stop>
	<stop offset="1" style="stop-color:#304096;stop-opacity:0.8"></stop>
</linearGradient>
<path class="st0" d="M21.11,12.34c1.47,0.4,3.63,0.84,4.5,2.2c0.63,0.98,0.79,2.67,0.79,3.8c-0.04,2.17-2.08,2.83-3.69,3.77  c-1.23,0.72-1.76,1.19-2.81,2.13c-2.99,2.6-8.93,0.98-9.69-3.07c-0.42-2.19-1.13-2.81-3.29-3.21c-1.35-0.25-2.05-0.44-2.41-1.9  C4,13.48,8.34,14.37,5.54,10.93c-3.51-4.3,2.06-2.87,3.4-4.09c1.3-1.17,2.4-2.05,4.16-1.36c0.62,0.26,2.25,0.98,2.72,1.35  c0.54,0.43,1.21,0.41,1.94,0.96c1.14,0.85,1.55,2.35,2.25,3.55C20.28,11.82,20.57,12.17,21.11,12.34L21.11,12.34z M21.16,10.1  c0.83-0.16,1.44-0.94,0.79-1.75c-0.32-0.4-0.5-0.41-0.98-0.42c-1.46-0.05-1.03,2.23,0.09,2.18L21.16,10.1L21.16,10.1z M17.85,6.8  c0.66,0.53,1.06-0.31,0.91-0.59C18.5,5.72,17.27,6.11,17.85,6.8L17.85,6.8z M9.1,20.74c0.95-0.95-0.64-1.99-1.23-1.73  c-0.45,0.2-0.95,0.36-0.78,1.01C7.29,20.81,8.38,21.41,9.1,20.74L9.1,20.74z M8.79,21.81c-0.15,0.66,0.59,0.92,0.86,0.36  C9.85,21.76,9.19,21.05,8.79,21.81L8.79,21.81z M22.75,24.43c0.44,0.27,0.84-0.08,1.05-0.46c0.24-0.44,0.36-0.51,0.76-0.81  c0.64-0.49-0.14-1.38-0.85-0.72c-0.1,0.09-1,1.14-1.06,1.25C22.48,23.99,22.5,24.21,22.75,24.43z"></path>
<linearGradient id="SVGID_00000170999039694039188330000016361966719752307647_" gradientUnits="userSpaceOnUse" x1="-339.645" y1="799.8329" x2="-328.9613" y2="789.1614" gradientTransform="matrix(0.7961 0.6051 -0.6051 0.7961 763.382 -415.3838)">
	<stop offset="0" style="stop-color:#B62961"></stop>
	<stop offset="0.6325" style="stop-color:#633782"></stop>
	<stop offset="1" style="stop-color:#304096"></stop>
</linearGradient>
<path style="opacity:0.9;fill-rule:evenodd;clip-rule:evenodd;fill:url(#SVGID_00000170999039694039188330000016361966719752307647_);" d="  M13.94,8.36c-1.22-0.92-2.88-2.35-4.5-2.21c-1.16,0.1-2.59,1.01-3.49,1.7c-1.69,1.36-0.97,3.38-0.72,5.23  c0.19,1.41,0.14,2.12,0.04,3.52c-0.22,3.95,4.69,7.66,8.36,5.78c1.99-1.01,2.91-0.83,4.56,0.63c1.02,0.91,1.61,1.35,2.98,0.75  c2.36-1.17-1-4.06,3.43-3.94c5.55,0.14,1.01-3.39,1.16-5.19c0.13-1.75,0.15-3.16-1.47-4.12c-0.58-0.33-2.15-1.18-2.73-1.32  c-0.67-0.17-1.07-0.7-1.94-0.94c-1.37-0.38-2.81,0.21-4.18,0.4C14.86,8.7,14.41,8.68,13.94,8.36L13.94,8.36z M15.69,6.95  c-0.38-0.76-0.14-1.72,0.9-1.7c0.51,0.01,0.62,0.14,0.94,0.52c0.94,1.12-1.13,2.18-1.78,1.26L15.69,6.95L15.69,6.95z M20.32,7.55  c-0.82-0.19-0.4-1.03-0.09-1.08C20.78,6.37,21.23,7.58,20.32,7.55L20.32,7.55z M14.66,23c0.17-1.33,1.96-0.72,2.12-0.09  c0.12,0.47,0.29,0.97-0.32,1.24C15.72,24.47,14.57,23.98,14.66,23L14.66,23z M14.01,23.89c-0.43,0.52-1.08,0.1-0.81-0.45  C13.4,23.03,14.36,23.12,14.01,23.89L14.01,23.89z M3.38,14.47c-0.48-0.18-0.45-0.71-0.28-1.11c0.2-0.46,0.18-0.6,0.18-1.1  c-0.01-0.8,1.18-0.73,1.09,0.23c-0.01,0.14-0.29,1.49-0.34,1.6C3.9,14.41,3.71,14.53,3.38,14.47z"></path>
</svg>