<svg xmlns="http://www.w3.org/2000/svg" xmlns:xlink="http://www.w3.org/1999/xlink" id="Calque_1" x="0px" y="0px" viewBox="0 0 30 30" style="enable-background:new 0 0 30 30;" xml:space="preserve">
<style type="text/css">
	.st0{opacity:0.9;fill-rule:evenodd;clip-rule:evenodd;fill:url(#SVGID_1_);}
	.st1{opacity:0.9;fill-rule:evenodd;clip-rule:evenodd;fill:url(#SVGID_00000026141307101285113470000011805686837982834576_);}
</style>
<linearGradient id="SVGID_1_" gradientUnits="userSpaceOnUse" x1="17.5578" y1="20.2339" x2="11.7631" y2="10.2104">
	<stop offset="0" style="stop-color:#E3047E;stop-opacity:0.8"></stop>
	<stop offset="1" style="stop-color:#304096;stop-opacity:0.8"></stop>
</linearGradient>
<path class="st0" d="M20.81,12.3c1.47,0.4,3.63,0.84,4.5,2.2c0.63,0.98,0.79,2.67,0.79,3.8c-0.04,2.17-2.08,2.83-3.69,3.77  c-1.23,0.72-1.76,1.19-2.81,2.13c-2.99,2.6-8.93,0.98-9.69-3.07c-0.42-2.19-1.13-2.81-3.29-3.21c-1.35-0.25-2.05-0.44-2.41-1.9  c-0.52-2.58,3.82-1.69,1.02-5.13C1.72,6.59,7.3,8.02,8.63,6.8c1.3-1.17,2.4-2.05,4.16-1.36c0.62,0.26,2.25,0.98,2.72,1.35  c0.54,0.43,1.21,0.41,1.94,0.96C18.58,8.6,19,10.1,19.69,11.3C19.98,11.78,20.26,12.13,20.81,12.3L20.81,12.3z M20.85,10.06  c0.83-0.16,1.44-0.94,0.79-1.75c-0.32-0.4-0.5-0.41-0.98-0.42c-1.46-0.05-1.03,2.23,0.09,2.18L20.85,10.06L20.85,10.06z M17.54,6.76  c0.66,0.53,1.06-0.31,0.91-0.59C18.19,5.67,16.96,6.06,17.54,6.76L17.54,6.76z M8.8,20.7c0.95-0.95-0.64-1.99-1.23-1.73  c-0.45,0.2-0.95,0.36-0.78,1.01C6.99,20.77,8.08,21.37,8.8,20.7L8.8,20.7z M8.49,21.76c-0.15,0.66,0.59,0.92,0.86,0.36  C9.54,21.72,8.89,21.01,8.49,21.76L8.49,21.76z M22.45,24.39c0.44,0.27,0.84-0.08,1.05-0.46c0.24-0.44,0.36-0.51,0.76-0.81  c0.64-0.49-0.14-1.38-0.85-0.72c-0.1,0.09-1,1.14-1.06,1.25C22.18,23.94,22.2,24.17,22.45,24.39z"></path>
<linearGradient id="SVGID_00000126308482005819442700000005283926557243810970_" gradientUnits="userSpaceOnUse" x1="-339.9136" y1="799.9825" x2="-329.2299" y2="789.311" gradientTransform="matrix(0.7961 0.6051 -0.6051 0.7961 763.382 -415.3838)">
	<stop offset="0" style="stop-color:#E3047E"></stop>
	<stop offset="0.4832" style="stop-color:#8F2089"></stop>
	<stop offset="1" style="stop-color:#304096"></stop>
</linearGradient>
<path style="opacity:0.9;fill-rule:evenodd;clip-rule:evenodd;fill:url(#SVGID_00000126308482005819442700000005283926557243810970_);" d="  M13.64,8.32c-1.22-0.92-2.88-2.35-4.5-2.21c-1.16,0.1-2.59,1.01-3.49,1.7c-1.69,1.36-0.97,3.38-0.72,5.23  c0.19,1.41,0.14,2.12,0.04,3.52c-0.22,3.95,4.69,7.66,8.36,5.78c1.99-1.01,2.91-0.83,4.56,0.63c1.02,0.91,1.61,1.35,2.98,0.75  c2.36-1.17-1-4.06,3.43-3.94c5.55,0.14,1.01-3.39,1.16-5.19c0.13-1.75,0.15-3.16-1.47-4.12c-0.58-0.33-2.15-1.18-2.73-1.32  c-0.67-0.17-1.07-0.7-1.94-0.94c-1.37-0.38-2.81,0.21-4.18,0.4C14.56,8.65,14.11,8.64,13.64,8.32L13.64,8.32z M15.38,6.91  c-0.38-0.76-0.14-1.72,0.9-1.7c0.51,0.01,0.62,0.14,0.94,0.52c0.94,1.12-1.13,2.18-1.78,1.26L15.38,6.91L15.38,6.91z M20.02,7.5  c-0.82-0.19-0.4-1.03-0.09-1.08C20.48,6.33,20.92,7.54,20.02,7.5L20.02,7.5z M14.35,22.95c0.17-1.33,1.96-0.72,2.12-0.09  c0.12,0.47,0.29,0.97-0.32,1.24C15.41,24.43,14.27,23.93,14.35,22.95L14.35,22.95z M13.7,23.85c-0.43,0.52-1.08,0.1-0.81-0.45  C13.09,22.99,14.06,23.07,13.7,23.85L13.7,23.85z M3.08,14.42c-0.48-0.18-0.45-0.71-0.28-1.11c0.2-0.46,0.18-0.6,0.18-1.1  c-0.01-0.8,1.18-0.73,1.09,0.23c-0.01,0.14-0.29,1.49-0.34,1.6C3.6,14.36,3.41,14.49,3.08,14.42z"></path>
</svg>