<svg xmlns="http://www.w3.org/2000/svg" xmlns:xlink="http://www.w3.org/1999/xlink" id="Calque_1" x="0px" y="0px" viewBox="0 0 30 30" style="enable-background:new 0 0 30 30;" xml:space="preserve">
<style type="text/css">
	.st0{opacity:0.9;fill-rule:evenodd;clip-rule:evenodd;fill:url(#SVGID_1_);}
	.st1{opacity:0.9;fill-rule:evenodd;clip-rule:evenodd;fill:url(#SVGID_00000131354561707429591940000000716416144393564065_);}
</style>
<linearGradient id="SVGID_1_" gradientUnits="userSpaceOnUse" x1="10.6717" y1="14.2079" x2="18.2513" y2="18.231">
	<stop offset="0" style="stop-color:#E3047E;stop-opacity:0.8"></stop>
	<stop offset="1" style="stop-color:#304096;stop-opacity:0.8"></stop>
</linearGradient>
<path class="st0" d="M9.81,21.1c1.01-1.36,1.95-1.92,3.47-0.97c1.4,0.87,2.57,2.23,4.4,2.16c0.54-0.02,1.01-0.16,1.5-0.38  c3.91-1.8,0.21-4.33,4.24-5.49c5.99-1.72,1.6-9.35-1.94-7.27c-0.59,0.34-1.18,0.64-1.76,0.97c-0.92,0.53-1.49,1.31-2.13,2.14  c-0.75,0.94-1.72,0.41-2.54-0.12c-1.93-1.23-4.06-3.32-6.34-1.46c-1.64,1.67,1.87,5.25-3.77,5.2c-0.53-0.01-0.64-0.04-0.99,0.58  c-0.62,1.08-1.35,4.13-0.67,5.43c0.94,1.81,3.22,1.79,4.58,1.03C8.63,22.49,9.2,21.91,9.81,21.1L9.81,21.1z M16.93,11.55  c-0.4,0.51-0.97,0.4-1.26-0.13c-0.31-0.57-0.06-1.85,0.76-1.54C17.2,10.16,17.44,10.87,16.93,11.55L16.93,11.55z M14.5,9.63  l0.06,0.04c0.33,0.2,0.48,0.64,0.09,0.8c-0.27,0.11-0.44-0.08-0.53-0.31C14.03,9.91,14.19,9.51,14.5,9.63L14.5,9.63z M18.46,9.98  c-0.5,0.21-0.5-0.51-0.15-0.61C18.51,9.31,18.77,9.76,18.46,9.98L18.46,9.98z M17.21,8.62c0.44-0.15,0.52,0.46,0.16,0.51  C17.05,9.18,16.92,8.8,17.21,8.62L17.21,8.62z M12.03,22.01c-0.14-0.05-0.24-0.1-0.36-0.2c-0.44-0.37-0.39-1.12,0.1-1.34  c0.2-0.09,0.27-0.04,0.44-0.03c0.55,0.03,0.88,0.47,0.8,1.01C12.93,21.98,12.53,22.16,12.03,22.01L12.03,22.01z M6.21,15.18  l-0.07,0.01c-0.41,0.05-0.63-0.42-0.52-0.7c0.12-0.33,0.79-0.42,0.91,0C6.6,14.78,6.5,15.06,6.21,15.18L6.21,15.18z M7.28,13.59  c0.43-0.11,0.39,0.44,0.15,0.5C7.11,14.17,6.95,13.68,7.28,13.59z"></path>
<linearGradient id="SVGID_00000165205307895558686410000016506071860563501194_" gradientUnits="userSpaceOnUse" x1="21.1356" y1="12.9547" x2="7.3641" y2="20.2644">
	<stop offset="0" style="stop-color:#E3047E"></stop>
	<stop offset="1" style="stop-color:#304096"></stop>
</linearGradient>
<path style="opacity:0.9;fill-rule:evenodd;clip-rule:evenodd;fill:url(#SVGID_00000165205307895558686410000016506071860563501194_);" d="  M20.73,20.63c-1.18-1.59-2.28-2.24-4.06-1.14c-1.64,1.02-3.01,2.61-5.14,2.53c-0.63-0.02-1.18-0.19-1.75-0.44  c-2.94-1.35-2.2-3.07-2.56-4.47c-0.71-1.16-2.38-1.99-3.53-3.07C2.16,12.6,2.55,9.14,5.45,8.26c2.08-0.63,3.71-0.13,4.82,0.78  c0.65,0.41,1.08,0.88,1.37,1.26c0.88,1.09,2.01,0.48,2.97-0.14c2.25-1.44,4.75-3.89,7.42-1.71c1.92,1.95-2.19,6.14,4.41,6.08  c0.62-0.01,0.75-0.04,1.16,0.68c0.72,1.26,1.58,4.83,0.79,6.36c-1.1,2.11-3.76,2.09-5.36,1.21C22.11,22.25,21.45,21.57,20.73,20.63  L20.73,20.63z M12.41,9.45c0.47,0.59,1.14,0.47,1.48-0.16c0.36-0.67,0.07-2.17-0.89-1.81C12.09,7.83,11.8,8.66,12.41,9.45  L12.41,9.45z M15.24,7.21l-0.07,0.04C14.78,7.48,14.61,8,15.06,8.19c0.31,0.13,0.51-0.1,0.63-0.36C15.79,7.53,15.61,7.07,15.24,7.21  L15.24,7.21z M10.61,7.62c0.59,0.25,0.59-0.6,0.17-0.72C10.56,6.84,10.26,7.35,10.61,7.62L10.61,7.62z M12.08,6.03  c-0.52-0.18-0.6,0.53-0.19,0.6C12.26,6.68,12.41,6.24,12.08,6.03L12.08,6.03z M18.13,21.69c0.16-0.06,0.28-0.12,0.42-0.23  c0.52-0.43,0.45-1.31-0.11-1.57c-0.24-0.11-0.31-0.05-0.52-0.04c-0.64,0.04-1.03,0.55-0.94,1.18  C17.08,21.66,17.55,21.87,18.13,21.69L18.13,21.69z M24.95,13.7l0.08,0.02c0.48,0.06,0.73-0.49,0.61-0.82  c-0.14-0.38-0.93-0.49-1.06,0C24.49,13.23,24.61,13.57,24.95,13.7L24.95,13.7z M23.69,11.84c-0.5-0.13-0.45,0.52-0.18,0.59  C23.89,12.52,24.07,11.94,23.69,11.84z"></path>
</svg>