<svg xmlns="http://www.w3.org/2000/svg" xmlns:xlink="http://www.w3.org/1999/xlink" id="Calque_1" x="0px" y="0px" viewBox="0 0 30 30" style="enable-background:new 0 0 30 30;" xml:space="preserve">
<style type="text/css">
	.st0{opacity:0.9;fill-rule:evenodd;clip-rule:evenodd;fill:url(#SVGID_1_);}
	.st1{opacity:0.9;fill-rule:evenodd;clip-rule:evenodd;fill:url(#SVGID_00000134952003151968862290000015461161493322639751_);}
</style>
<linearGradient id="SVGID_1_" gradientUnits="userSpaceOnUse" x1="10.3322" y1="14.2863" x2="17.3814" y2="18.0278">
	<stop offset="0" style="stop-color:#B62961;stop-opacity:0.8"></stop>
	<stop offset="1" style="stop-color:#304096;stop-opacity:0.8"></stop>
</linearGradient>
<path class="st0" d="M9.53,20.7c0.94-1.26,1.81-1.78,3.23-0.91c1.31,0.81,2.39,2.07,4.09,2.01c0.5-0.02,0.94-0.15,1.39-0.35  c3.63-1.67,0.2-4.03,3.94-5.1c5.57-1.6,1.49-8.7-1.81-6.76c-0.54,0.32-1.1,0.59-1.64,0.9c-0.86,0.5-1.38,1.22-1.99,1.99  c-0.7,0.87-1.6,0.38-2.36-0.11c-1.79-1.14-3.78-3.09-5.9-1.36c-1.53,1.55,1.74,4.88-3.51,4.83c-0.49-0.01-0.59-0.03-0.92,0.54  c-0.57,1-1.26,3.84-0.63,5.05c0.87,1.68,2.99,1.66,4.26,0.96C8.44,21.99,8.96,21.45,9.53,20.7L9.53,20.7z M16.15,11.81  c-0.37,0.47-0.91,0.37-1.17-0.12c-0.29-0.53-0.06-1.73,0.71-1.44C16.4,10.52,16.63,11.18,16.15,11.81L16.15,11.81z M13.9,10.03  l0.06,0.03c0.31,0.18,0.44,0.59,0.09,0.74c-0.25,0.11-0.41-0.08-0.5-0.29C13.46,10.29,13.61,9.92,13.9,10.03L13.9,10.03z   M17.58,10.36c-0.47,0.2-0.47-0.47-0.14-0.57C17.62,9.73,17.86,10.15,17.58,10.36L17.58,10.36z M16.41,9.09  c0.41-0.14,0.48,0.42,0.15,0.47C16.27,9.61,16.14,9.26,16.41,9.09L16.41,9.09z M11.6,21.54c-0.13-0.05-0.22-0.09-0.33-0.18  c-0.41-0.34-0.36-1.04,0.09-1.25c0.19-0.09,0.25-0.04,0.41-0.03c0.51,0.03,0.82,0.44,0.74,0.94C12.44,21.52,12.06,21.68,11.6,21.54  L11.6,21.54z M6.18,15.19L6.11,15.2c-0.38,0.05-0.58-0.39-0.48-0.65c0.11-0.31,0.74-0.39,0.85,0C6.55,14.82,6.45,15.08,6.18,15.19  L6.18,15.19z M7.18,13.71c0.4-0.1,0.36,0.41,0.14,0.47C7.02,14.25,6.87,13.79,7.18,13.71z"></path>
<linearGradient id="SVGID_00000130642302766581708400000001877126353582136461_" gradientUnits="userSpaceOnUse" x1="20.0639" y1="13.1208" x2="7.2561" y2="19.9189">
	<stop offset="0" style="stop-color:#B62961"></stop>
	<stop offset="1" style="stop-color:#304096"></stop>
</linearGradient>
<path style="opacity:0.9;fill-rule:evenodd;clip-rule:evenodd;fill:url(#SVGID_00000130642302766581708400000001877126353582136461_);" d="  M19.69,20.26c-1.1-1.48-2.12-2.09-3.78-1.06c-1.53,0.95-2.8,2.43-4.78,2.35c-0.59-0.02-1.1-0.17-1.63-0.41  c-2.74-1.26-2.05-2.85-2.38-4.16c-0.66-1.08-2.21-1.85-3.28-2.85c-1.42-1.34-1.06-4.55,1.64-5.37c1.93-0.59,3.45-0.12,4.48,0.72  c0.61,0.38,1,0.82,1.27,1.17c0.81,1.02,1.87,0.44,2.77-0.13c2.1-1.34,4.42-3.61,6.9-1.59c1.79,1.82-2.03,5.71,4.11,5.65  c0.57-0.01,0.69-0.04,1.08,0.63c0.67,1.17,1.47,4.49,0.73,5.91c-1.02,1.97-3.5,1.95-4.99,1.12C20.97,21.77,20.36,21.13,19.69,20.26  L19.69,20.26z M11.95,9.86c0.44,0.55,1.06,0.44,1.37-0.15c0.34-0.62,0.06-2.02-0.83-1.68C11.65,8.35,11.38,9.13,11.95,9.86  L11.95,9.86z M14.58,7.78l-0.07,0.04c-0.36,0.22-0.52,0.69-0.1,0.87c0.29,0.12,0.48-0.09,0.58-0.34  C15.09,8.08,14.92,7.65,14.58,7.78L14.58,7.78z M10.28,8.16c0.55,0.23,0.54-0.55,0.16-0.67C10.23,7.43,9.95,7.91,10.28,8.16  L10.28,8.16z M11.64,6.68c-0.48-0.17-0.56,0.5-0.17,0.55C11.81,7.29,11.95,6.88,11.64,6.68L11.64,6.68z M17.27,21.25  c0.15-0.06,0.26-0.11,0.39-0.22c0.48-0.4,0.42-1.22-0.11-1.46c-0.22-0.1-0.29-0.04-0.48-0.03c-0.59,0.03-0.96,0.51-0.87,1.1  C16.29,21.22,16.73,21.41,17.27,21.25L17.27,21.25z M23.61,13.81l0.08,0.01c0.44,0.06,0.68-0.45,0.57-0.76  c-0.13-0.36-0.86-0.46-0.99,0C23.18,13.38,23.29,13.69,23.61,13.81L23.61,13.81z M22.44,12.08c-0.47-0.12-0.42,0.48-0.17,0.54  C22.62,12.72,22.8,12.18,22.44,12.08z"></path>
</svg>