<?xml version="1.0" encoding="utf-8"?>
<!-- Generator: Adobe Illustrator 25.4.1, SVG Export Plug-In . SVG Version: 6.00 Build 0)  -->
<svg version="1.1" id="Calque_1" xmlns="http://www.w3.org/2000/svg" xmlns:xlink="http://www.w3.org/1999/xlink" x="0px" y="0px"
	 viewBox="0 0 30 30" style="enable-background:new 0 0 30 30;" xml:space="preserve">
<style type="text/css">
	.st0{opacity:0.9;fill-rule:evenodd;clip-rule:evenodd;fill:url(#SVGID_1_);}
	.st1{opacity:0.9;fill:url(#SVGID_00000096773402853543724260000003243366727632452515_);}
</style>
<linearGradient id="SVGID_1_" gradientUnits="userSpaceOnUse" x1="18.6077" y1="17.3426" x2="11.6466" y2="13.3244">
	<stop  offset="0" style="stop-color:#E3047E;stop-opacity:0.8"/>
	<stop  offset="1" style="stop-color:#304096;stop-opacity:0.8"/>
</linearGradient>
<path class="st0" d="M18.32,7.66c-0.83-1.47-3.01-1.48-4.36-0.76c-0.81,0.43-1.23,0.94-1.72,1.69C9.9,12.1,1.78,9.75,4.75,17.2
	c1.51,3.47,4.63-0.55,7.86,5.41c0.31,0.56,0.58,0.76,1.2,0.95c1.44,0.44,4.5,0.15,5.53-1.03c0.13-0.15,0.19-0.27,0.25-0.45
	c0.5-1.78,1.26-2.31,2.99-2.55c1.06-0.15,1.92-0.29,2.08-1.54c0.26-2.05-2.91-1.73-0.01-4.16c3.09-2.53,0.03-4.96-3.97-4.76
	C19.41,9.12,18.7,8.96,18.32,7.66L18.32,7.66z M8.25,20.11c0.69-0.01,1.28,0.18,1.52,0.88c0.64,1.91-1.91,1.74-2.4,0.48
	c-0.21-0.55-0.04-1.07,0.55-1.22C8.09,20.19,8.06,20.13,8.25,20.11L8.25,20.11z M6.17,19.99l0.02-0.1c0.07-0.29,0.51-0.41,0.66-0.11
	C7.24,20.49,6.17,20.68,6.17,19.99L6.17,19.99z M11.18,22.26l0.02,0c0.48-0.03,0.41,0.75,0.03,0.79
	C10.76,23.1,10.65,22.31,11.18,22.26L11.18,22.26z M8.65,9.59C8.39,9.03,8.85,8.63,9.33,8.43c0.55-0.23,0.31-0.1,0.62-0.49
	c0.27-0.35,0.76-0.55,1.06-0.14c0.38,0.52-0.19,0.9-0.59,1.12c-0.56,0.3-0.42,0.29-0.82,0.69C9.31,9.89,8.86,9.96,8.65,9.59
	L8.65,9.59z M24.98,15.16c0.09-0.3,0.23-0.54,0.59-0.44c0.32,0.09,0.49,0.17,0.5,0.54C26.08,16.06,24.81,16.18,24.98,15.16z"/>
<linearGradient id="SVGID_00000034794794540332771410000006502038310099133853_" gradientUnits="userSpaceOnUse" x1="5.6366" y1="10.4103" x2="26.8289" y2="21.0476">
	<stop  offset="0" style="stop-color:#E3047E"/>
	<stop  offset="0.4832" style="stop-color:#8F2089"/>
	<stop  offset="1" style="stop-color:#304096"/>
</linearGradient>
<path style="opacity:0.9;fill:url(#SVGID_00000034794794540332771410000006502038310099133853_);" d="M11.59,7.18
	c0.89-1.59,3.25-1.6,4.7-0.82c0.87,0.46,1.33,1.02,1.85,1.83c2.53,3.78,11.3,1.25,8.09,9.29c-1.63,3.75-5-0.59-8.49,5.84
	c-0.33,0.61-0.62,0.82-1.3,1.03c-1.56,0.47-4.86,0.16-5.97-1.11c-0.14-0.16-0.21-0.29-0.27-0.49c-0.54-1.92-1.36-2.49-3.23-2.75
	c-1.14-0.16-2.07-0.31-2.24-1.67c-0.28-2.21,3.14-1.87,0.01-4.5c-3.33-2.73-0.03-5.36,4.28-5.14C10.42,8.75,11.18,8.59,11.59,7.18
	L11.59,7.18z M22.47,20.62c-0.74-0.01-1.38,0.19-1.64,0.95c-0.69,2.06,2.06,1.88,2.59,0.52c0.23-0.59,0.04-1.15-0.59-1.32
	C22.64,20.71,22.67,20.64,22.47,20.62L22.47,20.62z M24.72,20.49l-0.03-0.11c-0.07-0.31-0.55-0.44-0.72-0.12
	C23.56,21.03,24.72,21.24,24.72,20.49L24.72,20.49z M19.3,22.94l-0.02,0c-0.51-0.03-0.44,0.82-0.03,0.86
	C19.75,23.85,19.88,22.99,19.3,22.94L19.3,22.94z M22.04,9.26c0.28-0.61-0.22-1.03-0.74-1.25c-0.6-0.25-0.34-0.1-0.67-0.53
	c-0.3-0.38-0.82-0.59-1.14-0.15c-0.41,0.56,0.2,0.98,0.64,1.21c0.6,0.32,0.46,0.31,0.89,0.74C21.33,9.59,21.81,9.66,22.04,9.26
	L22.04,9.26z M4.41,15.28c-0.1-0.32-0.25-0.58-0.64-0.47c-0.35,0.1-0.53,0.18-0.54,0.59C3.21,16.25,4.59,16.37,4.41,15.28z"/>
</svg>
