<?xml version="1.0" encoding="utf-8"?>
<!-- Generator: Adobe Illustrator 25.4.1, SVG Export Plug-In . SVG Version: 6.00 Build 0)  -->
<svg version="1.1" id="Calque_1" xmlns="http://www.w3.org/2000/svg" xmlns:xlink="http://www.w3.org/1999/xlink" x="0px" y="0px"
	 viewBox="0 0 30 30" style="enable-background:new 0 0 30 30;" xml:space="preserve">
<style type="text/css">
	.st0{fill:#B62A62;}
	.st1{clip-path:url(#SVGID_00000165918979370060769650000010840736588339443638_);}
	.st2{clip-path:url(#SVGID_00000176007863961880153390000001751692925802114452_);}
</style>
<g>
	<g>
		<g>
			<path class="st0" d="M17.59,15.02c-0.02,1.09-0.7,2.1-1.74,2.46c-0.99,0.34-2.11,0.06-2.81-0.73c-0.71-0.81-0.87-2-0.36-2.95
				c0.52-0.98,1.64-1.54,2.74-1.35C16.65,12.66,17.59,13.77,17.59,15.02c0,0.19,0.3,0.19,0.3,0c0-1.23-0.8-2.35-1.96-2.75
				c-1.18-0.41-2.51,0.01-3.26,1c-0.72,0.95-0.78,2.28-0.15,3.29c0.63,1,1.82,1.52,2.98,1.32c1.38-0.24,2.37-1.48,2.39-2.86
				C17.89,14.83,17.59,14.83,17.59,15.02z"/>
			<path class="st0" d="M20.52,14.95c-0.01-0.33-0.09-0.67-0.09-1c0-0.29-0.17,0.08,0-0.11c0.04-0.05,0.16-0.07,0.22-0.1
				c0.3-0.14,0.6-0.27,0.89-0.41c0.08-0.04,0.08-0.14,0.05-0.21c-0.3-0.66-0.6-1.32-0.9-1.98c-0.04-0.08-0.14-0.08-0.21-0.05
				c-0.41,0.19-0.82,0.37-1.23,0.56c0.07,0.02,0.14,0.04,0.21,0.05c-0.21-0.28-0.43-0.55-0.69-0.79c0.04,0.04-0.49-0.41-0.43-0.22
				c-0.01-0.02,0.07-0.16,0.08-0.17c0.06-0.33,0.31-0.69,0.45-1c0.03-0.07,0.03-0.17-0.05-0.21c-0.66-0.3-1.32-0.6-1.98-0.9
				c-0.07-0.03-0.17-0.03-0.21,0.05c-0.13,0.29-0.26,0.57-0.39,0.86c-0.02,0.03-0.07,0.22-0.11,0.24c-0.09,0.07,0.01-0.06-0.06-0.06
				c-0.3,0.02-0.69-0.1-1-0.11c-0.32-0.01-0.66-0.01-0.97,0.07c-0.26,0.06-0.14,0.15-0.28-0.11c-0.16-0.28-0.27-0.59-0.4-0.89
				c-0.04-0.08-0.14-0.08-0.21-0.05c-0.66,0.3-1.32,0.6-1.98,0.9c-0.08,0.04-0.08,0.14-0.05,0.21c0.17,0.37,0.34,0.75,0.51,1.12
				c0.02-0.07,0.04-0.14,0.05-0.21c-0.48,0.36-0.89,0.77-1.26,1.25c0.07-0.02,0.14-0.04,0.21-0.05c-0.4-0.18-0.8-0.36-1.2-0.54
				c-0.07-0.03-0.17-0.03-0.21,0.05c-0.3,0.66-0.6,1.32-0.9,1.98c-0.03,0.07-0.03,0.17,0.05,0.21c0.29,0.13,0.58,0.26,0.87,0.39
				c0.06,0.03,0.17,0.05,0.22,0.1c0.14,0.14,0.02-0.06,0.05,0.08c0,0.02-0.08,0.22-0.09,0.31c-0.03,0.24-0.05,0.49-0.05,0.73
				c0,0.33,0.09,0.67,0.09,1c0,0.12,0.12-0.03,0.04,0.1c-0.03,0.04-0.15,0.07-0.2,0.09c-0.31,0.14-0.61,0.28-0.92,0.41
				c-0.08,0.04-0.08,0.14-0.05,0.21c0.3,0.66,0.6,1.32,0.9,1.98c0.04,0.08,0.14,0.08,0.21,0.05c0.4-0.18,0.79-0.36,1.19-0.54
				c-0.07-0.02-0.14-0.04-0.21-0.05c0.38,0.5,0.81,0.92,1.32,1.3c-0.02-0.07-0.04-0.14-0.05-0.21c-0.19,0.41-0.37,0.82-0.56,1.24
				c-0.03,0.07-0.03,0.17,0.05,0.21c0.66,0.3,1.32,0.6,1.98,0.89c0.07,0.03,0.17,0.03,0.21-0.05c0.14-0.3,0.27-0.6,0.41-0.9
				c0.02-0.05,0.07-0.21,0.12-0.26c0.08-0.08,0-0.03,0.07-0.04c0,0,0.2,0.08,0.29,0.09c0.22,0.03,0.45,0.04,0.67,0.04
				c0.34,0,0.68-0.09,1.02-0.09c0.3-0.01-0.07-0.18,0.11-0.01c0.05,0.05,0.09,0.2,0.12,0.26c0.14,0.31,0.28,0.61,0.42,0.92
				c0.04,0.08,0.14,0.08,0.21,0.05c0.66-0.3,1.32-0.6,1.98-0.89c0.08-0.04,0.08-0.14,0.05-0.21c-0.2-0.43-0.39-0.87-0.59-1.3
				c-0.02,0.07-0.04,0.14-0.05,0.21c0.47-0.36,0.88-0.77,1.24-1.25c-0.07,0.02-0.14,0.04-0.21,0.05c0.41,0.18,0.81,0.37,1.22,0.55
				c0.07,0.03,0.17,0.03,0.21-0.05c0.3-0.66,0.6-1.32,0.9-1.98c0.03-0.07,0.03-0.17-0.05-0.21c-0.3-0.13-0.59-0.27-0.89-0.4
				c-0.06-0.03-0.18-0.06-0.22-0.1c-0.09-0.09-0.03,0-0.05-0.08c0-0.01,0.08-0.21,0.09-0.3C20.5,15.43,20.51,15.19,20.52,14.95
				c0-0.19-0.3-0.19-0.3,0c-0.01,0.38-0.05,0.76-0.12,1.13c-0.01,0.06,0.01,0.14,0.07,0.17c0.41,0.19,0.82,0.37,1.23,0.56
				c-0.02-0.07-0.04-0.14-0.05-0.21c-0.3,0.66-0.6,1.32-0.9,1.98c0.07-0.02,0.14-0.04,0.21-0.05c-0.41-0.18-0.81-0.37-1.22-0.55
				c-0.08-0.04-0.15-0.02-0.21,0.05c-0.33,0.44-0.7,0.81-1.13,1.14c-0.07,0.05-0.09,0.12-0.05,0.21c0.2,0.43,0.39,0.87,0.59,1.3
				c0.02-0.07,0.04-0.14,0.05-0.21c-0.66,0.3-1.32,0.6-1.98,0.89c0.07,0.02,0.14,0.04,0.21,0.05c-0.19-0.43-0.39-0.86-0.58-1.29
				c-0.03-0.06-0.11-0.08-0.17-0.07c-0.75,0.16-1.48,0.16-2.24,0.02c-0.06-0.01-0.14,0.01-0.17,0.07c-0.19,0.42-0.38,0.84-0.57,1.26
				c0.07-0.02,0.14-0.04,0.21-0.05c-0.66-0.3-1.32-0.6-1.98-0.89c0.02,0.07,0.04,0.14,0.05,0.21c0.19-0.41,0.37-0.82,0.56-1.24
				c0.04-0.08,0.02-0.15-0.05-0.21c-0.47-0.34-0.86-0.73-1.21-1.19c-0.05-0.07-0.12-0.09-0.21-0.05c-0.4,0.18-0.79,0.36-1.19,0.54
				c0.07,0.02,0.14,0.04,0.21,0.05c-0.3-0.66-0.6-1.32-0.9-1.98c-0.02,0.07-0.04,0.14-0.05,0.21C9,16.63,9.4,16.45,9.8,16.27
				c0.06-0.03,0.08-0.11,0.07-0.17c-0.16-0.78-0.16-1.53,0-2.32c0.01-0.06-0.01-0.14-0.07-0.17c-0.4-0.18-0.8-0.36-1.19-0.54
				c0.02,0.07,0.04,0.14,0.05,0.21c0.3-0.66,0.6-1.32,0.9-1.98c-0.07,0.02-0.14,0.04-0.21,0.05c0.4,0.18,0.8,0.36,1.2,0.54
				c0.08,0.04,0.15,0.02,0.21-0.05c0.33-0.44,0.71-0.81,1.15-1.14c0.07-0.05,0.09-0.12,0.05-0.21c-0.17-0.37-0.34-0.75-0.51-1.12
				c-0.02,0.07-0.04,0.14-0.05,0.21c0.66-0.3,1.32-0.6,1.98-0.9c-0.07-0.02-0.14-0.04-0.21-0.05c0.17,0.38,0.34,0.76,0.51,1.13
				c0.03,0.06,0.11,0.08,0.17,0.07c0.79-0.16,1.57-0.15,2.36,0.02c0.06,0.01,0.14-0.01,0.17-0.07c0.18-0.39,0.35-0.77,0.53-1.16
				c-0.07,0.02-0.14,0.04-0.21,0.05c0.66,0.3,1.32,0.6,1.98,0.9c-0.02-0.07-0.04-0.14-0.05-0.21c-0.18,0.4-0.36,0.79-0.54,1.19
				c-0.02,0.05-0.03,0.14,0.02,0.18c0.42,0.33,0.78,0.69,1.1,1.11c0.05,0.07,0.12,0.09,0.21,0.05c0.41-0.19,0.82-0.37,1.23-0.56
				c-0.07-0.02-0.14-0.04-0.21-0.05c0.3,0.66,0.6,1.32,0.9,1.98c0.02-0.07,0.04-0.14,0.05-0.21c-0.41,0.19-0.82,0.37-1.23,0.56
				c-0.06,0.03-0.08,0.11-0.07,0.17c0.08,0.38,0.12,0.76,0.13,1.15C20.22,15.14,20.52,15.14,20.52,14.95z"/>
		</g>
	</g>
	<path class="st0" d="M17.6,14.99c0,1.07-0.64,2.07-1.65,2.47c-1.03,0.41-2.21,0.11-2.94-0.71c-0.71-0.8-0.85-1.99-0.35-2.93
		c0.51-0.98,1.62-1.55,2.72-1.38C16.63,12.63,17.57,13.72,17.6,14.99c0,0.18,0.28,0.18,0.28,0c-0.02-1.24-0.83-2.34-2.01-2.73
		c-1.16-0.38-2.46,0.05-3.2,1.02c-0.72,0.94-0.78,2.29-0.14,3.29c0.66,1.03,1.91,1.55,3.1,1.28c1.32-0.3,2.25-1.52,2.25-2.86
		C17.88,14.81,17.6,14.81,17.6,14.99z"/>
	<g>
		<path class="st0" d="M8.77,8.41c-0.58,0-1.16,0-1.75,0c0.03,0.08,0.07,0.16,0.1,0.24c1.42-1.32,3.05-2.47,4.9-3.1
			c1.35-0.47,2.8-0.63,4.22-0.44c1.17,0.16,2.31,0.55,3.35,1.1c0.8,0.42,1.55,0.94,2.23,1.53c0.22,0.19,0.43,0.39,0.64,0.6
			c0.1,0.1,0.18,0.21,0.28,0.3c0,0,0.01,0.01,0.01,0.01c0.12,0.14,0.31-0.06,0.2-0.2c-0.24-0.28-0.51-0.53-0.78-0.77
			c-0.67-0.6-1.4-1.13-2.18-1.57c-1.03-0.58-2.16-1.02-3.32-1.22c-1.41-0.25-2.86-0.16-4.23,0.23c-1.81,0.52-3.44,1.53-4.86,2.74
			C7.36,8.06,7.14,8.25,6.93,8.45c-0.09,0.08-0.02,0.24,0.1,0.24c0.58,0,1.16,0,1.75,0C8.95,8.69,8.95,8.41,8.77,8.41L8.77,8.41z"/>
		<path class="st0" d="M6.88,6.8c0,0.51,0,1.02,0,1.54c0,0.07,0,0.14,0,0.22c0,0.18,0.28,0.18,0.28,0c0-0.51,0-1.02,0-1.54
			c0-0.07,0-0.14,0-0.22C7.16,6.62,6.88,6.62,6.88,6.8L6.88,6.8z"/>
	</g>
	<g>
		<path class="st0" d="M21.12,21.59c0.58,0,1.16,0,1.75,0c-0.03-0.08-0.07-0.16-0.1-0.24c-1.42,1.32-3.05,2.47-4.9,3.1
			c-1.35,0.47-2.8,0.63-4.22,0.44c-1.17-0.16-2.31-0.55-3.35-1.1c-0.8-0.42-1.55-0.94-2.23-1.53c-0.22-0.19-0.43-0.39-0.64-0.6
			c-0.1-0.1-0.18-0.21-0.28-0.3c0,0-0.01-0.01-0.01-0.01c-0.12-0.14-0.31,0.06-0.2,0.2c0.24,0.28,0.51,0.53,0.78,0.77
			c0.67,0.6,1.4,1.13,2.18,1.57c1.03,0.58,2.16,1.02,3.32,1.22c1.41,0.25,2.86,0.16,4.23-0.23c1.81-0.52,3.44-1.53,4.86-2.74
			c0.23-0.19,0.45-0.39,0.66-0.59c0.09-0.08,0.02-0.24-0.1-0.24c-0.58,0-1.16,0-1.75,0C20.94,21.31,20.94,21.59,21.12,21.59
			L21.12,21.59z"/>
		<path class="st0" d="M23,23.2c0-0.51,0-1.02,0-1.54c0-0.07,0-0.14,0-0.22c0-0.18-0.28-0.18-0.28,0c0,0.51,0,1.02,0,1.54
			c0,0.07,0,0.14,0,0.22C22.72,23.38,23,23.38,23,23.2L23,23.2z"/>
	</g>
	<g>
		<path class="st0" d="M25.09,14.97c0,0.58-0.35,1.13-0.9,1.34c-0.53,0.21-1.13,0.07-1.53-0.33c-0.41-0.42-0.52-1.08-0.26-1.61
			c0.27-0.53,0.85-0.85,1.44-0.78C24.55,13.67,25.07,14.27,25.09,14.97c0.01,0.18,0.29,0.18,0.28,0c-0.02-0.73-0.48-1.37-1.18-1.6
			c-0.68-0.22-1.44,0.02-1.87,0.59c-0.43,0.56-0.47,1.36-0.08,1.95c0.38,0.58,1.1,0.88,1.78,0.73c0.78-0.17,1.34-0.88,1.34-1.68
			C25.37,14.79,25.09,14.79,25.09,14.97z"/>
		<path class="st0" d="M25.09,14.97c0,0.58-0.35,1.13-0.9,1.34c-0.53,0.21-1.13,0.07-1.53-0.33c-0.41-0.42-0.52-1.08-0.26-1.61
			c0.27-0.53,0.85-0.85,1.44-0.78C24.55,13.67,25.07,14.27,25.09,14.97c0.01,0.18,0.29,0.18,0.28,0c-0.02-0.73-0.48-1.37-1.18-1.6
			c-0.68-0.22-1.44,0.02-1.87,0.59c-0.43,0.56-0.47,1.36-0.08,1.95c0.38,0.58,1.1,0.88,1.78,0.73c0.78-0.17,1.34-0.88,1.34-1.68
			C25.37,14.79,25.09,14.79,25.09,14.97z"/>
		<g>
			<defs>
				<polygon id="SVGID_1_" points="22.12,12.58 21.18,10.75 21.18,9.16 30.33,9.9 30.33,20.66 24.11,20.66 20.98,19.92 22.12,17.86 
					21.71,15.5 				"/>
			</defs>
			<clipPath id="SVGID_00000011022362770594749870000017781055280483955879_">
				<use xlink:href="#SVGID_1_"  style="overflow:visible;"/>
			</clipPath>
			<g style="clip-path:url(#SVGID_00000011022362770594749870000017781055280483955879_);">
				<path class="st0" d="M28.61,15.84c0-0.55,0-1.1,0-1.65c0-0.08-0.06-0.14-0.14-0.14c-0.39,0-0.78,0-1.17,0
					c0.04,0.03,0.09,0.07,0.13,0.1c-0.1-0.41-0.27-0.8-0.49-1.16c-0.01,0.06-0.01,0.11-0.02,0.17c0.28-0.3,0.57-0.61,0.85-0.91
					c0.05-0.05,0.06-0.14,0-0.2c-0.4-0.38-0.8-0.75-1.2-1.13c-0.05-0.05-0.14-0.06-0.2,0c-0.27,0.29-0.55,0.59-0.82,0.88
					c0.06-0.01,0.11-0.01,0.17-0.02c-0.36-0.22-0.76-0.38-1.17-0.48c0.03,0.04,0.07,0.09,0.1,0.13c0-0.42,0-0.84,0-1.26
					c0-0.08-0.06-0.14-0.14-0.14c-0.55,0-1.1,0-1.65,0c-0.08,0-0.14,0.06-0.14,0.14c0,0.42,0,0.84,0,1.25
					c0.03-0.04,0.07-0.09,0.1-0.13c-1.36,0.32-2.47,1.36-2.85,2.71c-0.36,1.27-0.03,2.68,0.87,3.66c0.53,0.58,1.22,0.98,1.98,1.16
					c-0.03-0.04-0.07-0.09-0.1-0.13c0,0.36,0,0.72,0,1.08c0,0.08,0.06,0.14,0.14,0.14c0.55,0,1.1,0,1.65,0
					c0.08,0,0.14-0.06,0.14-0.14c0-0.36,0-0.72,0-1.08c-0.03,0.04-0.07,0.09-0.1,0.13c0.4-0.09,0.78-0.25,1.13-0.46
					c-0.06-0.01-0.11-0.01-0.17-0.02c0.26,0.27,0.51,0.54,0.77,0.81c0.05,0.06,0.14,0.05,0.2,0c0.4-0.38,0.8-0.75,1.2-1.13
					c0.06-0.05,0.05-0.14,0-0.2c-0.26-0.28-0.52-0.55-0.78-0.83c0.01,0.06,0.01,0.11,0.02,0.17c0.26-0.4,0.44-0.84,0.54-1.3
					c-0.04,0.03-0.09,0.07-0.13,0.1c0.38,0,0.76,0,1.14,0c0.18,0,0.18-0.28,0-0.28c-0.38,0-0.76,0-1.14,0
					c-0.06,0-0.12,0.04-0.13,0.1c-0.1,0.44-0.27,0.86-0.52,1.24c-0.03,0.05-0.02,0.13,0.02,0.17c0.26,0.28,0.52,0.55,0.78,0.83
					c0-0.07,0-0.13,0-0.2c-0.4,0.38-0.8,0.75-1.2,1.13c0.07,0,0.13,0,0.2,0c-0.26-0.27-0.51-0.54-0.77-0.81
					c-0.04-0.04-0.12-0.05-0.17-0.02c-0.33,0.2-0.69,0.34-1.07,0.43c-0.06,0.01-0.1,0.08-0.1,0.13c0,0.36,0,0.72,0,1.08
					c0.05-0.05,0.09-0.09,0.14-0.14c-0.55,0-1.1,0-1.65,0c0.05,0.05,0.09,0.09,0.14,0.14c0-0.36,0-0.72,0-1.08
					c0-0.06-0.04-0.12-0.1-0.13c-1.24-0.29-2.26-1.22-2.63-2.44c-0.36-1.19-0.08-2.52,0.75-3.44c0.5-0.56,1.15-0.94,1.88-1.11
					c0.06-0.01,0.1-0.08,0.1-0.13c0-0.42,0-0.84,0-1.25c-0.05,0.05-0.09,0.09-0.14,0.14c0.55,0,1.1,0,1.65,0
					c-0.05-0.05-0.09-0.09-0.14-0.14c0,0.42,0,0.84,0,1.26c0,0.06,0.04,0.12,0.1,0.13c0.39,0.09,0.76,0.24,1.1,0.45
					c0.05,0.03,0.13,0.02,0.17-0.02c0.27-0.29,0.55-0.59,0.82-0.88c-0.07,0-0.13,0-0.2,0c0.4,0.38,0.8,0.75,1.2,1.13
					c0-0.07,0-0.13,0-0.2c-0.28,0.3-0.57,0.61-0.85,0.91c-0.04,0.04-0.06,0.12-0.02,0.17c0.21,0.34,0.37,0.7,0.47,1.09
					c0.01,0.06,0.07,0.1,0.13,0.1c0.39,0,0.78,0,1.17,0c-0.05-0.05-0.09-0.09-0.14-0.14c0,0.55,0,1.1,0,1.65
					C28.33,16.02,28.61,16.03,28.61,15.84z"/>
				<path class="st0" d="M23.93,16.38c-0.57,0.1-1.16-0.16-1.47-0.65c-0.31-0.5-0.27-1.15,0.09-1.61c0.37-0.47,1-0.66,1.56-0.47
					c0.57,0.19,0.97,0.73,0.97,1.34C25.1,15.67,24.6,16.24,23.93,16.38c-0.18,0.04-0.1,0.31,0.07,0.27
					c0.71-0.15,1.26-0.73,1.35-1.46c0.08-0.69-0.27-1.36-0.87-1.7c-0.63-0.35-1.43-0.24-1.96,0.24c-0.53,0.49-0.69,1.27-0.4,1.93
					c0.32,0.73,1.11,1.12,1.88,0.98C24.18,16.62,24.11,16.35,23.93,16.38z"/>
			</g>
		</g>
	</g>
	<g>
		<path class="st0" d="M4.63,14.97c0,0.69,0.41,1.33,1.06,1.59c0.64,0.26,1.38,0.1,1.86-0.4c0.49-0.51,0.61-1.3,0.29-1.94
			c-0.33-0.65-1.04-1.01-1.76-0.91C5.25,13.43,4.65,14.15,4.63,14.97c-0.01,0.18,0.27,0.18,0.28,0c0.02-0.62,0.42-1.17,1.02-1.34
			c0.57-0.17,1.2,0.05,1.55,0.53c0.34,0.47,0.36,1.12,0.03,1.61c-0.32,0.48-0.93,0.73-1.49,0.6c-0.65-0.15-1.11-0.74-1.11-1.4
			C4.91,14.79,4.63,14.79,4.63,14.97z"/>
		<path class="st0" d="M4.63,14.97c0,0.69,0.41,1.33,1.06,1.59c0.64,0.26,1.38,0.1,1.86-0.4c0.49-0.51,0.61-1.3,0.29-1.94
			c-0.33-0.65-1.04-1.01-1.76-0.91C5.25,13.43,4.65,14.15,4.63,14.97c-0.01,0.18,0.27,0.18,0.28,0c0.02-0.62,0.42-1.17,1.02-1.34
			c0.57-0.17,1.2,0.05,1.55,0.53c0.34,0.47,0.36,1.12,0.03,1.61c-0.32,0.48-0.93,0.73-1.49,0.6c-0.65-0.15-1.11-0.74-1.11-1.4
			C4.91,14.79,4.63,14.79,4.63,14.97z"/>
		<g>
			<defs>
				<polygon id="SVGID_00000000183110777752800520000018370349694529926541_" points="7.88,12.58 8.82,10.75 8.82,9.16 -0.33,9.9 
					-0.33,20.66 5.89,20.66 9.02,19.92 7.88,17.86 8.29,15.5 				"/>
			</defs>
			<clipPath id="SVGID_00000018924116715146610300000014937158759793459887_">
				<use xlink:href="#SVGID_00000000183110777752800520000018370349694529926541_"  style="overflow:visible;"/>
			</clipPath>
			<g style="clip-path:url(#SVGID_00000018924116715146610300000014937158759793459887_);">
				<path class="st0" d="M2.54,15.88c0.1,0.47,0.28,0.9,0.54,1.3c0.01-0.06,0.01-0.11,0.02-0.17c-0.26,0.28-0.52,0.55-0.78,0.83
					c-0.05,0.05-0.06,0.14,0,0.2c0.4,0.38,0.8,0.75,1.2,1.13c0.05,0.05,0.14,0.06,0.2,0c0.26-0.27,0.51-0.54,0.77-0.81
					c-0.06,0.01-0.11,0.01-0.17,0.02c0.35,0.21,0.73,0.37,1.13,0.46c-0.03-0.04-0.07-0.09-0.1-0.13c0,0.36,0,0.72,0,1.08
					c0,0.08,0.06,0.14,0.14,0.14c0.55,0,1.1,0,1.65,0c0.08,0,0.14-0.06,0.14-0.14c0-0.36,0-0.72,0-1.08
					c-0.03,0.04-0.07,0.09-0.1,0.13C8.5,18.53,9.6,17.51,10,16.21c0.39-1.28,0.08-2.7-0.81-3.69c-0.53-0.6-1.24-1.02-2.02-1.2
					c0.03,0.04,0.07,0.09,0.1,0.13c0-0.42,0-0.84,0-1.25c0-0.08-0.06-0.14-0.14-0.14c-0.55,0-1.1,0-1.65,0
					c-0.08,0-0.14,0.06-0.14,0.14c0,0.42,0,0.84,0,1.26c0.03-0.04,0.07-0.09,0.1-0.13c-0.41,0.1-0.81,0.26-1.17,0.48
					c0.06,0.01,0.11,0.01,0.17,0.02c-0.27-0.29-0.55-0.59-0.82-0.88c-0.05-0.06-0.14-0.05-0.2,0c-0.4,0.38-0.8,0.75-1.2,1.13
					c-0.06,0.05-0.05,0.14,0,0.2c0.28,0.3,0.57,0.61,0.85,0.91C3.07,13.12,3.06,13.06,3.06,13c-0.23,0.36-0.39,0.75-0.49,1.16
					c0.04-0.03,0.09-0.07,0.13-0.1c-0.39,0-0.78,0-1.17,0c-0.08,0-0.14,0.06-0.14,0.14c0,0.55,0,1.1,0,1.65
					c0,0.08,0.06,0.14,0.14,0.14c0.38,0,0.76,0,1.14,0c0.18,0,0.18-0.28,0-0.28c-0.38,0-0.76,0-1.14,0
					c0.05,0.05,0.09,0.09,0.14,0.14c0-0.55,0-1.1,0-1.65c-0.05,0.05-0.09,0.09-0.14,0.14c0.39,0,0.78,0,1.17,0
					c0.06,0,0.12-0.04,0.13-0.1c0.1-0.39,0.25-0.75,0.47-1.09c0.03-0.05,0.02-0.13-0.02-0.17c-0.28-0.3-0.57-0.61-0.85-0.91
					c0,0.07,0,0.13,0,0.2c0.4-0.38,0.8-0.75,1.2-1.13c-0.07,0-0.13,0-0.2,0c0.27,0.29,0.55,0.59,0.82,0.88
					c0.04,0.04,0.12,0.05,0.17,0.02c0.34-0.21,0.71-0.36,1.1-0.45c0.06-0.01,0.1-0.08,0.1-0.13c0-0.42,0-0.84,0-1.26
					c-0.05,0.05-0.09,0.09-0.14,0.14c0.55,0,1.1,0,1.65,0C7.09,10.29,7.04,10.24,7,10.2c0,0.42,0,0.84,0,1.25
					c0,0.06,0.04,0.12,0.1,0.13c1.26,0.3,2.3,1.26,2.66,2.51c0.34,1.19,0.02,2.49-0.81,3.4c-0.49,0.54-1.13,0.9-1.84,1.07
					C7.04,18.58,7,18.64,7,18.7c0,0.36,0,0.72,0,1.08c0.05-0.05,0.09-0.09,0.14-0.14c-0.55,0-1.1,0-1.65,0
					c0.05,0.05,0.09,0.09,0.14,0.14c0-0.36,0-0.72,0-1.08c0-0.06-0.04-0.12-0.1-0.13c-0.38-0.09-0.73-0.23-1.07-0.43
					c-0.05-0.03-0.13-0.02-0.17,0.02c-0.26,0.27-0.51,0.54-0.77,0.81c0.07,0,0.13,0,0.2,0c-0.4-0.38-0.8-0.75-1.2-1.13
					c0,0.07,0,0.13,0,0.2c0.26-0.28,0.52-0.55,0.78-0.83c0.04-0.04,0.06-0.12,0.02-0.17c-0.25-0.38-0.42-0.79-0.52-1.24
					C2.77,15.63,2.5,15.71,2.54,15.88z"/>
				<path class="st0" d="M5.56,16.18c-0.48-0.31-0.73-0.89-0.63-1.46c0.12-0.6,0.63-1.08,1.25-1.14c0.59-0.06,1.15,0.26,1.42,0.79
					c0.27,0.53,0.15,1.2-0.27,1.62C6.86,16.46,6.12,16.53,5.56,16.18c-0.15-0.1-0.29,0.15-0.14,0.24c0.6,0.37,1.38,0.35,1.94-0.09
					c0.55-0.42,0.79-1.15,0.6-1.82c-0.2-0.7-0.85-1.2-1.57-1.22c-0.73-0.02-1.4,0.44-1.65,1.12c-0.27,0.74,0.04,1.58,0.69,2
					C5.57,16.52,5.71,16.28,5.56,16.18z"/>
			</g>
		</g>
	</g>
</g>
</svg>
