<svg xmlns="http://www.w3.org/2000/svg" xmlns:xlink="http://www.w3.org/1999/xlink" id="Calque_1" x="0px" y="0px" viewBox="0 0 30 30" style="enable-background:new 0 0 30 30;" xml:space="preserve">
<style type="text/css">
	.st0{opacity:0.9;fill-rule:evenodd;clip-rule:evenodd;fill:url(#SVGID_1_);}
	.st1{opacity:0.9;fill-rule:evenodd;clip-rule:evenodd;fill:url(#SVGID_00000139987879564713926390000006179706973501336496_);}
	.st2{fill:#FFFFFF;}
</style>
<linearGradient id="SVGID_1_" gradientUnits="userSpaceOnUse" x1="20.3492" y1="10.8049" x2="12.7914" y2="18.3658">
	<stop offset="0" style="stop-color:#E3047E;stop-opacity:0.8"></stop>
	<stop offset="1" style="stop-color:#304096;stop-opacity:0.8"></stop>
</linearGradient>
<path class="st0" d="M25.62,20.97c1.39-0.9,2.67-1.95,1.44-3.56c-0.67-0.86-2.07-1.97-2.11-3.07c-0.07-1.81,2.6-2.57,3.22-4.3  l0.08-0.25c0.46-1.82-1.47-2.78-2.98-2.97c-1.62-0.19-2.88,0.16-4.36,0.77c-2.18,0.9-3.44,0.62-5.48-0.3  c-1.99-0.89-3.23-1.09-5.29-0.07c-1.72,0.86-0.75,1.87-1.37,2.8c-0.74,1.1-2.95,0.51-4.25,1.28c-0.23,0.14-0.39,0.27-0.58,0.46  c-1.38,1.43-0.08,3.16,1.15,4.12l0.15,0.12c0.69,0.71,0.08,2.39-0.13,3.25c-0.51,2.04-1.05,4.57,1.98,4.41l0.18-0.01l0.2-0.01  c3.53-0.44,4.36-5.86,10.69-2.31l0.19,0.11l0.18,0.11c2.7,1.53,4.4,0.78,6.96-0.49L25.62,20.97L25.62,20.97z M17.1,22.38  c-0.04,0.72-0.56,1.11-1.24,0.75c-0.94-0.49-0.76-0.34-1.74-0.2c-0.68,0.1-1.1-0.14-1.23-0.85c-0.13-0.74,0.41-1.33,1.19-0.94  c1.09,0.54,0.45,0.31,1.56,0.28C16.27,21.4,16.99,21.69,17.1,22.38L17.1,22.38z M11.62,23.97c-0.33-0.02-0.65-0.24-0.49-0.64  c0.27-0.71,1.18-0.01,0.81,0.49C11.86,23.92,11.75,23.97,11.62,23.97L11.62,23.97z M6.64,9.89c-0.28-0.21-0.3-0.38-0.21-0.73  c0.25-1.04,1.71-0.38,1.04,0.63c-0.09,0.13-0.43,0.3-0.59,0.24C6.78,10,6.71,9.94,6.64,9.89L6.64,9.89z M27.07,13.06  c0.83-0.27,1.07,0.46,0.79,1.13c-0.27,0.62-0.14,0.42,0.08,0.92c0.14,0.33-0.11,1.22-0.78,0.84c-0.69-0.39-1.23-2.24-0.21-2.82  L27.07,13.06z"></path>
<linearGradient id="SVGID_00000127758382045820107470000017191340397785491102_" gradientUnits="userSpaceOnUse" x1="5.9542" y1="20.122" x2="20.1414" y2="12.8314">
	<stop offset="0" style="stop-color:#E3047E"></stop>
	<stop offset="0.4832" style="stop-color:#8F2089"></stop>
	<stop offset="1" style="stop-color:#304096"></stop>
</linearGradient>
<path style="opacity:0.9;fill-rule:evenodd;clip-rule:evenodd;fill:url(#SVGID_00000127758382045820107470000017191340397785491102_);" d="  M3.15,12.85c1.25,1.64,3.52,2.89,1.35,5.12c-1.06,1.06-2.75,1.93-2.68,3.66c0.06,1.58,1.92,2.33,3.25,2.51  c1.54,0.19,3.06-0.15,4.48-0.75c2.35-0.99,3.69-0.8,5.92,0.2c2.09,0.94,3.39,1.23,5.6,0.18c1.24-0.59,1.25-0.95,1.35-2.19  c0.1-1.22,0.87-1.5,2-1.66c0.25-0.03,0.48-0.05,0.73-0.07c1.02-0.06,1.91-0.21,2.66-0.98c1.34-1.47,0.3-3.08-0.96-4.16  c-0.54-0.47-0.79-0.51-0.78-1.39c0.01-0.93,0.54-2.55,0.74-3.56c0.47-2.41,0-3.76-2.76-3.55c-3.71,0.34-4.57,6.37-11.67,2.33  C9.42,6.88,7.74,7.54,4.91,8.94c-0.84,0.41-2.17,1.4-2.28,2.41C2.56,11.93,2.82,12.4,3.15,12.85L3.15,12.85z M13.77,7.55  c0.04-0.72,0.57-1.19,1.28-0.82c0.81,0.42,0.67,0.46,1.62,0.28c0.8-0.15,1.42-0.1,1.59,0.85c0.14,0.79-0.43,1.43-1.27,1.01  c-1.16-0.58-0.48-0.33-1.67-0.3C14.65,8.6,13.89,8.29,13.77,7.55L13.77,7.55z M19.39,6.73c-0.66-0.78,0.45-1.18,0.73-0.58  C20.29,6.53,19.91,7.13,19.39,6.73L19.39,6.73z M24.23,20.83c0.13-0.04,0.29-0.29,0.62-0.01c0.26,0.22,0.37,0.2,0.33,0.66  c-0.07,0.42-0.26,0.81-0.75,0.73c-0.52-0.08-0.71-0.6-0.48-1.07l0.08-0.15C24.08,20.92,24.14,20.86,24.23,20.83L24.23,20.83z   M3.68,15.25c0.27,0.78,0.41,1.84-0.53,2.24c-0.8,0.34-1.2-0.46-0.84-1.21c0.26-0.54,0.22-0.43-0.06-0.89  c-0.11-0.19-0.1-0.26-0.05-0.46c0.09-0.23,0.07-0.55,0.48-0.59C3.19,14.28,3.5,14.86,3.68,15.25z"></path>
<g>
	<path class="st2" d="M16.42,15.48c0,0.53-0.34,1.01-0.83,1.2c-0.5,0.18-1.08,0.03-1.42-0.38c-0.34-0.41-0.39-1.02-0.11-1.47   c0.27-0.45,0.82-0.69,1.34-0.59c0.52,0.1,0.93,0.53,1.01,1.05C16.42,15.35,16.42,15.42,16.42,15.48c0,0.06,0.1,0.06,0.1,0   c0-0.57-0.36-1.09-0.9-1.29c-0.54-0.2-1.16-0.03-1.53,0.41c-0.36,0.44-0.41,1.09-0.12,1.58c0.3,0.49,0.88,0.74,1.45,0.63   c0.55-0.11,0.99-0.57,1.08-1.13c0.01-0.07,0.02-0.14,0.02-0.21C16.52,15.42,16.42,15.42,16.42,15.48z"></path>
	<path class="st2" d="M19.07,17.7c0,0.4-0.26,0.77-0.63,0.91c-0.38,0.14-0.82,0.02-1.08-0.29c-0.26-0.31-0.29-0.77-0.08-1.12   c0.21-0.34,0.63-0.53,1.02-0.44C18.74,16.85,19.07,17.24,19.07,17.7c0,0.06,0.1,0.06,0.1,0c0-0.44-0.28-0.84-0.69-0.99   c-0.42-0.16-0.9-0.02-1.19,0.32c-0.28,0.34-0.32,0.84-0.09,1.22c0.23,0.38,0.68,0.58,1.12,0.5c0.43-0.08,0.77-0.44,0.84-0.87   c0.01-0.06,0.01-0.11,0.01-0.17C19.16,17.64,19.07,17.64,19.07,17.7z"></path>
	<path class="st2" d="M13.93,12.98c0,0.47-0.3,0.91-0.75,1.07c-0.45,0.16-0.96,0.02-1.26-0.34c-0.31-0.37-0.34-0.9-0.1-1.31   c0.24-0.4,0.73-0.62,1.19-0.53c0.46,0.09,0.82,0.47,0.9,0.94C13.92,12.86,13.92,12.92,13.93,12.98c0,0.06,0.1,0.06,0.1,0   c0-0.51-0.33-0.98-0.81-1.16c-0.48-0.18-1.04-0.02-1.37,0.37c-0.33,0.4-0.37,0.98-0.1,1.42c0.27,0.44,0.79,0.67,1.3,0.57   c0.5-0.1,0.89-0.51,0.97-1.01c0.01-0.07,0.02-0.13,0.02-0.2C14.02,12.92,13.93,12.92,13.93,12.98z"></path>
	<path class="st2" d="M12.85,17.91c0,0.35-0.22,0.68-0.56,0.8c-0.34,0.12-0.72,0.02-0.95-0.26c-0.23-0.27-0.26-0.67-0.07-0.98   c0.18-0.3,0.55-0.46,0.89-0.39C12.57,17.16,12.85,17.51,12.85,17.91c0,0.06,0.1,0.06,0.1,0c0-0.4-0.25-0.75-0.63-0.89   c-0.37-0.13-0.8-0.01-1.05,0.29c-0.25,0.31-0.28,0.75-0.08,1.08c0.2,0.34,0.6,0.51,0.99,0.44c0.44-0.08,0.76-0.48,0.76-0.93   C12.95,17.85,12.85,17.85,12.85,17.91z"></path>
	<path class="st2" d="M18.51,13.06c0,0.22-0.14,0.43-0.35,0.51c-0.21,0.08-0.45,0.01-0.6-0.16c-0.15-0.17-0.16-0.43-0.05-0.62   c0.12-0.19,0.34-0.29,0.56-0.25C18.33,12.59,18.51,12.81,18.51,13.06c0,0.06,0.1,0.06,0.1,0c0-0.27-0.17-0.5-0.42-0.6   c-0.25-0.09-0.54-0.01-0.7,0.19c-0.17,0.2-0.19,0.5-0.05,0.73c0.14,0.23,0.41,0.34,0.66,0.29c0.3-0.06,0.51-0.32,0.51-0.62   C18.61,13,18.51,13,18.51,13.06z"></path>
	<path class="st2" d="M15.83,19.93c0,0.31-0.2,0.59-0.49,0.7c-0.3,0.11-0.63,0.01-0.83-0.23c-0.2-0.24-0.22-0.59-0.06-0.86   c0.16-0.26,0.48-0.41,0.78-0.35C15.57,19.27,15.83,19.57,15.83,19.93c0,0.06,0.1,0.06,0.1,0c0-0.35-0.22-0.66-0.55-0.79   c-0.33-0.12-0.72-0.02-0.94,0.25c-0.22,0.27-0.25,0.66-0.07,0.97c0.18,0.3,0.54,0.46,0.89,0.39c0.39-0.08,0.67-0.43,0.67-0.82   C15.92,19.86,15.83,19.86,15.83,19.93z"></path>
	<path class="st2" d="M13.57,13.87c0.19,0.19,0.39,0.39,0.58,0.58c0.03,0.03,0.06,0.06,0.08,0.08c0.04,0.04,0.11-0.02,0.07-0.07   c-0.19-0.19-0.39-0.39-0.58-0.58c-0.03-0.03-0.06-0.06-0.08-0.08C13.6,13.76,13.53,13.82,13.57,13.87L13.57,13.87z"></path>
	<path class="st2" d="M14.03,16.25c-0.15,0.12-0.31,0.23-0.46,0.35c-0.25,0.19-0.49,0.37-0.74,0.56c-0.06,0.04-0.11,0.09-0.17,0.13   c-0.05,0.04,0,0.12,0.05,0.08c0.15-0.12,0.31-0.23,0.46-0.35c0.25-0.19,0.49-0.37,0.74-0.56c0.06-0.04,0.11-0.09,0.17-0.13   C14.13,16.29,14.08,16.21,14.03,16.25L14.03,16.25z"></path>
	<path class="st2" d="M17.47,13.41c-0.15,0.13-0.29,0.27-0.44,0.4c-0.23,0.21-0.46,0.43-0.7,0.64c-0.05,0.05-0.11,0.1-0.16,0.15   c-0.05,0.04,0.02,0.11,0.07,0.07c0.15-0.13,0.29-0.27,0.44-0.4c0.23-0.21,0.46-0.43,0.7-0.64c0.05-0.05,0.11-0.1,0.16-0.15   C17.58,13.44,17.52,13.37,17.47,13.41L17.47,13.41z"></path>
	<path class="st2" d="M16.09,16.42c0.32,0.24,0.65,0.47,0.97,0.71c0.05,0.03,0.09,0.07,0.14,0.1c0.05,0.04,0.1-0.05,0.05-0.08   c-0.32-0.24-0.65-0.47-0.97-0.71c-0.05-0.03-0.09-0.07-0.14-0.1C16.09,16.31,16.04,16.39,16.09,16.42L16.09,16.42z"></path>
	<path class="st2" d="M15.06,16.8c0,0.26,0,0.53,0,0.79c0,0.42,0,0.83,0,1.25c0,0.1,0,0.19,0,0.29c0,0.06,0.1,0.06,0.1,0   c0-0.26,0-0.53,0-0.79c0-0.42,0-0.83,0-1.25c0-0.1,0-0.19,0-0.29C15.16,16.74,15.06,16.74,15.06,16.8L15.06,16.8z"></path>
</g>
</svg>