<svg xmlns="http://www.w3.org/2000/svg" xmlns:xlink="http://www.w3.org/1999/xlink" id="Calque_1" x="0px" y="0px" viewBox="0 0 30 30" style="enable-background:new 0 0 30 30;" xml:space="preserve">
<style type="text/css">
	.st0{fill:#B62A61;}
</style>
<g>
	<path class="st0" d="M14.89,18.97c0.47,0.74,0.94,1.48,1.4,2.22c0.38,0.6,0.76,1.21,1.14,1.81c0.22,0.35,0.44,0.7,0.66,1.04   c0.04-0.06,0.07-0.13,0.11-0.19c-0.94,0-1.87,0-2.81,0c-0.76,0-1.52,0-2.29,0c-0.44,0-0.88,0-1.32,0c0.04,0.06,0.07,0.13,0.11,0.19   c0.47-0.74,0.94-1.48,1.4-2.22c0.38-0.6,0.76-1.21,1.14-1.81c0.22-0.35,0.44-0.7,0.66-1.04c0.09-0.14-0.13-0.27-0.22-0.13   c-0.47,0.74-0.94,1.48-1.4,2.22c-0.38,0.6-0.76,1.21-1.14,1.81c-0.22,0.35-0.44,0.7-0.66,1.04c-0.05,0.08,0.02,0.19,0.11,0.19   c0.94,0,1.87,0,2.81,0c0.76,0,1.52,0,2.29,0c0.44,0,0.88,0,1.32,0c0.09,0,0.16-0.11,0.11-0.19c-0.47-0.74-0.94-1.48-1.4-2.22   c-0.38-0.6-0.76-1.21-1.14-1.81c-0.22-0.35-0.44-0.7-0.66-1.04C15.02,18.71,14.8,18.83,14.89,18.97z"></path>
	<path class="st0" d="M11.3,21.46c-0.94,0-1.87,0-2.81,0c-1.49,0-2.97,0-4.46,0c-0.34,0-0.68,0-1.02,0   c0.04,0.04,0.08,0.08,0.13,0.13c0-0.52,0-1.03,0-1.55c0-1.24,0-2.48,0-3.72c0-1.5,0-3,0-4.5c0-1.3,0-2.59,0-3.89   c0-0.43,0-0.86,0-1.28c0-0.13,0-0.27,0-0.4c0-0.07,0.01-0.15,0-0.21c0-0.01,0-0.02,0-0.03C3.09,6.06,3.04,6.1,3,6.14   c0.21,0,0.43,0,0.64,0c0.58,0,1.16,0,1.74,0c0.86,0,1.73,0,2.59,0c1.05,0,2.1,0,3.15,0c1.15,0,2.3,0,3.45,0c1.16,0,2.32,0,3.48,0   c1.08,0,2.16,0,3.25,0c0.91,0,1.83,0,2.74,0c0.66,0,1.32,0,1.98,0c0.2,0,0.41,0,0.61,0c0.1,0,0.22,0.01,0.32,0   c0.01,0,0.03,0,0.04,0c-0.04-0.04-0.08-0.08-0.13-0.13c0,0.52,0,1.03,0,1.55c0,1.24,0,2.48,0,3.72c0,1.5,0,3,0,4.5   c0,1.3,0,2.59,0,3.89c0,0.43,0,0.86,0,1.28c0,0.13,0,0.27,0,0.4c0,0.07-0.01,0.15,0,0.21c0,0.01,0,0.02,0,0.03   c0.04-0.04,0.08-0.08,0.13-0.13c-0.93,0-1.86,0-2.79,0c-1.48,0-2.96,0-4.45,0c-0.34,0-0.68,0-1.02,0c-0.16,0-0.16,0.25,0,0.25   c0.93,0,1.86,0,2.79,0c1.48,0,2.96,0,4.45,0c0.34,0,0.68,0,1.02,0c0.07,0,0.13-0.06,0.13-0.13c0-0.52,0-1.03,0-1.55   c0-1.24,0-2.48,0-3.72c0-1.5,0-3,0-4.5c0-1.3,0-2.59,0-3.89c0-0.43,0-0.86,0-1.28c0-0.2,0.01-0.41,0-0.61c0-0.01,0-0.02,0-0.03   c0-0.07-0.06-0.13-0.13-0.13c-0.21,0-0.43,0-0.64,0c-0.58,0-1.16,0-1.74,0c-0.86,0-1.73,0-2.59,0c-1.05,0-2.1,0-3.15,0   c-1.15,0-2.3,0-3.45,0c-1.16,0-2.32,0-3.48,0c-1.08,0-2.16,0-3.25,0c-0.91,0-1.83,0-2.74,0c-0.66,0-1.32,0-1.98,0   c-0.31,0-0.62-0.01-0.93,0c-0.01,0-0.03,0-0.04,0c-0.07,0-0.13,0.06-0.13,0.13c0,0.52,0,1.03,0,1.55c0,1.24,0,2.48,0,3.72   c0,1.5,0,3,0,4.5c0,1.3,0,2.59,0,3.89c0,0.43,0,0.86,0,1.28c0,0.2-0.01,0.41,0,0.61c0,0.01,0,0.02,0,0.03   c0,0.07,0.06,0.13,0.13,0.13c0.94,0,1.87,0,2.81,0c1.49,0,2.97,0,4.46,0c0.34,0,0.68,0,1.02,0C11.46,21.72,11.46,21.46,11.3,21.46   L11.3,21.46z"></path>
</g>
</svg>