<?xml version="1.0" encoding="utf-8"?>
<!-- Generator: Adobe Illustrator 25.4.1, SVG Export Plug-In . SVG Version: 6.00 Build 0)  -->
<svg version="1.1" id="Calque_1" xmlns="http://www.w3.org/2000/svg" xmlns:xlink="http://www.w3.org/1999/xlink" x="0px" y="0px"
	 viewBox="0 0 30 30" style="enable-background:new 0 0 30 30;" xml:space="preserve">
<style type="text/css">
	.st0{fill:#B62A62;}
</style>
<g>
	<path class="st0" d="M23.29,27.74c-0.49,0-0.98,0-1.46,0c-1.2,0-2.4,0-3.6,0c-1.49,0-2.98,0-4.47,0c-1.38,0-2.76,0-4.14,0
		c-0.86,0-1.72,0-2.58,0c-0.2,0-0.41,0.01-0.61-0.02c-0.96-0.14-1.68-0.99-1.69-1.95c-0.01-0.72,0-1.43,0-2.15c0-1.43,0-2.86,0-4.3
		c0-1.3,0-2.61,0-3.91c0-0.34,0-0.68,0-1.02c0-0.59,0.17-1.13,0.6-1.55c0.4-0.39,0.92-0.56,1.48-0.56c0.25,0,0.51,0,0.76,0
		c1.06,0,2.12,0,3.18,0c1.46,0,2.91,0,4.37,0c1.44,0,2.89,0,4.33,0c1.03,0,2.06,0,3.09,0c0.23,0,0.45,0,0.68,0
		c0.66,0,1.28,0.28,1.67,0.83c0.5,0.7,0.36,1.66,0.36,2.47c0,1.33,0,2.67,0,4c0,1.42,0,2.84,0,4.26c0,0.67,0.03,1.35,0,2.02
		C25.21,26.91,24.32,27.73,23.29,27.74c-0.23,0-0.23,0.36,0,0.36c1.02-0.01,1.94-0.69,2.23-1.68c0.1-0.33,0.09-0.67,0.09-1.01
		c0-1.1,0-2.21,0-3.31c0-1.52,0-3.03,0-4.55c0-1.02,0-2.04,0-3.07c0-0.47-0.06-0.92-0.29-1.34c-0.41-0.75-1.2-1.2-2.05-1.2
		c-0.59-0.01-1.19,0-1.79,0c-1.28,0-2.57,0-3.85,0c-1.54,0-3.07,0-4.61,0c-1.34,0-2.69,0-4.03,0c-0.73,0-1.46,0-2.19,0
		c-1.35,0-2.42,1.02-2.43,2.38c0,0.87,0,1.73,0,2.6c0,1.5,0,3,0,4.5c0,1.23,0,2.45,0,3.68c0,0.23,0,0.45,0,0.68
		c0.01,0.93,0.56,1.78,1.41,2.14c0.62,0.27,1.37,0.19,2.03,0.19c1.16,0,2.31,0,3.47,0c1.52,0,3.03,0,4.55,0c1.44,0,2.87,0,4.31,0
		c0.92,0,1.84,0,2.75,0c0.13,0,0.26,0,0.38,0C23.52,28.1,23.52,27.74,23.29,27.74z"/>
	<path class="st0" d="M15.01,22.86c-0.68,0-1.22-0.55-1.23-1.22c0-0.26,0-0.52,0-0.79c0-0.81-0.01-1.61,0-2.42
		c0-0.59,0.38-1.1,0.97-1.23c0.69-0.15,1.39,0.34,1.48,1.03c0.03,0.26,0.01,0.54,0.01,0.8c0,0.48,0,0.95,0,1.43
		c0,0.38,0,0.76,0,1.14C16.22,22.29,15.7,22.84,15.01,22.86c-0.23,0.01-0.23,0.36,0,0.36c0.76-0.02,1.43-0.56,1.56-1.32
		c0.05-0.33,0.02-0.68,0.02-1.01c0-0.85,0.04-1.71,0-2.56c-0.03-0.75-0.6-1.39-1.35-1.5c-0.73-0.11-1.46,0.31-1.72,1.01
		c-0.13,0.35-0.1,0.74-0.1,1.12c0,0.53,0,1.07,0,1.6c0,0.38-0.02,0.76,0,1.14c0.04,0.84,0.75,1.52,1.59,1.52
		C15.24,23.21,15.24,22.86,15.01,22.86z"/>
	<path class="st0" d="M7.5,9.15c0-0.02,0-0.04,0.01-0.07c0-0.02,0.01-0.05,0.01-0.07c0-0.02,0.01-0.11,0.01-0.06
		C7.55,8.73,7.59,8.5,7.64,8.29c0.15-0.71,0.38-1.4,0.7-2.05c0.41-0.85,0.95-1.62,1.65-2.26c0.85-0.77,1.9-1.28,3.02-1.53
		c2.4-0.53,5.23-0.11,6.94,1.78c1.03,1.13,1.58,2.68,1.75,4.17c0.03,0.25,0.04,0.51,0.04,0.76c0,0.9,0,1.8,0,2.7
		c0,0.08,0,0.17,0,0.25c0,0.23,0.36,0.23,0.36,0c0-0.86,0-1.71,0-2.57c0-0.3,0-0.6-0.02-0.9c-0.12-1.5-0.6-3.02-1.52-4.23
		c-0.65-0.85-1.5-1.51-2.48-1.93c-1.31-0.55-2.79-0.68-4.18-0.53c-1.24,0.13-2.46,0.52-3.49,1.25C9.56,3.79,8.86,4.57,8.35,5.46
		C7.93,6.17,7.62,6.94,7.41,7.74c-0.12,0.43-0.23,0.9-0.26,1.35c0,0.02,0,0.04-0.01,0.07C7.13,9.38,7.48,9.38,7.5,9.15L7.5,9.15z"/>
</g>
</svg>
