<svg xmlns="http://www.w3.org/2000/svg" xmlns:xlink="http://www.w3.org/1999/xlink" id="Calque_1" x="0px" y="0px" viewBox="0 0 30 30" style="enable-background:new 0 0 30 30;" xml:space="preserve">
<style type="text/css">
	.st0{fill:#FFFFFF;}
	.st1{fill:none;}
</style>
<g>
	<g>
		<path class="st0" d="M10.9,16.7c0.4,0.4,1,0.8,1.5,1c1.1,0.6,2.4,0.8,3.7,0.4c0.9-0.3,1.8-0.8,2.5-1.5c0,0-0.1,0-0.1,0h0    c0,0,0,0,0,0c0,0,0.1,0,0.1,0c0.1,0,0.2,0.1,0.4,0.2c0.2,0.1,0.3,0.2,0.5,0.3c0.2,0.1,0.4,0.3,0.6,0.4c0.5,0.4,1,0.9,1.4,1.4    c0.5,0.6,0.9,1.3,1.2,2.1c0.4,0.9,0.5,1.9,0.6,2.9c0,0.1,0,0.3,0,0.4c0,0,0-0.1,0-0.1c-0.1,0.1-0.1,0.1-0.2,0.2    c0,0-0.1,0.1-0.1,0.1c0,0,0,0-0.1,0c0,0,0,0,0,0c0,0,0,0,0,0c-0.1,0.1-0.2,0.2-0.4,0.3c-0.7,0.5-1.5,1-2.3,1.3    c-1.1,0.5-2.3,0.9-3.5,1c-1.5,0.2-3,0.1-4.4-0.2c-1.9-0.4-3.6-1.3-5.1-2.4c-0.2-0.2-0.4-0.3-0.7-0.5c0,0,0.1,0.1,0.1,0.1    c0-0.2,0-0.3,0-0.5c0-0.5,0.1-0.9,0.2-1.3c0.1-0.6,0.3-1.2,0.6-1.8c0.3-0.7,0.8-1.4,1.3-2c0.7-0.8,1.5-1.4,2.3-1.9    c0.1-0.1,0.2-0.1,0.4-0.2c0.2-0.1,0-0.3-0.1-0.2c-0.9,0.5-1.7,1.1-2.4,1.8c-0.6,0.6-1.1,1.2-1.5,1.9c-0.3,0.6-0.6,1.2-0.8,1.8    c-0.1,0.5-0.2,1-0.3,1.5c0,0.3,0,0.6,0,0.9c0,0,0,0.1,0,0.1c0,0.1,0.1,0.1,0.2,0.2c0.1,0.1,0.3,0.2,0.4,0.3    c0.2,0.2,0.5,0.4,0.8,0.5c0.9,0.6,1.9,1.1,3,1.5c0.9,0.3,1.9,0.6,2.8,0.7c0.9,0.1,1.7,0.1,2.6,0.1c0.8-0.1,1.5-0.2,2.3-0.4    c0.7-0.2,1.3-0.4,2-0.7c0.5-0.2,1-0.5,1.5-0.8c0.4-0.2,0.7-0.5,1.1-0.7c0.2-0.2,0.4-0.3,0.6-0.5c0,0,0.1,0,0.1-0.1    c0,0,0-0.1,0-0.1c0-0.1,0-0.2,0-0.4c0-0.2,0-0.5,0-0.7c-0.1-0.9-0.3-1.7-0.6-2.5c-0.3-0.7-0.6-1.3-1.1-1.9    c-0.4-0.5-0.8-0.9-1.2-1.3c-0.4-0.3-0.7-0.6-1.1-0.8c-0.2-0.1-0.4-0.2-0.7-0.4c0,0-0.1,0-0.1,0c0,0-0.1,0-0.1,0    c-0.6,0.6-1.3,1.1-2.1,1.4C15.7,18,15,18.1,14.4,18c-1-0.1-1.9-0.6-2.7-1.1c-0.1-0.1-0.2-0.2-0.3-0.3c0,0-0.1-0.1-0.1-0.1    C11,16.4,10.8,16.6,10.9,16.7z"></path>
		<path class="st0" d="M19.3,15.1c0.4,0.1,0.8,0.2,1.2,0.3c0.9,0.1,1.8,0,2.6-0.3c0.6-0.2,1.1-0.6,1.5-1.1c0,0-0.1,0-0.1,0    c-0.1,0,0,0,0,0c0,0,0,0,0.1,0c0.1,0.1,0.2,0.1,0.3,0.1c0.1,0.1,0.3,0.2,0.4,0.3c0.2,0.1,0.4,0.2,0.5,0.4c1,0.8,1.7,1.8,2.2,2.9    c0.4,0.9,0.5,1.8,0.6,2.8c0,0,0-0.1,0-0.1c-0.2,0.2-0.4,0.4-0.6,0.6c-0.6,0.5-1.2,0.9-1.9,1.2c-0.5,0.2-1.1,0.4-1.6,0.6    c-0.2,0-0.1,0.3,0.1,0.3c1.3-0.3,2.5-0.9,3.5-1.7c0.2-0.2,0.5-0.4,0.7-0.6c0,0,0.1-0.1,0.1-0.1c0.1-0.1,0-0.2,0-0.3    c0-0.1,0-0.2,0-0.3c0-0.2,0-0.4-0.1-0.5c-0.2-1.2-0.6-2.3-1.3-3.3c-0.5-0.7-1.1-1.3-1.8-1.8c-0.3-0.2-0.7-0.5-1-0.6c0,0,0,0,0,0    c0,0-0.1,0-0.1,0c-0.7,0.7-1.6,1.2-2.6,1.3c-0.7,0.1-1.4,0-2-0.2c-0.1,0-0.3-0.1-0.4-0.1c-0.1,0-0.1,0-0.2,0.1    C19.2,15,19.3,15.1,19.3,15.1L19.3,15.1z"></path>
		<path class="st0" d="M10.5,14.8C10.5,14.8,10.5,14.8,10.5,14.8c-0.1,0-0.1,0.1-0.1,0.1c0,0,0,0,0,0c0,0,0,0-0.1,0    c-0.2,0.1-0.4,0.1-0.6,0.2c-0.7,0.1-1.4,0.1-2.1,0c-0.5-0.1-0.9-0.3-1.4-0.6C6,14.3,5.8,14.1,5.5,14c-0.1-0.1-0.2-0.2-0.3-0.1    c-0.2,0.1-0.4,0.2-0.5,0.3c-0.4,0.2-0.7,0.5-1,0.8c-0.4,0.4-0.8,0.9-1.2,1.4c-0.4,0.6-0.7,1.3-1,2.1c-0.1,0.4-0.2,0.9-0.3,1.3    c0,0.2-0.1,0.5-0.1,0.8c0,0.1,0,0.2,0,0.2c0,0,0,0,0,0C1.6,21,2,21.3,2.3,21.6c0.7,0.5,1.5,1,2.4,1.2c0.2,0.1,0.5,0.1,0.7,0.2    c0.2,0,0.2-0.2,0.1-0.3c-1.4-0.3-2.8-1.1-3.8-2.1c-0.1-0.1-0.2-0.1-0.2-0.2c0,0,0,0.1,0,0.1C1.6,19,2,17.4,2.9,16.2    c0.5-0.8,1.2-1.4,2-1.8c0.1-0.1,0.2-0.1,0.3-0.2c0,0,0.1,0,0.1,0c0,0,0,0,0,0c-0.1,0-0.1,0-0.1,0c0.9,0.7,2,1.2,3.1,1.4    c0.7,0.1,1.4,0,2-0.2c0.1,0,0.2-0.1,0.4-0.2C10.8,14.9,10.7,14.7,10.5,14.8L10.5,14.8z"></path>
	</g>
</g>
<g>
	<g>
		<path class="st0" d="M18.6,7.5c-0.2-0.4-0.4-0.7-0.7-1c-0.1-0.1-0.1-0.1-0.2-0.2c-0.4-0.4-0.9-0.7-1.4-1c-0.9-0.4-2-0.5-3-0.1    c-1,0.4-1.8,1.1-2.4,2c-0.7,1-1,2.2-1.1,3.4c-0.1,1.2,0.1,2.5,0.7,3.6c0.5,1,1.2,1.9,2.1,2.4c0.9,0.5,2,0.7,3,0.4    c1-0.3,1.9-0.9,2.5-1.8c0.4-0.5,0.7-1.1,0.9-1.7c0-0.1,0.1-0.2,0.1-0.3v0c0.1-0.4,0.2-0.9,0.3-1.3c0-0.3,0.1-0.6,0.1-0.9    c0,0,0,0,0-0.1C19.5,9.8,19.2,8.6,18.6,7.5z M18.9,13.1c0,0.1-0.1,0.2-0.1,0.3c-0.1,0.3-0.3,0.7-0.5,1c-0.5,0.9-1.2,1.6-2.2,2.1    c-0.9,0.4-1.9,0.5-2.8,0.1c-0.9-0.3-1.7-1-2.3-1.9c-0.6-1-1-2.1-1-3.2c-0.1-1.2,0.1-2.4,0.6-3.4c0.4-0.9,1.1-1.8,2-2.3    c0.8-0.5,1.8-0.6,2.8-0.4c0.8,0.2,1.5,0.7,2,1.2c0.1,0.1,0.1,0.2,0.2,0.2C17.8,6.9,17.9,7,18,7c0.7,0.9,1.1,2,1.2,3.1    c0.1,0.3,0.1,0.6,0.1,0.9C19.2,11.7,19.1,12.4,18.9,13.1z"></path>
		<path class="st1" d="M19.2,11c0,0.7-0.1,1.4-0.3,2.1c0,0.1-0.1,0.2-0.1,0.3c-0.1,0.3-0.3,0.7-0.5,1c-0.5,0.9-1.2,1.6-2.2,2.1    c-0.9,0.4-1.9,0.5-2.8,0.1c-0.9-0.3-1.7-1-2.3-1.9c-0.6-1-1-2.1-1-3.2c-0.1-1.2,0.1-2.4,0.6-3.4c0.4-0.9,1.1-1.8,2-2.3    c0.8-0.5,1.8-0.6,2.8-0.4c0.8,0.2,1.5,0.7,2,1.2c0.1,0.1,0.1,0.2,0.2,0.2C17.8,6.9,17.9,7,18,7c0.7,0.9,1.1,2,1.2,3.1    C19.2,10.4,19.2,10.7,19.2,11z"></path>
		<path class="st0" d="M26.5,8.7c0,0.3,0,0.5,0,0.8c-0.1,1-0.5,2-1.1,2.9c-0.6,0.7-1.3,1.3-2.2,1.5c-0.9,0.2-1.8,0.1-2.6-0.4    c-0.2-0.1-0.4-0.2-0.6-0.4c-0.1-0.1-0.1-0.1-0.2-0.2c0-0.1,0.1-0.2,0.1-0.3c0.1,0.1,0.2,0.1,0.2,0.2v0c0.3,0.3,0.7,0.5,1.1,0.7    c0.8,0.3,1.7,0.2,2.5-0.1c0.8-0.4,1.5-1,1.9-1.8c0.5-0.9,0.7-1.9,0.7-2.9c0-0.3,0-0.5,0-0.8c-0.1-1-0.5-1.9-1.1-2.7    c-0.5-0.7-1.3-1.2-2.1-1.5c-0.8-0.2-1.7-0.1-2.4,0.3c-0.8,0.5-1.4,1.2-1.8,2c0,0,0,0,0,0.1c0,0.1-0.1,0.2-0.1,0.3    c-0.1-0.1-0.1-0.2-0.2-0.2c0-0.1,0.1-0.2,0.1-0.3c0.1-0.2,0.2-0.4,0.4-0.6c0.5-0.8,1.2-1.4,2.1-1.7c0.9-0.3,1.8-0.3,2.6,0.1    c0.9,0.4,1.6,1.1,2,1.9C26.2,6.5,26.5,7.5,26.5,8.7C26.5,8.6,26.5,8.6,26.5,8.7z"></path>
		<path class="st0" d="M2.6,8.4c0,0.3,0,0.5,0,0.8c0.1,1,0.5,2,1.1,2.9c0.6,0.7,1.3,1.3,2.2,1.5c0.9,0.2,1.8,0.1,2.6-0.4    c0.2-0.1,0.4-0.2,0.6-0.4c0.1-0.1,0.1-0.1,0.2-0.2c0-0.1-0.1-0.2-0.1-0.3c-0.1,0.1-0.2,0.1-0.2,0.2v0c-0.3,0.3-0.7,0.5-1.1,0.7    c-0.8,0.3-1.7,0.2-2.5-0.1c-0.8-0.4-1.5-1-1.9-1.8c-0.5-0.9-0.7-1.9-0.7-2.9c0-0.3,0-0.5,0-0.8c0.1-1,0.5-1.9,1.1-2.7    c0.5-0.7,1.3-1.2,2.1-1.5C7,3.3,7.9,3.4,8.6,3.8c0.8,0.5,1.4,1.2,1.8,2c0,0,0,0,0,0.1c0,0.1,0.1,0.2,0.1,0.3    c0.1-0.1,0.1-0.2,0.2-0.2c0-0.1-0.1-0.2-0.1-0.3c-0.1-0.2-0.2-0.4-0.4-0.6C9.7,4.3,9,3.6,8.1,3.3C7.2,3,6.3,3,5.5,3.4    c-0.9,0.4-1.6,1.1-2,1.9C2.9,6.3,2.7,7.3,2.6,8.4C2.6,8.4,2.6,8.4,2.6,8.4z"></path>
	</g>
</g>
</svg>