<svg xmlns="http://www.w3.org/2000/svg" xmlns:xlink="http://www.w3.org/1999/xlink" id="Calque_1" x="0px" y="0px" viewBox="0 0 30 30" style="enable-background:new 0 0 30 30;" xml:space="preserve">
<style type="text/css">
	.st0{fill:#FFFFFF;}
</style>
<g>
	<path class="st0" d="M1.8,2.9c0.2,0,0.5,0,0.7,0c0.6,0,1.3,0,1.9,0c0.9,0,1.9,0,2.8,0c1.2,0,2.3,0,3.5,0c1.3,0,2.5,0,3.8,0   c1.3,0,2.6,0,3.8,0c1.2,0,2.4,0,3.6,0c1,0,2,0,3,0c0.7,0,1.5,0,2.2,0c0.3,0,0.7,0,1,0c0,0,0,0,0,0c0.2,0,0.2-0.3,0-0.3   c-0.2,0-0.5,0-0.7,0c-0.6,0-1.3,0-1.9,0c-1,0-1.9,0-2.9,0c-1.2,0-2.3,0-3.5,0c-1.3,0-2.5,0-3.8,0c-1.3,0-2.6,0-3.8,0   c-1.2,0-2.4,0-3.6,0c-1,0-2,0-3,0c-0.7,0-1.5,0-2.2,0c-0.3,0-0.7,0-1,0c0,0,0,0,0,0C1.6,2.6,1.6,2.9,1.8,2.9L1.8,2.9z"></path>
	<g>
		<path class="st0" d="M26,21.4c-0.7,0-1.5,0-2.2,0c-1.7,0-3.5,0-5.2,0c-2.1,0-4.2,0-6.4,0c-1.8,0-3.6,0-5.5,0c-0.6,0-1.2,0-1.8,0    c-0.2,0-0.4,0-0.6,0c-0.1,0-0.2,0-0.3,0c0,0,0,0,0,0c0.1,0,0.1,0.1,0.2,0.1c0-2.1,0-4.2,0-6.4c0-3.4,0-6.7,0-10.1    c0-0.8,0-1.5,0-2.3c0,0.1-0.1,0.1-0.2,0.2c0.7,0,1.4,0,2.2,0c1.7,0,3.5,0,5.2,0c2.1,0,4.2,0,6.4,0c1.8,0,3.6,0,5.5,0    c0.6,0,1.2,0,1.8,0c0.2,0,0.4,0,0.6,0c0.1,0,0.2,0,0.3,0c0,0,0,0,0,0c0,0-0.1-0.1-0.1-0.2c0,2.1,0,4.2,0,6.4c0,3.4,0,6.7,0,10.1    c0,0.8,0,1.5,0,2.3c0,0.2,0.3,0.2,0.3,0c0-2.1,0-4.2,0-6.4c0-3.4,0-6.7,0-10.1c0-0.8,0-1.5,0-2.3c0-0.1-0.1-0.2-0.1-0.2    c-0.7,0-1.5,0-2.2,0c-1.7,0-3.5,0-5.2,0c-2.1,0-4.2,0-6.4,0c-1.8,0-3.6,0-5.5,0c-0.6,0-1.2,0-1.8,0c-0.3,0-0.6,0-0.9,0    c0,0,0,0,0,0C4,2.6,3.9,2.7,3.9,2.7c0,2.1,0,4.2,0,6.4c0,3.4,0,6.7,0,10.1c0,0.8,0,1.5,0,2.3c0,0.1,0.1,0.1,0.2,0.1    c0.7,0,1.5,0,2.2,0c1.7,0,3.5,0,5.2,0c2.1,0,4.2,0,6.3,0c1.8,0,3.6,0,5.5,0c0.6,0,1.2,0,1.8,0c0.3,0,0.6,0,0.9,0c0,0,0,0,0,0    C26.1,21.7,26.2,21.4,26,21.4z"></path>
		<path class="st0" d="M8.8,21.5c-0.5,1.6-1,3.3-1.5,5c-0.1,0.3-0.2,0.5-0.2,0.7c-0.1,0.2,0.2,0.3,0.3,0.1c0.5-1.6,1-3.3,1.5-5    c0.1-0.2,0.1-0.5,0.2-0.7C9.2,21.4,8.9,21.4,8.8,21.5L8.8,21.5z"></path>
		<path class="st0" d="M20.5,21.6c0.5,1.6,1,3.3,1.5,5c0.1,0.2,0.1,0.5,0.2,0.7c0.1,0.2,0.4,0.1,0.3-0.1c-0.5-1.6-1-3.3-1.5-5    c-0.1-0.2-0.1-0.5-0.2-0.7C20.7,21.4,20.4,21.4,20.5,21.6L20.5,21.6z"></path>
		<g>
			<path class="st0" d="M11.4,7.6c0.3,0.8,0.5,1.5,0.8,2.2c0,0.1,0.1,0.2,0.1,0.3c0.1,0.1,0.3,0.1,0.2-0.1c-0.3-0.8-0.5-1.5-0.8-2.2     c0-0.1-0.1-0.2-0.1-0.3C11.6,7.4,11.4,7.4,11.4,7.6L11.4,7.6z"></path>
			<path class="st0" d="M13.3,8.2c-0.8,0.3-1.5,0.6-2.2,0.8c-0.1,0-0.2,0.1-0.3,0.1c-0.1,0.1-0.1,0.3,0.1,0.2     c0.8-0.3,1.5-0.6,2.2-0.8c0.1,0,0.2-0.1,0.3-0.1C13.5,8.4,13.4,8.2,13.3,8.2L13.3,8.2z"></path>
			<path class="st0" d="M18.9,6.3c0.5,0.6,0.9,1.1,1.4,1.7c0,0.1,0.1,0,0.2,0c0.9-0.8,1.9-1.5,2.8-2.3c0.1-0.1,0.3-0.2,0.4-0.3     c0.1-0.1,0-0.3-0.2-0.2c-0.9,0.8-1.9,1.5-2.8,2.3c-0.1,0.1-0.3,0.2-0.4,0.3c0.1,0,0.1,0,0.2,0c-0.5-0.6-0.9-1.1-1.4-1.7     C19,6,18.8,6.2,18.9,6.3L18.9,6.3z"></path>
			<path class="st0" d="M13.4,17.2c0,0.5-0.3,1-0.8,1.2c-0.5,0.2-1.1,0-1.4-0.4s-0.4-1-0.1-1.4c0.3-0.4,0.8-0.7,1.3-0.6     C13,16.1,13.4,16.6,13.4,17.2c0,0.2,0.2,0.2,0.2,0c0-0.6-0.4-1.2-1-1.4c-0.6-0.2-1.3,0-1.7,0.5c-0.4,0.5-0.4,1.2-0.1,1.7     c0.3,0.5,0.9,0.8,1.6,0.7c0.7-0.1,1.2-0.8,1.2-1.5C13.6,17,13.4,17,13.4,17.2z"></path>
			<path class="st0" d="M19.5,13.1c-0.7-0.7-1.4-1.3-2-2c-0.2-0.2-0.4-0.4-0.5-0.5c0,0.1,0,0.1,0,0.2c0.9-0.2,1.8-0.5,2.8-0.8     c0.2-0.1,0.5-0.1,0.7-0.2c0-0.1-0.1-0.1-0.1-0.1c-0.2,0.9-0.5,1.8-0.7,2.8c-0.1,0.2-0.1,0.5-0.2,0.7c0,0.1,0.2,0.2,0.2,0.1     c0.2-0.9,0.5-1.8,0.7-2.8c0.1-0.2,0.1-0.5,0.2-0.7c0-0.1-0.1-0.2-0.1-0.1c-0.9,0.2-1.8,0.5-2.8,0.8c-0.2,0.1-0.5,0.1-0.7,0.2     c-0.1,0-0.1,0.1,0,0.2c0.7,0.7,1.4,1.3,2,2c0.2,0.2,0.4,0.4,0.5,0.5C19.4,13.4,19.6,13.2,19.5,13.1z"></path>
			<path class="st0" d="M5.8,15.3c0.5-0.5,1.1-0.9,1.8-1.2c1-0.5,2-0.7,3.1-0.6c1.9,0.1,3.8,0.2,5.6-0.3c0.7-0.2,1.5-0.5,1.9-1.2     c0.1-0.1-0.1-0.3-0.2-0.1c-0.3,0.6-1.1,0.9-1.8,1.1c-0.9,0.2-1.9,0.3-2.8,0.3c-0.9,0-1.8,0-2.8-0.1c-1.1-0.1-2.1,0.1-3,0.6     c-0.7,0.4-1.4,0.9-2,1.4C5.6,15.2,5.7,15.4,5.8,15.3L5.8,15.3z"></path>
		</g>
	</g>
</g>
</svg>