<svg xmlns="http://www.w3.org/2000/svg" viewBox="0 0 283.47 255.12"><defs><style>.cls-1{fill:#ff1721;}.cls-2{fill:#00008f;}</style></defs><g id="Calque_2" data-name="Calque 2"><g id="AXA_Logo_RGB" data-name="AXA Logo RGB"><polygon id="switch" class="cls-1" points="175.66 139.99 283.47 0 267.54 0 159.38 139.99 175.66 139.99"></polygon><path id="axa" class="cls-2" d="M216.6,202.46c4.94,13.82,15.12,49.8,19.17,52.66H209a44.11,44.11,0,0,0-1.26-9.43c-1.15-4.11-10.82-35.22-10.82-35.22H154.51l-6.68,9.47s8,25.09,8.52,26.32c.86,2.22,4.69,8.86,4.69,8.86H135.43s-.67-3.83-.92-5.43c-.2-1.29-2.42-8.35-2.42-8.35s-5.81,6.36-7.39,9.31-2.31,4.47-2.31,4.47h-20s-.67-3.83-.91-5.43c-.2-1.29-2.65-8.91-2.65-8.91s-5.61,6.81-7.21,9.75-2.27,4.59-2.27,4.59H69.49s5.6-5.33,7.56-7.62c3.3-3.88,15.6-20,15.6-20l-4.93-17.07H45.59s-24,31.57-25,32.55-8,11-8.12,12.1H0v-8c.16-.17.32-.33.49-.48.39-.28,18.22-22.41,34.59-44.23,14.72-19,28.53-37.53,29.74-39.3C67.75,158.9,72,149.7,72,149.7H93.76s.68,8.46,1.31,10.52c.57,1.82,13.84,45.36,14.15,45.83l7.34-9.39L104,158.05s-2.94-7.26-3.9-8.35h25.45a22.19,22.19,0,0,0,.83,6.92c1,3.18,6.49,22.86,6.49,22.86s17.35-21.75,18.37-23.31a14.19,14.19,0,0,0,2.14-6.47h21.2s-3.88,2.83-10.68,11.44c-2.29,2.89-24.68,31.35-24.68,31.35s2,6.66,2.91,10c.26.95.44,1.6.44,1.67s.49-.58,1.34-1.67c5.78-7.32,32-41.77,33.64-44.72,1.29-2.38,3.18-5.09,4.29-8h20.68s.48,6.17,1.11,7.88Zm-31.48-32.61c-3,6.53-20.91,28.29-20.91,28.29h28.31s-5.49-16.9-6.45-20.7a30.68,30.68,0,0,1-.55-7.41C185.52,169.69,185.45,169.13,185.12,169.85Zm-108.77,0c-3,6.53-20.92,28.29-20.92,28.29H83.75s-5.49-16.9-6.44-20.7a30.19,30.19,0,0,1-.56-7.41C76.75,169.69,76.68,169.13,76.35,169.85Zm42.62,66,7.79-10.71c-.72-.77-5.1-14.08-5.1-14.08l-7.54,9.77Z"></path></g></g></svg>