<svg xmlns="http://www.w3.org/2000/svg" viewBox="0 0 76.27 56.52"><defs><style>.cls-1{fill:#556f7b;}.cls-2{fill:#2caae1;}</style></defs><g id="Calque_2" data-name="Calque 2"><g id="Calque_1-2" data-name="Calque 1"><path class="cls-1" d="M26.05,19,20.18,13.1a26.38,26.38,0,0,0-4.67,7.83h9.16A19.18,19.18,0,0,1,26.05,19Z"></path><path class="cls-1" d="M38.16,12.3V4A26.17,26.17,0,0,0,23,10.3l5.86,5.87A18,18,0,0,1,38.16,12.3Z"></path><path class="cls-1" d="M20.18,47.42l5.87-5.87a19.18,19.18,0,0,1-1.38-2H15.51A26.51,26.51,0,0,0,20.18,47.42Z"></path><path class="cls-2" d="M57.3,10.3A26.23,26.23,0,0,0,42.11,4v8.3a17.92,17.92,0,0,1,9.32,3.87Z"></path><path class="cls-2" d="M23,50.22a26.23,26.23,0,0,0,15.19,6.3v-8.3a18,18,0,0,1-9.32-3.87Z"></path><path class="cls-2" d="M60.1,13.1,54.23,19a17.65,17.65,0,0,1,1.37,2h9.16A26.15,26.15,0,0,0,60.1,13.1Z"></path><path class="cls-2" d="M54.23,41.55l5.87,5.87a26.27,26.27,0,0,0,4.66-7.83H55.6A17.65,17.65,0,0,1,54.23,41.55Z"></path><path class="cls-2" d="M42.11,48.22v8.3a26.23,26.23,0,0,0,15.19-6.3l-5.87-5.87A18,18,0,0,1,42.11,48.22Z"></path><path class="cls-1" d="M18.74,51.65l1.2-1.2a28.56,28.56,0,0,1-6.81-10.86H11.34A30.07,30.07,0,0,0,18.74,51.65Z"></path><path class="cls-1" d="M19.94,10.07A28.37,28.37,0,0,1,40.14,1.7V0a30.29,30.29,0,0,0-28.8,20.93h1.79A28.56,28.56,0,0,1,19.94,10.07Z"></path><path class="cls-2" d="M50.06,40.18a14,14,0,0,1-19.85,0L29,41.38a15.73,15.73,0,0,0,22.25,0,15.41,15.41,0,0,0,1.55-1.79H50.62C50.44,39.79,50.25,40,50.06,40.18Z"></path><path class="cls-2" d="M51.26,19.13a15.62,15.62,0,0,0-11.12-4.6v1.7a14,14,0,0,1,9.92,4.11c.19.19.38.39.56.59h2.19A16.39,16.39,0,0,0,51.26,19.13Z"></path><path class="cls-1" d="M4.86,36.36c-3,0-4.86-1.68-4.86-6.23s2.05-6.39,5-6.39,4.9,1.7,4.9,6.25S7.84,36.36,4.86,36.36ZM5,34.51c1.63,0,2.65-1.07,2.65-4.4S6.58,25.6,4.88,25.6s-2.64,1-2.64,4.37S3.31,34.51,5,34.51Z"></path><path class="cls-1" d="M17.1,31.76l-2.54,4.43H12l4-6.29-3.74-6h2.62l2.4,4.16h.07l2.33-4.16h2.5l-3.73,6,4,6.3H19.81l-2.64-4.43Z"></path><path class="cls-1" d="M25.67,23.92h2.19V36.19H25.67Z"></path><path class="cls-2" d="M32.42,23.92H36c3.88,0,5.63,1.92,5.63,5.91,0,3.47-1.38,6.36-5.61,6.36H32.42Zm2.19,10.43h1.28c2.57,0,3.5-1.51,3.5-4.31,0-3.22-1.35-4.28-3.54-4.28H34.61Z"></path><path class="cls-2" d="M45.44,36.19V23.92h7v1.84H47.63v3.29h4.14v1.83H47.63v3.47h5v1.84Z"></path><path class="cls-2" d="M55.12,23.92h2.41l2.26,7.47c.28,1,.57,2,.82,3h.07c.23-1,.47-2,.77-3l2.26-7.45H66L62,36.19h-3Z"></path><path class="cls-2" d="M69.06,36.19V23.92h7v1.84H71.25v3.29h4.14v1.83H71.25v3.47h5v1.84Z"></path></g></g></svg>