<svg xmlns="http://www.w3.org/2000/svg" xmlns:xlink="http://www.w3.org/1999/xlink" viewBox="0 0 95.52 66.24"><defs><style>.cls-1{fill:#3c3c3b;}.cls-2{fill:#1d71b8;}.cls-3{fill:#575756;}.cls-4{fill:url(#Dégradé_sans_nom_34);}.cls-5{fill:url(#Dégradé_sans_nom_32);}.cls-6{fill:url(#Dégradé_sans_nom_34-2);}.cls-7{fill:url(#Dégradé_sans_nom_32-2);}.cls-8{fill:url(#Dégradé_sans_nom_34-3);}.cls-9{fill:url(#Dégradé_sans_nom_32-3);}.cls-10{fill:url(#Dégradé_sans_nom_34-4);}.cls-11{fill:url(#Dégradé_sans_nom_32-4);}</style><linearGradient id="D&#xE9;grad&#xE9;_sans_nom_34" x1="40.57" y1="0.23" x2="40.57" y2="16.8" gradientUnits="userSpaceOnUse"><stop offset="0" stop-color="#36a9e1"></stop><stop offset="0.99" stop-color="#2d2e83"></stop></linearGradient><linearGradient id="D&#xE9;grad&#xE9;_sans_nom_32" x1="41.18" y1="5.26" x2="59.25" y2="5.26" gradientUnits="userSpaceOnUse"><stop offset="0.01" stop-color="#2d2e83"></stop><stop offset="0.09" stop-color="#293e90"></stop><stop offset="0.25" stop-color="#235aa6"></stop><stop offset="0.39" stop-color="#1e6bb3"></stop><stop offset="0.49" stop-color="#1d71b8"></stop><stop offset="0.62" stop-color="#2077bc"></stop><stop offset="0.78" stop-color="#2788c9"></stop><stop offset="0.98" stop-color="#34a5de"></stop><stop offset="1" stop-color="#36a9e1"></stop></linearGradient><linearGradient id="D&#xE9;grad&#xE9;_sans_nom_34-2" x1="865.49" y1="1696.93" x2="865.49" y2="1713.5" gradientTransform="matrix(0.02, 1, -1, 0.02, 1740.81, -895.84)" xlink:href="#D&#xE9;grad&#xE9;_sans_nom_34"></linearGradient><linearGradient id="D&#xE9;grad&#xE9;_sans_nom_32-2" x1="866.1" y1="1701.95" x2="884.17" y2="1701.95" gradientTransform="matrix(0.02, 1, -1, 0.02, 1740.81, -895.84)" xlink:href="#D&#xE9;grad&#xE9;_sans_nom_32"></linearGradient><linearGradient id="D&#xE9;grad&#xE9;_sans_nom_34-3" x1="2660.47" y1="965.03" x2="2660.47" y2="981.6" gradientTransform="translate(2749.75 901.91) rotate(177.89)" xlink:href="#D&#xE9;grad&#xE9;_sans_nom_34"></linearGradient><linearGradient id="D&#xE9;grad&#xE9;_sans_nom_32-3" x1="2661.08" y1="970.05" x2="2679.15" y2="970.05" gradientTransform="translate(2749.75 901.91) rotate(177.89)" xlink:href="#D&#xE9;grad&#xE9;_sans_nom_32"></linearGradient><linearGradient id="D&#xE9;grad&#xE9;_sans_nom_34-4" x1="2086.76" y1="-678.55" x2="2086.76" y2="-661.98" gradientTransform="translate(887.25 2046.78) rotate(-94.96)" xlink:href="#D&#xE9;grad&#xE9;_sans_nom_34"></linearGradient><linearGradient id="D&#xE9;grad&#xE9;_sans_nom_32-4" x1="2087.37" y1="-673.53" x2="2105.45" y2="-673.53" gradientTransform="translate(887.25 2046.78) rotate(-94.96)" xlink:href="#D&#xE9;grad&#xE9;_sans_nom_32"></linearGradient></defs><g id="Calque_2" data-name="Calque 2"><g id="Calque_1-2" data-name="Calque 1"><path class="cls-1" d="M10.65,62h.64l.8,2.23.3.88h0c.1-.29.18-.59.28-.88L13.49,62h.65v4.18h-.5v-2.3c0-.37,0-.86.07-1.23h0l-.34.95-.79,2.16h-.35l-.79-2.16-.33-.95h0c0,.37.06.86.06,1.23v2.3h-.48Z"></path><path class="cls-1" d="M15.87,65.36c0-.67.58-1,1.9-1.16,0-.39-.13-.78-.64-.78a1.66,1.66,0,0,0-.92.34l-.2-.37a2.31,2.31,0,0,1,1.21-.4c.76,0,1.08.5,1.08,1.27v1.9h-.43l-.05-.37h0a1.59,1.59,0,0,1-1,.45A.84.84,0,0,1,15.87,65.36Zm1.9,0v-.86c-1,.12-1.39.38-1.39.77a.48.48,0,0,0,.55.5A1.28,1.28,0,0,0,17.77,65.41Z"></path><path class="cls-1" d="M20,62.09a.37.37,0,1,1,.36.34A.34.34,0,0,1,20,62.09Zm.1,1h.52v3.09h-.52Z"></path><path class="cls-1" d="M22.5,63.07h.44l0,.44h0A1.46,1.46,0,0,1,24,63c.65,0,.94.42.94,1.21v2h-.52V64.27c0-.58-.18-.83-.59-.83s-.53.17-.84.48v2.24H22.5Z"></path><path class="cls-1" d="M26.91,65.21V63.49h-.46V63.1l.48,0L27,62.2h.44v.87h.83v.42h-.83v1.72c0,.39.12.6.47.6a1.05,1.05,0,0,0,.35-.08l.11.4a2.29,2.29,0,0,1-.58.11C27.13,66.24,26.91,65.82,26.91,65.21Z"></path><path class="cls-1" d="M29.48,64.62A1.49,1.49,0,0,1,30.87,63c.79,0,1.24.57,1.24,1.45a2.36,2.36,0,0,1,0,.3H30a1,1,0,0,0,1,1.08,1.46,1.46,0,0,0,.77-.24l.19.34a1.87,1.87,0,0,1-1,.32A1.49,1.49,0,0,1,29.48,64.62Zm2.17-.25c0-.63-.28-1-.77-1a1,1,0,0,0-.89,1Z"></path><path class="cls-1" d="M33.7,63.07h.44l0,.44h0a1.46,1.46,0,0,1,1-.52c.65,0,.94.42.94,1.21v2h-.52V64.27c0-.58-.18-.83-.59-.83s-.53.17-.84.48v2.24H33.7Z"></path><path class="cls-1" d="M37.83,65.36c0-.67.58-1,1.9-1.16,0-.39-.13-.78-.64-.78a1.69,1.69,0,0,0-.93.34l-.2-.37a2.35,2.35,0,0,1,1.22-.4c.76,0,1.08.5,1.08,1.27v1.9h-.44l0-.37h0a1.64,1.64,0,0,1-1,.45A.84.84,0,0,1,37.83,65.36Zm1.9,0v-.86c-1,.12-1.39.38-1.39.77a.48.48,0,0,0,.54.5A1.3,1.3,0,0,0,39.73,65.41Z"></path><path class="cls-1" d="M42.06,63.07h.43l0,.44h0a1.46,1.46,0,0,1,1-.52c.65,0,.94.42.94,1.21v2H44V64.27c0-.58-.18-.83-.59-.83a1.19,1.19,0,0,0-.85.48v2.24h-.52Z"></path><path class="cls-1" d="M46.15,64.62A1.5,1.5,0,0,1,47.64,63a1.31,1.31,0,0,1,.9.36l-.27.35a.89.89,0,0,0-.61-.28c-.56,0-1,.49-1,1.2s.39,1.19,1,1.19a1.07,1.07,0,0,0,.73-.32l.23.36a1.55,1.55,0,0,1-1,.39A1.45,1.45,0,0,1,46.15,64.62Z"></path><path class="cls-1" d="M49.75,64.62A1.49,1.49,0,0,1,51.14,63c.79,0,1.23.57,1.23,1.45a1.32,1.32,0,0,1,0,.3H50.26a1,1,0,0,0,1,1.08,1.46,1.46,0,0,0,.77-.24l.18.34a1.87,1.87,0,0,1-1,.32A1.48,1.48,0,0,1,49.75,64.62Zm2.16-.25c0-.63-.28-1-.76-1a1,1,0,0,0-.89,1Z"></path><path class="cls-1" d="M55.75,65.08a1.5,1.5,0,0,1,.82-1.2,2.31,2.31,0,0,1-.27-1,.94.94,0,0,1,1-1,.76.76,0,0,1,.82.83c0,.54-.48.89-.94,1.23a5.11,5.11,0,0,0,1.06,1.17,3.69,3.69,0,0,0,.58-1.23h.49a4.65,4.65,0,0,1-.73,1.5,3.21,3.21,0,0,0,.78.4l-.14.43a3.18,3.18,0,0,1-1-.48,1.74,1.74,0,0,1-1.2.48A1.17,1.17,0,0,1,55.75,65.08Zm2.13.4a6.19,6.19,0,0,1-1.1-1.24,1.11,1.11,0,0,0-.52.81.78.78,0,0,0,.82.77A1.22,1.22,0,0,0,57.88,65.48ZM57,63.62c.38-.25.71-.51.71-.88s-.11-.46-.39-.46a.55.55,0,0,0-.52.61A1.75,1.75,0,0,0,57,63.62Z"></path><path class="cls-1" d="M62.63,65.62l.32-.37a1.64,1.64,0,0,0,1.15.52c.55,0,.88-.27.88-.68s-.3-.56-.7-.74l-.6-.26A1.17,1.17,0,0,1,62.83,63a1.19,1.19,0,0,1,1.32-1.11,1.75,1.75,0,0,1,1.23.51l-.28.35a1.31,1.31,0,0,0-.95-.4c-.47,0-.78.24-.78.61s.36.56.69.7l.6.25a1.17,1.17,0,0,1,.86,1.12,1.26,1.26,0,0,1-1.42,1.19A2,2,0,0,1,62.63,65.62Z"></path><path class="cls-1" d="M66.89,64.62A1.49,1.49,0,0,1,68.28,63c.79,0,1.23.57,1.23,1.45a2.63,2.63,0,0,1,0,.3H67.41a1,1,0,0,0,1,1.08,1.46,1.46,0,0,0,.77-.24l.18.34a1.84,1.84,0,0,1-1,.32A1.48,1.48,0,0,1,66.89,64.62Zm2.17-.25c0-.63-.28-1-.77-1a1,1,0,0,0-.89,1Z"></path><path class="cls-1" d="M71.11,63.07h.43l0,.56h0a1,1,0,0,1,.88-.64.88.88,0,0,1,.33.06l-.11.46a.88.88,0,0,0-.29,0c-.27,0-.58.19-.79.72v2h-.52Z"></path><path class="cls-1" d="M73.86,63.07h.54L75,64.83c.09.3.19.61.29.91h0l.28-.91.59-1.76h.52l-1.1,3.09H75Z"></path><path class="cls-1" d="M78,62.09a.37.37,0,1,1,.36.34A.34.34,0,0,1,78,62.09Zm.09,1h.53v3.09h-.53Z"></path><path class="cls-1" d="M80.28,64.62A1.5,1.5,0,0,1,81.77,63a1.33,1.33,0,0,1,.91.36l-.27.35a.92.92,0,0,0-.62-.28c-.56,0-1,.49-1,1.2s.39,1.19,1,1.19a1.07,1.07,0,0,0,.73-.32l.23.36a1.57,1.57,0,0,1-1,.39A1.45,1.45,0,0,1,80.28,64.62Z"></path><path class="cls-1" d="M83.88,64.62A1.5,1.5,0,0,1,85.27,63c.79,0,1.24.57,1.24,1.45a2.36,2.36,0,0,1,0,.3H84.4a1,1,0,0,0,1,1.08,1.43,1.43,0,0,0,.77-.24l.19.34a1.87,1.87,0,0,1-1,.32A1.49,1.49,0,0,1,83.88,64.62Zm2.17-.25c0-.63-.28-1-.76-1a1,1,0,0,0-.9,1Z"></path><path class="cls-1" d="M87.76,65.81l.26-.35a1.38,1.38,0,0,0,.91.37c.41,0,.61-.21.61-.48s-.37-.46-.7-.59-.93-.37-.93-.89S88.31,63,89,63a1.55,1.55,0,0,1,1,.35l-.25.33A1.14,1.14,0,0,0,89,63.4c-.39,0-.56.21-.56.44s.33.41.68.54,1,.35,1,.94-.4.92-1.14.92A1.8,1.8,0,0,1,87.76,65.81Z"></path><path class="cls-2" d="M0,50.9a8.31,8.31,0,0,1,.81-3.57,8.09,8.09,0,0,1,4.55-4.1A9.84,9.84,0,0,1,9,42.71h7.42v3.18H8.64a5,5,0,0,0-4.93,3,4.89,4.89,0,0,0-.44,2,4.77,4.77,0,0,0,.44,2,5,5,0,0,0,4.93,3h3.28v3.17H9a9.84,9.84,0,0,1-3.68-.52A8,8,0,0,1,.81,54.46,8.3,8.3,0,0,1,0,50.9Zm7.9-1.58h8.56v9.75H13.24V52.46H7.9Z"></path><path class="cls-2" d="M27.43,42.71H34.6v3.18H27a5.37,5.37,0,0,0-3.14.76,5,5,0,0,0-2.22,2.94,5.43,5.43,0,0,0-.17,1.27,5.29,5.29,0,0,0,1.38,3.48,5.09,5.09,0,0,0,1.7,1.16,6.06,6.06,0,0,0,2.4.39H34.6v3.18H27.28a9.68,9.68,0,0,1-4.15-.68,8.09,8.09,0,0,1-4.33-4.31,8.18,8.18,0,0,1-.63-3.19,8.09,8.09,0,0,1,2.89-6.25A8.28,8.28,0,0,1,24.49,43,11.77,11.77,0,0,1,27.43,42.71Zm-1.38,6.61H34.6v3.14H26.05Z"></path><path class="cls-2" d="M67.78,59.07a8.15,8.15,0,0,1-6.57-3.25,6.37,6.37,0,0,1-.72-1.12,7.49,7.49,0,0,1-.6-1.5,11.42,11.42,0,0,1-.34-3.09V42.72h3.29v7.75a5.09,5.09,0,0,0,3.54,5.22,5.78,5.78,0,0,0,1.4.24,5.85,5.85,0,0,0,1.42-.24,5.08,5.08,0,0,0,3.53-5.22V42.72H76v7.39a11.42,11.42,0,0,1-.34,3.09,6.9,6.9,0,0,1-.61,1.5,6.47,6.47,0,0,1-.7,1.12A8.18,8.18,0,0,1,67.78,59.07Z"></path><path class="cls-2" d="M82.92,42.72h11v3.36H82.82a1.49,1.49,0,0,0-1.6,1.29v.23a1.48,1.48,0,0,0,.85,1.28,1.62,1.62,0,0,0,.54.1h5.6a6.67,6.67,0,0,1,2.93.44A4.85,4.85,0,0,1,93.77,52a5.76,5.76,0,0,1,.41,2.1,5,5,0,0,1-2.29,4.13,5.43,5.43,0,0,1-1.57.67,11.11,11.11,0,0,1-2.19.15H77.73V55.71H88.89a1.71,1.71,0,0,0,1.8-1.38l0-.31a1.63,1.63,0,0,0-1-1.5,1.84,1.84,0,0,0-.87-.18H82.59a5,5,0,0,1-4.11-2.16,4.62,4.62,0,0,1-.72-2.42v-.44a4.45,4.45,0,0,1,2.46-4A5.19,5.19,0,0,1,82.92,42.72Z"></path><path class="cls-2" d="M58.32,45a2.18,2.18,0,1,0-2.18,2.17A2.19,2.19,0,0,0,58.32,45Z"></path><circle class="cls-2" cx="26.05" cy="50.9" r="2.18"></circle><circle class="cls-2" cx="7.9" cy="50.9" r="2.18"></circle><circle class="cls-2" cx="93.35" cy="44.31" r="2.18"></circle><circle class="cls-2" cx="78.19" cy="57.34" r="2.18"></circle><path class="cls-2" d="M56.14,47.82a2.17,2.17,0,0,1-1.64-.75v12h3.28v-12A2.16,2.16,0,0,1,56.14,47.82Z"></path><rect class="cls-2" x="36.33" y="42.71" width="3.29" height="8.62"></rect><path class="cls-2" d="M38,46a6,6,0,0,0-.71,1.12,6.9,6.9,0,0,0-.61,1.5,11.47,11.47,0,0,0-.34,3.09v7.39h3.3V44.37A9.49,9.49,0,0,0,38,46Z"></path><path class="cls-2" d="M52.46,48.59a6.9,6.9,0,0,0-.61-1.5,6.23,6.23,0,0,0-.7-1.12,8.34,8.34,0,0,0-9.88-2.58V47.2a5.8,5.8,0,0,1,1.89-1.09,5,5,0,0,1,1.4-.24,5,5,0,0,1,1.42.24,5.07,5.07,0,0,1,3.54,5.22v7.74H52.8V51.68A11.47,11.47,0,0,0,52.46,48.59Z"></path><polygon class="cls-3" points="44.14 19.6 42.51 18.52 42.51 13.4 45.79 11.53 47.4 12.63 47.4 18.56 46.84 18.56 46.84 12.93 45.76 12.19 43.07 13.73 43.07 18.22 44.45 19.14 44.14 19.6"></polygon><polygon class="cls-3" points="45.66 23.83 42.51 21.9 42.51 20.1 43.07 20.1 43.07 21.59 45.67 23.18 46.84 22.48 46.84 20.28 45.39 19.36 45.39 13.56 45.95 13.56 45.95 19.05 47.4 19.97 47.4 22.8 45.66 23.83"></polygon><polygon class="cls-3" points="45.45 21.96 41 19.54 41 15.97 42.65 15.03 42.93 15.51 41.56 16.29 41.56 19.2 45.72 21.47 45.45 21.96"></polygon><polygon class="cls-3" points="45.53 18.08 43.99 17.25 43.99 14.21 44.55 14.21 44.55 16.91 45.8 17.59 45.53 18.08"></polygon><path class="cls-3" d="M44.8,14.32a.53.53,0,0,0-1.06,0,.53.53,0,0,0,1.06,0Z"></path><path class="cls-3" d="M46.19,13.56a.52.52,0,0,0-.52-.52.52.52,0,0,0-.53.52.53.53,0,0,0,.53.53A.52.52,0,0,0,46.19,13.56Z"></path><path class="cls-3" d="M47.64,18.53a.52.52,0,0,0-.52-.52.52.52,0,0,0-.53.52.53.53,0,0,0,.53.53A.52.52,0,0,0,47.64,18.53Z"></path><path class="cls-3" d="M44.8,19.37a.53.53,0,1,0-.53.53A.53.53,0,0,0,44.8,19.37Z"></path><path class="cls-3" d="M46.11,21.72a.53.53,0,0,0-.53-.53.53.53,0,0,0,0,1A.52.52,0,0,0,46.11,21.72Z"></path><polygon class="cls-2" points="49.69 23.83 48.08 22.73 48.08 16.8 48.64 16.8 48.64 22.43 49.71 23.17 52.41 21.64 52.41 17.15 51.02 16.23 51.33 15.76 52.97 16.85 52.97 21.96 49.69 23.83"></polygon><polygon class="cls-2" points="50.09 21.8 49.53 21.8 49.53 16.31 48.08 15.39 48.08 12.57 49.81 11.54 52.97 13.46 52.97 15.27 52.41 15.27 52.41 13.78 49.81 12.19 48.64 12.88 48.64 15.09 50.09 16.01 50.09 21.8"></polygon><polygon class="cls-2" points="52.83 20.34 52.55 19.85 53.91 19.07 53.91 16.16 49.76 13.89 50.03 13.4 54.47 15.83 54.47 19.39 52.83 20.34"></polygon><polygon class="cls-2" points="51.49 21.16 50.93 21.16 50.93 18.45 49.68 17.77 49.94 17.28 51.49 18.11 51.49 21.16"></polygon><circle class="cls-2" cx="51.21" cy="21.05" r="0.53"></circle><path class="cls-2" d="M49.29,21.8a.52.52,0,0,0,.52.52.52.52,0,0,0,.53-.52.53.53,0,0,0-.53-.53A.52.52,0,0,0,49.29,21.8Z"></path><path class="cls-2" d="M47.83,16.83a.53.53,0,1,0,.53-.53A.53.53,0,0,0,47.83,16.83Z"></path><circle class="cls-2" cx="51.21" cy="15.99" r="0.53"></circle><path class="cls-2" d="M49.37,13.65a.53.53,0,0,0,1.05,0,.53.53,0,1,0-1.05,0Z"></path><path class="cls-4" d="M36.46,16.72c1.84.48,5.18-1,4.77-6.84-.38-5.47,1.94-8.27,5.51-9.65,0,0-7.14,1.25-10.8,7.59C33.43,12.17,34.23,16.14,36.46,16.72Z"></path><path class="cls-5" d="M59.25,4.59A14.43,14.43,0,0,0,47.29.1c-1.61.2-6.72,2.07-6,10.41C41.24,10.51,46.91-4.13,59.25,4.59Z"></path><path class="cls-6" d="M48.58,6.4c-.44,1.86,1.12,5.16,7,4.61,5.46-.51,8.31,1.74,9.77,5.28,0,0-1.41-7.11-7.84-10.62C53.05,3.26,49.1,4.17,48.58,6.4Z"></path><path class="cls-7" d="M61.25,28.9a14.42,14.42,0,0,0,4.2-12.06c-.24-1.61-2.23-6.68-10.55-5.81C54.9,11,69.67,16.35,61.25,28.9Z"></path><path class="cls-8" d="M59.13,18.84c-1.86-.41-5.14,1.19-4.52,7,.58,5.45-1.63,8.34-5.15,9.84,0,0,7.09-1.51,10.51-8C62.33,23.27,61.37,19.34,59.13,18.84Z"></path><path class="cls-9" d="M36.8,31.8a14.44,14.44,0,0,0,12.11,4c1.6-.26,6.65-2.31,5.67-10.62C54.58,25.22,49.46,40.06,36.8,31.8Z"></path><path class="cls-10" d="M47.48,29.1C47.8,27.23,46,24,40.25,24.94c-5.42.85-8.41-1.21-10.08-4.66,0,0,1.85,7,8.48,10.11C43.21,32.52,47.09,31.37,47.48,29.1Z"></path><path class="cls-11" d="M33.42,7.44A14.42,14.42,0,0,0,30,19.74c.33,1.59,2.64,6.53,10.89,5.14C40.88,24.88,25.8,20.5,33.42,7.44Z"></path></g></g></svg>