<svg xmlns="http://www.w3.org/2000/svg" xmlns:xlink="http://www.w3.org/1999/xlink" viewBox="0 0 58.88 58.88"><defs><style>.cls-1{fill:#f9b233;}.cls-2{fill:#fac153;}.cls-3{fill:#fbbb50;}.cls-4{fill:url(#linear-gradient);}.cls-5{fill:url(#Nouvelle_nuance_de_dégradé_1);}.cls-6{fill:#fdcc54;}.cls-7{fill:#fdc854;}.cls-8{fill:#fbbd42;}.cls-9{fill:#f8ae52;}.cls-10{fill:#fbbe58;}.cls-11{fill:#f3a000;}.cls-12{fill:#fcc64d;}.cls-13{fill:#fcc557;}.cls-14{fill:#f29646;}.cls-15{fill:url(#linear-gradient-2);}.cls-16{fill:#f18945;}.cls-17{fill:url(#linear-gradient-3);}.cls-18{fill:url(#linear-gradient-4);}.cls-19{fill:#f7a53e;}.cls-20{fill:#f3944b;}.cls-21{fill:#f7a643;}.cls-22{fill:#fcc452;}.cls-23{fill:url(#linear-gradient-5);}.cls-24{fill:#ffd548;}.cls-25{fill:url(#linear-gradient-6);}.cls-26{fill:url(#linear-gradient-7);}.cls-27{fill:#f8af50;}.cls-28{fill:#f8af52;}.cls-29{fill:#f9af2f;}.cls-30{fill:url(#linear-gradient-8);}.cls-31{fill:url(#linear-gradient-9);}.cls-32{fill:url(#linear-gradient-10);}.cls-33{fill:url(#linear-gradient-11);}.cls-34{fill:#f6a21c;}.cls-35{fill:#fab43c;}.cls-36{fill:#f8ac54;}.cls-37{fill:url(#linear-gradient-12);}.cls-38{fill:url(#linear-gradient-13);}.cls-39{fill:#fff;}</style><linearGradient id="linear-gradient" x1="11.1" y1="8.27" x2="22.62" y2="8.27" gradientUnits="userSpaceOnUse"><stop offset="0" stop-color="#f5a300"></stop><stop offset="1" stop-color="#f9bd36"></stop></linearGradient><linearGradient id="Nouvelle_nuance_de_d&#xE9;grad&#xE9;_1" x1="30.98" y1="16.93" x2="25.54" y2="7.52" gradientUnits="userSpaceOnUse"><stop offset="0" stop-color="#f4980c"></stop><stop offset="0.1" stop-color="#f6a114"></stop><stop offset="0.38" stop-color="#f9b324"></stop><stop offset="0.67" stop-color="#fbbe2d"></stop><stop offset="1" stop-color="#fcc130"></stop></linearGradient><linearGradient id="linear-gradient-2" x1="20.57" y1="56.73" x2="27.58" y2="44.59" gradientUnits="userSpaceOnUse"><stop offset="0" stop-color="#f5a300"></stop><stop offset="1" stop-color="#ef794a"></stop></linearGradient><linearGradient id="linear-gradient-3" x1="31.12" y1="50.25" x2="50.6" y2="50.25" gradientUnits="userSpaceOnUse"><stop offset="0" stop-color="#e3312d"></stop><stop offset="0.11" stop-color="#e95f32"></stop><stop offset="1" stop-color="#f18f34"></stop></linearGradient><linearGradient id="linear-gradient-4" x1="31.12" y1="44.79" x2="55.34" y2="44.79" gradientUnits="userSpaceOnUse"><stop offset="0" stop-color="#e3312d"></stop><stop offset="0.11" stop-color="#e95f32"></stop><stop offset="1" stop-color="#f9bd36"></stop></linearGradient><linearGradient id="linear-gradient-5" x1="42.43" y1="13.83" x2="50.59" y2="13.83" gradientUnits="userSpaceOnUse"><stop offset="0" stop-color="#ffe79d"></stop><stop offset="1" stop-color="#ffe14a"></stop></linearGradient><linearGradient id="linear-gradient-6" x1="31.12" y1="42.59" x2="55.34" y2="42.59" gradientUnits="userSpaceOnUse"><stop offset="0" stop-color="#f5a300"></stop><stop offset="1" stop-color="#f18f34"></stop></linearGradient><linearGradient id="linear-gradient-7" x1="22.23" y1="21.17" x2="42.43" y2="21.17" gradientUnits="userSpaceOnUse"><stop offset="0.01" stop-color="#fdc800"></stop><stop offset="1" stop-color="#ef8d38"></stop></linearGradient><linearGradient id="linear-gradient-8" x1="22.23" y1="37.79" x2="34.97" y2="37.79" gradientUnits="userSpaceOnUse"><stop offset="0" stop-color="#ee8235"></stop><stop offset="1" stop-color="#f8b336"></stop></linearGradient><linearGradient id="linear-gradient-9" x1="16.76" y1="21.17" x2="37.1" y2="21.17" gradientUnits="userSpaceOnUse"><stop offset="0" stop-color="#f5a300"></stop><stop offset="0.11" stop-color="#f6a80b"></stop><stop offset="0.49" stop-color="#f8b72e"></stop><stop offset="0.8" stop-color="#f9c143"></stop><stop offset="1" stop-color="#fac44b"></stop></linearGradient><linearGradient id="linear-gradient-10" x1="14.77" y1="36.8" x2="16.19" y2="36.8" gradientUnits="userSpaceOnUse"><stop offset="0" stop-color="#f18f34"></stop><stop offset="0.34" stop-color="#f29334"></stop><stop offset="0.69" stop-color="#f39f36"></stop><stop offset="1" stop-color="#f6b138"></stop></linearGradient><linearGradient id="linear-gradient-11" x1="7.59" y1="29.93" x2="16.19" y2="29.93" xlink:href="#linear-gradient-2"></linearGradient><linearGradient id="linear-gradient-12" x1="22.23" y1="30.71" x2="42.43" y2="30.71" gradientUnits="userSpaceOnUse"><stop offset="0" stop-color="#f8b336"></stop><stop offset="1" stop-color="#ee8235"></stop></linearGradient><linearGradient id="linear-gradient-13" x1="34.97" y1="31.96" x2="55.34" y2="31.96" gradientUnits="userSpaceOnUse"><stop offset="0" stop-color="#f18f34"></stop><stop offset="1" stop-color="#f5a300"></stop></linearGradient></defs><g id="Calque_2" data-name="Calque 2"><g id="Calque_1-2" data-name="Calque 1"><circle class="cls-1" cx="29.44" cy="29.44" r="29.44"></circle><polygon class="cls-2" points="55.34 41.03 49.54 25.97 42.43 22.88 55.34 41.03"></polygon><polygon class="cls-3" points="50.59 11.16 42.43 22.88 49.54 25.97 50.59 11.16"></polygon><polygon class="cls-4" points="11.1 8.21 16.76 14.59 22.62 1.95 11.1 8.21"></polygon><polygon class="cls-5" points="35.19 1.95 37.1 13.4 16.76 14.59 35.19 1.95"></polygon><polygon class="cls-6" points="11.1 8.21 3.93 17.23 16.76 14.59 11.1 8.21"></polygon><polygon class="cls-7" points="1.24 29.71 5.78 24.4 16.76 14.59 7.59 25.51 1.24 29.71"></polygon><polygon class="cls-8" points="3.93 17.23 5.63 24.57 1.24 29.71 3.93 17.23"></polygon><polygon class="cls-9" points="3.93 17.23 5.63 24.57 16.76 14.59 3.93 17.23"></polygon><polygon class="cls-10" points="1.24 29.71 4.27 41.84 7.59 25.51 1.24 29.71"></polygon><polygon class="cls-11" points="16.76 14.59 22.62 1.95 35.19 1.95 16.76 14.59"></polygon><polygon class="cls-12" points="37.1 13.4 43.35 4.78 35.19 1.95 37.1 13.4"></polygon><polygon class="cls-13" points="13.75 52.79 15.85 41.84 4.27 41.84 13.75 52.79"></polygon><polygon class="cls-14" points="31.12 46.64 13.75 52.79 15.85 41.84 31.12 46.64"></polygon><polygon class="cls-15" points="28.89 58.09 19.09 55.67 13.75 52.79 31.12 46.64 28.89 58.09"></polygon><polygon class="cls-16" points="44.42 53.87 31.12 46.64 28.89 58.09 44.42 53.87"></polygon><polygon class="cls-17" points="50.6 48.54 31.12 46.64 44.42 53.87 50.6 48.54"></polygon><polygon class="cls-18" points="55.34 41.03 50.6 48.54 31.12 46.64 55.34 41.03"></polygon><polygon class="cls-19" points="49.54 25.97 57.57 29.7 55.34 41.03 49.54 25.97"></polygon><polygon class="cls-20" points="56.91 22.14 49.54 25.97 57.57 29.7 56.91 22.14"></polygon><polygon class="cls-21" points="53.95 15.77 49.54 25.97 56.91 22.14 53.95 15.77"></polygon><polygon class="cls-22" points="50.59 11.16 49.54 25.97 53.95 15.77 50.59 11.16"></polygon><polygon class="cls-23" points="43.35 4.78 50.59 11.16 42.43 22.88 43.35 4.78"></polygon><polygon class="cls-24" points="37.1 13.4 42.43 22.88 43.35 4.78 37.1 13.4"></polygon><polygon class="cls-25" points="31.12 46.64 34.97 38.55 55.34 41.03 31.12 46.64"></polygon><polygon class="cls-26" points="22.23 28.94 42.43 22.88 37.1 13.4 22.23 28.94"></polygon><polygon class="cls-27" points="31.12 46.64 22.23 28.94 15.85 41.84 31.12 46.64"></polygon><polygon class="cls-28" points="14.77 34.34 15.85 41.84 4.27 41.84 14.77 34.34"></polygon><polygon class="cls-29" points="7.59 25.51 14.77 34.34 4.27 41.84 7.59 25.51"></polygon><polygon class="cls-30" points="22.23 28.94 31.12 46.64 34.97 38.55 22.23 28.94"></polygon><polygon class="cls-31" points="16.76 14.59 22.23 28.94 37.1 13.4 16.76 14.59"></polygon><polygon class="cls-32" points="14.77 34.34 16.19 31.77 15.85 41.84 14.77 34.34"></polygon><polygon class="cls-33" points="7.59 25.51 16.19 31.77 14.77 34.34 7.59 25.51"></polygon><polygon class="cls-34" points="16.76 14.59 16.19 31.77 7.59 25.51 16.76 14.59"></polygon><polygon class="cls-35" points="16.76 14.59 22.23 28.94 16.19 31.77 16.76 14.59"></polygon><polygon class="cls-36" points="22.23 28.94 15.85 41.84 16.19 31.77 22.23 28.94"></polygon><polygon class="cls-37" points="22.23 28.94 42.43 22.88 34.97 38.55 22.23 28.94"></polygon><polygon class="cls-38" points="42.43 22.88 55.34 41.03 34.97 38.55 42.43 22.88"></polygon><rect class="cls-39" x="27" y="22.74" width="2.13" height="1.73"></rect><path class="cls-39" d="M53.11,23.45A1.43,1.43,0,1,1,54.54,22,1.43,1.43,0,0,1,53.11,23.45Zm0-2.62a1.19,1.19,0,1,0,0,2.38,1.19,1.19,0,0,0,0-2.38Z"></path><path class="cls-39" d="M53.45,22.61l-.35-.5H53v.5h-.3V21.33h.48a.4.4,0,0,1,.42.39.35.35,0,0,1-.2.32l.41.57Zm-.32-1H53v.29h.14a.14.14,0,0,0,.16-.14A.15.15,0,0,0,53.13,21.57Z"></path><path class="cls-39" d="M11.31,30.76a.92.92,0,0,0-.4-.77,4.69,4.69,0,0,0-1-.52c-.39-.16-.81-.32-1.27-.47a5.22,5.22,0,0,1-1.27-.64,3.42,3.42,0,0,1-1-1A2.82,2.82,0,0,1,6,25.81a3.47,3.47,0,0,1,.28-1.45,2.58,2.58,0,0,1,.79-1,3.55,3.55,0,0,1,1.23-.61,5.67,5.67,0,0,1,1.59-.21,9.65,9.65,0,0,1,1.9.18,5.26,5.26,0,0,1,1.49.52l-.72,2a2.8,2.8,0,0,0-.46-.23,4.14,4.14,0,0,0-.65-.21c-.24-.06-.5-.1-.77-.14a5.83,5.83,0,0,0-.84-.06,2.16,2.16,0,0,0-1.18.28.86.86,0,0,0-.41.77.94.94,0,0,0,.39.78,4.69,4.69,0,0,0,1,.53c.39.17.81.33,1.27.49a6.54,6.54,0,0,1,1.27.63,3.52,3.52,0,0,1,1,1,2.61,2.61,0,0,1,.39,1.5,3.76,3.76,0,0,1-.3,1.57,2.84,2.84,0,0,1-.86,1.1,3.66,3.66,0,0,1-1.33.64,6.43,6.43,0,0,1-1.7.21,8.76,8.76,0,0,1-1.18-.08,9,9,0,0,1-1-.17,8.12,8.12,0,0,1-.83-.22,4.42,4.42,0,0,1-.57-.23l.74-2a3.29,3.29,0,0,0,.47.2,5.66,5.66,0,0,0,.66.22,7.65,7.65,0,0,0,.78.16,5.93,5.93,0,0,0,.84.06,3,3,0,0,0,1.53-.3A1,1,0,0,0,11.31,30.76Z"></path><path class="cls-39" d="M14.3,29.66a4.64,4.64,0,0,1,1-3.22,3.8,3.8,0,0,1,3-1.17,4.45,4.45,0,0,1,1.78.33,3.38,3.38,0,0,1,1.26.92,4,4,0,0,1,.75,1.39,6.26,6.26,0,0,1,0,3.57,3.9,3.9,0,0,1-.79,1.38,3.43,3.43,0,0,1-1.27.87,4.57,4.57,0,0,1-1.71.3,4.43,4.43,0,0,1-1.79-.33,3.38,3.38,0,0,1-1.26-.92,3.82,3.82,0,0,1-.75-1.39A6,6,0,0,1,14.3,29.66Zm2.19,0a4.4,4.4,0,0,0,.1,1,2.35,2.35,0,0,0,.33.79,1.76,1.76,0,0,0,.57.55,1.62,1.62,0,0,0,.85.2c1.24,0,1.85-.84,1.85-2.52a5.38,5.38,0,0,0-.09-1,2.53,2.53,0,0,0-.32-.8,1.48,1.48,0,0,0-.58-.53,1.76,1.76,0,0,0-.86-.19,1.66,1.66,0,0,0-1.36.6A3,3,0,0,0,16.49,29.66Z"></path><rect class="cls-39" x="27" y="25.51" width="2.13" height="8.29"></rect><path class="cls-39" d="M30.41,25.51h1.52l.26,1h.19a3,3,0,0,1,1.09-.94,3.2,3.2,0,0,1,1.46-.32,2.92,2.92,0,0,1,2.42,1,5.12,5.12,0,0,1,.8,3.18,6.49,6.49,0,0,1-.26,1.89,4,4,0,0,1-.76,1.45,3.11,3.11,0,0,1-1.24.93,4.08,4.08,0,0,1-1.69.33,3.41,3.41,0,0,1-.9-.11,5,5,0,0,1-.76-.27v3.27H30.41Zm3.87,1.61a1.66,1.66,0,0,0-1.13.34,2.12,2.12,0,0,0-.61,1.05v3.22a2.11,2.11,0,0,0,.58.34,2.08,2.08,0,0,0,.81.13,1.78,1.78,0,0,0,1.53-.67,3.57,3.57,0,0,0,.5-2.14,3.1,3.1,0,0,0-.39-1.67A1.41,1.41,0,0,0,34.28,27.12Z"></path><path class="cls-39" d="M39.17,26.07a7.79,7.79,0,0,1,1.68-.52,10.66,10.66,0,0,1,2.06-.2,4.37,4.37,0,0,1,1.4.2,2.2,2.2,0,0,1,.91.6,2.29,2.29,0,0,1,.48.93,5,5,0,0,1,.14,1.21q0,.8-.06,1.59c0,.53-.06,1.08-.06,1.67a7.5,7.5,0,0,0,.08,1.17A6.39,6.39,0,0,0,46,33.81H44.31L44,32.58h-.19a3.64,3.64,0,0,1-1,1,2.84,2.84,0,0,1-1.56.39,3.23,3.23,0,0,1-1.06-.17,2.35,2.35,0,0,1-.82-.5,2.17,2.17,0,0,1-.53-.77,2.32,2.32,0,0,1-.19-1,2.54,2.54,0,0,1,.9-2.12,4.35,4.35,0,0,1,2.74-.72,5,5,0,0,1,.86.07l.59.1a4.18,4.18,0,0,0,0-.56,1.18,1.18,0,0,0-.29-.89,1.53,1.53,0,0,0-1.07-.28A5.72,5.72,0,0,0,41,27.3a6.21,6.21,0,0,0-1.22.45ZM42,32.15a1.74,1.74,0,0,0,1.14-.34,2.54,2.54,0,0,0,.62-.73v-.95l-.23-.06L43.13,30a2.65,2.65,0,0,0-.38-.05l-.34,0a2,2,0,0,0-1.22.31,1,1,0,0,0-.39.77,1.08,1.08,0,0,0,.31.85A1.19,1.19,0,0,0,42,32.15Z"></path><path class="cls-39" d="M53,33.29a3.65,3.65,0,0,1-1.23.55,5.77,5.77,0,0,1-1.5.19,4.27,4.27,0,0,1-1.74-.31,3,3,0,0,1-1.16-.9,3.63,3.63,0,0,1-.64-1.39,7.43,7.43,0,0,1-.2-1.77,4.87,4.87,0,0,1,1-3.23,3.52,3.52,0,0,1,2.85-1.16,6.2,6.2,0,0,1,1.5.15,4.89,4.89,0,0,1,1,.39l-.52,1.76a4.76,4.76,0,0,0-.78-.26,4.81,4.81,0,0,0-.91-.08,1.86,1.86,0,0,0-1.46.57,2.79,2.79,0,0,0-.51,1.86,3.51,3.51,0,0,0,.12.94,2.17,2.17,0,0,0,.38.76,1.74,1.74,0,0,0,.65.52,2.12,2.12,0,0,0,.93.19,3.82,3.82,0,0,0,1-.11,3.06,3.06,0,0,0,.71-.33Z"></path><rect class="cls-39" x="23.37" y="22.74" width="2.16" height="11.05"></rect></g></g></svg>