<svg xmlns="http://www.w3.org/2000/svg" xmlns:xlink="http://www.w3.org/1999/xlink" id="Calque_1" x="0px" y="0px" viewBox="0 0 420 196" style="enable-background:new 0 0 420 196;" xml:space="preserve">
<style type="text/css">
	.st0{fill-rule:evenodd;clip-rule:evenodd;fill:#D20A11;}
	.st1{fill:none;stroke:#D20A11;stroke-width:0.62;}
	.st2{fill-rule:evenodd;clip-rule:evenodd;fill:#FFFFFF;}
	.st3{fill:none;stroke:#1D1D1B;stroke-width:0.68;stroke-linecap:round;stroke-linejoin:round;}
	.st4{fill:none;stroke:#1D1D1B;stroke-width:0.53;stroke-linecap:round;stroke-linejoin:round;}
	.st5{fill:none;stroke:#1D1D1B;stroke-width:0.62;stroke-linecap:round;stroke-linejoin:round;}
	.st6{fill:none;stroke:#1D1D1B;stroke-width:0.69;stroke-linecap:round;stroke-linejoin:round;}
	.st7{fill:none;stroke:#1D1D1B;stroke-width:0.98;stroke-linecap:round;stroke-linejoin:round;}
	.st8{fill:none;stroke:#1D1D1B;stroke-width:0.91;stroke-linecap:round;stroke-linejoin:round;}
	.st9{fill:none;stroke:#1D1D1B;stroke-width:1.06;stroke-linecap:round;stroke-linejoin:round;}
	.st10{fill:none;stroke:#1D1D1B;stroke-width:0.63;stroke-linecap:round;stroke-linejoin:round;}
	.st11{fill:none;stroke:#1D1D1B;stroke-width:0.58;stroke-linecap:round;stroke-linejoin:round;}
	.st12{fill:none;stroke:#1D1D1B;stroke-width:0.59;stroke-linecap:round;stroke-linejoin:round;}
	.st13{fill:none;stroke:#1D1D1B;stroke-width:0.57;stroke-linecap:round;stroke-linejoin:round;}
	.st14{fill:none;stroke:#1D1D1B;stroke-width:0.55;stroke-linecap:round;stroke-linejoin:round;}
	.st15{fill:none;stroke:#1D1D1B;stroke-width:0.56;stroke-linecap:round;stroke-linejoin:round;}
	.st16{fill:none;stroke:#1D1D1B;stroke-width:0.52;stroke-linecap:round;stroke-linejoin:round;}
	.st17{fill:none;stroke:#1D1D1B;stroke-width:0.54;stroke-linecap:round;stroke-linejoin:round;}
	.st18{fill:none;stroke:#1D1D1B;stroke-width:0.45;stroke-linecap:round;stroke-linejoin:round;}
	.st19{fill:none;stroke:#B38316;stroke-width:3.97;}
	.st20{fill:none;}
</style>
<path d="M20,173.9c-0.2,0-0.4,0.1-0.5,0.2c-0.1,0.2-0.2,0.4-0.2,0.6h-0.5v-6.2h0.5c0.1,0.5,0.3,0.8,0.6,0.8h12.3v0.5  c-0.4,0-0.7,0.3-0.7,0.6c0,0,0,0.1,0,0.1v7.3c0,0.2,0,0.4,0.1,0.5c0,0.1,0.2,0.2,0.4,0.2h0.2v0.5c-4.1,2.2-8.7,3.3-13.4,3.2  c-1.7,0-3.4-0.2-5.1-0.7c-1.6-0.4-3-1.2-4.3-2.1c-1.3-1-2.3-2.3-3-3.7c-1.5-3.3-1.5-7.2,0-10.5c0.7-1.4,1.7-2.7,3-3.7  c1.3-1,2.7-1.8,4.3-2.2c1.6-0.5,3.4-0.7,5.1-0.7c0.7,0,1.3,0,1.8,0c0.5,0,1,0.1,1.5,0.2c0.5,0.1,1,0.2,1.5,0.3s1.2,0.3,1.9,0.5  c0.7,0.2,1.3,0.4,1.9,0.7c0.3,0.2,0.7,0.3,1.1,0.4c0.2,0,0.5-0.1,0.6-0.4l0.5,0.2l-2.7,5.8l-0.5-0.3c0-0.2,0.1-0.3,0.1-0.5  c0-0.2-0.2-0.4-0.7-0.7c-0.6-0.3-1.2-0.5-1.8-0.7c-0.8-0.2-1.6-0.4-2.4-0.5c-0.9-0.1-1.8-0.2-2.6-0.2c-1,0-1.9,0.1-2.9,0.4  c-0.9,0.3-1.7,0.7-2.4,1.3c-0.7,0.6-1.3,1.3-1.7,2.2c-0.4,1-0.7,2.1-0.6,3.1c0,1.1,0.2,2.1,0.8,3.1c0.5,0.8,1.1,1.6,1.9,2.1  c0.8,0.6,1.6,1,2.6,1.2c0.9,0.3,1.8,0.4,2.8,0.4c1.1,0,2.1-0.1,3.2-0.2c0.9-0.1,1.8-0.3,2.7-0.6v-2.9"></path>
<path d="M52.1,173.9c0-0.3-0.2-0.5-0.4-0.7c-0.2-0.2-0.6-0.3-0.9-0.3h-7.8v4.2h13.4c0.2,0,0.4-0.1,0.5-0.2c0.2-0.3,0.2-0.7,0.2-1.1  h0.5v7.6h-0.5c0-0.3-0.1-0.5-0.2-0.7c-0.1-0.1-0.3-0.2-0.5-0.1H35.7v-0.5c0.4,0,0.7-0.1,1-0.3c0.1-0.1,0.2-0.3,0.2-0.5v-20.7  c0-0.2-0.1-0.4-0.2-0.5c-0.3-0.2-0.6-0.3-1-0.3v-0.5h20.8c0.2,0,0.4-0.1,0.5-0.2c0.1-0.3,0.2-0.7,0.2-1h0.5v7.7h-0.5  c0-0.3-0.1-0.7-0.2-1c-0.1-0.2-0.3-0.3-0.5-0.2H43.1v3.7h7.8c0.3,0,0.6-0.1,0.9-0.3c0.2-0.2,0.3-0.5,0.4-0.7h0.5v6.9 M47.5,157.5  h-4.3l4-6.5h6.4L47.5,157.5z"></path>
<path d="M69.8,181.6c0.3,0.2,0.6,0.3,1,0.3v0.5h-8.6v-0.5c0.4,0,0.7-0.1,1-0.3c0.1-0.1,0.2-0.3,0.2-0.5v-20.6c0-0.2-0.1-0.4-0.2-0.5  c-0.3-0.2-0.6-0.3-1-0.3v-0.5h15.2c3.1,0,5.3,0.6,6.7,1.8s2.1,3,2.1,5.6c0.1,1.8-0.5,3.5-1.7,4.8c-1.2,1.2-2.7,2-4.3,2.5l4.9,7.4  c0.2,0.5,0.7,0.8,1.2,0.8v0.5h-8.7v-0.5c0.6,0,0.9-0.3,0.9-0.8c-0.1-0.2-0.2-0.4-0.3-0.6c-0.2-0.4-0.5-0.8-0.8-1.3l-1.1-1.6  c-0.4-0.6-0.8-1.1-1.2-1.7s-0.7-1-1-1.4s-0.5-0.7-0.5-0.8h-4.1v7.4C69.6,181.2,69.7,181.4,69.8,181.6 M76.6,168.9  c0.9,0.1,1.8-0.2,2.5-0.7c0.9-1,0.9-2.5,0-3.4c-0.7-0.6-1.6-0.8-2.5-0.7h-7v4.9L76.6,168.9z"></path>
<path d="M95.3,181.4c0,0.1,0,0.3,0.1,0.3c0.2,0.1,0.4,0.1,0.6,0.1v0.5h-7.4v-0.5c0.2,0,0.5-0.1,0.7-0.3c0.2-0.2,0.3-0.5,0.4-0.7  l0.4-1.2c0.2-0.7,0.5-1.5,0.9-2.5c0.4-1,0.8-2.1,1.2-3.3s0.9-2.5,1.3-3.7s0.9-2.5,1.3-3.7l1.1-3.2l0.8-2.3c0.2-0.6,0.3-0.9,0.3-0.9  s-0.1-0.2-0.3-0.3c-0.2-0.1-0.4-0.1-0.6-0.1v-0.5h10.9v0.5c-0.2,0-0.4,0.1-0.5,0.1c-0.1,0.1-0.2,0.2-0.2,0.4  c0.1,0.4,0.2,0.8,0.4,1.1c0.3,0.7,0.6,1.6,1,2.8s0.9,2.4,1.4,3.9s1.1,2.9,1.7,4.4s1.1,3,1.7,4.4s1,2.7,1.5,3.8  c0.1,0.4,0.3,0.7,0.6,1.1c0.2,0.2,0.4,0.3,0.6,0.3v0.5h-8.2v-0.5c0.5,0,0.8-0.2,0.8-0.5c-0.1-0.2-0.1-0.4-0.2-0.6  c-0.1-0.4-0.3-0.8-0.4-1.2s-0.3-0.9-0.5-1.3c-0.1-0.3-0.2-0.6-0.3-0.8h-9.9c-0.3,0.8-0.5,1.5-0.7,2l-0.4,1.2l-0.2,0.6  C95.3,181.2,95.3,181.3,95.3,181.4 M105.4,173.8l-4-10.5l-3.7,10.5H105.4z"></path>
<path d="M125.6,181.6c0.3,0.2,0.6,0.3,1,0.3v0.5H118v-0.5c0.4,0,0.7-0.1,1-0.3c0.1-0.1,0.2-0.3,0.2-0.5v-20.6c0-0.2-0.1-0.4-0.2-0.5  c-0.3-0.2-0.6-0.3-1-0.3v-0.5h15.2c3.1,0,5.3,0.6,6.7,1.8s2.1,3,2.1,5.6c0.1,1.8-0.5,3.5-1.7,4.8c-1.2,1.2-2.7,2-4.3,2.5l4.9,7.4  c0.2,0.5,0.7,0.8,1.2,0.8v0.5h-8.7v-0.5c0.6,0,0.9-0.3,0.9-0.8c-0.1-0.2-0.2-0.4-0.3-0.6c-0.2-0.4-0.5-0.8-0.8-1.3s-0.7-1-1.1-1.6  l-1.2-1.7l-1-1.4c-0.3-0.4-0.5-0.7-0.5-0.8h-4.1v7.4C125.4,181.2,125.5,181.4,125.6,181.6 M132.4,168.9c0.9,0.1,1.8-0.2,2.5-0.7  c0.9-1,0.9-2.5,0-3.4c-0.7-0.6-1.6-0.8-2.5-0.7h-7v4.9L132.4,168.9z"></path>
<path d="M147.7,159.9c-0.3-0.2-0.6-0.3-1-0.3v-0.5h13.8c1.7,0,3.4,0.3,5,0.9c1.3,0.5,2.5,1.4,3.5,2.5c0.9,1.1,1.6,2.3,2.1,3.7  c0.5,1.5,0.7,3,0.7,4.6c0,1.5-0.2,3-0.7,4.4c-0.5,1.4-1.2,2.6-2.2,3.7c-1,1.1-2.3,2-3.7,2.6c-1.6,0.7-3.3,1-5.1,1h-13.4v-0.5  c0.4,0,0.7-0.1,1-0.3c0.1-0.1,0.2-0.3,0.2-0.5v-20.7C147.9,160.2,147.9,160,147.7,159.9 M159.5,177.1c2.2,0,3.8-0.6,4.8-1.8  c1.9-2.8,1.9-6.5,0-9.3c-1-1.2-2.6-1.8-4.8-1.8h-5.3v12.9H159.5z"></path>
<path d="M189.4,159.9c-0.3-0.2-0.6-0.3-1-0.3v-0.5h15.9c1.1,0,2.1,0.1,3.1,0.4c0.9,0.2,1.7,0.6,2.5,1.1c0.7,0.5,1.2,1.1,1.6,1.9  c0.4,0.9,0.6,1.8,0.6,2.8c0.1,1.2-0.3,2.3-1.1,3.2c-0.8,0.8-1.8,1.4-2.9,1.6v0.1c1.3,0.3,2.5,1,3.5,1.9c1,1,1.5,2.4,1.4,3.8  c0,0.9-0.2,1.7-0.5,2.5c-0.3,0.8-0.8,1.5-1.5,2.1c-0.8,0.6-1.7,1.1-2.6,1.4c-1.2,0.4-2.5,0.6-3.8,0.5h-16.1v-0.5  c0.4,0,0.7-0.1,1-0.3c0.1-0.1,0.2-0.3,0.2-0.5v-20.6C189.6,160.2,189.6,160,189.4,159.9 M201.6,167.9c0.9,0,1.6,0,2.2-0.1  c0.5,0,0.9-0.1,1.4-0.3c0.3-0.1,0.6-0.3,0.7-0.6c0.2-0.3,0.2-0.7,0.2-1.1c0-0.4-0.1-0.7-0.2-1.1c-0.2-0.3-0.4-0.5-0.7-0.6  c-0.4-0.2-0.9-0.3-1.4-0.3c-0.6,0-1.3-0.1-2.2-0.1h-5.7v4.1L201.6,167.9z M203,177.7c1.1,0.1,2.2-0.1,3.2-0.6c1.1-1,1.2-2.8,0.2-3.9  c-0.1-0.1-0.1-0.1-0.2-0.2c-1-0.5-2.1-0.7-3.2-0.6h-7.1v5.3H203z"></path>
<path d="M233.8,173.9c0-0.3-0.2-0.5-0.4-0.7c-0.2-0.2-0.6-0.3-0.9-0.3h-7.8v4.1h13.4c0.2,0,0.4-0.1,0.5-0.2c0.2-0.3,0.2-0.7,0.2-1.1  h0.5v7.6h-0.5c0-0.3-0.1-0.5-0.2-0.7c-0.1-0.1-0.3-0.1-0.5-0.1h-20.8v-0.5c0.4,0,0.7-0.1,1-0.3c0.1-0.1,0.2-0.3,0.2-0.5v-20.7  c0-0.2-0.1-0.4-0.2-0.5c-0.3-0.2-0.6-0.3-1-0.3v-0.5h20.8c0.2,0,0.4-0.1,0.5-0.2c0.2-0.3,0.2-0.7,0.2-1h0.5v7.7h-0.5  c0-0.3-0.1-0.7-0.2-1c-0.1-0.2-0.3-0.3-0.5-0.2h-13.4v3.7h7.8c0.3,0,0.7-0.1,0.9-0.3c0.2-0.2,0.3-0.5,0.4-0.7h0.5v6.9"></path>
<path d="M251.5,181.6c0.3,0.2,0.6,0.3,1,0.3v0.5h-8.6v-0.5c0.4,0,0.7-0.1,1-0.3c0.1-0.1,0.2-0.3,0.2-0.5v-20.6  c0-0.2-0.1-0.4-0.2-0.5c-0.3-0.2-0.6-0.3-1-0.3v-0.5h15.2c3.1,0,5.3,0.6,6.7,1.8c1.4,1.2,2.1,3,2.1,5.6c0.1,1.8-0.5,3.5-1.7,4.8  c-1.2,1.2-2.7,2-4.3,2.5l4.9,7.4c0.2,0.5,0.7,0.8,1.2,0.8v0.5h-8.7v-0.5c0.6,0,0.9-0.3,0.9-0.8c-0.1-0.2-0.2-0.4-0.3-0.6l-0.8-1.3  c-0.3-0.5-0.7-1-1.1-1.6s-0.8-1.1-1.2-1.7l-1-1.4c-0.3-0.4-0.5-0.7-0.5-0.8h-4.1v7.4C251.2,181.2,251.3,181.4,251.5,181.6   M258.2,168.9c0.9,0.1,1.8-0.2,2.5-0.7c0.9-1,0.9-2.5,0-3.4c-0.7-0.6-1.6-0.8-2.5-0.7h-7v4.9L258.2,168.9z"></path>
<path d="M277.6,181.9c0.4,0,0.7-0.1,1-0.3c0.1-0.1,0.2-0.3,0.2-0.5v-16.6h-7.2c-0.2,0-0.4,0.1-0.5,0.2c-0.2,0.3-0.2,0.7-0.2,1h-0.5  v-7.9h0.5c0,0.3,0.1,0.7,0.2,1c0.1,0.2,0.3,0.3,0.5,0.2h20.6c0.2,0,0.4-0.1,0.5-0.2c0.1-0.3,0.2-0.7,0.2-1h0.5v7.9H293  c0-0.3-0.1-0.7-0.2-1c-0.1-0.2-0.3-0.3-0.5-0.2h-7.2v16.6c0,0.2,0.1,0.4,0.2,0.5c0.3,0.2,0.6,0.3,1,0.3v0.5h-8.6"></path>
<path d="M304.4,181.6c0.3,0.2,0.6,0.3,1,0.3v0.5h-8.6v-0.5c0.4,0,0.7-0.1,1-0.3c0.1-0.1,0.2-0.3,0.2-0.5v-20.6  c0-0.2-0.1-0.4-0.2-0.5c-0.3-0.2-0.6-0.3-1-0.3v-0.5H312c3.1,0,5.3,0.6,6.7,1.8s2.1,3,2.1,5.6c0.1,1.8-0.5,3.5-1.7,4.8  c-1.2,1.2-2.7,2-4.3,2.5l4.9,7.4c0.2,0.5,0.7,0.8,1.2,0.8v0.5h-8.7v-0.5c0.6,0,0.9-0.3,0.9-0.8c-0.1-0.2-0.2-0.4-0.3-0.6  c-0.2-0.4-0.5-0.8-0.8-1.3s-0.7-1-1.1-1.6l-1.2-1.7c-0.4-0.5-0.7-1-1-1.4s-0.5-0.7-0.5-0.8h-4.1v7.4  C304.1,181.2,304.2,181.4,304.4,181.6 M311.1,168.9c0.9,0.1,1.8-0.2,2.5-0.7c0.9-1,0.9-2.5,0-3.4c-0.7-0.6-1.6-0.8-2.5-0.7h-7v4.9  L311.1,168.9z"></path>
<path d="M329.9,181.4c0,0.1,0,0.3,0.1,0.3c0.2,0.1,0.4,0.1,0.6,0.1v0.5h-7.4v-0.5c0.2,0,0.5-0.1,0.7-0.3c0.2-0.2,0.3-0.5,0.4-0.7  c0-0.1,0.2-0.5,0.4-1.2s0.5-1.5,0.9-2.5s0.8-2.1,1.2-3.3s0.9-2.5,1.3-3.7s0.9-2.5,1.3-3.7l1.1-3.2l0.8-2.3c0.2-0.6,0.3-0.9,0.3-0.9  s-0.1-0.2-0.3-0.3c-0.2-0.1-0.4-0.1-0.6-0.1v-0.5h10.9v0.5c-0.2,0-0.4,0.1-0.5,0.1c-0.1,0.1-0.2,0.2-0.2,0.4  c0.1,0.4,0.2,0.8,0.4,1.1c0.3,0.7,0.6,1.6,1,2.8s0.9,2.4,1.4,3.9s1.1,2.9,1.7,4.4s1.1,3,1.7,4.4s1,2.7,1.5,3.8  c0.1,0.4,0.3,0.7,0.6,1.1c0.2,0.2,0.4,0.3,0.6,0.3v0.5h-8.2v-0.5c0.5,0,0.8-0.2,0.8-0.5c-0.1-0.2-0.1-0.4-0.2-0.6l-0.5-1.2  c-0.2-0.5-0.3-0.9-0.5-1.3c-0.1-0.3-0.2-0.6-0.3-0.8h-9.9c-0.3,0.8-0.5,1.5-0.7,2s-0.3,0.9-0.4,1.2l-0.2,0.6  C329.9,181.2,329.9,181.3,329.9,181.4 M340,173.8l-4-10.5l-3.7,10.5H340z"></path>
<path d="M354.1,159.9c-0.3-0.2-0.6-0.3-1-0.3v-0.5h10v0.5c-0.3,0-0.6,0.1-0.9,0.2c-0.1,0.1-0.2,0.2-0.2,0.4c0.1,0.3,0.3,0.6,0.5,0.8  c0.4,0.5,0.8,1.1,1.4,1.8s1.2,1.5,2,2.4s1.5,1.8,2.2,2.6s1.5,1.7,2.2,2.5l1.8,2v-11.8c0-0.5-0.3-0.8-0.9-0.8v-0.5h7.6v0.5  c-0.4,0-0.7,0.1-1,0.3c-0.1,0.1-0.2,0.3-0.2,0.5v20.6c0,0.2,0.1,0.4,0.2,0.5c0.3,0.2,0.6,0.3,1,0.3v0.5h-7.9v-0.5  c0.3,0,0.5,0,0.8-0.1c0.1-0.1,0.2-0.2,0.2-0.4c0-0.1-0.1-0.2-0.1-0.3c-0.2-0.2-0.3-0.5-0.5-0.7c-0.3-0.3-0.7-0.8-1.2-1.4  s-1.2-1.4-2.1-2.4s-2-2.3-3.3-3.8s-2.9-3.4-4.7-5.6v13.9c0,0.2,0.1,0.4,0.2,0.5c0.3,0.2,0.6,0.3,1,0.3v0.5h-7.9v-0.5  c0.4,0,0.7-0.1,1-0.3c0.1-0.1,0.2-0.3,0.2-0.5v-20.7C354.3,160.2,354.2,160,354.1,159.9"></path>
<path d="M385.2,159.9c-0.3-0.2-0.6-0.3-1-0.3v-0.5H398c1.7,0,3.4,0.3,5,0.9c1.3,0.5,2.5,1.4,3.5,2.5c0.9,1.1,1.6,2.3,2.1,3.7  c0.5,1.5,0.7,3,0.7,4.6c0,1.5-0.2,3-0.7,4.4c-0.5,1.4-1.2,2.6-2.2,3.7c-1,1.1-2.3,2-3.7,2.6c-1.6,0.7-3.3,1-5.1,1h-13.3v-0.5  c0.4,0,0.7-0.1,1-0.3c0.1-0.1,0.2-0.3,0.2-0.5v-20.7C385.4,160.2,385.3,160,385.2,159.9 M396.9,177.1c2.2,0,3.8-0.6,4.8-1.8  c1.9-2.8,1.9-6.5,0-9.3c-1-1.2-2.6-1.8-4.8-1.8h-5.3v12.9H396.9z"></path>
<path class="st0" d="M257.9,76.2c0,32.3-22.2,58.5-49.6,58.5s-49.6-26.2-49.6-58.5s22.2-58.5,49.6-58.5S257.9,43.9,257.9,76.2"></path>
<path class="st1" d="M257.9,76.2c0,32.3-22.2,58.5-49.6,58.5s-49.6-26.2-49.6-58.5s22.2-58.5,49.6-58.5S257.9,43.9,257.9,76.2z"></path>
<path class="st2" d="M243.2,88.9c0.7-2.5,1.2-5,1.5-7.6c0-2.6-1-7.1-3.1-7.3s-5.1,1-4.9,2.1s0.2,2.3,2.4,2.5c-0.6,0.5-1.3,0.8-2,1  l-21.6,2.1l4.6-25.8h0.5c0,0-0.2,3.8,3.6,2.2s2.5-5.1-0.6-6.3c-1.7-0.6-2.2-0.8-2.2-0.7c0.1-0.8,0.1-1.9,0.2-2.1  c0.1-0.5,0.9-0.8,1.6-1.2c0.8-0.4,1.6-0.7,2.5-1c0.4-0.1,0.7-0.3,0.8-0.7c-0.1-0.5-0.2-1.1-0.5-1.5l0.2-0.8c0,0,2.2,0.1,2.8,0.2  c0.6,0,1.2,0,1.7-0.2c0.5-0.2,0.9-0.4,1.4-0.6c0.4-0.2,0.6-0.1,1.9,0.5c2,0.7,4.2,1.1,6.4,1.1c0.7,0.1,1.4-0.3,1.7-1  c-0.1-0.4-0.2-0.9-0.2-1.4c0-0.3,0.2-2.7,0.2-3.4s-0.4-2.7-0.5-3.5s0.3-1.8,0.3-2.4c-0.1-0.7-0.3-1.4-0.5-2c0.1-0.4,0.2-0.8,0.4-1.2  c0.1-0.3-0.2-1.4-0.2-1.4s-2.9,1.3-3.9,1.7c-1.7,0.6-3.4,0.9-5.2,0.9c0.4-0.7,0.8-1.3,1.3-2c0.3-0.4-0.3-0.9-0.5-1.3  s-1.8,0.1-1.8,0.1s-0.6-0.2-1.1-0.3s-1.8,0.7-1.8,0.7s-1.1,0.2-2.3,0.5s-2,0.8-5.2,1.6s-6.8,0-8.8-0.5s-2.7-0.3-3.3,0.1  c-1.2,0.9,0.3,4.5,0.6,5.3c0.4,0.9,0.9,1.7,1.5,2.5c0,0,0.1-0.2,0.5-0.9s-0.1-1.3-0.2-1.8c0-0.5,0.3-1,0.8-1.2  c0.7-0.1,1.5,0.1,2,0.7c0.6,0.7,1,2.4,1.3,3.1s0.4,0.9,0.8,1.7s0.1,1.9,0.5,3c0.4,0.8,1,1.5,1.8,1.9c0,0-1.5,1.2-2.4,1.8  s-0.5,1-0.5,1.3s-0.4,0.5-1.9,1.3c-0.1,0.2-0.2,0.4-0.3,0.5c0,0,0,0,0-0.1c0.2-0.8-0.7-1.6-1.5-2c0.5-0.4,1.1-2.1,1.5-4.9  c1.4-0.2,2-1.7,1.4-3.3s-3.5-0.1-3.5-0.1c-0.9-0.5-2-0.9-3.1-0.9c-1.2,0.1-2.4,0.4-3.4,1c-0.5-0.4-1.1-0.7-1.7-0.9  c-1.9,0-1.7,2.5-1.6,3.3s2,0.9,2,0.9s-0.1,0.9-0.1,1.3s0.2,0.9,1.6,3.5c-0.7,0.1-2,0.9-2,1.8s2.8,2,5.4,1.9c1.6,0,3.2-0.4,4.6-1.1  l-0.2,0.2c0,0,0.1,1,0.1,1.2s0.8,0.1,0.8,0.1l1.5-0.3l1-0.3l0.1-1.8c0,0,0.1-0.6,0.1-0.7c0.4-0.4,0.8-0.8,1.2-1.2  c0.6-0.7,1.3-1.3,2.1-1.8c0.6-0.2,1.2-0.2,1.8,0c0,0.2,0,0.5,0,0.7c0,0.2-1.4,1.1-1.7,1.4s-0.4,0.7-0.8,1c-0.3,0.3-0.6,0.6-0.7,1  l-0.3,1.5c-1.1,0-2.1,0.2-3.1,0.4c-2.3,0.6-4.6,1-7,1.1c-2.3-0.3-4.5-0.8-6.7-1.4c-1.6-0.5-2.9-0.5-6.2,0.2c-2,1.1-4,3.9-2.4,5.7  s3.5,2.1,4.4,1.3s1.7-1.6,1.7-1.6l3.3,25.2l-25.1-2.5c0,0-0.1-0.5,0.9-1.5s1.1-2.7,0.2-3.4s-2.6-1.6-4.1-1s-2.5,2.5-2.5,5.6  s1.4,7.7,1.7,9.3s-1.5,6.1-1.8,8.9s1.3,6.3,4.4,6s2-2.8,2-3.1s-1.1-2.1-2.5-1.8c0.8-0.2,1.7-0.4,2.5-0.5l9.6-1.1l-0.1,6.6l-4.6,4.6  c-0.8,0.9-1.5,1.9-2.1,3l1.5,0.8c0.5-1,1.2-1.9,2-2.7c0.8-0.6,2-1.6,2-1.6l2.3,2.5l2.6-1.4l2.2,5.4l2.2-0.9c0,0-1.5-3.7-1.8-4.2  s-3.3-5.5-3.3-5.5s0.2-5.7,0.4-6.9l11.2-1.2l-4.5,28.1c0,0-0.8-2.5-3.1-1.9s-3.6,2.6-3,3.9s2,4.3,6.1,3.5s8.3-2.7,10.1-2.6  s7.4,2.5,10.2,2.3s6.7-1.6,6.7-3.7s-1.5-3.9-2.8-3.9s-2.4,0.5-2.6,1.1c-0.2,0.4-0.6,0.7-1,0.9l-0.9-9.7l-1.4-17.4l9.7,1.2l0.2,10.4  c0,0-0.6,2.4-2.5,2.1s-2.3-2.8-2.1-4c0.4-1.1,1.1-2.1,2.2-2.7c0.4-0.2,0.8-0.6,1.1-0.9l-0.1-1.6c0,0-4.2,1.5-4.6,4.1s-0.2,6,1.7,7.3  s3.6,1.3,5.7-0.5c1.9,1.1,5.7,2.2,6.9-2.6s-2.9-8.5-4.8-8.2c-0.4,0.5-0.7,1.1-0.6,1.7c0.1,0.4,3.5,1.5,3.6,3  c0.4,1.4,1.5,4.4-2.2,4.5c-1.7,0.2-2.5-1.8-2.5-3.7c-0.1-4,0.3-8.3,0.3-8.3l9.7,1.2c0,0-1.5,3.8,1.3,4.3s5.6-0.5,6.4-5.8  C244.7,94.6,244.1,91.7,243.2,88.9 M221.4,51.1c0,0.1,0.1,0.1,0.1,0.1h-0.2C221.4,51.3,221.4,51.2,221.4,51.1 M195.3,45.8  C195.3,45.8,195.3,45.8,195.3,45.8S195.2,45.7,195.3,45.8 M176.1,36.8L176,39v2l0.3,2.4c0.4,0.1,0.8,0.2,1.2,0.2  c0.5,0.1,1.1,0.3,1.6,0.5c0.8,0.1,1.6,0,2.4-0.2c0.5-0.2,2.9-1.3,3.8-1.6c0.7-0.1,1.4,0.1,1.9,0.5c1,0.5,2.1,1,3.2,1.3  c0.7,0.2,1.5,0.4,2.2,0.6c0,0.8,0.1,1.6,0.3,2.3c0.2,0.5,1.6,1.1,2,1.3c0.9,0.5,1.7,1.1,2.5,1.7c0.3,0.3,0.6,0.6,0.8,0.9  c0.2,0,0.4-0.1,0.5-0.2c0-1.2-0.8-2.3-1.9-2.7c-0.4-0.2-1.5-0.5-1.8-1s0-2.4,0-2.5c0.2,0.4,0.3,0.9,0.4,1.3c0.2,0.5,0.6,0.9,1.1,1.1  c1.1,0.5,2.1,1.1,3,1.9c0.2,0.7,0.2,1.4,0.2,2.1l2.7,0.2l0.8-0.9l-0.8-1.8c-0.3-0.1-0.7-0.1-1-0.1c-0.5-0.1-0.9-0.5-1.2-0.9  c-0.6-0.6-1.3-1.1-2.1-1.5l-0.3-2.4c0,0,1.8-1.2,2.4-1.7s1.2-3.4,1.5-4.2c0.6-1.1,1.5-2.1,2.6-2.8c0.5,0,2,3.3,2,3.3  c0.2-0.4,0.3-0.7,0.4-1.1c0-1,0-1.9,0.1-2.9c0.4-0.7,1-3.5-0.4-4.4s-4.3,1.7-4.8,2.3c-0.7,0.7-1.5,1.1-2.4,1.2  c-1,0.2-3.3-0.5-4.1-0.7s-2.4-0.4-2.9-0.5c-0.8-1.2-1.9-2.2-3.2-2.8c-0.4,0-0.7,1.5-0.7,1.5s-0.6-0.8-1-0.8s-0.3,1-0.3,1  c-0.5-0.3-1.1-0.5-1.7-0.5c-0.7,0,0,2.3,0,2.3s-3.2-0.6-3.5-0.6s-4.4-1.4-5.9-1.9c-0.1,0.6-0.1,1.3-0.1,2l0.2,2.5l-0.3,0.9  L176.1,36.8z"></path>
<path class="st3" d="M175.8,31.7c-0.1-0.6-0.1-1.2,0.2-1.7c0,0,6.2,2.2,6.8,2.2s2.4,0.5,2.4,0.5s-0.5-2.2,0.2-2.4s1.6,0.7,1.6,0.7  s-0.3-1.3,0.1-1.3s1,0.8,1,0.8s0.1-1.1,0.7-1.3s2.3,1.2,3.3,3c1.3,0,2.5,0.2,3.7,0.5c0.8,0.2,3.4,0.9,4.6-0.1s3.9-4,5.6-3.1  s0.9,3.6,0.3,4.7c0.1,1.6,0.2,2.9-0.4,3.9c-0.4-1.3-1.1-2.4-2-3.4c-1.3,0.8-2.3,2-2.7,3.5c-0.4,1.5-1,2.9-1.8,4.2  c-0.5,0.5-1.2,0.9-1.8,1.2c0,0.8,0.2,1.7,0.5,2.5c0.8,0.5,1.5,1.1,2.2,1.8c0.5,0.4,1,0.6,1.6,0.6c0,0,1,1.5,1,1.9s-1,0.9-1,0.9  s-0.7,0.1-0.9-0.1c-0.7,0-1.6-0.1-1.6-0.4c-0.4,0.1-0.8,0.6-1.4,0.4s-0.6-0.6-0.8-0.9c-0.7-0.8-1.6-1.5-2.7-1.9  c-1.4-0.5-1.9-1-1.9-1.3s-0.2-2.4-0.2-2.4s-2.8-0.7-3.4-0.9s-2.5-1.5-3.6-1.5s-3.5,1.3-4.4,1.6c-1,0.3-2,0.3-3,0  c-0.7-0.3-2-0.2-2-0.5v-1.1c-0.1-0.7-0.2-1.4-0.1-2c0.1-0.4,0.1-0.7-0.1-1.1c-0.1-0.7-0.1-1.4,0.1-2.1c0.1-0.3-0.2-1.5-0.2-1.7  s0.2-0.5,0.4-0.7c-0.3-0.9-0.4-1.8-0.3-2.7L175.8,31.7z"></path>
<path class="st4" d="M175.8,31.7c1.8,0.2,3.5,0.7,5.2,1.3c0.8,0.4,2.6,0.9,2.6,0.9"></path>
<path class="st4" d="M176.2,34.7c1.3-0.1,2.6,0.1,3.9,0.4c1.2,0.2,2.4,0.3,3.6,0.3"></path>
<path class="st4" d="M176.1,36.7c1.2,0.2,3,0.3,4.1,0.5s3,0.4,3,0.4"></path>
<path class="st4" d="M176.1,40c1-0.3,2.1-0.5,3.1-0.6c1.2,0,2.8,0,3.4-0.1s1.1-0.2,1.1-0.2"></path>
<path class="st4" d="M176.1,42.4c1.2-0.5,2.4-0.8,3.7-0.7c1.7,0,3.3-0.2,4.9-0.6"></path>
<path class="st4" d="M187.1,31c0.6,1.3,3.5,6.1,5,7"></path>
<path class="st4" d="M188.2,30.5c1.1,1.6,3.9,5.9,5.9,6.6"></path>
<path class="st4" d="M192.2,32.1c0.6,1.1,1.5,2,2.5,2.8c0.6,0.3,1.2,0.7,1.7,1.1c0.3,0.2,0.4,0.5,0.4,0.9"></path>
<path class="st3" d="M185.2,32.7c0.5,0.9,1.5,3,2,4c0.9,1.7,2.4,2.9,4.3,3.5c2.2,0.6,5,1.4,6.4-0.3s0.8-2.6,0.4-3.2  c-0.2-0.3-0.5-0.6-0.9-0.6"></path>
<path class="st4" d="M194.1,40.8c-0.3-0.4-0.6-0.7-1-1c-1.5-0.7-2.8-1.7-4-2.8c-1.6-1.6-2.9-3.4-4-5.4"></path>
<path class="st4" d="M205.1,32.5c-0.3-0.1-0.9-0.5-0.9-0.7s0.6-0.9,1.1-0.6c0.3,0.2,0.4,0.7,0.2,1C205.4,32.3,205.3,32.4,205.1,32.5  z"></path>
<path class="st4" d="M206,37.7c0-0.7-0.1-1.5-0.3-2.2"></path>
<path class="st4" d="M194.9,44.2c0.2,0.8,0.5,1.6,0.9,2.3c0.2,0.2,1.9,1,2.4,1.3s1.3,0.7,1.3,1.2s0.1,1.8,0.1,1.8"></path>
<path class="st4" d="M200.2,48.7c0.5,0.7,0.9,1.5,1,2.4"></path>
<path class="st4" d="M201.5,49.1c0.4,0.5,0.7,1.1,0.8,1.8"></path>
<path class="st4" d="M194.9,44.3c-0.1,0.9-0.4,2.5,0.4,3s2.2,1,2.6,1.4c0.4,0.5,0.6,1.1,0.7,1.7c0,0.2,0,0.5,0,0.7"></path>
<path class="st4" d="M204.8,42.1c-0.6,0.4-1.3,0.6-2,0.5c-0.9-0.1-1.5-1-1.3-1.8c0,0,0,0,0-0.1c0.1-1.1,0.4-2.4,1.9-2.2  c0.6,0.2,1.1,0.4,1.5,0.8c1.1-0.6,2.3-1,3.5-1c1,0,2.1,0.3,3,0.9c0.5-0.3,3.2-1.7,3.7,0.8s-1.6,3.1-3.2,2.1"></path>
<path class="st4" d="M202.6,39.5c0.5-0.1,1,0.1,1.4,0.4"></path>
<path class="st4" d="M211.8,40.2c0.5-0.3,1.1-0.8,1.6-0.7"></path>
<path class="st4" d="M214,40.1c0.1,0.4,0.1,0.7,0,1.1"></path>
<path class="st4" d="M202.7,41.4c-0.1-0.4-0.1-0.7,0-1.1"></path>
<path class="st4" d="M205.5,40.2c-1,2.3-0.8,5,0.7,7"></path>
<path class="st4" d="M205.8,40.1c1.1-0.6,4.4-0.6,6,0.2"></path>
<path class="st4" d="M207,39.8c-0.9,2.3-0.8,4.8,0.2,7.1"></path>
<path class="st4" d="M209.1,39.8c0.7,1.3,1,2.8,0.8,4.3c-0.1,1-0.4,1.9-0.7,2.8"></path>
<path class="st4" d="M211.3,40.2c0.5,1.4,0.7,2.9,0.5,4.4c-0.2,0.9-0.6,1.8-1,2.7"></path>
<path class="st4" d="M211.8,47.5c-1.9-0.7-4-0.7-5.9-0.3c-0.4,0.1-0.8,0.1-1.2,0.3c0,0-1.6,0.5-1.6,1.9s5.1,1.7,5.1,1.7  c2.8-0.1,5-0.5,5.3-1.8c0.1-0.6-0.5-1.5-1.5-1.9c0.9-1.4,1.3-3.1,1.3-4.8"></path>
<path class="st3" d="M214.2,50c0,0-0.6,1.5-0.3,1.7c0.4,0.1,0.8,0,1.1-0.3c0.1-0.6,0.1-1.2,0.1-1.8c0,0,0.2,2.5,0.9,1.8  c0.5-0.4,0.3-1.8,0.3-2.2s0-0.1,0.5-0.8c0.7-1,1.7-1.9,2.8-2.5c1-0.5,2.2-0.5,2.1,0s-1.1,1.3-1.5,1.5c-0.3,0.3-0.6,0.7-0.6,1.1  c-0.4,0.1-0.8,0.4-1.1,0.8c0,0-0.6,2.1-0.6,2.2s0.5,0.2,0.5,0.2h0.6c0.2,0.3,0.5,0.5,0.7,0.8c0.1,0.2,0.9,0.6,1.3,0.1  s0.2-1.2,0.3-2.2s0.3-1.8,0.9-2.1s4-1.6,4-1.6s0.2-0.1,0.2-0.5s-0.5-1.7-0.3-1.9s0.2-0.5,0.3-0.5c1.1,0.1,2.2,0.1,3.2,0.1  c0.6,0,1.2-0.2,1.7-0.3c0.3-0.3,0.8-0.4,1.2-0.3c0.7,0.1,3.7,1.4,5.6,1.5s3.7-0.1,3.7-0.5c0-0.5,0-1-0.2-1.4  c0.2-0.9,0.3-1.7,0.3-2.6c0,0-0.1-0.1-0.1-1c0-0.7-0.2-1.5-0.4-2.2c-0.1-0.9-0.1-1.8,0-2.7c0.1-0.3,0.2-0.7,0.2-1  c-0.1-0.4-0.3-0.9-0.4-1.3c-0.1-0.3-0.1-0.5-0.1-0.8c0,0,0.2-0.8,0.2-1.3c0-0.5-0.1-1-0.3-1.4c-0.7,0.4-1.4,0.8-2.2,1.1  c-1.5,0.6-3.1,1.1-4.8,1.4c-0.8,0.1-1.5,0.2-2.2,0.3c0.2-0.4,0.4-0.8,0.6-1.1c0.4-0.6,0.9-1,0.8-1.6s-0.4-1-0.8-1  c-0.4,0.1-0.8,0.2-1.2,0.4c-0.4-0.3-0.9-0.5-1.5-0.4c-0.7,0.3-1.4,0.7-2.1,0.9c-1,0.2-2,0.4-2.9,0.8c-2.1,0.8-4.4,1.3-6.6,1.5  c-2,0-4-0.2-5.9-0.8c-2.4-0.6-2.9-0.8-3.7,0.4c-0.3,1.5,0,3,0.7,4.3c0.3,0.9,0.7,1.7,1.2,2.5c0.2,0.3,0.4,0.5,0.6,0.7  c0.3-0.7,0.4-1.4,0.3-2.2c-0.1-1.2,0.2-1.5,0.6-1.7c0.8-0.2,1.6,0,2.1,0.7c0.5,0.8,0.9,1.7,1.1,2.6c0.1,0.5,0.2,1,0.5,1.4  c0.3,0.4,0.5,1,0.5,1.5c0,1.1,0.3,2.1,0.8,3.1c0.3,0.4,0.7,0.8,1.1,1l0.4,0.1c0,0-1.5,1.1-2.4,1.7s-0.5,1.4-0.9,1.8  c-0.3,0.2-0.6,0.4-0.9,0.6c-0.3,0.2-0.6,0.3-0.9,0.4"></path>
<path class="st4" d="M210.6,34.1c0.1,0.5,0.2,1,0.4,1.4c0.2,0.5,0.4,0.9,0.5,1.4"></path>
<path class="st4" d="M210,31.1c-0.2,0.4-0.2,1.7,0.4,1.8s0.6-0.8,0.4-1.2S210.1,31.1,210,31.1z"></path>
<path class="st3" d="M222.3,30.4c-2,1.3-4,2.3-4.3,4c-0.3,1.3,0.3,2.7,1.4,3.5c0.5,0.4,1.1,0.8,1.8,0.9c0,0,1-0.2,2.1-0.5  c1.9-0.6,3.6-1.7,5.1-3c1.2-1.3,3.4-3.6,4.1-3.9"></path>
<path class="st4" d="M221.1,34.2l-0.3-0.9c0.9-0.7,1.9-1.3,3-1.6c1.4-0.5,2.7-1.1,3.9-2c0.5-0.5,1.2-1.2,1.5-1.5"></path>
<path class="st4" d="M231.5,28.1c-0.3,0.8-0.7,1.5-1.2,2.2c-0.2,0.1-0.4,0.1-0.6,0.1c-1.1,0.9-2.2,1.8-3.4,2.6  c-1,0.5-4.1,2.4-4.4,2.4c-0.2-0.2-0.3-0.4-0.5-0.6"></path>
<path class="st4" d="M221.7,36.4c0,0.3,0.1,0.6,0.2,0.9c1.6-0.7,3.1-1.5,4.6-2.4c1.2-0.6,2.2-1.5,3.1-2.5c0.4-0.7,1-1.2,1.4-1.8  l1.1-1.7"></path>
<path class="st4" d="M219.4,49.4c-0.3,0.7-0.5,1.4-0.5,2.2"></path>
<path class="st4" d="M220.7,49.6h-0.3c0,0,0,0.7-0.1,1c0,0.7-0.2,1.4-0.4,2"></path>
<path class="st4" d="M231.8,32.8c2.3-0.3,4.6-0.7,6.9-1.3c0.9-0.3,1.8-0.4,2.7-0.5"></path>
<path class="st4" d="M232.1,34.5c1.9,0.3,3.7,0.3,5.6,0.2c1.4-0.2,2.7-0.5,4-1"></path>
<path class="st4" d="M231.3,36.2c0.8,0.2,1.6,0.4,2.5,0.5c1,0,1.5,0,2.6,0.1c0.9,0.2,1.9,0.3,2.9,0.4c0.8-0.1,2.4-0.4,2.4-0.4"></path>
<path class="st4" d="M231.3,38.4c2.1,0.2,2.9,0.4,4.2,0.6l6.6,1"></path>
<path class="st4" d="M231.5,41.1c1.4,0.6,2.8,1,4.3,1.1c1.8,0.2,3,0.6,3.9,0.5c0.7,0,1.4,0,2,0.1"></path>
<path class="st5" d="M187.6,97.1v6.6c0,0-5.5,4.9-6.8,7.8l1.4,0.9c0,0,1.8-3.4,4.1-4.6l2,2.7l2.7-1.5l2.2,5.4l2.1-0.7  c-0.5-1.4-1-2.7-1.6-4c-0.7-1.3-3.3-5-3.3-5.8s-0.2-5.4,0.2-6.8"></path>
<polygon class="st6" points="189.1,104.8 187.6,106.5 188.5,107.9 190.2,107 "></polygon>
<path class="st5" d="M225.4,97.5c0,0,0.5,9.8,0.1,11.1s-2.4,1.5-3.2,0.9s-1.9-3.8-0.5-5.4s2.4-1.4,2.4-1.4c0.3-0.7,0.4-1.5,0.2-2.2  c-1.7,0.1-5,2.3-5.1,6.5s3,6,4.5,5.8c1.2-0.3,2.4-0.8,3.4-1.5c0,0,2.9,1.5,4.5,0.7c2-1,2.7-3.4,2.1-6.6c-0.5-2.7-2.7-4.8-4.6-5  c-0.6,0.4-0.9,1.2-0.6,1.9c0.2,0.5,3.2,0.6,3.9,3.7c0.4,1.6,0.5,3.8-2.6,3.8c-2.5-0.1-2.4-3.3-2.5-4.9c-0.1-2.4,0-4.7,0.2-7.1"></path>
<path class="st7" d="M221.6,51.4c0.8,0.1,1.6,0.3,2.3,0.7c1.5,1,2.5,2.3,2.4,3.3c-0.1,1.7-1.6,3-3.3,3c-1.2,0.1-2.2-0.8-2.3-2  c0-0.1,0-0.2,0-0.4c0.2-1.2,1.3-2.1,2.6-1.9c0.3,0,0.5,0.1,0.7,0.2c1.2,0.6,0.3,2.1-0.1,2.3c-0.6,0.5-1.9-0.8-0.6-1"></path>
<path class="st7" d="M196.4,55.5c0.3,0.4,0.3,1-0.1,1.3c-0.2,0.2-0.5,0.3-0.8,0.2c-1.1,0-1.2-1.4-0.7-1.9s1.9-1.5,3.4,0.7  c0.6,1.8-1.5,3.2-2.4,3.1c-2-0.1-3.5-1.8-3.6-3.8c0.1-1.9,0.7-3.1,4.4-3.8c2.4-0.5,4.9-0.4,7.2,0.4c1.6,0.5,3.2,0.8,4.8,0.9  c1.4,0,6.3-1.1,8.1-1.4c0.4-0.1,0.8-0.1,1.2-0.1"></path>
<path class="st7" d="M175.5,78.6c0.4,0.5,1,0.9,1.6,1.1l25,2.3c-0.2-1.7-3.5-26.1-3.5-26.1c-0.4-0.9-1.3-1.5-2.3-1.4"></path>
<path class="st7" d="M176.6,77.5c0.3-0.6,0-1.3-0.9-1s-1.1,2.5,0.5,2.5c1.3,0,2.3-1,2.3-2.2c0-0.1,0-0.2,0-0.3c0-1.5-1.5-2.3-3-2.7  s-2.9,0.4-3.5,2.3s-0.8,6.9,0.2,9.4s1.2,4,0.9,4.8c-0.2,1-1.4,5.5-1.7,6.8c-0.5,1.5-0.3,3.1,0.5,4.5c0.5,0.6,2.5,2.7,4.3,2.2  s1.8-1.3,1.9-2.2c0.1-1.2-0.8-2.2-2-2.3c-0.9-0.1-1.6,0.6-1.7,1.5c0,0.2,0,0.4,0.1,0.7c0.4,0.6,1.6,1,1.8,0.2s-0.5-0.7-0.5-0.7"></path>
<path class="st8" d="M174.3,100.1c0,0,0.3-1.6,2.5-1.8c1.7-0.1,25-2.8,25-2.8l-4.3,28.2c0,0-0.5,1.7-1.6,1.8"></path>
<path class="st7" d="M195.6,124c-0.4-0.6-1.5-0.6-1.5,0.4s0.8,1.7,2.4,1c1.1-0.6,0.5-2.2,0.2-2.7c-0.8-0.9-2.1-1.2-3.2-0.7  c-1.5,0.6-2.6,2.1-2,3.8s1.5,3.1,4.8,3.3c2.6,0.2,5.2-0.3,7.5-1.5c1.1-0.6,2.4-0.9,3.6-0.9c1.9,0.1,3.7,0.5,5.4,1.1  c2.9,0.9,5.2,1.2,7.5,0.5s3.8-2.5,4-3.8c0.1-1.7-1.1-3.2-2.8-3.3c0,0-0.1,0-0.1,0c-2.3-0.4-3.2,1.9-2.4,2.9c0.6,0.9,3.1,1.5,3.3,0.2  c0.2-0.6-0.2-1.3-0.8-1.6c0,0-1.2-0.2-0.7,0.9"></path>
<path class="st7" d="M219.7,124.9c-0.8-0.3-1.4-0.9-1.8-1.6l-2.3-27.1l22,2.7c0,0-2.7,3.4,1.6,4.5c3.7,0.8,5.1-4.2,5.1-4.2  c0.6-1.3,0.8-2.8,0.5-4.3c-0.2-1.5-1.7-5.2-1.7-6.3s1.5-5.5,1.5-8.1s-1.2-5.7-3-6.4s-5,0.4-4.8,2.2c0.1,1.4,1.3,2.4,2.6,2.3  c0.2,0,0.4,0,0.5-0.1c1.1-0.5,1.8-1.3,1.5-2c-0.3-0.7-1.1-1-1.9-0.8c-0.6,0.3-0.4,1.4,0.5,1.1"></path>
<path class="st7" d="M238.9,78.8l-1.5,0.6l-21.9,2.4l4.4-25.3c0.3-1,1.1-1.8,2.2-2"></path>
<path class="st7" d="M237.3,98.9c0,0,3.4,0,3.1,1.7c0,0.7-0.6,1.2-1.3,1.2c-0.2,0-0.3,0-0.5-0.1"></path>
<path class="st8" d="M213.1,89.3c0,2.4-1.9,4.3-4.3,4.3c-2.4,0-4.3-1.9-4.3-4.3s1.9-4.3,4.3-4.3c0,0,0,0,0,0  C211.1,85,213.1,86.9,213.1,89.3z"></path>
<path class="st9" d="M210.4,89.3c0,0.9-0.7,1.7-1.7,1.7s-1.7-0.7-1.7-1.7s0.7-1.7,1.7-1.7c0,0,0,0,0,0  C209.7,87.6,210.4,88.4,210.4,89.3z"></path>
<path class="st10" d="M208.9,60.2c0.1,1.8-1.3,3.4-3.1,3.5c-1.8,0.1-3.4-1.3-3.5-3.1c-0.1-1.8,1.3-3.4,3.1-3.5c0.1,0,0.1,0,0.2,0  C207.4,57,208.9,58.4,208.9,60.2z"></path>
<path class="st11" d="M215.7,60.2c0,1.7-1.3,3-2.9,3.1c-1.7,0-3-1.3-3.1-2.9c0-1.7,1.3-3,2.9-3.1c0,0,0.1,0,0.1,0  C214.3,57.3,215.6,58.5,215.7,60.2z"></path>
<path class="st12" d="M208.7,66.5c0,1.5-1.2,2.7-2.7,2.7s-2.7-1.2-2.7-2.7c0-1.5,1.2-2.7,2.7-2.7S208.7,65,208.7,66.5L208.7,66.5z"></path>
<path class="st12" d="M214.7,66.5c0,1.5-1.2,2.7-2.7,2.7c-1.5,0-2.7-1.2-2.7-2.7c0-1.5,1.2-2.7,2.7-2.7  C213.5,63.8,214.7,65,214.7,66.5C214.7,66.5,214.7,66.5,214.7,66.5z"></path>
<path class="st13" d="M208.6,72.2c-0.1,1.3-1.2,2.3-2.5,2.2c-1.3-0.1-2.3-1.2-2.2-2.5c0.1-1.2,1.1-2.2,2.4-2.2  C207.6,69.7,208.6,70.8,208.6,72.2z"></path>
<path class="st14" d="M214.2,71.9c-0.1,1.3-1.2,2.2-2.4,2.1c-1.3-0.1-2.2-1.2-2.1-2.4c0.1-1.2,1.1-2.1,2.3-2.1  C213.2,69.5,214.2,70.6,214.2,71.9C214.2,71.9,214.2,71.9,214.2,71.9z"></path>
<path class="st12" d="M208.7,77.5c0,1.3-1,2.3-2.3,2.3s-2.3-1-2.3-2.3s1-2.3,2.3-2.3l0,0C207.7,75.3,208.7,76.3,208.7,77.5z"></path>
<path class="st12" d="M213.5,77.5c0,1.3-1,2.3-2.3,2.3s-2.3-1-2.3-2.3s1-2.3,2.3-2.3l0,0C212.5,75.3,213.5,76.3,213.5,77.5z"></path>
<path class="st15" d="M208.6,82c0.1,1.1-0.7,2-1.7,2.1s-2-0.7-2.1-1.7c-0.1-1.1,0.7-2,1.7-2.1c0.1,0,0.1,0,0.2,0  C207.6,80.2,208.5,81,208.6,82z"></path>
<path class="st15" d="M212.9,82c0.1,1.1-0.7,2-1.7,2.1c-1.1,0.1-2-0.7-2.1-1.7c-0.1-1.1,0.7-2,1.7-2.1c0.1,0,0.1,0,0.2,0  C212,80.2,212.9,81,212.9,82C212.9,82,212.9,82,212.9,82z"></path>
<path class="st14" d="M237.9,88.9c-1.6,0-2.8-1.2-2.9-2.7s1.2-2.8,2.7-2.9s2.8,1.2,2.9,2.7c0,0,0,0,0,0.1  C240.7,87.6,239.5,88.9,237.9,88.9C237.9,88.9,237.9,88.9,237.9,88.9z"></path>
<path class="st13" d="M238.1,95.4c-1.6,0-2.9-1.3-2.9-2.9s1.3-2.9,2.9-2.9s2.9,1.3,2.9,2.9S239.7,95.4,238.1,95.4L238.1,95.4z"></path>
<path class="st15" d="M232.2,89.1c-1.5,0.2-2.8-0.9-3-2.4c-0.2-1.5,0.9-2.8,2.4-3c1.5-0.2,2.8,0.9,3,2.4c0,0.1,0,0.2,0,0.3  C234.7,87.8,233.6,89,232.2,89.1z"></path>
<path class="st13" d="M232.1,95c-1.5,0.1-2.8-1-2.9-2.5c-0.1-1.5,1-2.8,2.5-2.9c1.5-0.1,2.8,1,2.9,2.5c0,0.1,0,0.1,0,0.2  C234.6,93.7,233.5,94.9,232.1,95z"></path>
<path class="st11" d="M226.1,89c-1.3-0.1-2.3-1.2-2.3-2.5c0.1-1.3,1.2-2.3,2.5-2.3c1.3,0.1,2.3,1.1,2.3,2.4  C228.7,88,227.5,89.1,226.1,89C226.2,89.1,226.2,89.1,226.1,89z"></path>
<path class="st12" d="M226.1,94.7c-1.4,0-2.6-1.1-2.6-2.5s1.1-2.6,2.5-2.6s2.6,1.1,2.6,2.5c0,0,0,0,0,0  C228.7,93.5,227.6,94.7,226.1,94.7z"></path>
<path class="st12" d="M220.8,89.1c-1.3,0-2.3-1-2.3-2.3c0-1.3,1-2.3,2.3-2.3c1.3,0,2.3,1,2.3,2.3c0,0,0,0,0,0  C223.1,88,222.1,89.1,220.8,89.1z"></path>
<path class="st12" d="M220.8,93.9c-1.3,0-2.3-1-2.3-2.3c0-1.3,1-2.3,2.3-2.3c1.3,0,2.3,1,2.3,2.3c0,0,0,0,0,0  C223.1,92.9,222.1,93.9,220.8,93.9z"></path>
<path class="st12" d="M216.2,88.9c-1.1,0-1.9-0.9-1.9-1.9s0.9-1.9,1.9-1.9c1.1,0,1.9,0.9,1.9,1.9C218.1,88.1,217.3,88.9,216.2,88.9  L216.2,88.9z"></path>
<path class="st12" d="M215.9,93.3c-1.1,0-1.9-0.9-1.9-1.9c0-1.1,0.9-1.9,1.9-1.9c1.1,0,1.9,0.9,1.9,1.9c0,0,0,0,0,0  C217.8,92.5,217,93.3,215.9,93.3z"></path>
<path class="st13" d="M179.8,88.6c1.7-0.1,3.1,1.1,3.2,2.8c0.1,1.7-1.1,3.1-2.8,3.2s-3.1-1.1-3.2-2.8c0-0.1,0-0.2,0-0.2  C176.9,90,178.2,88.7,179.8,88.6z"></path>
<path class="st13" d="M179.6,82.4c1.6,0,2.8,1.4,2.8,2.9c0,1.6-1.4,2.8-2.9,2.8c-1.6,0-2.8-1.3-2.8-2.9  C176.7,83.7,178,82.4,179.6,82.4C179.6,82.4,179.6,82.4,179.6,82.4z"></path>
<path class="st13" d="M185.9,88.8c1.5-0.1,2.8,1,2.9,2.5c0.1,1.5-1,2.8-2.5,2.9c-1.5,0.1-2.8-1-2.9-2.5c0-0.1,0-0.1,0-0.2  C183.3,90.1,184.4,88.9,185.9,88.8z"></path>
<path class="st13" d="M185.8,82.8c1.4,0,2.7,1.1,2.7,2.5c0,1.4-1.1,2.7-2.5,2.7c-1.4,0-2.7-1.1-2.7-2.5c0,0,0-0.1,0-0.1  C183.2,84,184.4,82.9,185.8,82.8C185.8,82.8,185.8,82.8,185.8,82.8z"></path>
<path class="st11" d="M191.5,88.7c1.4,0,2.5,1.1,2.5,2.5s-1.1,2.5-2.5,2.5c-1.4,0-2.5-1.1-2.5-2.5S190.1,88.7,191.5,88.7  C191.5,88.7,191.5,88.7,191.5,88.7z"></path>
<path class="st16" d="M191.6,83.6c1.2,0.1,2.1,1.1,2,2.3c-0.1,1.2-1.1,2.1-2.3,2c-1.1-0.1-2-1-2-2.2  C189.3,84.5,190.4,83.6,191.6,83.6z"></path>
<path class="st14" d="M197,89.1c1.2,0,2.2,0.9,2.2,2c0,1.2-0.9,2.2-2,2.2s-2.2-0.9-2.2-2c0,0,0-0.1,0-0.1  C194.9,90.1,195.8,89.1,197,89.1C197,89.1,197,89.1,197,89.1z"></path>
<path class="st12" d="M196.8,84c1.3,0,2.3,1,2.3,2.3s-1,2.3-2.3,2.3s-2.3-1-2.3-2.3l0,0C194.5,85,195.5,84,196.8,84z"></path>
<path class="st12" d="M201.4,89c1.1,0,1.9,0.9,1.9,1.9s-0.9,1.9-1.9,1.9c-1.1,0-1.9-0.9-1.9-1.9C199.4,89.9,200.3,89,201.4,89  C201.3,89,201.3,89,201.4,89z"></path>
<path class="st17" d="M201.5,84.6c0.9,0,1.7,0.8,1.6,1.8s-0.8,1.7-1.8,1.6c-0.9,0-1.6-0.8-1.6-1.7C199.7,85.3,200.5,84.6,201.5,84.6  C201.5,84.6,201.5,84.6,201.5,84.6z"></path>
<path class="st13" d="M209.1,119.2c-0.1-1.7,1.1-3.1,2.8-3.2c1.7-0.1,3.1,1.1,3.2,2.8s-1.1,3.1-2.8,3.2c-0.1,0-0.2,0-0.2,0  C210.5,122,209.2,120.8,209.1,119.2z"></path>
<circle class="st15" cx="204.9" cy="119" r="2.8"></circle>
<path class="st12" d="M209,112.9c0-1.5,1.2-2.7,2.7-2.7s2.7,1.2,2.7,2.7c0,1.5-1.2,2.7-2.7,2.7C210.2,115.6,209,114.4,209,112.9  C209,112.9,209,112.9,209,112.9z"></path>
<path class="st13" d="M202.9,112.2c-0.1-1.5,1-2.8,2.5-2.9s2.8,1,2.9,2.5s-1,2.8-2.5,2.9c-0.1,0-0.1,0-0.2,0  C204.2,114.7,203,113.6,202.9,112.2z"></path>
<path class="st17" d="M209,107.4c-0.1-1.3,1-2.4,2.3-2.5c1.3-0.1,2.4,1,2.5,2.3c0.1,1.3-1,2.4-2.3,2.5c0,0-0.1,0-0.1,0  C210.1,109.7,209,108.7,209,107.4z"></path>
<path class="st11" d="M203.3,106.8c-0.1-1.4,1-2.6,2.4-2.7c1.4-0.1,2.6,1,2.7,2.4c0.1,1.4-1,2.6-2.4,2.7c-0.1,0-0.1,0-0.2,0  C204.5,109.2,203.4,108.1,203.3,106.8C203.3,106.8,203.3,106.8,203.3,106.8z"></path>
<path class="st11" d="M208.9,101.7c-0.1-1.3,0.9-2.3,2.2-2.4c1.3-0.1,2.3,0.9,2.4,2.2s-0.9,2.3-2.2,2.4c0,0-0.1,0-0.1,0  C210,103.9,209,102.9,208.9,101.7C208.9,101.7,208.9,101.7,208.9,101.7z"></path>
<path class="st15" d="M204.1,101.5c-0.2-1.3,0.7-2.4,2-2.6c1.3-0.2,2.4,0.7,2.6,2c0.2,1.3-0.7,2.4-2,2.6c-0.1,0-0.2,0-0.3,0  C205.2,103.6,204.2,102.7,204.1,101.5z"></path>
<path class="st15" d="M209.2,97.1c0-1,0.8-1.8,1.8-1.9c1,0,1.8,0.8,1.9,1.8c0,1-0.8,1.8-1.8,1.9c0,0,0,0,0,0  C210.1,98.9,209.3,98.1,209.2,97.1z"></path>
<path class="st12" d="M204.7,97c0-1.1,0.8-1.9,1.9-1.9c1.1,0,1.9,0.8,1.9,1.9c0,1.1-0.8,1.9-1.9,1.9c0,0,0,0,0,0  C205.6,98.9,204.7,98.1,204.7,97z"></path>
<path class="st18" d="M227.9,108.9c0.7,1.3,2.1,2,3.5,1.8"></path>
<path class="st18" d="M225.3,109c-0.7,1-0.9,2.2-3.5,1.7"></path>
<path class="st4" d="M212.2,49c0,0.6-1.7,1.2-3.8,1.2s-3.8-0.5-3.8-1.2s1.7-1.2,3.8-1.2S212.2,48.3,212.2,49z"></path>
<line class="st4" x1="205.8" y1="48.1" x2="205.8" y2="49.5"></line>
<line class="st4" x1="207.1" y1="47.9" x2="207.1" y2="50.1"></line>
<line class="st4" x1="208.4" y1="47.8" x2="208.4" y2="50.1"></line>
<line class="st4" x1="209.9" y1="48.1" x2="209.9" y2="50.1"></line>
<line class="st4" x1="211.2" y1="48.1" x2="211.2" y2="49.7"></line>
<path class="st4" d="M204.9,47.3c-0.9-1.5-1.8-2.6-1.4-4.6"></path>
<path class="st4" d="M212.8,50.2c0,0.5,0,1.1,0.2,1.6"></path>
<path class="st19" d="M263.2,76.2c0,35.5-24.6,64.4-54.9,64.4s-54.9-28.9-54.9-64.4s24.6-64.4,54.9-64.4S263.2,40.6,263.2,76.2z"></path>
<rect x="-93" y="-306" class="st20" width="595.3" height="841.9"></rect>
</svg>