<svg xmlns="http://www.w3.org/2000/svg" viewBox="0 0 258.66 120.07"><defs><style>.cls-1{fill:#be1622;}</style></defs><g id="Calque_2" data-name="Calque 2"><g id="Calque_1-2" data-name="Calque 1"><path d="M142,91.48H106.26l-7.19,27.86h-27L108.78,2.16h31.81l36.66,117.18h-28Zm-5.39-20.67L133.94,60q-2.52-8.81-4.86-18.69t-4.67-19.05h-.72q-2.16,9.34-4.4,19.14T114.53,60l-2.88,10.78Z"></path><path d="M170.06,2.16h42.77A81.62,81.62,0,0,1,230.72,4a40.16,40.16,0,0,1,14.55,6.29A30.69,30.69,0,0,1,255.07,22q3.58,7.28,3.59,17.88A40.22,40.22,0,0,1,255,57.69a34.46,34.46,0,0,1-10,12.4,42.19,42.19,0,0,1-14.55,7.19,64.45,64.45,0,0,1-17.62,2.34H196.48v39.72H170.06Zm41.16,56.43q21.56,0,21.56-18.69,0-9.16-5.48-12.94t-16.08-3.78H196.48V58.59Z"></path><path class="cls-1" d="M59.54,90.2a9.84,9.84,0,0,1-3.2,4q-4,3.06-12.31,3.06a36.51,36.51,0,0,1-15-3.42A56.79,56.79,0,0,1,15.1,85L0,103.18a59.75,59.75,0,0,0,20.4,12.67,65.71,65.71,0,0,0,22.91,4.22c2.26,0,4.43-.11,6.53-.32Z"></path><path class="cls-1" d="M11.46,55.44A38.08,38.08,0,0,0,19,62.18a45.5,45.5,0,0,0,8.72,4.68L43,73.33l6.92,3a32.4,32.4,0,0,1,5.39,2.88,11.31,11.31,0,0,1,3.41,3.5,9,9,0,0,1,1.17,4.68,11.53,11.53,0,0,1-.25,2.46L70.53,56.63a50,50,0,0,0-6.69-3.25L48.75,47.27c-2.52-1.08-4.85-2.07-7-3a37.7,37.7,0,0,1-5.66-2.87A13.19,13.19,0,0,1,32.3,38,7.65,7.65,0,0,1,31,33.43a9,9,0,0,1,4-7.82c2.69-1.85,6.32-2.79,10.87-2.79a32.43,32.43,0,0,1,12.76,2.43,51.35,51.35,0,0,1,11.51,6.92L83.61,15.46A51.13,51.13,0,0,0,66.09,4,54.57,54.57,0,0,0,45.87,0a50.09,50.09,0,0,0-16.8,2.7,41,41,0,0,0-13.21,7.45A33.78,33.78,0,0,0,7.23,21.3,31,31,0,0,0,4.18,34.87a32,32,0,0,0,2,11.59,30.39,30.39,0,0,0,5.31,9"></path></g></g></svg>