<svg xmlns="http://www.w3.org/2000/svg" viewBox="0 0 242.51 221.26"><defs><style>.cls-1{fill:#006eae;}</style></defs><g id="Calque_2" data-name="Calque 2"><g id="Calque_1-2" data-name="Calque 1"><polygon class="cls-1" points="227 180.9 242.51 165.76 225.97 166.72 221.8 151.65 209.68 170.29 189.47 177.2 200.25 188.32 193.61 205.52 210.12 194.62 225.69 200.55 227 180.9"></polygon><path class="cls-1" d="M192.38,192.14a72.89,72.89,0,0,1-24.55,10.08,92.72,92.72,0,0,1-19.92,2.08A115.12,115.12,0,0,1,130,202.84c-24.11-3.86-48-15-69.09-32.32a143.63,143.63,0,0,1-26.74-28.44,122.07,122.07,0,0,1-17.4-35c-4-13.48-5.28-26.46-3.69-38.6,1.79-13.57,7-25.79,15-35.32a64.75,64.75,0,0,1,14.46-13,74.12,74.12,0,0,1,17.74-8.51C72.1,7.74,85.8,6.48,99.88,8c25.84,2.77,52.21,13.87,74.26,31.26.81.65,1.59,1.32,2.38,2-.69-.67-1.37-1.35-2.08-2a154.08,154.08,0,0,0-33.65-24.37,136.47,136.47,0,0,0-19.32-8.38,126.47,126.47,0,0,0-20.61-5.12C86.79-.81,72.09-.54,57.91,3.39a83.27,83.27,0,0,0-20.37,8.66A75.41,75.41,0,0,0,20.22,26.32C10.05,37.52,3.75,51.93,1.28,66.64s-1.17,29.84,2.5,44a144.57,144.57,0,0,0,17.51,39.87,161,161,0,0,0,27.9,33.31,151.86,151.86,0,0,0,36.16,24.49A142.21,142.21,0,0,0,106,216.22a125.56,125.56,0,0,0,21.82,4.4c14.8,1.58,30.18.31,44.47-4.94a80.93,80.93,0,0,0,13.52-6.44Z"></path><path class="cls-1" d="M20,116.36l-9.41,35.28h0c-.37,1.53-1.56,3.25-3.6,5.17Q3.25,160.33,3.25,161c0,.73.66,1.1,2,1.1H51.4a141.16,141.16,0,0,1-17.26-20A124.6,124.6,0,0,1,20,116.36Z"></path><path class="cls-1" d="M88.17,54.3H27.71c-1.33,0-2,.36-2,1.1q0,.66,3.75,4.19A12.63,12.63,0,0,1,33,64.36l.05.19a4.41,4.41,0,0,1,.19,1.21v1.1l-9,33.71q.49,2,1.08,3.93a113,113,0,0,0,16.13,32.4,131.65,131.65,0,0,0,17,19.58L82.79,64.76h0c.37-1.53,1.56-3.25,3.6-5.17q3.75-3.53,3.75-4.19C90.15,54.66,89.49,54.3,88.17,54.3Z"></path><path class="cls-1" d="M222.72,58.7q-5.62-4.39-14.22-4.4H101.69c-1.33,0-2,.36-2,1.1q0,.66,3.75,4.19t3.75,6.17v1.1L84.59,151.64h0q-.56,2.3-3.61,5.17-3.75,3.52-3.75,4.19c0,.73.67,1.1,2,1.1H179.84a33.46,33.46,0,0,0,19-5.73q8.59-5.73,10.8-13.89c4.85-17.78,5-19.28,5-19.58,0-1.47-1-2.2-2.87-2.2h-42.1c-2.36,0-3.75,1-4.19,2.86l-6.79,26c-.44,1.92-1.84,2.87-4.19,2.87H137.07c-1.91,0-2.86-.73-2.86-2.2,0-.1,0-.25,0-.43L142,120.6l14.34-53.72c.44-1.78,1.83-2.66,4.18-2.66h17.59q2.64,0,2.64,2c0,2.5-6.71,22.23-6.71,25.16,0,1.47,1,2.21,2.86,2.21H219a3.91,3.91,0,0,0,4.19-2.87l4.73-16.78a18,18,0,0,0,.44-4A13.7,13.7,0,0,0,222.72,58.7Z"></path></g></g></svg>